<?xml version="1.0" encoding="UTF-8" standalone="no"?>
<svg xmlns:xlink="http://www.w3.org/1999/xlink" height="16.75px" width="20.85px" xmlns="http://www.w3.org/2000/svg">
  <g transform="matrix(1.0, 0.0, 0.0, 1.0, 10.55, 8.15)">
    <use data-characterId="417" height="16.75" transform="matrix(1.0, 0.0, 0.0, 1.0, -10.55, -8.15)" width="20.85" xlink:href="#shape0"/>
  </g>
  <defs>
    <g id="shape0" transform="matrix(1.0, 0.0, 0.0, 1.0, 10.55, 8.15)">
      <path d="M-5.95 -4.45 L-5.8 -4.45 -5.75 -4.7 -5.55 -4.5 -4.35 -4.7 -4.55 -5.0 -4.8 -5.3 -3.9 -5.7 -3.95 -6.15 -3.95 -6.2 Q-4.0 -6.8 -3.55 -7.0 L-2.25 -7.45 -2.2 -7.45 -0.75 -7.15 1.9 -7.95 1.95 -7.95 3.8 -8.15 5.5 -7.75 5.5 -7.7 5.55 -7.7 6.3 -7.15 7.45 -7.2 7.5 -7.2 7.9 -7.45 7.95 -7.45 8.0 -7.45 9.2 -7.65 Q9.75 -7.55 9.95 -6.9 10.3 -6.15 10.3 -5.05 L10.3 -5.0 9.75 -2.25 9.65 -1.9 8.75 -2.3 8.65 -2.2 7.95 -1.75 7.9 -1.35 8.3 -1.75 8.6 -1.95 8.75 -1.65 9.25 -0.45 9.05 0.3 9.05 0.35 8.75 1.0 8.7 1.05 8.05 1.9 7.95 1.95 6.55 2.0 5.35 3.75 5.1 3.6 3.3 8.6 0.45 4.25 0.45 4.75 0.45 4.85 0.4 4.85 Q0.2 5.25 -10.15 -0.6 L-10.55 -0.85 -9.6 -1.6 -9.8 -1.7 -9.65 -2.0 -8.65 -3.1 -6.1 -4.15 -5.85 -4.25 -5.8 -4.35 -5.95 -4.45 M-4.0 -4.8 L-4.1 -4.95 -4.15 -4.9 -4.2 -4.75 -4.0 -4.8" fill="#000000" fill-rule="evenodd" stroke="none"/>
      <path d="M3.2 3.55 L3.3 4.5 3.0 6.5 0.55 2.75 -2.0 -0.25 -0.4 3.75 -8.7 -1.25 -7.9 -2.15 -8.2 -2.2 -5.25 -3.4 -5.4 -1.9 -4.15 -1.8 -3.45 -1.0 -3.8 -2.6 -4.55 -2.6 -4.3 -3.5 -4.75 -4.15 -1.65 -4.7 -3.25 -5.05 -1.5 -5.95 Q-1.4 -6.15 -1.55 -6.15 L-1.85 -6.25 -3.0 -6.35 -2.45 -6.5 -1.4 -6.4 -1.05 -6.3 -0.65 -6.3 2.1 -7.05 3.4 -7.15 4.35 -7.0 5.0 -6.8 5.35 -6.6 5.25 -6.1 6.25 -6.4 7.5 -6.5 8.85 -6.35 9.25 -5.9 9.35 -4.95 8.65 -5.5 7.25 -5.75 6.0 -5.6 4.95 -4.75 4.45 -3.65 4.4 -2.55 4.75 -1.95 5.2 -1.6 5.85 -2.0 5.8 -1.1 6.25 -1.15 6.25 -0.8 7.0 -1.5 6.75 -0.2 7.15 -0.55 7.55 -0.35 7.75 -0.1 8.3 -0.65 8.15 0.05 7.7 1.0 7.2 1.15 6.15 0.85 4.55 0.7 4.55 0.75 5.6 1.05 3.4 1.8 0.45 -0.9 -0.2 -1.2 -2.55 -1.8 -0.55 -0.65 0.65 0.55 1.95 2.55 2.75 4.9 3.15 3.55 3.2 3.55 M2.7 -3.35 L1.25 -2.55 0.4 -2.45 -0.85 -3.2 -1.05 -3.4 -1.05 -3.35 Q-1.05 -2.75 -0.7 -2.4 L-0.1 -1.9 0.7 -1.8 Q1.2 -1.8 1.7 -2.15 L2.7 -3.35 M9.15 -4.35 L9.15 -3.95 8.9 -3.25 8.85 -3.2 8.8 -3.2 8.55 -3.7 Q8.45 -3.95 8.6 -4.0 L8.7 -4.05 8.95 -4.1 9.05 -4.25 8.95 -4.2 8.8 -4.2 8.0 -4.6 7.75 -4.6 7.35 -4.1 7.25 -4.0 7.25 -4.1 7.1 -4.75 7.0 -4.85 6.3 -4.8 6.15 -4.6 6.05 -4.2 6.0 -4.2 6.0 -4.25 5.85 -4.5 5.65 -4.55 5.05 -4.2 5.0 -4.2 5.0 -4.25 5.15 -4.55 5.55 -4.95 6.2 -5.25 8.2 -5.15 8.85 -4.85 9.15 -4.35 M4.35 -5.35 L4.35 -5.4 Q2.7 -5.25 1.55 -6.05 L1.7 -5.7 Q1.95 -5.15 2.35 -4.85 L2.35 -4.6 2.4 -4.45 2.55 -4.45 3.35 -4.7 4.25 -5.25 4.35 -5.35 M4.4 -5.55 L4.35 -5.85 4.45 -6.5 4.35 -6.55 4.15 -6.55 2.95 -6.25 2.8 -6.15 2.95 -6.1 3.6 -5.95 4.15 -5.7 4.4 -5.55" fill="#8cb5e6" fill-rule="evenodd" stroke="none"/>
    </g>
  </defs>
</svg>
