<?xml version="1.0" encoding="UTF-8" standalone="no"?>
<svg xmlns:xlink="http://www.w3.org/1999/xlink" height="22.35px" width="24.1px" xmlns="http://www.w3.org/2000/svg">
  <g transform="matrix(1.0, 0.0, 0.0, 1.0, 11.95, 11.1)">
    <use data-characterId="409" height="22.35" transform="matrix(1.0, 0.0, 0.0, 1.0, -11.95, -11.1)" width="24.1" xlink:href="#shape0"/>
  </g>
  <defs>
    <g id="shape0" transform="matrix(1.0, 0.0, 0.0, 1.0, 11.95, 11.1)">
      <path d="M4.7 -11.1 L5.4 -10.9 5.35 -10.9 11.6 -7.05 11.65 -7.05 12.1 -6.35 12.1 -6.4 Q12.25 -6.05 12.0 -5.55 L11.4 -4.4 10.95 -3.95 10.9 -3.95 10.75 -3.9 10.75 10.05 10.4 10.85 Q10.05 11.2 9.6 11.2 L9.3 11.25 -8.45 11.25 -8.7 11.2 -9.3 11.2 -10.15 10.85 -10.45 10.05 -10.45 -2.3 -11.0 -2.75 -11.75 -3.8 -11.95 -4.45 -11.85 -4.95 -11.4 -5.45 -5.05 -9.45 -4.5 -9.7 -3.8 -9.45 -1.05 -7.75 4.05 -10.9 4.7 -11.1" fill="#081a15" fill-opacity="0.49803922" fill-rule="evenodd" stroke="none"/>
      <path d="M4.05 -9.7 L4.6 -9.55 10.05 -6.2 10.05 -6.15 10.45 -5.6 10.4 -4.9 10.4 -4.85 9.85 -3.85 9.45 -3.5 9.5 -3.5 9.3 -3.4 9.3 8.7 9.0 9.4 8.3 9.7 8.05 9.75 -7.4 9.75 -7.6 9.7 -8.15 9.7 -8.85 9.4 -9.15 8.7 -9.15 -2.05 -9.65 -2.45 -10.3 -3.4 -10.45 -3.85 -10.45 -3.9 -10.35 -4.4 -10.0 -4.8 -4.5 -8.3 -4.45 -8.3 -3.95 -8.45 -3.4 -8.3 -1.0 -6.75 3.55 -9.55 4.05 -9.7" fill="#000000" fill-rule="evenodd" stroke="none"/>
      <path d="M-0.8 -0.9 L-0.8 -3.6 -3.45 -3.6 -3.45 -0.9 -0.8 -0.9 M-4.4 -0.9 L-4.4 -3.6 -7.15 -3.6 -7.15 -0.9 -4.4 -0.9 M5.65 8.7 L5.65 3.65 2.45 3.65 2.45 8.7 -2.3 8.7 -2.3 3.65 -5.6 3.65 -5.6 8.7 -8.15 8.7 -8.15 -3.4 -8.8 -3.0 -9.45 -3.95 -3.95 -7.45 -1.05 -5.55 4.05 -8.7 9.5 -5.35 8.95 -4.35 8.3 -4.75 8.3 8.7 5.65 8.7 M7.25 -0.9 L7.25 -3.6 4.55 -3.6 4.55 -0.9 7.25 -0.9 M3.55 -0.9 L3.55 -3.6 0.85 -3.6 0.85 -0.9 3.55 -0.9" fill="#8cb5e6" fill-rule="evenodd" stroke="none"/>
    </g>
  </defs>
</svg>
