<?xml version="1.0" encoding="UTF-8" standalone="no"?>
<svg xmlns:ffdec="https://www.free-decompiler.com/flash" xmlns:xlink="http://www.w3.org/1999/xlink" ffdec:objectType="frame" height="18.05px" width="25.05px" xmlns="http://www.w3.org/2000/svg">
  <g transform="matrix(1.0, 0.0, 0.0, 1.0, 12.15, 8.95)">
    <use ffdec:characterId="403" height="18.05" transform="matrix(1.0, 0.0, 0.0, 1.0, -12.15, -8.95)" width="25.05" xlink:href="#shape0"/>
  </g>
  <defs>
    <g id="shape0" transform="matrix(1.0, 0.0, 0.0, 1.0, 12.15, 8.95)">
      <path d="M4.9 -8.95 Q6.45 -8.95 7.55 -7.85 L8.15 -7.15 8.2 -7.0 Q8.65 -6.15 8.65 -5.15 L8.65 1.45 11.75 1.45 Q12.2 1.45 12.55 1.8 12.9 2.15 12.9 2.6 L12.9 4.25 12.55 5.1 11.75 5.4 1.4 5.4 Q1.25 6.75 0.25 7.8 L0.15 8.0 Q-1.1 9.1 -2.85 9.1 -4.1 9.1 -5.1 8.55 L-5.85 7.9 Q-6.85 6.8 -7.0 5.4 L-11.0 5.4 -11.8 5.1 Q-12.15 4.75 -12.15 4.25 L-12.15 -5.15 Q-12.15 -6.7 -11.05 -7.85 -9.9 -8.95 -8.35 -8.95 L4.9 -8.95" fill="#081a15" fill-opacity="0.49803922" fill-rule="evenodd" stroke="none"/>
      <path d="M6.7 -6.35 L6.8 -6.2 Q7.2 -5.45 7.2 -4.55 L7.2 1.2 9.9 1.2 Q10.3 1.2 10.6 1.5 L10.9 2.2 10.9 3.65 10.6 4.35 9.9 4.65 0.9 4.65 Q0.75 5.8 -0.1 6.7 L-0.2 6.85 Q-1.3 7.85 -2.8 7.85 -3.9 7.85 -4.75 7.3 L-5.3 6.9 -5.45 6.8 Q-6.3 5.85 -6.4 4.65 L-9.9 4.65 -10.6 4.35 -10.9 3.65 -10.9 -4.55 Q-10.9 -5.9 -10.0 -6.9 L-9.95 -6.9 -9.95 -6.95 Q-8.95 -7.85 -7.6 -7.85 L3.95 -7.85 Q5.3 -7.85 6.25 -6.9 L6.7 -6.3 6.7 -6.35" fill="#000000" fill-rule="evenodd" stroke="none"/>
      <path d="M-3.65 3.35 Q-4.0 3.7 -4.0 4.2 -4.0 4.7 -3.65 5.05 L-3.2 5.35 -2.8 5.4 Q-2.3 5.4 -1.9 5.05 -1.55 4.7 -1.55 4.2 L-1.6 3.8 -1.9 3.35 Q-2.3 2.95 -2.8 2.95 -3.3 2.95 -3.65 3.35 M-4.7 2.3 Q-4.0 1.65 -3.1 1.6 L-2.8 1.55 Q-1.7 1.55 -0.9 2.3 L-0.5 2.75 Q-0.1 3.4 -0.1 4.2 -0.1 5.3 -0.9 6.1 -1.7 6.85 -2.8 6.85 -3.6 6.85 -4.25 6.45 L-4.7 6.1 Q-5.45 5.3 -5.45 4.2 L-5.45 4.15 Q-5.45 3.1 -4.7 2.3 M-7.1 -4.6 L-7.65 -4.4 -7.85 -3.85 -7.85 -2.1 -7.65 -1.55 -7.1 -1.35 -0.95 -1.35 -0.95 -4.6 -7.1 -4.6 M5.55 -6.2 L5.85 -5.8 Q6.2 -5.25 6.2 -4.55 L6.2 2.2 9.9 2.2 9.9 3.65 0.65 3.65 0.05 2.15 -0.5 1.55 Q-1.5 0.65 -2.8 0.65 -4.1 0.65 -5.05 1.55 -6.05 2.35 -6.25 3.65 L-9.9 3.65 -9.9 -4.55 Q-9.9 -5.5 -9.25 -6.2 -8.55 -6.85 -7.6 -6.85 L3.95 -6.85 Q4.9 -6.85 5.55 -6.2 M4.45 -2.1 L4.45 -3.85 4.25 -4.4 3.7 -4.6 0.95 -4.6 0.95 -1.35 3.7 -1.35 4.25 -1.55 4.45 -2.1" fill="#8cb5e6" fill-rule="evenodd" stroke="none"/>
    </g>
  </defs>
</svg>
