<?xml version="1.0" encoding="UTF-8" standalone="no"?>
<svg xmlns:xlink="http://www.w3.org/1999/xlink" height="23.05px" width="18.5px" xmlns="http://www.w3.org/2000/svg">
  <g transform="matrix(1.0, 0.0, 0.0, 1.0, 9.2, 11.65)">
    <use data-characterId="401" height="23.05" transform="matrix(1.0, 0.0, 0.0, 1.0, -9.2, -11.65)" width="18.5" xlink:href="#shape0"/>
  </g>
  <defs>
    <g id="shape0" transform="matrix(1.0, 0.0, 0.0, 1.0, 9.2, 11.65)">
      <path d="M-4.25 -5.75 Q-3.85 -7.7 -2.0 -8.65 L-2.0 -9.6 -1.35 -9.6 -1.25 -9.8 -1.25 -11.65 1.45 -11.65 1.45 -9.8 1.5 -9.6 2.15 -9.6 2.15 -8.65 Q4.05 -7.7 4.4 -5.75 5.15 -5.2 5.15 -4.35 L5.15 -4.3 5.75 -3.9 Q6.3 -3.35 6.3 -2.6 6.2 -1.4 5.3 -0.95 L5.3 1.1 7.0 2.2 7.5 2.2 Q8.3 2.15 8.8 2.7 9.3 3.25 9.3 3.95 9.3 4.6 8.9 5.15 L8.9 5.2 Q8.5 5.6 8.1 5.7 L8.1 7.9 Q9.2 8.25 9.25 9.55 9.25 10.35 8.75 10.85 8.25 11.4 7.45 11.4 L-7.45 11.4 Q-8.1 11.4 -8.6 10.95 L-8.75 10.85 -9.2 9.55 Q-9.2 8.6 -8.55 8.2 L-8.05 7.9 -8.05 5.6 -8.6 5.35 Q-9.2 4.95 -9.15 3.95 -9.15 3.2 -8.65 2.7 L-8.6 2.65 -8.6 2.6 Q-8.05 2.15 -7.4 2.2 L-7.05 2.2 -5.15 1.05 -5.15 -0.95 Q-6.15 -1.4 -6.15 -2.6 -6.2 -3.35 -5.6 -3.9 L-5.05 -4.25 -4.95 -3.95 -5.0 -4.35 Q-5.0 -5.4 -4.25 -5.75" fill="#081a15" fill-opacity="0.32941177" fill-rule="evenodd" stroke="none"/>
      <path d="M-3.65 -4.85 Q-3.3 -6.55 -1.7 -7.4 L-1.7 -8.2 -1.15 -8.2 -1.05 -8.4 -1.05 -10.0 1.3 -10.0 1.3 -8.4 1.35 -8.2 1.9 -8.2 1.9 -7.4 Q3.55 -6.55 3.85 -4.85 4.5 -4.4 4.5 -3.65 L4.5 -3.6 5.05 -3.25 Q5.5 -2.8 5.5 -2.15 5.45 -1.1 4.65 -0.7 L4.65 1.1 6.15 2.05 6.55 2.05 Q7.25 2.0 7.7 2.5 8.15 2.95 8.15 3.55 L7.8 4.6 7.8 4.65 7.1 5.1 7.1 7.0 Q8.05 7.3 8.1 8.45 8.1 9.15 7.65 9.55 L6.5 10.05 -6.45 10.05 Q-7.0 10.05 -7.45 9.65 L-7.55 9.55 Q-7.95 9.15 -7.95 8.45 -7.95 7.6 -7.4 7.25 -7.25 7.1 -6.95 7.0 L-6.95 5.0 -7.45 4.8 Q-7.95 4.45 -7.9 3.55 -7.9 2.9 -7.5 2.5 L-7.45 2.45 -7.45 2.4 Q-6.95 2.0 -6.4 2.05 L-6.1 2.05 -4.45 1.05 -4.45 -0.7 Q-5.3 -1.1 -5.3 -2.15 -5.35 -2.8 -4.85 -3.25 L-4.35 -3.55 -4.25 -3.3 -4.3 -3.65 Q-4.3 -4.55 -3.65 -4.85" fill="#000000" fill-rule="evenodd" stroke="none"/>
      <path d="M3.2 -3.4 L-3.05 -3.4 -3.35 -3.65 -3.05 -4.0 -2.75 -4.0 Q-2.75 -5.0 -2.15 -5.75 L-0.7 -6.75 -0.7 -7.25 -0.4 -7.25 -0.1 -8.25 -0.1 -9.05 0.3 -9.05 0.3 -8.25 0.55 -7.25 0.85 -7.25 0.85 -6.75 Q1.8 -6.5 2.35 -5.75 2.95 -5.0 2.95 -4.0 L3.15 -4.0 3.5 -3.65 Q3.5 -3.4 3.2 -3.4 M2.45 4.15 L2.45 7.85 3.1 7.85 3.1 4.15 2.45 4.15 M4.95 7.85 L4.95 4.15 4.25 4.15 4.25 7.85 4.95 7.85 M0.6 4.15 L0.6 7.85 1.3 7.85 1.3 4.15 0.6 4.15 M6.5 7.85 Q7.1 7.85 7.1 8.45 L6.9 8.85 6.5 9.05 -6.45 9.05 Q-7.0 9.05 -7.0 8.45 -7.0 7.85 -6.45 7.85 L-6.0 7.85 -6.0 4.15 -6.4 4.15 Q-6.95 4.15 -6.95 3.55 -6.95 3.15 -6.65 3.05 L6.8 3.05 6.95 3.2 7.15 3.55 Q7.15 4.15 6.55 4.15 L6.1 4.15 6.1 7.85 6.5 7.85 M-4.85 4.15 L-4.85 7.85 -4.15 7.85 -4.15 4.15 -4.85 4.15 M-2.35 7.85 L-2.35 4.15 -3.05 4.15 -3.05 7.85 -2.35 7.85 M-1.2 4.15 L-1.2 7.85 -0.55 7.85 -0.55 4.15 -1.2 4.15 M-0.45 0.25 L-0.45 -1.6 -0.95 -1.6 -0.95 0.55 -0.45 0.25 M-2.5 -1.6 L-2.5 1.15 -1.95 0.9 -1.95 -1.6 -2.5 -1.6 M2.65 1.2 L2.65 -1.6 2.1 -1.6 2.1 0.95 2.65 1.2 M3.9 -2.7 Q4.5 -2.7 4.5 -2.15 4.5 -1.6 3.9 -1.6 L3.6 -1.6 3.6 1.65 4.8 2.35 -4.75 2.35 -3.5 1.6 -3.5 -1.6 -3.75 -1.6 Q-4.35 -1.6 -4.35 -2.15 -4.35 -2.7 -3.75 -2.7 L3.9 -2.7 M0.55 -1.6 L0.55 0.3 1.1 0.55 1.1 -1.6 0.55 -1.6" fill="#8cb5e6" fill-rule="evenodd" stroke="none"/>
    </g>
  </defs>
</svg>
