<?xml version="1.0" encoding="UTF-8" standalone="no"?>
<svg xmlns:xlink="http://www.w3.org/1999/xlink" height="17.45px" width="24.1px" xmlns="http://www.w3.org/2000/svg">
  <g transform="matrix(1.0, 0.0, 0.0, 1.0, 11.9, 8.85)">
    <use data-characterId="397" height="17.45" transform="matrix(1.0, 0.0, 0.0, 1.0, -11.9, -8.85)" width="24.1" xlink:href="#shape0"/>
  </g>
  <defs>
    <g id="shape0" transform="matrix(1.0, 0.0, 0.0, 1.0, 11.9, 8.85)">
      <path d="M11.3 -7.45 L11.3 -7.3 11.95 -5.9 12.2 -5.0 12.15 -4.5 Q12.15 -3.9 11.8 -3.6 11.5 -3.25 10.7 -3.25 L10.65 -3.25 9.05 -2.15 9.05 -2.1 6.75 -0.75 6.75 2.9 6.4 3.7 6.1 3.95 6.1 4.2 6.1 4.3 Q6.0 5.95 4.9 7.2 L4.85 7.2 Q3.8 8.25 2.5 8.55 L1.55 8.6 Q0.05 8.6 -0.95 7.95 L-1.1 7.85 -1.15 7.8 -1.95 7.05 -2.05 6.75 -4.65 8.3 -5.2 8.4 -10.75 8.4 -11.55 8.05 Q-11.9 7.75 -11.9 7.25 L-11.9 6.3 -11.8 5.85 Q-11.25 4.45 -9.9 4.45 L-9.8 4.45 Q-9.0 4.4 -8.45 5.0 L-7.4 4.7 -7.6 4.45 -7.7 4.35 -8.6 3.4 -8.55 3.4 Q-9.0 2.7 -8.8 2.0 -9.05 1.25 -8.9 0.75 -8.75 -0.1 -7.9 -0.3 -3.95 -2.6 2.2 -5.3 L8.25 -8.05 8.3 -8.05 8.35 -8.1 8.6 -8.5 Q8.9 -8.85 9.3 -8.85 L10.2 -8.6 10.7 -8.3 11.3 -7.45" fill="#081a15" fill-opacity="0.32941177" fill-rule="evenodd" stroke="none"/>
      <path d="M7.1 -6.9 L7.35 -7.25 7.4 -7.25 7.95 -7.55 8.75 -7.35 9.2 -7.1 9.65 -6.4 9.7 -6.25 10.2 -5.1 10.25 -5.05 10.5 -4.15 10.45 -3.8 Q10.45 -3.2 10.1 -3.0 9.85 -2.7 9.25 -2.7 L9.2 -2.7 9.1 -2.7 7.7 -1.75 5.75 -0.55 5.75 2.65 5.45 3.35 5.2 3.55 5.2 3.8 5.2 3.9 Q5.05 5.3 4.15 6.35 L4.1 6.4 Q3.15 7.35 2.0 7.55 L1.25 7.6 Q-0.1 7.6 -1.0 7.0 L-1.05 6.95 -1.1 6.9 -1.8 6.25 -1.85 6.2 -1.9 6.15 -2.0 6.05 -4.15 7.3 -4.1 7.3 -4.65 7.45 -9.45 7.45 -10.15 7.15 -10.45 6.45 -10.45 5.6 -10.4 5.3 Q-9.95 4.0 -8.65 4.0 -7.95 3.95 -7.45 4.45 L-6.55 4.15 -6.7 4.0 -6.75 3.9 -7.55 3.1 -7.6 3.05 Q-8.0 2.45 -7.75 1.85 L-7.75 1.8 Q-8.0 1.25 -7.85 0.75 -7.7 0.05 -7.0 -0.15 -3.5 -2.1 1.8 -4.5 L7.05 -6.85 7.1 -6.95 7.1 -6.9" fill="#000000" fill-rule="evenodd" stroke="none"/>
      <path d="M1.9 2.65 L1.5 2.85 Q2.05 3.05 2.05 3.55 L1.8 4.05 1.25 4.3 1.2 4.3 1.05 4.3 0.7 4.05 0.45 3.55 0.5 3.4 -0.9 4.2 -0.1 5.4 0.15 5.55 1.25 5.8 Q2.15 5.8 2.85 5.1 3.5 4.45 3.5 3.55 L3.5 3.4 3.3 2.65 1.9 2.65 M7.95 -6.4 L8.05 -6.55 8.3 -6.4 8.3 -6.35 8.35 -6.35 8.7 -6.05 9.4 -4.5 Q9.6 -4.2 9.4 -4.1 L9.4 -4.0 9.4 -3.75 9.2 -3.7 9.05 -3.8 9.05 -3.85 7.15 -2.6 4.75 -1.1 4.75 2.65 4.1 2.65 4.2 3.55 4.2 3.8 Q4.1 4.9 3.4 5.7 2.7 6.4 1.85 6.55 L1.25 6.6 Q0.25 6.6 -0.45 6.15 L-0.5 6.1 -1.1 5.55 -1.6 4.65 -4.65 6.45 -9.45 6.45 -9.45 5.6 Q-9.25 5.0 -8.65 5.0 -8.15 5.0 -7.85 5.6 L-7.8 5.6 -5.75 4.95 -4.6 3.4 -5.25 3.65 Q-5.6 3.8 -5.9 3.4 L-6.05 3.05 -6.1 2.95 Q-6.5 3.0 -6.7 2.6 -6.95 2.25 -6.65 1.85 L-6.85 1.4 -6.9 1.0 -6.65 0.75 Q-3.15 -1.2 2.2 -3.6 L7.9 -6.1 7.9 -6.15 7.95 -6.4" fill="#8cb5e6" fill-rule="evenodd" stroke="none"/>
    </g>
  </defs>
</svg>
