<?xml version="1.0" encoding="UTF-8" standalone="no"?>
<svg xmlns:xlink="http://www.w3.org/1999/xlink" height="23.95px" width="23.9px" xmlns="http://www.w3.org/2000/svg">
  <g transform="matrix(1.0, 0.0, 0.0, 1.0, 11.9, 12.8)">
    <use data-characterId="395" height="23.95" transform="matrix(1.0, 0.0, 0.0, 1.0, -11.9, -12.8)" width="23.9" xlink:href="#shape0"/>
  </g>
  <defs>
    <g id="shape0" transform="matrix(1.0, 0.0, 0.0, 1.0, 11.9, 12.8)">
      <path d="M5.9 -6.7 L5.95 -6.7 Q6.9 -6.95 7.85 -5.1 8.75 -3.3 10.2 2.05 L12.0 9.8 12.0 9.9 11.95 10.45 11.6 10.95 11.35 11.1 10.85 11.15 -10.8 11.15 -11.35 11.0 -11.8 10.55 -11.8 10.45 Q-12.0 10.1 -11.8 9.75 L-11.9 9.8 Q-11.25 6.75 -10.1 3.65 -7.9 -3.25 -5.7 -3.2 L-5.65 -3.2 Q-5.2 -3.35 -4.65 -2.9 -2.2 -12.75 0.25 -12.75 1.25 -13.05 2.25 -11.25 L2.25 -11.2 4.2 -5.75 Q5.05 -6.8 5.9 -6.7" fill="#081a15" fill-opacity="0.49803922" fill-rule="evenodd" stroke="none"/>
      <path d="M5.1 -5.4 L5.15 -5.4 Q6.0 -5.6 6.8 -4.05 7.6 -2.45 8.8 2.15 L10.4 8.95 10.4 9.0 10.35 9.55 10.3 9.6 9.95 10.0 9.4 10.15 -9.4 10.15 -9.95 10.0 -10.3 9.55 -10.35 9.5 -10.35 8.9 -10.35 8.95 -8.85 3.6 Q-6.9 -2.45 -4.95 -2.35 L-4.05 -2.1 Q-1.95 -10.7 0.2 -10.65 1.05 -10.9 1.9 -9.35 2.65 -8.0 3.65 -4.55 4.35 -5.45 5.1 -5.4" fill="#000000" fill-rule="evenodd" stroke="none"/>
      <path d="M3.35 -1.8 L3.85 -3.0 Q4.55 -4.4 5.15 -4.4 5.5 -4.4 5.9 -3.6 6.7 -2.05 7.85 2.4 L9.4 9.15 2.8 9.15 Q2.6 7.15 1.9 5.9 L1.6 5.4 Q0.95 4.6 0.25 4.6 -0.65 4.6 -1.35 5.9 -2.05 7.15 -2.3 9.15 L-9.4 9.15 -7.9 3.9 Q-6.2 -1.35 -4.9 -1.35 -4.55 -1.35 -4.05 -0.55 L-3.65 0.1 -3.5 -0.4 Q-1.35 -9.65 0.25 -9.65 L1.05 -8.85 Q2.0 -7.15 3.35 -1.8" fill="#8cb5e6" fill-rule="evenodd" stroke="none"/>
    </g>
  </defs>
</svg>
