<?xml version="1.0" encoding="UTF-8" standalone="no"?>
<svg xmlns:xlink="http://www.w3.org/1999/xlink" height="21.9px" width="22.3px" xmlns="http://www.w3.org/2000/svg">
  <g transform="matrix(1.0, 0.0, 0.0, 1.0, 9.65, 9.95)">
    <use data-characterId="391" height="21.9" transform="matrix(1.0, 0.0, 0.0, 1.0, -9.65, -9.95)" width="22.3" xlink:href="#shape0"/>
  </g>
  <defs>
    <g id="shape0" transform="matrix(1.0, 0.0, 0.0, 1.0, 9.65, 9.95)">
      <path d="M5.35 -0.1 L5.35 -2.95 Q5.35 -3.35 5.65 -3.65 L6.35 -3.95 11.65 -3.95 12.35 -3.65 12.65 -2.95 12.65 10.95 12.35 11.65 11.65 11.95 -5.65 11.95 Q-6.05 11.95 -6.35 11.65 L-6.65 10.95 -6.65 -4.75 -6.35 -5.45 -5.85 -5.7 -5.85 -7.45 -5.55 -8.15 -4.85 -8.45 -3.1 -8.45 Q-2.7 -8.45 -2.4 -8.15 -2.1 -7.85 -2.1 -7.45 L-2.1 -5.75 1.55 -5.75 2.25 -5.45 2.55 -4.75 2.55 -0.1 5.35 -0.1" fill="#081a15" fill-opacity="0.49803922" fill-rule="evenodd" stroke="none"/>
      <path d="M2.35 -4.45 Q2.35 -4.85 2.65 -5.15 2.95 -5.45 3.35 -5.45 L8.65 -5.45 9.35 -5.15 9.65 -4.45 9.65 9.45 9.35 10.15 8.65 10.45 -8.65 10.45 -9.35 10.15 -9.65 9.45 -9.65 -6.25 -9.35 -6.95 -8.85 -7.2 -8.85 -8.95 -8.55 -9.65 -7.85 -9.95 -6.1 -9.95 -5.4 -9.65 Q-5.1 -9.35 -5.1 -8.95 L-5.1 -7.25 -1.45 -7.25 -0.75 -6.95 Q-0.45 -6.65 -0.45 -6.25 L-0.45 -1.6 2.35 -1.6 2.35 -4.45" fill="#000000" fill-rule="evenodd" stroke="none"/>
      <path d="M-1.45 -0.6 L3.35 -0.6 3.35 -4.45 8.65 -4.45 8.65 9.45 -8.65 9.45 -8.65 -6.25 -7.85 -6.25 -7.85 -8.95 -6.1 -8.95 -6.1 -6.25 -1.45 -6.25 -1.45 -0.6 M7.75 0.15 L7.75 -1.2 4.35 -1.2 4.35 0.15 7.75 0.15 M7.75 4.75 L7.75 3.45 4.35 3.45 4.35 4.75 7.75 4.75 M7.75 2.45 L7.75 1.1 4.35 1.1 4.35 2.45 7.75 2.45 M-0.1 2.35 L0.95 2.35 0.95 1.55 -0.1 1.55 -0.1 2.35 M2.45 2.35 L2.45 1.55 1.35 1.55 1.35 2.35 2.45 2.35 M2.45 5.1 L2.45 3.95 1.35 3.95 1.35 5.1 2.45 5.1 M-0.1 5.1 L0.95 5.1 0.95 3.95 -0.1 3.95 -0.1 5.1 M2.45 8.1 L2.45 6.45 1.35 6.45 1.35 8.1 2.45 8.1 M0.95 8.1 L0.95 6.45 -0.1 6.45 -0.1 8.1 0.95 8.1 M4.35 7.05 L7.75 7.05 7.75 5.75 4.35 5.75 4.35 7.05 M-4.4 -2.05 L-4.4 -4.75 -5.5 -4.75 -5.5 -2.05 -4.4 -2.05 M-6.35 1.35 L-6.35 -1.4 -7.45 -1.4 -7.45 1.35 -6.35 1.35 M-6.35 -2.05 L-6.35 -4.75 -7.45 -4.75 -7.45 -2.05 -6.35 -2.05 M-2.5 -1.4 L-3.55 -1.4 -3.55 1.35 -2.5 1.35 -2.5 -1.4 M-2.5 -2.05 L-2.5 -4.75 -3.55 -4.75 -3.55 -2.05 -2.5 -2.05 M-4.4 1.35 L-4.4 -1.4 -5.5 -1.4 -5.5 1.35 -4.4 1.35 M-0.45 2.35 L-0.45 1.55 -1.55 1.55 -1.55 2.35 -0.45 2.35 M-1.55 5.1 L-0.45 5.1 -0.45 3.95 -1.55 3.95 -1.55 5.1 M-2.5 5.4 L-3.55 5.4 -3.55 8.1 -2.5 8.1 -2.5 5.4 M-2.5 4.7 L-2.5 2.0 -3.55 2.0 -3.55 4.7 -2.5 4.7 M-4.4 4.7 L-4.4 2.0 -5.5 2.0 -5.5 4.7 -4.4 4.7 M-6.35 8.1 L-6.35 5.4 -7.45 5.4 -7.45 8.1 -6.35 8.1 M-6.35 4.7 L-6.35 2.0 -7.45 2.0 -7.45 4.7 -6.35 4.7 M-0.45 8.1 L-0.45 6.45 -1.55 6.45 -1.55 8.1 -0.45 8.1 M-4.4 8.1 L-4.4 5.4 -5.5 5.4 -5.5 8.1 -4.4 8.1" fill="#8cb5e6" fill-rule="evenodd" stroke="none"/>
    </g>
  </defs>
</svg>
