<?xml version="1.0" encoding="UTF-8" standalone="no"?>
<svg xmlns:ffdec="https://www.free-decompiler.com/flash" xmlns:xlink="http://www.w3.org/1999/xlink" ffdec:objectType="frame" height="22.85px" width="23.8px" xmlns="http://www.w3.org/2000/svg">
  <g transform="matrix(1.0, 0.0, 0.0, 1.0, 10.65, 10.7)">
    <use ffdec:characterId="373" height="22.85" transform="matrix(1.0, 0.0, 0.0, 1.0, -10.65, -10.7)" width="23.8" xlink:href="#shape0"/>
  </g>
  <defs>
    <g id="shape0" transform="matrix(1.0, 0.0, 0.0, 1.0, 10.65, 10.7)">
      <path d="M11.4 -9.15 L11.85 -9.15 12.6 -8.9 12.85 -8.1 12.85 -7.65 12.7 -7.2 12.7 -7.15 12.65 -7.1 12.6 -7.0 12.45 -6.85 12.1 -6.65 12.1 -0.25 12.6 0.0 12.85 0.8 12.85 1.15 12.85 1.25 12.75 1.65 12.7 1.7 12.55 1.9 12.35 2.05 12.3 2.1 12.1 2.2 11.95 2.2 8.75 2.2 8.45 2.2 5.8 2.2 6.5 2.65 7.4 3.6 7.45 3.65 Q7.85 3.35 8.35 3.3 L8.4 3.3 Q8.7 3.25 8.95 3.5 L9.2 3.95 9.2 4.0 9.2 4.15 9.3 4.55 9.3 5.1 9.3 5.2 9.2 6.1 9.2 6.2 9.1 6.85 9.0 7.95 9.05 8.0 Q9.4 8.45 9.2 9.1 L9.1 9.55 12.15 9.75 12.95 10.55 13.1 11.05 13.15 11.4 12.95 11.95 12.4 12.15 -6.85 12.15 -7.05 12.15 -7.15 12.15 -7.75 12.05 -8.05 11.6 Q-8.35 10.4 -7.7 9.95 L-7.65 9.95 -4.5 9.55 -3.75 9.55 -3.85 9.0 -3.85 8.95 Q-4.05 8.25 -3.55 7.95 L-3.85 6.2 -3.85 6.15 -3.85 3.9 -3.5 3.45 Q-3.25 3.2 -2.95 3.3 L-2.9 3.35 -2.65 3.45 -2.15 3.6 -2.05 3.65 -1.05 2.65 -0.35 2.2 -1.65 2.2 -1.8 2.2 -4.25 2.2 -4.4 2.2 -6.85 2.2 -7.6 1.95 -7.85 1.15 -7.85 0.8 -7.6 0.0 -7.05 -0.25 -7.05 -6.65 Q-7.4 -6.7 -7.6 -6.9 L-7.85 -7.7 -7.85 -8.1 -7.6 -8.9 -7.15 -9.15 -7.05 -9.15 -6.85 -9.15 -1.8 -9.15 -1.65 -9.15 0.65 -9.15 0.95 -9.15 8.45 -9.15 8.75 -9.15 11.25 -9.15 11.4 -9.15" fill="#081a15" fill-opacity="0.49803922" fill-rule="evenodd" stroke="none"/>
      <path d="M8.9 -10.65 L9.35 -10.65 Q9.85 -10.7 10.1 -10.4 L10.35 -9.6 10.35 -9.15 10.2 -8.7 10.2 -8.65 10.15 -8.6 10.1 -8.5 9.95 -8.35 9.6 -8.15 9.6 -8.1 9.6 -1.75 10.1 -1.5 10.35 -0.7 10.35 -0.35 10.35 -0.25 10.25 0.15 10.2 0.2 10.05 0.4 9.85 0.55 9.8 0.6 9.6 0.7 9.45 0.7 6.25 0.7 5.95 0.7 3.3 0.7 4.0 1.15 4.9 2.1 4.95 2.15 5.85 1.8 5.9 1.8 Q6.2 1.75 6.45 2.0 L6.7 2.45 6.7 2.5 6.7 2.65 6.8 3.05 6.8 3.6 6.8 3.7 6.7 4.6 6.7 4.7 6.6 5.35 6.5 6.45 6.55 6.5 Q6.9 6.95 6.7 7.6 L6.6 8.05 9.65 8.25 10.45 9.05 10.6 9.55 10.65 9.9 10.45 10.45 9.9 10.65 -9.35 10.65 -9.55 10.65 -9.65 10.65 -10.25 10.55 -10.55 10.1 Q-10.85 8.9 -10.2 8.45 L-10.15 8.45 -7.0 8.05 -6.25 8.05 -6.35 7.5 -6.35 7.45 Q-6.55 6.75 -6.05 6.45 L-6.35 4.7 -6.35 4.65 -6.35 2.4 -6.0 1.95 Q-5.75 1.7 -5.45 1.8 L-5.4 1.85 -5.15 1.95 Q-4.9 1.9 -4.65 2.1 L-4.55 2.15 -3.55 1.15 -2.85 0.7 -4.15 0.7 -4.3 0.7 -6.75 0.7 -6.9 0.7 -9.35 0.7 Q-9.85 0.75 -10.1 0.45 L-10.35 -0.35 -10.35 -0.7 -10.1 -1.5 -9.55 -1.75 -9.55 -8.15 Q-9.9 -8.2 -10.1 -8.4 L-10.35 -9.2 -10.35 -9.6 -10.1 -10.4 -9.65 -10.65 -9.55 -10.65 -9.35 -10.65 -4.3 -10.65 -4.15 -10.65 -1.85 -10.65 -1.55 -10.65 5.95 -10.65 6.25 -10.65 8.75 -10.65 8.9 -10.65" fill="#000000" fill-rule="evenodd" stroke="none"/>
      <path d="M8.8 -8.9 Q8.55 -8.9 8.55 -9.15 L8.55 -9.75 8.8 -10.0 9.4 -10.0 9.65 -9.75 9.65 -9.15 9.4 -8.9 8.8 -8.9 M6.8 -8.9 L6.2 -8.9 Q5.95 -8.9 5.95 -9.15 L5.95 -9.75 6.2 -10.0 6.8 -10.0 7.05 -9.75 7.05 -9.15 6.8 -8.9 M3.6 -0.05 Q3.35 -0.05 3.35 -0.3 L3.35 -0.9 3.6 -1.15 4.2 -1.15 4.45 -0.9 4.45 -0.3 4.2 -0.05 3.6 -0.05 M1.0 -0.05 Q0.75 -0.05 0.75 -0.3 L0.75 -0.9 1.0 -1.15 1.6 -1.15 1.85 -0.9 1.85 -0.3 1.6 -0.05 1.0 -0.05 M0.95 -8.9 Q0.7 -8.9 0.7 -9.15 L0.7 -9.75 0.95 -10.0 1.55 -10.0 1.8 -9.75 1.8 -9.15 1.55 -8.9 0.95 -8.9 M3.6 -8.9 Q3.35 -8.9 3.35 -9.15 L3.35 -9.75 3.6 -10.0 4.2 -10.0 4.45 -9.75 4.45 -9.15 4.2 -8.9 3.6 -8.9 M6.85 -0.05 L6.25 -0.05 Q6.0 -0.05 6.0 -0.3 L6.0 -0.9 6.25 -1.15 6.85 -1.15 7.1 -0.9 7.1 -0.3 6.85 -0.05 M1.25 6.6 L1.25 5.75 -0.7 5.75 -0.7 6.6 1.25 6.6 M3.55 8.8 L3.55 7.85 -3.0 7.8 -3.0 8.8 3.55 8.8 M0.1 1.95 L0.1 1.55 -2.5 1.9 Q-4.0 2.3 -4.15 3.55 L-3.35 3.4 -3.25 3.4 -2.95 3.3 -2.5 3.25 Q-2.45 3.1 -2.55 3.0 L-2.65 2.85 -2.7 2.75 -2.75 2.45 Q-2.3 2.0 -1.6 2.05 L-1.4 2.1 Q-0.95 2.2 -0.7 2.45 L-0.45 2.9 -0.45 3.05 0.25 3.05 1.3 3.25 2.8 3.5 4.45 3.55 4.3 2.95 Q3.9 2.2 2.85 1.9 L2.15 1.75 0.25 1.55 0.25 1.75 0.35 2.0 0.75 2.05 0.85 2.35 0.1 2.35 -0.5 2.15 -0.2 2.0 0.1 1.95 M5.6 4.7 L5.75 3.95 5.85 2.9 5.35 3.75 5.2 4.2 5.15 4.3 4.85 5.5 Q4.75 5.7 5.0 5.75 L5.3 5.75 5.6 4.7 M5.95 2.55 L6.05 3.6 5.95 4.55 5.85 5.25 5.7 6.5 5.65 6.6 5.9 6.95 5.95 7.45 Q5.95 7.95 4.95 7.95 L4.95 8.8 5.7 8.8 9.25 8.9 Q9.75 9.15 9.9 9.65 L9.9 9.9 -9.85 9.9 Q-10.0 9.25 -9.7 9.0 L-7.0 8.8 -4.6 8.8 -4.6 7.95 -4.9 7.95 Q-5.6 7.85 -5.6 7.45 L-5.55 6.95 -5.3 6.6 -5.6 4.55 -5.6 2.55 Q-4.9 2.6 -4.45 3.4 -3.8 2.15 -3.2 1.75 -2.15 0.95 0.1 0.95 L0.25 0.95 Q2.5 0.95 3.55 1.75 L4.25 2.5 4.85 3.4 5.0 3.2 Q5.35 2.6 5.95 2.55 M8.85 -8.1 L8.85 -1.8 -8.8 -1.8 -8.8 -8.1 8.85 -8.1 M8.8 -0.05 Q8.55 -0.05 8.55 -0.3 L8.55 -0.9 8.8 -1.15 9.4 -1.15 9.65 -0.9 9.65 -0.3 9.4 -0.05 8.8 -0.05 M-1.0 -8.9 L-1.1 -8.9 -1.6 -8.9 -1.85 -9.15 -1.85 -9.75 -1.6 -10.0 -1.0 -10.0 -0.75 -9.75 -0.75 -9.15 Q-0.75 -8.9 -1.0 -8.9 M-3.55 -8.9 L-4.15 -8.9 -4.4 -9.15 -4.4 -9.75 -4.15 -10.0 -3.55 -10.0 -3.3 -9.75 -3.3 -9.15 Q-3.3 -8.9 -3.55 -8.9 M-6.85 -8.9 L-7.1 -9.15 -7.1 -9.75 -6.85 -10.0 -6.25 -10.0 -6.0 -9.75 -6.0 -9.15 Q-6.0 -8.9 -6.25 -8.9 L-6.85 -8.9 M-8.8 -8.9 L-9.4 -8.9 -9.65 -9.15 -9.65 -9.75 -9.4 -10.0 -8.8 -10.0 -8.55 -9.75 -8.55 -9.15 Q-8.55 -8.9 -8.8 -8.9 M-8.75 -0.05 L-9.35 -0.05 -9.6 -0.3 -9.6 -0.9 -9.35 -1.15 -8.75 -1.15 -8.5 -0.9 -8.5 -0.3 Q-8.5 -0.05 -8.75 -0.05 M-6.8 -1.15 L-6.2 -1.15 -5.95 -0.9 -5.95 -0.3 Q-5.95 -0.05 -6.2 -0.05 L-6.8 -0.05 -7.05 -0.3 -7.05 -0.9 -6.8 -1.15 M-3.5 -0.05 L-4.15 -0.05 -4.4 -0.35 -4.4 -0.7 -4.35 -0.9 -4.1 -1.15 -3.5 -1.15 -3.25 -0.9 -3.25 -0.3 Q-3.25 -0.05 -3.5 -0.05 M-1.0 -0.05 L-1.1 -0.05 -1.55 -0.05 -1.8 -0.3 -1.8 -0.9 -1.55 -1.15 -0.95 -1.15 -0.7 -0.9 -0.7 -0.3 Q-0.7 -0.05 -0.95 -0.05 L-1.0 -0.05 M-4.45 5.5 L-4.6 4.9 -4.85 4.1 -4.9 3.9 Q-5.15 3.2 -5.5 2.9 L-5.25 4.7 -4.9 5.75 -4.75 5.8 -4.6 5.75 -4.45 5.65 -4.45 5.5" fill="#8cb5e6" fill-rule="evenodd" stroke="none"/>
    </g>
  </defs>
</svg>
