<?xml version="1.0" encoding="UTF-8" standalone="no"?>
<svg xmlns:xlink="http://www.w3.org/1999/xlink" height="20.4px" width="21.25px" xmlns="http://www.w3.org/2000/svg">
  <g transform="matrix(1.0, 0.0, 0.0, 1.0, 9.45, 10.35)">
    <use data-characterId="371" height="20.4" transform="matrix(1.0, 0.0, 0.0, 1.0, -9.45, -10.35)" width="21.25" xlink:href="#shape0"/>
  </g>
  <defs>
    <g id="shape0" transform="matrix(1.0, 0.0, 0.0, 1.0, 9.45, 10.35)">
      <path d="M9.05 -4.7 L9.75 -4.4 10.05 -3.7 10.05 6.25 10.8 6.25 Q11.2 6.25 11.5 6.55 L11.8 7.25 11.8 9.05 11.5 9.75 10.8 10.05 -7.2 10.05 -7.9 9.75 -8.2 9.05 -8.2 7.25 -7.9 6.55 Q-7.6 6.25 -7.2 6.25 L-6.45 6.25 -6.45 -3.7 -6.15 -4.4 -5.45 -4.7 -4.7 -4.7 -4.7 -7.6 -4.4 -8.3 -4.1 -8.5 -4.1 -8.6 -3.8 -9.3 -3.1 -9.6 -1.85 -9.6 Q-1.45 -9.6 -1.15 -9.3 -0.85 -9.0 -0.85 -8.6 L-0.85 -8.5 -0.55 -8.3 -0.4 -8.15 -0.3 -8.3 0.0 -8.5 0.0 -8.6 Q0.0 -9.0 0.3 -9.3 0.6 -9.6 1.0 -9.6 L2.25 -9.6 Q2.65 -9.6 2.95 -9.3 L3.25 -8.6 3.25 -8.5 3.6 -8.3 3.7 -8.2 3.75 -8.3 4.1 -8.5 4.1 -8.6 Q4.1 -9.0 4.4 -9.3 4.7 -9.6 5.1 -9.6 L6.35 -9.6 7.05 -9.3 7.35 -8.6 7.35 -8.5 7.7 -8.3 8.0 -7.6 8.0 -4.7 9.05 -4.7" fill="#081a15" fill-opacity="0.49803922" fill-rule="evenodd" stroke="none"/>
      <path d="M7.55 -5.45 L8.1 -5.2 8.3 -4.7 8.3 5.5 9.3 5.5 9.85 5.75 10.05 6.25 10.05 8.05 9.85 8.6 9.3 8.8 -8.7 8.8 -9.2 8.6 -9.45 8.05 -9.45 6.25 -9.2 5.75 Q-9.0 5.5 -8.7 5.5 L-7.7 5.5 -7.7 -4.7 -7.45 -5.2 -6.95 -5.45 -5.9 -5.45 -5.95 -5.7 -5.95 -8.6 -5.7 -9.1 -5.35 -9.3 -5.35 -9.6 -5.1 -10.1 -4.6 -10.35 -3.35 -10.35 -2.8 -10.1 -2.6 -9.6 -2.6 -9.3 -2.2 -9.1 -2.0 -8.6 -2.0 -5.7 -2.05 -5.45 -2.2 -5.2 -1.65 -5.2 -1.8 -5.45 -1.85 -5.7 -1.85 -8.6 -1.6 -9.1 -1.25 -9.3 -1.25 -9.6 -1.0 -10.1 -0.5 -10.35 0.75 -10.35 1.3 -10.1 1.5 -9.6 1.5 -9.35 1.95 -9.1 2.15 -8.6 2.15 -5.7 2.1 -5.45 1.95 -5.2 2.4 -5.2 2.25 -5.45 2.2 -5.7 2.2 -8.6 2.45 -9.1 Q2.6 -9.3 2.85 -9.35 L2.85 -9.6 3.1 -10.1 3.6 -10.35 4.85 -10.35 5.4 -10.1 5.6 -9.6 5.6 -9.35 6.05 -9.1 6.25 -8.6 6.25 -5.7 6.2 -5.45 7.55 -5.45" fill="#000000" fill-rule="evenodd" stroke="none"/>
      <path d="M2.35 -3.9 L-2.75 2.0 -2.75 2.1 -2.6 2.2 -0.2 2.2 -2.05 6.55 -2.0 6.75 -1.85 6.75 3.3 0.8 3.3 0.65 3.2 0.55 0.7 0.6 2.65 -3.8 2.7 -3.9 2.6 -4.0 2.4 -4.0 2.35 -3.9 M7.55 -4.7 L7.55 6.25 9.3 6.25 9.3 8.05 -8.7 8.05 -8.7 6.25 -6.95 6.25 -6.95 -4.7 -4.6 -4.7 -4.6 -5.7 -5.2 -5.7 -5.2 -8.6 -4.6 -8.6 -4.6 -9.6 -3.35 -9.6 -3.35 -8.6 -2.75 -8.6 -2.75 -5.7 -3.35 -5.7 -3.35 -4.7 -0.5 -4.7 -0.5 -5.7 -1.1 -5.7 -1.1 -8.6 -0.5 -8.6 -0.5 -9.6 0.75 -9.6 0.75 -8.6 1.4 -8.6 1.4 -5.7 0.75 -5.7 0.75 -4.7 3.6 -4.7 3.6 -5.7 2.95 -5.7 2.95 -8.6 3.6 -8.6 3.6 -9.6 4.85 -9.6 4.85 -8.6 5.5 -8.6 5.5 -5.7 4.85 -5.7 4.85 -4.7 7.55 -4.7" fill="#8cb5e6" fill-rule="evenodd" stroke="none"/>
    </g>
  </defs>
</svg>
