<?xml version="1.0" encoding="UTF-8" standalone="no"?>
<svg xmlns:xlink="http://www.w3.org/1999/xlink" height="17.7px" width="23.55px" xmlns="http://www.w3.org/2000/svg">
  <g transform="matrix(1.0, 0.0, 0.0, 1.0, 10.9, 8.2)">
    <use data-characterId="367" height="17.7" transform="matrix(1.0, 0.0, 0.0, 1.0, -10.9, -8.2)" width="23.55" xlink:href="#shape0"/>
  </g>
  <defs>
    <g id="shape0" transform="matrix(1.0, 0.0, 0.0, 1.0, 10.9, 8.2)">
      <path d="M-7.9 9.5 Q-8.2 9.5 -8.4 9.3 L-8.65 8.75 -8.65 -0.2 -8.5 -0.65 -8.1 -0.9 Q-5.35 -1.8 -3.35 -2.95 L-0.1 -5.05 1.6 -6.3 2.05 -6.45 2.55 -6.25 4.1 -5.0 4.15 -4.95 Q5.85 -3.65 7.15 -2.9 L7.1 -2.9 Q9.0 -1.95 11.6 -1.1 L11.5 -1.1 12.25 -0.85 12.55 -0.6 12.65 -0.2 12.65 8.75 12.45 9.3 11.9 9.5 -7.9 9.5" fill="#081a15" fill-opacity="0.49803922" fill-rule="evenodd" stroke="none"/>
      <path d="M-9.9 8.25 L-10.6 7.95 -10.9 7.25 -10.9 -1.7 -10.7 -2.3 -10.2 -2.65 Q-7.45 -3.5 -5.5 -4.65 L-2.25 -6.75 -0.55 -8.0 0.1 -8.2 0.7 -7.95 2.3 -6.65 2.3 -6.7 5.2 -4.65 5.25 -4.6 Q7.1 -3.7 9.55 -2.85 L9.65 -2.85 10.35 -2.6 10.75 -2.2 10.9 -1.7 10.9 7.25 10.6 7.95 9.9 8.25 2.0 8.25 Q1.6 8.25 1.3 7.95 1.0 7.65 1.0 7.25 L1.0 2.0 -1.0 2.0 -1.0 7.25 Q-1.0 7.65 -1.3 7.95 -1.6 8.25 -2.0 8.25 L-9.9 8.25" fill="#000000" fill-rule="evenodd" stroke="none"/>
      <path d="M-2.0 7.25 L-9.9 7.25 -9.9 -1.7 Q-7.05 -2.6 -5.0 -3.8 L-1.7 -5.95 0.05 -7.2 1.65 -5.9 Q3.45 -4.5 4.75 -3.75 6.7 -2.75 9.35 -1.9 L9.9 -1.7 9.9 7.25 2.0 7.25 2.0 1.0 -2.0 1.0 -2.0 7.25" fill="#8cb5e6" fill-rule="evenodd" stroke="none"/>
    </g>
  </defs>
</svg>
