<?xml version="1.0" encoding="UTF-8" standalone="no"?>
<svg xmlns:xlink="http://www.w3.org/1999/xlink" height="19.2px" width="30.4px" xmlns="http://www.w3.org/2000/svg">
  <g transform="matrix(1.0, 0.0, 0.0, 1.0, 14.45, 8.1)">
    <use height="19.2" transform="matrix(1.0, 0.0, 0.0, 1.0, -14.45, -8.1)" width="30.4" xlink:href="#shape0"/>
  </g>
  <defs>
    <g id="shape0" transform="matrix(1.0, 0.0, 0.0, 1.0, 14.45, 8.1)">
      <path d="M1.9 -2.0 L3.5 -0.55 4.55 -0.8 1.9 -2.0 M1.9 -0.45 L1.9 -0.15 2.2 -0.2 1.9 -0.45 M-6.1 0.2 L-5.65 0.3 -5.05 0.8 Q-4.9 1.05 -4.9 1.35 L-3.2 0.9 -3.2 -5.3 -2.65 -6.25 -2.05 -6.5 -1.95 -6.55 -0.55 -6.55 0.3 -6.1 1.35 -5.05 1.85 -3.9 1.9 -3.8 1.9 -3.35 5.15 -1.95 5.15 -5.0 6.05 -4.45 6.8 -3.65 6.9 -3.7 7.05 -3.9 9.15 -6.15 9.95 -6.7 10.1 -5.65 10.15 -5.5 10.15 -4.6 14.4 -4.55 13.8 -3.55 13.05 -2.7 15.4 -0.2 15.95 0.65 14.95 0.85 13.95 0.85 13.95 5.5 13.0 4.8 12.9 4.75 12.25 4.05 12.2 4.05 10.0 6.45 9.05 7.05 9.0 6.05 8.95 5.95 8.95 5.0 5.4 5.0 5.1 4.2 5.35 3.9 5.4 3.8 6.05 3.15 5.95 3.05 1.9 3.8 1.9 5.95 2.0 5.95 Q3.0 5.95 3.0 7.1 L2.75 7.85 2.7 7.9 2.7 8.75 3.75 8.75 Q4.55 8.75 5.05 9.35 5.6 9.9 5.6 10.8 L5.6 11.1 -8.5 11.1 -8.5 10.8 Q-8.5 9.9 -7.9 9.35 L-7.95 9.35 Q-7.45 8.7 -6.65 8.75 L-3.9 8.75 -3.9 7.85 -4.2 7.1 Q-4.25 6.65 -3.95 6.3 L-3.9 6.3 Q-3.65 5.95 -3.25 5.95 L-3.2 5.95 -3.2 4.7 -5.7 4.8 -5.75 4.95 Q-5.95 5.85 -6.75 5.85 L-6.9 5.85 Q-7.5 5.85 -7.8 5.3 L-7.95 4.9 -12.75 5.2 -11.15 2.95 -9.25 2.5 -9.45 2.15 -9.6 1.3 -9.05 0.55 -8.95 0.5 -8.45 0.35 Q-7.85 0.35 -7.5 0.95 L-7.2 1.5 -7.1 1.05 Q-6.9 0.2 -6.1 0.2 M12.3 3.2 Q12.25 3.05 12.2 3.2 L12.25 3.15 12.3 3.2 M-6.1 0.85 L-6.15 0.85 -6.0 0.9 -6.1 0.85" fill="#081a15" fill-rule="evenodd" stroke="none"/>
      <path d="M2.0 -0.75 L1.8 -1.35 -1.85 -0.35 -1.9 -0.35 Q-2.5 -0.25 -2.65 0.4 L-2.7 0.4 Q-2.9 1.05 -2.45 1.65 -2.05 2.15 -1.45 2.05 L3.8 1.15 2.0 -0.75 M0.2 -1.85 L0.2 -1.5 0.5 -1.6 0.2 -1.85 M0.2 -3.35 L1.8 -1.95 2.85 -2.2 0.2 -3.4 0.2 -3.35 M-7.8 -1.2 L-7.35 -1.1 -6.75 -0.6 -6.6 -0.05 -4.9 -0.5 -4.9 -6.7 -4.35 -7.6 -3.75 -7.9 -3.65 -7.95 -2.25 -7.95 -1.4 -7.5 -0.35 -6.4 0.15 -5.3 0.2 -5.15 0.2 -4.75 3.45 -3.3 3.45 -6.35 4.35 -5.8 5.1 -5.05 5.2 -5.05 5.35 -5.3 7.45 -7.5 8.25 -8.1 8.4 -7.05 8.45 -6.9 8.45 -6.0 12.7 -5.95 12.1 -4.95 11.35 -4.1 13.65 -1.6 14.25 -0.75 13.25 -0.55 12.25 -0.55 12.2 4.1 11.3 3.45 11.2 3.4 11.2 3.35 10.55 2.65 10.5 2.65 8.65 4.75 8.3 5.05 7.35 5.65 7.3 4.7 7.25 4.55 7.25 3.6 3.7 3.6 3.4 2.85 3.65 2.5 3.7 2.4 4.35 1.75 4.25 1.7 0.2 2.4 0.2 4.6 0.3 4.6 Q1.3 4.55 1.3 5.7 L1.0 6.5 1.0 7.35 2.05 7.35 Q2.85 7.35 3.35 7.95 3.9 8.5 3.9 9.4 L3.9 9.7 -10.2 9.7 -10.2 9.4 Q-10.2 8.5 -9.65 7.95 -9.15 7.3 -8.35 7.35 L-5.6 7.35 -5.6 6.5 -5.9 5.7 -5.65 4.9 -5.6 4.9 Q-5.35 4.6 -4.95 4.6 L-4.9 4.6 -4.9 3.3 -7.4 3.45 -7.45 3.55 Q-7.65 4.45 -8.5 4.45 L-8.6 4.45 Q-9.2 4.45 -9.5 3.9 L-9.65 3.5 -14.45 3.8 -12.85 1.6 -10.95 1.1 -11.15 0.75 -11.3 -0.1 -10.8 -0.8 -10.65 -0.85 -10.15 -1.05 Q-9.55 -1.05 -9.2 -0.45 L-8.9 0.1 -8.8 -0.3 Q-8.6 -1.2 -7.8 -1.2 M10.55 1.75 L11.6 2.9 11.65 2.9 11.65 -1.05 11.8 -1.2 13.15 -1.2 13.15 -1.25 10.55 -4.0 10.55 -4.2 11.65 -5.35 7.9 -5.35 7.85 -5.45 7.85 -6.9 7.8 -6.95 5.2 -4.2 5.1 -4.15 5.05 -4.2 4.1 -5.2 4.0 -5.25 4.0 -1.3 3.9 -1.15 2.5 -1.15 2.5 -1.1 5.1 1.7 5.1 1.85 4.1 2.95 7.75 2.95 7.85 3.1 7.85 4.55 7.9 4.65 10.55 1.75 M8.85 -1.2 L8.6 -0.5 8.6 -0.55 Q8.3 -0.25 7.9 -0.2 L7.35 -0.5 Q7.05 -0.8 7.05 -1.2 7.05 -1.55 7.35 -1.85 7.6 -2.15 7.9 -2.1 L8.6 -1.85 8.85 -1.2 M-13.2 3.1 L-10.0 2.9 -10.65 1.7 -12.5 2.15 -13.2 3.1 M-4.95 6.8 L-5.05 6.8 -5.05 7.35 0.45 7.35 0.45 6.8 0.3 6.8 -4.95 6.8 M-9.65 9.1 L3.3 9.1 3.0 8.4 2.95 8.4 Q2.6 7.9 2.05 7.95 L-8.35 7.95 Q-8.9 7.95 -9.25 8.4 L-9.65 9.1 M0.3 6.2 L0.65 6.05 0.7 5.95 0.75 5.7 Q0.75 5.2 0.3 5.2 L-4.95 5.2 -5.25 5.3 -5.25 5.35 -5.35 5.7 -5.3 5.95 -5.25 6.05 -4.95 6.2 0.3 6.2 M-7.55 2.65 L-7.5 2.8 -4.9 2.6 -4.9 0.15 -8.4 1.05 -7.55 2.65 M-7.85 -0.55 L-8.15 -0.4 -8.25 -0.15 -8.4 0.45 -7.2 0.1 Q-7.15 -0.35 -7.55 -0.5 L-7.7 -0.5 -7.8 -0.55 -7.85 -0.55 M-0.4 -5.05 L-0.85 -6.05 -1.75 -6.9 -2.4 -7.3 -3.6 -7.3 -4.0 -7.1 -4.3 -6.6 -4.3 -5.5 -2.4 -5.5 -2.4 -4.35 -4.3 -4.35 -4.3 -3.65 -2.4 -3.65 -2.4 -2.45 -4.3 -2.45 -4.3 4.6 -0.4 4.6 -0.4 2.5 -1.35 2.65 Q-2.3 2.8 -2.9 2.0 -3.5 1.15 -3.2 0.2 L-3.2 0.25 Q-2.95 -0.75 -2.0 -0.95 L-0.4 -1.4 -0.4 -5.05 M-8.2 3.65 L-8.0 3.5 -8.05 2.95 -9.7 -0.15 -9.85 -0.25 -10.15 -0.4 -10.35 -0.3 -10.5 -0.2 Q-10.85 0.05 -10.65 0.45 L-9.05 3.5 -9.0 3.55 -8.9 3.65 -8.6 3.8 -8.4 3.75 -8.2 3.65" fill="#000000" fill-rule="evenodd" stroke="none"/>
      <path d="M10.5 1.8 L7.9 4.65 7.85 4.55 7.85 3.1 7.75 2.95 4.1 2.95 5.1 1.85 5.1 1.7 2.5 -1.1 2.5 -1.15 3.9 -1.15 4.0 -1.3 4.0 -5.25 4.1 -5.2 5.05 -4.2 5.1 -4.15 5.2 -4.2 7.8 -6.95 7.85 -6.9 7.85 -5.45 7.9 -5.35 11.65 -5.35 10.55 -4.2 10.55 -4.0 13.15 -1.25 13.15 -1.2 11.8 -1.2 11.65 -1.05 11.65 2.9 11.6 2.9 10.6 1.8 10.5 1.8 M2.0 -0.75 L3.8 1.15 -1.45 2.05 Q-2.05 2.15 -2.45 1.65 -2.9 1.05 -2.7 0.4 L-2.65 0.4 Q-2.5 -0.25 -1.9 -0.35 L-1.85 -0.35 1.8 -1.35 2.0 -0.75 M8.85 -1.2 L8.6 -1.85 7.9 -2.1 Q7.6 -2.15 7.35 -1.85 7.05 -1.55 7.05 -1.2 7.05 -0.8 7.35 -0.5 L7.9 -0.2 Q8.3 -0.25 8.6 -0.55 L8.6 -0.5 8.85 -1.2 M0.3 6.2 L-4.95 6.2 -5.25 6.05 -5.3 5.95 -5.35 5.7 -5.25 5.35 -5.25 5.3 -4.95 5.2 0.3 5.2 Q0.75 5.2 0.75 5.7 L0.7 5.95 0.65 6.05 0.3 6.2 M-9.65 9.1 L-9.25 8.4 Q-8.9 7.95 -8.35 7.95 L2.05 7.95 Q2.6 7.9 2.95 8.4 L3.0 8.4 3.3 9.1 -9.65 9.1 M-4.95 6.8 L0.3 6.8 0.45 6.8 0.45 7.35 -5.05 7.35 -5.05 6.8 -4.95 6.8 M-8.2 3.65 L-8.4 3.75 -8.6 3.8 -8.9 3.65 -9.0 3.55 -9.05 3.5 -10.65 0.45 Q-10.85 0.05 -10.5 -0.2 L-10.35 -0.3 -10.15 -0.4 -9.85 -0.25 -9.7 -0.15 -8.05 2.95 -8.0 3.5 -8.2 3.65 M-0.4 -5.05 L-0.4 -1.4 -2.0 -0.95 Q-2.95 -0.75 -3.2 0.25 L-3.2 0.2 Q-3.5 1.15 -2.9 2.0 -2.3 2.8 -1.35 2.65 L-0.4 2.5 -0.4 4.6 -4.3 4.6 -4.3 -2.45 -2.4 -2.45 -2.4 -3.65 -4.3 -3.65 -4.3 -4.35 -2.4 -4.35 -2.4 -5.5 -4.3 -5.5 -4.3 -6.6 -4.0 -7.1 -3.6 -7.3 -2.4 -7.3 -1.75 -6.9 -0.85 -6.05 -0.4 -5.05 M-7.85 -0.55 L-7.7 -0.5 -7.55 -0.5 Q-7.15 -0.35 -7.2 0.1 L-8.4 0.45 -8.25 -0.15 -8.15 -0.4 -7.85 -0.55 M-7.55 2.65 L-8.4 1.05 -4.9 0.15 -4.9 2.6 -7.5 2.8 -7.55 2.65 M-13.2 3.1 L-12.5 2.15 -10.65 1.7 -10.0 2.9 -13.2 3.1" fill="#8cb5e6" fill-rule="evenodd" stroke="none"/>
    </g>
  </defs>
</svg>
