<?xml version="1.0" encoding="UTF-8" standalone="no"?>
<svg xmlns:xlink="http://www.w3.org/1999/xlink" height="20.4px" width="20.4px" xmlns="http://www.w3.org/2000/svg">
  <g transform="matrix(1.0, 0.0, 0.0, 1.0, 10.15, 10.15)">
    <use data-characterId="354" height="20.4" transform="matrix(1.0, 0.0, 0.0, 1.0, -10.15, -10.15)" width="20.4" xlink:href="#shape0"/>
  </g>
  <defs>
    <g id="shape0" transform="matrix(1.0, 0.0, 0.0, 1.0, 10.15, 10.15)">
      <path d="M-6.65 6.65 Q-4.1 8.8 -0.65 8.8 3.3 8.8 6.0 6.0 8.8 3.2 8.8 -0.7 8.8 -4.15 6.75 -6.6 L7.45 -5.95 Q10.25 -3.2 10.25 0.7 10.25 4.65 7.45 7.45 4.7 10.25 0.8 10.25 -3.15 10.25 -5.95 7.45 L-6.65 6.65" fill="#000000" fill-opacity="0.69803923" fill-rule="evenodd" stroke="none"/>
      <path d="M6.75 -6.6 Q8.8 -4.15 8.8 -0.7 8.8 3.2 6.0 6.0 3.3 8.8 -0.65 8.8 -4.1 8.8 -6.65 6.65 L-7.35 6.0 Q-10.15 3.3 -10.15 -0.7 -10.15 -4.65 -7.35 -7.35 -4.6 -10.15 -0.65 -10.15 3.3 -10.15 6.0 -7.35 L6.75 -6.6 M-9.0 -0.65 Q-9.0 2.8 -6.6 5.3 -4.15 7.75 -0.7 7.75 2.6 7.75 5.1 5.45 L1.05 3.6 -2.6 4.45 0.45 2.85 -0.85 1.95 0.85 1.95 1.8 0.7 0.65 -0.15 -5.8 -0.55 -0.3 -1.5 1.0 -3.1 -1.0 -3.8 -2.0 -3.6 -1.45 -2.3 -2.8 -3.5 -5.8 -3.3 -6.8 -3.85 -5.8 -3.7 -4.35 -5.85 -6.25 -6.85 Q-9.0 -4.45 -9.0 -0.65 M5.5 4.95 Q7.65 2.6 7.65 -0.65 7.65 -4.15 5.25 -6.6 2.8 -9.0 -0.7 -9.0 -3.6 -9.0 -5.8 -7.25 L-3.0 -6.45 -0.35 -7.35 -2.7 -6.0 -3.15 -5.15 -2.45 -4.85 -0.55 -5.45 3.3 -3.95 6.45 -3.45 3.7 -3.35 1.65 -1.2 2.35 -0.85 2.95 0.45 5.8 -0.65 2.45 2.15 2.65 2.95 5.5 4.95" fill="#000000" fill-rule="evenodd" stroke="none"/>
      <path d="M5.5 4.95 L2.65 2.95 2.45 2.15 5.8 -0.65 2.95 0.45 2.35 -0.85 1.65 -1.2 3.7 -3.35 6.45 -3.45 3.3 -3.95 -0.55 -5.45 -2.45 -4.85 -3.15 -5.15 -2.7 -6.0 -0.35 -7.35 -3.0 -6.45 -5.8 -7.25 Q-3.6 -9.0 -0.7 -9.0 2.8 -9.0 5.25 -6.6 7.65 -4.15 7.65 -0.65 7.65 2.6 5.5 4.95 M-9.0 -0.65 Q-9.0 -4.45 -6.25 -6.85 L-4.35 -5.85 -5.8 -3.7 -6.8 -3.85 -5.8 -3.3 -2.8 -3.5 -1.45 -2.3 -2.0 -3.6 -1.0 -3.8 1.0 -3.1 -0.3 -1.5 -5.8 -0.55 0.65 -0.15 1.8 0.7 0.85 1.95 -0.85 1.95 0.45 2.85 -2.6 4.45 1.05 3.6 5.1 5.45 Q2.6 7.75 -0.7 7.75 -4.15 7.75 -6.6 5.3 -9.0 2.8 -9.0 -0.65" fill="#8cb5e6" fill-rule="evenodd" stroke="none"/>
    </g>
  </defs>
</svg>
