<?xml version="1.0" encoding="UTF-8" standalone="no"?>
<svg xmlns:ffdec="https://www.free-decompiler.com/flash" xmlns:xlink="http://www.w3.org/1999/xlink" ffdec:objectType="frame" height="28.1px" width="30.8px" xmlns="http://www.w3.org/2000/svg">
  <g transform="matrix(1.0, 0.0, 0.0, 1.0, 15.55, 14.2)">
    <use ffdec:characterId="59" height="28.1" transform="matrix(1.0, 0.0, 0.0, 1.0, -15.55, -14.2)" width="30.8" xlink:href="#shape0"/>
  </g>
  <defs>
    <g id="shape0" transform="matrix(1.0, 0.0, 0.0, 1.0, 15.55, 14.2)">
      <path d="M-2.65 -3.5 L-3.05 -3.4 -3.15 -2.35 -3.15 -2.05 -3.0 -1.95 -3.05 -1.95 -2.4 -1.85 -2.05 -1.85 -1.4 -2.3 -1.05 -3.05 -1.55 -3.6 -2.65 -3.5 M-6.2 -6.35 L-8.65 -6.35 -6.05 -2.25 -6.25 -5.3 -6.2 -6.35 M-3.1 1.35 L-3.75 1.4 0.75 8.5 5.2 1.4 4.5 1.35 4.2 2.85 4.15 2.95 4.05 3.0 3.75 3.15 2.85 3.4 2.8 3.45 2.7 3.5 2.65 3.5 2.1 3.7 1.95 3.7 1.85 3.6 -0.1 3.65 -0.4 3.6 -0.5 3.7 -0.65 3.7 -1.25 3.5 -1.3 3.5 -1.45 3.4 -1.5 3.4 -2.65 3.05 -2.75 2.95 -2.8 2.85 -3.1 1.35 M3.8 -1.85 L4.45 -1.95 4.5 -1.95 4.6 -2.05 4.6 -2.35 4.45 -3.4 4.1 -3.5 2.95 -3.6 2.65 -3.35 2.45 -3.05 2.8 -2.3 2.8 -2.25 Q3.1 -1.9 3.4 -1.9 L3.45 -1.9 3.8 -1.85 M10.1 -6.35 L7.65 -6.35 7.7 -5.3 7.45 -2.15 10.1 -6.35 M-3.95 -11.35 Q-2.65 -12.55 -0.05 -12.85 L0.1 -12.95 0.2 -12.95 0.85 -12.9 2.9 -12.6 3.35 -12.45 3.5 -12.35 3.55 -12.2 3.5 -11.8 3.85 -12.15 3.95 -12.2 4.1 -12.15 4.4 -12.0 4.45 -12.0 5.4 -11.35 Q6.65 -10.3 7.1 -9.35 L15.0 -9.35 15.2 -9.3 15.25 -9.15 15.25 -8.95 0.95 13.8 0.8 13.9 0.65 13.9 0.5 13.8 -13.8 -8.95 -13.85 -9.15 -13.75 -9.3 -13.6 -9.35 -5.7 -9.35 Q-5.3 -10.4 -3.95 -11.35" fill="#000000" fill-opacity="0.49803922" fill-rule="evenodd" stroke="none"/>
      <path d="M-4.55 0.4 L-5.2 0.45 -0.7 7.55 3.75 0.45 3.05 0.4 2.75 1.9 2.7 2.0 2.6 2.05 2.3 2.2 1.4 2.45 1.35 2.5 1.25 2.55 1.2 2.55 0.65 2.75 0.5 2.75 0.4 2.65 -1.55 2.7 -1.85 2.65 -1.95 2.75 -2.1 2.75 -2.7 2.55 -2.75 2.55 -2.9 2.45 -2.95 2.45 -4.1 2.1 -4.2 2.0 -4.25 1.9 -4.55 0.4 M-0.7 -2.65 L-0.9 -1.95 -0.7 -2.0 -0.6 -1.95 -0.6 -2.15 -0.65 -2.65 -0.7 -2.65 M-0.7 -3.2 L-0.65 -3.2 -0.6 -3.35 -0.6 -3.4 -0.5 -3.35 0.0 -2.25 0.1 -1.25 0.0 -1.05 -0.25 -1.1 -0.7 -1.45 -0.85 -1.4 -1.25 -1.05 -1.35 -1.0 -1.5 -1.15 Q-1.5 -2.45 -1.0 -3.3 L-0.9 -3.4 -0.75 -3.3 -0.7 -3.2 M-3.85 -2.0 L-4.8 -2.2 -5.4 -2.7 -5.4 -3.3 Q-5.4 -4.65 -5.1 -4.95 L-4.15 -5.25 -2.95 -5.35 -2.9 -5.35 -2.55 -5.2 -2.15 -4.9 -1.7 -4.2 -1.7 -3.8 -2.15 -2.85 Q-2.55 -2.25 -3.3 -2.05 L-3.85 -2.0 M-4.1 -4.45 L-4.5 -4.35 -4.6 -3.3 -4.6 -3.0 -4.45 -2.9 -4.5 -2.9 -3.85 -2.8 -3.5 -2.8 -2.85 -3.25 -2.5 -4.0 -3.0 -4.55 -4.1 -4.45 M-7.65 -7.3 L-10.1 -7.3 -7.5 -3.2 -7.7 -6.25 -7.65 -7.3 M2.35 -2.8 L3.0 -2.9 3.05 -2.9 3.15 -3.0 3.15 -3.3 3.0 -4.35 2.65 -4.45 1.5 -4.55 1.2 -4.3 1.0 -4.0 1.35 -3.25 1.35 -3.2 1.95 -2.85 2.0 -2.85 2.35 -2.8 M2.3 -2.0 L1.85 -2.05 Q1.0 -2.25 0.7 -2.85 L0.25 -3.8 0.25 -4.2 0.65 -4.9 1.0 -5.2 1.4 -5.35 2.7 -5.25 3.55 -4.95 Q3.95 -4.65 3.95 -3.3 L3.9 -2.7 3.35 -2.2 2.3 -2.0 M8.65 -7.3 L6.2 -7.3 6.25 -6.25 6.0 -3.1 8.65 -7.3 M-0.7 -13.05 L-2.55 -12.8 Q-4.1 -12.4 -4.9 -11.75 -6.35 -10.5 -6.6 -9.5 L-14.05 -9.5 -0.7 11.7 12.6 -9.5 5.1 -9.5 Q4.85 -10.55 3.4 -11.75 L2.65 -12.25 1.9 -11.55 1.8 -10.45 0.2 -9.45 0.35 -8.55 0.9 -8.15 1.05 -7.6 1.6 -7.1 2.55 -6.95 2.95 -6.45 2.3 -6.9 1.65 -6.9 1.65 -6.45 1.45 -6.95 0.9 -7.4 0.75 -8.1 0.15 -8.45 0.0 -8.95 -0.3 -9.1 -1.2 -8.1 -1.5 -7.25 -2.05 -6.85 -2.3 -6.35 -2.8 -6.25 -3.25 -5.5 -2.9 -6.3 -3.05 -6.55 -3.6 -6.85 -2.9 -6.7 -2.75 -6.4 -2.45 -6.45 -2.25 -6.85 -1.7 -7.4 -1.65 -8.3 -0.85 -9.3 -0.5 -9.85 1.3 -10.75 1.35 -11.5 1.1 -11.9 1.25 -12.75 -0.65 -13.05 -0.7 -13.05 M3.2 -8.0 L3.4 -8.25 3.8 -8.95 Q3.8 -9.4 4.15 -10.15 L4.25 -10.4 4.3 -10.4 4.0 -9.3 4.2 -8.75 4.35 -8.65 4.45 -8.8 4.45 -9.5 4.55 -8.85 4.5 -8.75 4.6 -8.25 Q5.05 -7.65 4.5 -7.25 L4.45 -7.05 4.55 -6.4 4.55 -5.85 4.75 -4.95 Q4.85 -4.55 5.25 -3.9 L5.45 -6.3 5.35 -8.1 10.1 -8.1 -0.7 9.05 -11.55 -8.1 -6.8 -8.1 -6.9 -6.3 -6.75 -3.9 Q-6.35 -4.55 -6.25 -4.95 L-6.0 -5.95 -6.1 -5.75 -6.15 -6.2 -6.0 -7.05 -6.1 -7.25 Q-6.4 -7.65 -6.25 -8.15 L-6.2 -8.2 Q-6.0 -8.5 -6.1 -8.75 L-6.0 -9.35 -6.0 -8.9 -5.95 -8.8 -5.85 -8.65 -5.7 -8.75 Q-5.5 -9.05 -5.6 -9.35 L-5.8 -10.25 -5.8 -10.4 -5.35 -9.15 -4.8 -8.1 -4.75 -8.05 Q-5.0 -8.1 -5.2 -8.3 L-5.35 -8.55 -5.5 -8.65 -5.6 -8.55 -6.0 -7.9 -5.75 -7.25 -5.75 -7.2 -5.95 -6.15 Q-5.95 -4.5 -6.2 -3.8 L-6.85 -2.3 -6.85 -1.95 -6.6 -1.25 -5.9 -0.35 -4.45 -0.4 -4.65 -1.2 -3.95 -0.55 -3.5 1.45 -2.65 1.75 -2.7 0.35 -2.2 0.6 -2.2 1.85 -1.0 1.9 -0.95 0.7 -0.5 0.7 -0.5 1.9 0.7 1.85 0.7 0.6 1.2 0.35 1.1 1.75 2.05 1.45 2.45 -0.55 3.2 -1.2 2.95 -0.4 4.45 -0.35 5.1 -1.25 5.4 -1.95 5.35 -2.3 4.65 -3.8 Q4.5 -4.35 4.5 -5.85 L4.2 -7.1 4.25 -7.35 Q4.75 -7.65 4.35 -8.25 L4.05 -8.6 3.95 -8.65 3.8 -8.55 3.3 -8.05 3.2 -8.0 M-5.4 -12.3 Q-4.1 -13.5 -1.5 -13.8 L-1.35 -13.9 -1.25 -13.9 -0.6 -13.85 1.45 -13.55 1.9 -13.4 2.05 -13.3 2.1 -13.15 2.05 -12.75 2.4 -13.1 2.5 -13.15 2.65 -13.1 2.95 -12.95 3.0 -12.95 3.95 -12.3 Q5.2 -11.25 5.65 -10.3 L13.55 -10.3 13.75 -10.25 13.8 -10.1 13.8 -9.9 -0.5 12.85 -0.65 12.95 -0.8 12.95 -0.95 12.85 -15.25 -9.9 -15.3 -10.1 -15.2 -10.25 -15.05 -10.3 -7.15 -10.3 Q-6.75 -11.35 -5.4 -12.3" fill="#000000" fill-rule="evenodd" stroke="none"/>
      <path d="M-5.4 -12.3 Q-6.75 -11.35 -7.15 -10.3 L-15.05 -10.3 -15.2 -10.25 -15.3 -10.1 -15.25 -9.9 -0.95 12.85 -0.8 12.95 -0.65 12.95 -0.5 12.85 13.8 -9.9 13.8 -10.1 13.75 -10.25 13.55 -10.3 5.65 -10.3 Q5.2 -11.25 3.95 -12.3 L3.0 -12.95 2.95 -12.95 2.65 -13.1 2.5 -13.15 2.4 -13.1 2.05 -12.75 2.1 -13.15 2.05 -13.3 1.9 -13.4 1.45 -13.55 -0.6 -13.85 -1.25 -13.9 -1.35 -13.9 -1.5 -13.8 Q-4.1 -13.5 -5.4 -12.3 M3.2 -8.0 L3.3 -8.05 3.8 -8.55 3.95 -8.65 4.05 -8.6 4.35 -8.25 Q4.75 -7.65 4.25 -7.35 L4.2 -7.1 4.5 -5.85 Q4.5 -4.35 4.65 -3.8 L5.35 -2.3 5.4 -1.95 5.1 -1.25 4.45 -0.35 2.95 -0.4 3.2 -1.2 2.45 -0.55 2.05 1.45 1.1 1.75 1.2 0.35 0.7 0.6 0.7 1.85 -0.5 1.9 -0.5 0.7 -0.95 0.7 -1.0 1.9 -2.2 1.85 -2.2 0.6 -2.7 0.35 -2.65 1.75 -3.5 1.45 -3.95 -0.55 -4.65 -1.2 -4.45 -0.4 -5.9 -0.35 -6.6 -1.25 -6.85 -1.95 -6.85 -2.3 -6.2 -3.8 Q-5.95 -4.5 -5.95 -6.15 L-5.75 -7.2 -5.75 -7.25 -6.0 -7.9 -5.6 -8.55 -5.5 -8.65 -5.35 -8.55 -5.2 -8.3 Q-5.0 -8.1 -4.75 -8.05 L-4.8 -8.1 -5.35 -9.15 -5.8 -10.4 -5.8 -10.25 -5.6 -9.35 Q-5.5 -9.05 -5.7 -8.75 L-5.85 -8.65 -5.95 -8.8 -6.0 -8.9 -6.0 -9.35 -6.1 -8.75 Q-6.0 -8.5 -6.2 -8.2 L-6.25 -8.15 Q-6.4 -7.65 -6.1 -7.25 L-6.0 -7.05 -6.15 -6.2 -6.1 -5.75 -6.0 -5.95 -6.25 -4.95 Q-6.35 -4.55 -6.75 -3.9 L-6.9 -6.3 -6.8 -8.1 -11.55 -8.1 -0.7 9.05 10.1 -8.1 5.35 -8.1 5.45 -6.3 5.25 -3.9 Q4.85 -4.55 4.75 -4.95 L4.55 -5.85 4.55 -6.4 4.45 -7.05 4.5 -7.25 Q5.05 -7.65 4.6 -8.25 L4.5 -8.75 4.55 -8.85 4.45 -9.5 4.45 -8.8 4.35 -8.65 4.2 -8.75 4.0 -9.3 4.3 -10.4 4.25 -10.4 4.15 -10.15 Q3.8 -9.4 3.8 -8.95 L3.4 -8.25 3.2 -8.0 M-0.7 -13.05 L-0.65 -13.05 1.25 -12.75 1.1 -11.9 1.35 -11.5 1.3 -10.75 -0.5 -9.85 -0.85 -9.3 -1.65 -8.3 -1.7 -7.4 -2.25 -6.85 -2.45 -6.45 -2.75 -6.4 -2.9 -6.7 -3.6 -6.85 -3.05 -6.55 -2.9 -6.3 -3.25 -5.5 -2.8 -6.25 -2.3 -6.35 -2.05 -6.85 -1.5 -7.25 -1.2 -8.1 -0.3 -9.1 0.0 -8.95 0.15 -8.45 0.75 -8.1 0.9 -7.4 1.45 -6.95 1.65 -6.45 1.65 -6.9 2.3 -6.9 2.95 -6.45 2.55 -6.95 1.6 -7.1 1.05 -7.6 0.9 -8.15 0.35 -8.55 0.2 -9.45 1.8 -10.45 1.9 -11.55 2.65 -12.25 3.4 -11.75 Q4.85 -10.55 5.1 -9.5 L12.6 -9.5 -0.7 11.7 -14.05 -9.5 -6.6 -9.5 Q-6.35 -10.5 -4.9 -11.75 -4.1 -12.4 -2.55 -12.8 L-0.7 -13.05 M8.65 -7.3 L6.0 -3.1 6.25 -6.25 6.2 -7.3 8.65 -7.3 M2.3 -2.0 L3.35 -2.2 3.9 -2.7 3.95 -3.3 Q3.95 -4.65 3.55 -4.95 L2.7 -5.25 1.4 -5.35 1.0 -5.2 0.65 -4.9 0.25 -4.2 0.25 -3.8 0.7 -2.85 Q1.0 -2.25 1.85 -2.05 L2.3 -2.0 M2.35 -2.8 L2.0 -2.85 1.95 -2.85 1.35 -3.2 1.35 -3.25 1.0 -4.0 1.2 -4.3 1.5 -4.55 2.65 -4.45 3.0 -4.35 3.15 -3.3 3.15 -3.0 3.05 -2.9 3.0 -2.9 2.35 -2.8 M-7.65 -7.3 L-7.7 -6.25 -7.5 -3.2 -10.1 -7.3 -7.65 -7.3 M-4.1 -4.45 L-3.0 -4.55 -2.5 -4.0 -2.85 -3.25 -3.5 -2.8 -3.85 -2.8 -4.5 -2.9 -4.45 -2.9 -4.6 -3.0 -4.6 -3.3 -4.5 -4.35 -4.1 -4.45 M-3.85 -2.0 L-3.3 -2.05 Q-2.55 -2.25 -2.15 -2.85 L-1.7 -3.8 -1.7 -4.2 -2.15 -4.9 -2.55 -5.2 -2.9 -5.35 -2.95 -5.35 -4.15 -5.25 -5.1 -4.95 Q-5.4 -4.65 -5.4 -3.3 L-5.4 -2.7 -4.8 -2.2 -3.85 -2.0 M-0.7 -3.2 L-0.75 -3.3 -0.9 -3.4 -1.0 -3.3 Q-1.5 -2.45 -1.5 -1.15 L-1.35 -1.0 -1.25 -1.05 -0.85 -1.4 -0.7 -1.45 -0.25 -1.1 0.0 -1.05 0.1 -1.25 0.0 -2.25 -0.5 -3.35 -0.6 -3.4 -0.6 -3.35 -0.65 -3.2 -0.7 -3.2 M-0.7 -2.65 L-0.65 -2.65 -0.6 -2.15 -0.6 -1.95 -0.7 -2.0 -0.9 -1.95 -0.7 -2.65 M-4.55 0.4 L-4.25 1.9 -4.2 2.0 -4.1 2.1 -2.95 2.45 -2.9 2.45 -2.75 2.55 -2.7 2.55 -2.1 2.75 -1.95 2.75 -1.85 2.65 -1.55 2.7 0.4 2.65 0.5 2.75 0.65 2.75 1.2 2.55 1.25 2.55 1.35 2.5 1.4 2.45 2.3 2.2 2.6 2.05 2.7 2.0 2.75 1.9 3.05 0.4 3.75 0.45 -0.7 7.55 -5.2 0.45 -4.55 0.4 Z" fill="none" stroke="#000000" stroke-linecap="round" stroke-linejoin="round" stroke-width="0.5"/>
      <path d="M3.2 -8.0 L3.3 -8.05 3.8 -8.55 3.95 -8.65 4.05 -8.6 4.35 -8.25 Q4.75 -7.65 4.25 -7.35 L4.2 -7.1 4.5 -5.85 Q4.5 -4.35 4.65 -3.8 L5.35 -2.3 5.4 -1.95 5.1 -1.25 4.45 -0.35 2.95 -0.4 3.2 -1.2 2.45 -0.55 2.05 1.45 1.1 1.75 1.2 0.35 0.7 0.6 0.7 1.85 -0.5 1.9 -0.5 0.7 -0.95 0.7 -1.0 1.9 -2.2 1.85 -2.2 0.6 -2.7 0.35 -2.65 1.75 -3.5 1.45 -3.95 -0.55 -4.65 -1.2 -4.45 -0.4 -5.9 -0.35 -6.6 -1.25 -6.85 -1.95 -6.85 -2.3 -6.2 -3.8 Q-5.95 -4.5 -5.95 -6.15 L-5.75 -7.2 -5.75 -7.25 -6.0 -7.9 -5.6 -8.55 -5.5 -8.65 -5.35 -8.55 -5.2 -8.3 Q-5.0 -8.1 -4.75 -8.05 L-4.8 -8.1 -5.35 -9.15 -5.8 -10.4 -5.8 -10.25 -5.6 -9.35 Q-5.5 -9.05 -5.7 -8.75 L-5.85 -8.65 -5.95 -8.8 -6.0 -8.9 -6.0 -9.35 -6.1 -8.75 Q-6.0 -8.5 -6.2 -8.2 L-6.25 -8.15 Q-6.4 -7.65 -6.1 -7.25 L-6.0 -7.05 -6.15 -6.2 -6.1 -5.75 -6.0 -5.95 -6.25 -4.95 Q-6.35 -4.55 -6.75 -3.9 L-6.9 -6.3 -6.8 -8.1 -11.55 -8.1 -0.7 9.05 10.1 -8.1 5.35 -8.1 5.45 -6.3 5.25 -3.9 Q4.85 -4.55 4.75 -4.95 L4.55 -5.85 4.55 -6.4 4.45 -7.05 4.5 -7.25 Q5.05 -7.65 4.6 -8.25 L4.5 -8.75 4.55 -8.85 4.45 -9.5 4.45 -8.8 4.35 -8.65 4.2 -8.75 4.0 -9.3 4.3 -10.4 4.25 -10.4 4.15 -10.15 Q3.8 -9.4 3.8 -8.95 L3.4 -8.25 3.2 -8.0 M-0.7 -13.05 L-0.65 -13.05 1.25 -12.75 1.1 -11.9 1.35 -11.5 1.3 -10.75 -0.5 -9.85 -0.85 -9.3 -1.65 -8.3 -1.7 -7.4 -2.25 -6.85 -2.45 -6.45 -2.75 -6.4 -2.9 -6.7 -3.6 -6.85 -3.05 -6.55 -2.9 -6.3 -3.25 -5.5 -2.8 -6.25 -2.3 -6.35 -2.05 -6.85 -1.5 -7.25 -1.2 -8.1 -0.3 -9.1 0.0 -8.95 0.15 -8.45 0.75 -8.1 0.9 -7.4 1.45 -6.95 1.65 -6.45 1.65 -6.9 2.3 -6.9 2.95 -6.45 2.55 -6.95 1.6 -7.1 1.05 -7.6 0.9 -8.15 0.35 -8.55 0.2 -9.45 1.8 -10.45 1.9 -11.55 2.65 -12.25 3.4 -11.75 Q4.85 -10.55 5.1 -9.5 L12.6 -9.5 -0.7 11.7 -14.05 -9.5 -6.6 -9.5 Q-6.35 -10.5 -4.9 -11.75 -4.1 -12.4 -2.55 -12.8 L-0.7 -13.05 M2.3 -2.0 L3.35 -2.2 3.9 -2.7 3.95 -3.3 Q3.95 -4.65 3.55 -4.95 L2.7 -5.25 1.4 -5.35 1.0 -5.2 0.65 -4.9 0.25 -4.2 0.25 -3.8 0.7 -2.85 Q1.0 -2.25 1.85 -2.05 L2.3 -2.0 M-3.85 -2.0 L-3.3 -2.05 Q-2.55 -2.25 -2.15 -2.85 L-1.7 -3.8 -1.7 -4.2 -2.15 -4.9 -2.55 -5.2 -2.9 -5.35 -2.95 -5.35 -4.15 -5.25 -5.1 -4.95 Q-5.4 -4.65 -5.4 -3.3 L-5.4 -2.7 -4.8 -2.2 -3.85 -2.0 M-0.7 -3.2 L-0.75 -3.3 -0.9 -3.4 -1.0 -3.3 Q-1.5 -2.45 -1.5 -1.15 L-1.35 -1.0 -1.25 -1.05 -0.85 -1.4 -0.7 -1.45 -0.25 -1.1 0.0 -1.05 0.1 -1.25 0.0 -2.25 -0.5 -3.35 -0.6 -3.4 -0.6 -3.35 -0.65 -3.2 -0.7 -3.2" fill="#f6cd63" fill-rule="evenodd" stroke="none"/>
    </g>
  </defs>
</svg>
