<?xml version="1.0" encoding="UTF-8" standalone="no"?>
<svg xmlns:xlink="http://www.w3.org/1999/xlink" height="21.55px" width="23.8px" xmlns="http://www.w3.org/2000/svg">
  <g transform="matrix(1.0, 0.0, 0.0, 1.0, 10.9, 10.25)">
    <use data-characterId="350" height="21.55" transform="matrix(1.0, 0.0, 0.0, 1.0, -10.9, -10.25)" width="23.8" xlink:href="#shape0"/>
  </g>
  <defs>
    <g id="shape0" transform="matrix(1.0, 0.0, 0.0, 1.0, 10.9, 10.25)">
      <path d="M2.95 -8.95 L3.25 -8.25 3.25 -7.75 3.85 -7.15 3.9 -7.05 4.0 -6.6 4.0 -5.6 4.4 -5.35 4.7 -4.65 4.7 -3.4 4.9 -3.25 5.2 -2.55 5.2 -2.05 9.95 -2.05 9.95 -2.55 Q9.95 -2.95 10.25 -3.25 L10.95 -3.55 11.9 -3.55 12.6 -3.25 12.9 -2.55 12.9 10.3 12.6 11.0 11.9 11.3 -7.9 11.3 -8.6 11.0 -8.65 10.95 -8.7 10.9 -8.9 10.3 -8.9 -2.55 -8.7 -3.15 -8.65 -3.2 -8.6 -3.25 -7.9 -3.55 -6.9 -3.55 -6.2 -3.25 Q-5.9 -2.95 -5.9 -2.55 L-5.9 -2.05 -1.2 -2.05 -1.2 -2.55 -0.9 -3.25 -0.65 -3.45 -0.65 -4.65 -0.35 -5.35 0.05 -5.6 0.05 -6.6 0.2 -7.05 0.5 -7.45 0.5 -7.5 0.75 -7.75 0.75 -8.25 Q0.75 -8.65 1.05 -8.95 1.35 -9.25 1.75 -9.25 L2.25 -9.25 Q2.65 -9.25 2.95 -8.95" fill="#081a15" fill-opacity="0.49803922" fill-rule="evenodd" stroke="none"/>
      <path d="M1.25 -9.25 L1.25 -8.8 1.85 -8.15 2.0 -7.6 2.0 -6.6 2.4 -6.35 2.7 -5.65 2.7 -4.4 2.9 -4.25 3.2 -3.55 3.2 -3.05 7.95 -3.05 7.95 -3.55 Q7.95 -3.95 8.25 -4.25 8.55 -4.55 8.95 -4.55 L9.9 -4.55 10.6 -4.25 10.9 -3.55 10.9 9.3 10.6 10.0 9.9 10.3 -9.9 10.3 -10.6 10.0 -10.9 9.3 -10.9 -3.55 -10.6 -4.25 -9.9 -4.55 -8.9 -4.55 Q-8.5 -4.55 -8.2 -4.25 -7.9 -3.95 -7.9 -3.55 L-7.9 -3.05 -3.2 -3.05 -3.2 -3.55 -2.9 -4.25 -2.65 -4.45 -2.65 -5.65 -2.35 -6.35 -1.95 -6.6 -1.95 -7.6 -1.8 -8.15 -1.75 -8.15 -1.45 -8.5 -1.45 -8.55 -1.25 -8.75 -1.25 -9.25 -0.95 -9.95 -0.25 -10.25 0.25 -10.25 0.95 -9.95 1.25 -9.25" fill="#000000" fill-rule="evenodd" stroke="none"/>
      <path d="M-3.4 7.8 L-3.4 3.35 -5.15 3.35 -5.15 7.8 -3.4 7.8 M-6.95 7.8 L-6.95 3.35 -8.65 3.35 -8.65 7.8 -6.95 7.8 M-6.7 0.1 L-7.5 -0.5 -8.35 0.1 -8.35 1.45 -6.7 1.45 -6.7 0.1 M-1.55 0.1 L-2.35 -0.5 -3.2 0.1 -3.2 1.45 -1.55 1.45 -1.55 0.1 M1.25 8.7 L1.25 6.35 -0.15 5.45 -1.45 6.35 -1.45 8.7 1.25 8.7 M4.7 7.8 L4.7 3.35 2.95 3.35 2.95 7.8 4.7 7.8 M3.55 0.1 L2.75 -0.5 1.9 0.1 1.9 1.45 3.55 1.45 3.55 0.1 M8.75 0.1 L7.9 -0.5 7.1 0.1 7.1 1.45 8.75 1.45 8.75 0.1 M8.2 7.8 L8.2 3.35 6.45 3.35 6.45 7.8 8.2 7.8 M0.5 -8.1 L1.0 -7.6 1.0 -5.65 1.7 -5.65 1.7 -3.55 2.2 -3.55 2.2 -2.05 8.95 -2.05 8.95 -3.55 9.9 -3.55 9.9 9.3 -9.9 9.3 -9.9 -3.55 -8.9 -3.55 -8.9 -2.05 -2.2 -2.05 -2.2 -3.55 -1.65 -3.55 -1.65 -5.65 -0.95 -5.65 -0.95 -7.6 -0.75 -7.85 -0.25 -8.25 -0.25 -9.25 0.25 -9.25 0.25 -8.25 0.5 -8.1" fill="#8cb5e6" fill-rule="evenodd" stroke="none"/>
    </g>
  </defs>
</svg>
