<?xml version="1.0" encoding="UTF-8" standalone="no"?>
<svg xmlns:xlink="http://www.w3.org/1999/xlink" height="21.0px" width="18.6px" xmlns="http://www.w3.org/2000/svg">
  <g transform="matrix(1.0, 0.0, 0.0, 1.0, 8.05, 10.0)">
    <use data-characterId="348" height="21.0" transform="matrix(1.0, 0.0, 0.0, 1.0, -8.05, -10.0)" width="18.6" xlink:href="#shape0"/>
  </g>
  <defs>
    <g id="shape0" transform="matrix(1.0, 0.0, 0.0, 1.0, 8.05, 10.0)">
      <path d="M6.8 -7.1 L6.8 -7.05 6.85 -7.0 7.15 -6.7 Q8.25 -5.2 8.25 -3.25 L8.25 4.8 9.55 4.8 Q9.95 4.8 10.25 5.1 L10.55 5.8 10.55 10.0 10.25 10.7 9.55 11.0 -4.55 11.0 -5.25 10.7 -5.55 10.0 -5.55 5.8 -5.25 5.1 Q-4.95 4.8 -4.55 4.8 L-3.25 4.8 -3.25 -3.25 Q-3.25 -5.6 -1.55 -7.3 0.15 -9.0 2.5 -9.0 4.8 -9.0 6.5 -7.4 L6.8 -7.1" fill="#081a15" fill-opacity="0.49803922" fill-rule="evenodd" stroke="none"/>
      <path d="M4.2 -8.2 L4.45 -7.9 4.5 -7.85 4.55 -7.8 Q5.75 -6.3 5.75 -4.25 L5.75 3.8 7.05 3.8 Q7.45 3.8 7.75 4.1 L8.05 4.8 8.05 9.0 7.75 9.7 Q7.45 10.0 7.05 10.0 L-7.05 10.0 Q-7.45 10.0 -7.75 9.7 L-8.05 9.0 -8.05 4.8 -7.75 4.1 Q-7.45 3.8 -7.05 3.8 L-5.75 3.8 -5.75 -4.25 Q-5.75 -6.6 -4.05 -8.3 -2.35 -10.0 0.0 -10.0 2.4 -10.0 4.1 -8.3 L4.2 -8.2" fill="#000000" fill-rule="evenodd" stroke="none"/>
      <path d="M1.05 -0.1 L1.05 -1.7 -1.25 -1.7 -1.25 -0.1 1.05 -0.1 M3.75 -7.2 Q4.75 -5.95 4.75 -4.25 L4.75 4.8 7.05 4.8 7.05 9.0 -7.05 9.0 -7.05 4.8 -4.75 4.8 -4.75 -4.25 Q-4.75 -6.2 -3.35 -7.6 -1.95 -9.0 0.0 -9.0 2.0 -9.0 3.4 -7.6 L3.75 -7.2 M2.8 -4.1 L-3.05 -4.1 -3.05 -2.45 2.8 -2.45 2.8 -4.1" fill="#8cb5e6" fill-rule="evenodd" stroke="none"/>
    </g>
  </defs>
</svg>
