<?xml version="1.0" encoding="UTF-8" standalone="no"?>
<svg xmlns:xlink="http://www.w3.org/1999/xlink" height="20.0px" width="25.8px" xmlns="http://www.w3.org/2000/svg">
  <g transform="matrix(1.0, 0.0, 0.0, 1.0, 12.1, 9.5)">
    <use data-characterId="346" height="20.0" transform="matrix(1.0, 0.0, 0.0, 1.0, -12.1, -9.5)" width="25.8" xlink:href="#shape0"/>
  </g>
  <defs>
    <g id="shape0" transform="matrix(1.0, 0.0, 0.0, 1.0, 12.1, 9.5)">
      <path d="M12.8 -1.95 L13.4 -1.75 13.7 -1.25 13.45 0.6 12.9 1.65 12.85 1.7 12.4 2.0 Q12.35 3.3 11.9 4.05 L11.4 4.6 10.9 4.9 10.8 4.9 10.45 5.5 10.05 6.25 9.95 6.4 Q8.65 8.4 6.2 9.55 L4.0 10.3 1.95 10.5 0.0 10.3 -2.05 9.6 Q-4.35 8.55 -5.65 6.8 L-5.65 6.75 -6.25 5.85 -6.85 4.9 -7.3 4.7 Q-7.9 4.4 -8.2 3.45 L-8.2 3.5 -8.5 2.0 -8.6 1.9 -9.45 0.85 -9.75 -1.0 -9.7 -1.4 -9.65 -1.5 -9.35 -1.85 -8.9 -1.95 -8.8 -1.95 -7.35 -1.75 -7.2 -2.2 -6.0 -4.75 Q-4.75 -6.6 -2.7 -7.7 -0.5 -8.95 1.9 -8.95 3.9 -8.95 5.8 -8.15 7.25 -7.55 8.45 -6.5 L9.5 -5.4 10.45 -4.05 11.05 -2.55 11.35 -1.8 12.8 -1.95" fill="#081a15" fill-opacity="0.49803922" fill-rule="evenodd" stroke="none"/>
      <path d="M10.45 -2.5 L11.05 -2.3 11.35 -1.75 Q11.45 -0.95 11.15 0.05 L11.1 0.05 10.6 1.1 10.5 1.15 10.1 1.45 Q10.05 2.75 9.55 3.5 L9.1 4.05 8.55 4.35 8.45 4.35 8.15 4.95 8.1 4.95 7.7 5.7 7.6 5.85 Q6.35 7.85 3.85 9.0 L1.7 9.75 1.65 9.75 -0.35 9.95 -2.3 9.75 -4.35 9.05 Q-6.7 8.0 -7.95 6.25 L-8.6 5.3 -9.15 4.35 -9.6 4.15 -10.55 2.9 -10.55 2.95 -10.8 1.45 -10.9 1.4 -10.95 1.35 -11.8 0.3 -12.1 -1.55 -12.0 -1.95 -12.0 -2.05 -11.65 -2.4 -11.25 -2.5 -11.15 -2.5 -9.7 -2.3 -9.5 -2.75 Q-9.1 -4.2 -8.3 -5.3 -7.05 -7.15 -5.0 -8.25 -2.85 -9.5 -0.45 -9.5 1.55 -9.5 3.45 -8.7 4.9 -8.1 6.15 -7.05 L6.1 -7.05 7.15 -5.95 8.1 -4.65 8.1 -4.6 8.7 -3.1 9.0 -2.35 10.45 -2.5" fill="#181c1d" fill-rule="evenodd" stroke="none"/>
      <path d="M2.05 5.25 L1.95 4.95 1.7 4.85 1.5 4.95 1.4 5.25 1.5 5.5 1.7 5.6 1.95 5.5 2.05 5.25 M-3.9 6.85 L-2.45 5.85 Q-1.15 4.9 -1.05 4.9 L-0.9 4.9 -0.55 5.0 0.0 4.85 0.7 4.5 1.35 3.7 1.5 3.4 1.15 2.3 0.8 1.7 0.6 1.3 Q0.5 1.3 0.4 1.45 L0.2 1.7 -0.25 2.05 -0.4 1.85 -0.1 1.15 0.25 0.5 0.2 0.4 0.05 0.35 0.0 0.35 -0.35 0.55 -1.1 1.15 -1.15 1.2 -1.25 1.2 -1.6 1.15 -1.85 1.95 -1.95 2.8 -1.85 3.2 -1.45 4.05 -1.4 4.1 -1.4 4.15 -1.45 4.35 -1.6 4.4 -1.85 4.3 -2.05 4.0 -2.2 3.75 -2.45 3.6 -5.35 5.2 -5.55 5.4 -5.6 5.5 -4.8 6.25 -3.9 6.85 M-1.15 -0.05 L-1.05 0.1 -0.9 0.15 -0.75 0.1 -0.65 -0.15 -0.95 -0.8 -1.35 -1.6 -1.55 -1.95 -1.75 -2.15 -1.95 -2.0 -2.0 -1.85 -1.95 -1.8 -1.95 -1.75 -1.15 -0.05 M7.1 1.4 L7.2 0.25 Q7.2 -1.3 6.6 -2.7 6.05 -4.0 5.0 -5.05 L2.6 -6.7 Q1.2 -7.3 -0.3 -7.3 -1.85 -7.3 -3.25 -6.7 -4.6 -6.1 -5.65 -5.05 L-7.3 -2.7 Q-7.85 -1.3 -7.85 0.25 -7.85 1.9 -7.1 3.45 L-6.5 4.45 -6.05 4.8 -5.45 4.5 -3.65 3.55 -2.55 2.9 -2.5 2.7 -2.45 2.4 -2.3 1.75 -2.2 1.15 -1.95 0.6 -1.8 0.45 -1.75 0.3 -2.2 -0.8 -2.85 -1.85 -3.35 -1.65 -4.2 -1.4 -5.2 -1.3 -5.9 -1.2 -6.15 -1.3 -6.35 -1.7 -5.6 -2.85 -4.6 -3.85 -2.9 -5.0 -1.15 -5.85 -0.9 -5.8 -0.75 -5.6 0.1 -4.05 0.2 -3.85 -0.45 -3.25 -0.9 -2.95 -1.1 -2.7 -1.1 -2.55 -0.05 -0.5 0.35 -0.2 1.45 -0.35 1.8 -0.2 1.9 0.05 1.9 0.1 1.8 0.45 2.0 0.8 2.3 1.05 Q2.8 1.6 2.8 3.2 L2.55 3.65 2.3 3.85 2.25 4.05 2.25 4.1 2.8 5.2 2.85 5.35 2.85 5.5 2.85 5.7 2.65 5.8 2.35 6.0 1.6 6.4 1.5 6.45 1.4 6.45 1.15 6.3 0.95 5.9 0.75 5.55 0.45 5.4 -0.15 5.45 Q-0.65 5.55 -0.95 5.8 L-1.4 6.0 -2.0 6.3 -2.8 6.9 -2.95 7.0 -3.0 7.0 -3.05 7.15 -1.85 7.6 -0.3 7.75 2.25 7.3 Q3.5 6.85 4.55 6.0 L6.25 4.0 Q6.95 2.75 7.1 1.4 M10.55 -1.7 L10.35 -0.25 9.95 0.6 9.6 0.75 9.15 0.8 8.75 0.85 8.55 1.0 8.55 1.15 8.65 1.15 8.9 1.15 9.2 1.1 9.25 1.1 9.25 1.15 Q9.25 2.4 8.85 3.05 L8.55 3.4 8.35 3.55 8.15 3.55 7.95 3.6 7.4 4.55 6.95 5.4 Q5.75 7.25 3.5 8.25 L1.5 8.95 -0.35 9.15 -2.15 8.95 -4.05 8.3 Q-6.15 7.35 -7.3 5.75 L-7.9 4.85 -8.45 3.95 -8.85 3.5 -9.0 3.5 -9.15 3.45 Q-9.55 3.25 -9.75 2.65 L-10.0 1.25 -10.0 1.1 -9.9 1.05 -9.6 1.1 -9.2 1.15 -9.2 1.05 Q-9.3 0.9 -9.85 0.8 L-10.25 0.75 -10.5 0.65 -11.05 0.0 -11.3 -1.6 -11.25 -1.7 -11.15 -1.7 -9.65 -1.5 -9.1 -1.45 -9.0 -1.75 -8.75 -2.5 Q-8.35 -3.85 -7.65 -4.8 -6.5 -6.5 -4.6 -7.55 -2.6 -8.7 -0.45 -8.7 1.4 -8.7 3.15 -7.95 L5.6 -6.4 6.5 -5.45 7.4 -4.2 7.95 -2.8 8.45 -1.45 8.8 -1.5 10.55 -1.7" fill="#8cb5e6" fill-rule="evenodd" stroke="none"/>
    </g>
  </defs>
</svg>
