<?xml version="1.0" encoding="UTF-8" standalone="no"?>
<svg xmlns:xlink="http://www.w3.org/1999/xlink" height="21.9px" width="17.9px" xmlns="http://www.w3.org/2000/svg">
  <g transform="matrix(1.0, 0.0, 0.0, 1.0, 7.45, 10.35)">
    <use data-characterId="344" height="21.9" transform="matrix(1.0, 0.0, 0.0, 1.0, -7.45, -10.35)" width="17.9" xlink:href="#shape0"/>
  </g>
  <defs>
    <g id="shape0" transform="matrix(1.0, 0.0, 0.0, 1.0, 7.45, 10.35)">
      <path d="M-4.95 11.55 L-0.3 5.8 -0.3 -2.8 -2.05 -5.65 -3.2 -5.65 -3.2 -9.35 7.15 -9.35 7.15 8.5 10.45 11.55 -4.95 11.55" fill="#081a15" fill-opacity="0.49803922" fill-rule="evenodd" stroke="none"/>
      <path d="M-7.45 10.55 L-5.4 8.05 -5.45 8.05 -2.8 4.8 -2.8 -3.8 -4.55 -6.65 -5.7 -6.65 -5.7 -10.35 4.65 -10.35 4.65 7.5 7.95 10.55 -7.45 10.55" fill="#000000" fill-rule="evenodd" stroke="none"/>
      <path d="M2.5 -8.95 L1.15 -8.95 1.15 -8.1 2.5 -8.1 2.5 -8.95 M3.8 -7.5 L-4.9 -7.5 -4.9 -9.5 3.8 -9.5 3.8 -7.5 M3.8 -3.7 L3.8 -1.1 -1.95 -1.1 -1.95 -3.7 3.8 -3.7 M2.45 -2.9 L1.2 -2.9 1.2 -1.95 2.45 -1.95 2.45 -2.9 M3.8 -4.25 L-2.1 -4.25 -3.75 -6.95 3.8 -6.95 3.8 -4.25 M0.75 -6.2 L-0.85 -6.2 -0.85 -5.0 0.75 -5.0 0.75 -6.2 M0.85 0.1 L-0.95 0.1 -0.95 1.4 0.85 1.4 0.85 0.1 M2.45 3.2 L1.2 3.2 1.2 4.2 2.45 4.2 2.45 3.2 M3.8 2.65 L3.8 4.75 -1.95 4.75 -1.95 2.65 3.8 2.65 M-5.8 9.7 L-4.6 8.05 3.9 8.05 5.75 9.7 -5.8 9.7 M0.95 5.75 L-0.85 5.75 -0.85 7.05 0.95 7.05 0.95 5.75 M3.8 5.35 L3.8 7.5 -4.15 7.5 -2.15 5.35 3.8 5.35 M3.8 -0.5 L3.8 2.05 -1.95 2.05 -1.95 -0.5 3.8 -0.5" fill="#8cb5e6" fill-rule="evenodd" stroke="none"/>
    </g>
  </defs>
</svg>
