<?xml version="1.0" encoding="UTF-8" standalone="no"?>
<svg xmlns:xlink="http://www.w3.org/1999/xlink" height="22.8px" width="24.65px" xmlns="http://www.w3.org/2000/svg">
  <g transform="matrix(1.0, 0.0, 0.0, 1.0, 10.75, 10.65)">
    <use height="22.8" transform="matrix(1.0, 0.0, 0.0, 1.0, -10.75, -10.65)" width="24.65" xlink:href="#shape0"/>
  </g>
  <defs>
    <g id="shape0" transform="matrix(1.0, 0.0, 0.0, 1.0, 10.75, 10.65)">
      <path d="M12.25 -7.4 Q13.0 -7.5 13.35 -7.0 L13.3 -7.05 13.55 -6.65 13.55 -6.7 Q13.85 -6.0 13.2 -5.35 L12.95 -5.1 12.9 -5.05 12.75 -4.95 12.7 -4.9 12.6 -4.75 12.9 -4.65 13.1 -4.5 13.35 -4.05 13.25 -3.3 13.3 -3.3 12.55 -2.65 12.45 -2.55 12.45 -2.6 Q12.2 -2.35 11.8 -2.2 L11.85 -2.2 11.7 -2.15 11.65 -2.0 11.6 -1.85 11.5 -1.55 11.5 -1.45 11.45 -1.4 11.35 -1.15 11.4 -0.8 11.4 -0.75 11.35 -0.45 11.25 -0.5 11.25 -0.4 11.3 -0.4 11.35 -0.4 11.45 -0.4 11.55 -0.3 12.25 0.2 12.4 0.35 12.95 0.55 13.0 0.6 13.3 0.9 13.3 0.95 Q13.95 1.45 13.9 2.1 L13.9 2.15 Q13.95 2.85 13.15 3.4 L12.2 3.75 11.8 3.85 11.55 4.1 12.35 4.6 12.85 5.3 13.0 5.5 13.25 6.45 13.25 6.5 13.25 6.6 13.25 6.65 13.25 6.75 13.3 7.2 Q13.3 7.95 12.75 8.5 L12.05 8.95 11.95 9.0 11.9 9.05 Q11.9 9.8 11.05 10.35 L11.0 10.35 10.95 10.4 10.45 10.65 10.0 11.25 9.7 11.6 Q9.15 12.15 8.45 12.15 L8.35 12.15 8.05 12.15 Q7.5 12.05 7.0 11.65 L7.0 11.6 6.95 11.55 6.6 11.05 6.55 10.85 -1.15 10.6 -1.2 10.6 -1.5 11.1 -1.6 11.3 -1.65 11.3 -2.0 11.6 -2.0 11.65 -2.1 11.75 -2.2 11.75 -2.8 12.0 -3.2 12.0 -3.35 12.0 -3.4 12.0 -3.7 11.95 -4.3 11.65 -4.85 10.75 -5.0 10.3 -5.0 10.2 -5.1 10.2 -5.35 10.15 -5.95 9.65 -5.95 9.6 -6.0 9.55 -6.25 9.4 -6.65 8.75 -6.45 8.0 -6.3 7.85 -6.2 7.45 -6.2 7.5 -6.15 7.45 -6.65 6.95 -6.65 6.9 Q-7.2 6.25 -6.85 5.8 -6.75 5.4 -6.45 5.25 L-6.45 5.2 -6.35 5.2 -6.1 5.15 Q-5.8 5.0 -5.3 5.15 L-5.0 5.15 -4.65 5.2 -3.3 5.35 -3.15 5.35 -3.2 5.25 -3.25 5.25 -3.4 5.05 -3.45 5.0 -3.6 4.75 -3.7 4.55 -3.75 4.45 -3.7 4.45 -3.75 4.35 -3.8 4.35 -4.15 4.25 -6.1 3.6 -6.3 3.45 -6.65 3.3 -7.5 2.55 -7.55 2.5 -7.75 1.9 -7.75 1.85 -7.75 1.8 -7.5 1.25 -7.5 1.2 -7.05 0.6 -6.9 0.55 -6.9 0.5 -6.3 0.25 -6.2 0.25 -5.9 0.05 -4.45 -0.35 -4.2 -0.6 -4.25 -0.55 -4.2 -0.6 -4.15 -0.65 -4.1 -0.7 -4.05 -0.75 -3.8 -0.95 -3.75 -0.95 -3.6 -1.05 -3.5 -1.1 -3.25 -1.15 -3.3 -1.2 -3.55 -1.5 -3.6 -1.55 -3.6 -1.6 -3.7 -1.8 Q-4.05 -1.9 -4.3 -2.25 L-4.35 -2.25 -4.5 -2.45 -4.75 -2.8 -4.75 -2.85 -4.8 -3.0 -4.85 -3.05 -5.45 -3.55 -5.55 -3.75 -6.3 -4.2 -6.6 -4.9 -6.45 -5.4 -6.45 -5.5 -6.5 -5.6 -6.5 -5.65 -6.55 -5.8 -6.55 -5.9 -6.55 -6.15 -6.55 -6.45 Q-6.55 -7.0 -6.15 -7.4 L-5.9 -7.6 -5.5 -8.1 -5.5 -8.15 -5.4 -8.2 -5.4 -8.25 -5.05 -8.45 -4.7 -8.6 -4.75 -8.55 -3.95 -8.7 -2.75 -8.4 -2.5 -8.3 -2.45 -8.3 -2.2 -8.2 -1.95 -8.1 -1.65 -8.05 0.35 -7.5 1.0 -8.65 1.6 -9.1 2.15 -9.1 2.5 -9.1 3.55 -8.95 3.6 -8.95 5.8 -8.35 5.95 -8.25 6.4 -8.1 6.5 -8.05 6.55 -8.05 8.1 -7.45 8.05 -7.45 10.0 -7.1 11.65 -7.35 11.7 -7.35 11.75 -7.35 11.8 -7.35 12.25 -7.4 M11.45 4.1 L11.4 4.2 11.5 4.1 11.45 4.1" fill="#081a15" fill-rule="evenodd" stroke="none"/>
      <path d="M9.25 -8.9 Q10.0 -9.0 10.35 -8.5 L10.3 -8.55 10.55 -8.15 10.55 -8.2 Q10.85 -7.5 10.2 -6.85 L9.95 -6.6 9.9 -6.55 9.75 -6.45 9.7 -6.4 9.6 -6.25 9.9 -6.15 10.1 -6.0 10.35 -5.55 10.25 -4.8 10.3 -4.8 Q10.05 -4.35 9.55 -4.15 L9.45 -4.05 9.45 -4.1 8.8 -3.7 8.85 -3.7 8.7 -3.65 8.65 -3.5 8.6 -3.35 8.5 -3.05 8.5 -2.95 8.45 -2.9 8.35 -2.65 8.4 -2.3 8.4 -2.25 8.35 -1.95 8.25 -2.0 8.25 -1.9 8.3 -1.9 8.35 -1.9 8.45 -1.9 8.55 -1.8 9.25 -1.3 9.4 -1.15 9.95 -0.95 10.0 -0.9 10.3 -0.6 10.3 -0.55 Q10.95 -0.05 10.9 0.6 L10.9 0.65 Q10.95 1.35 10.15 1.9 L9.2 2.25 8.8 2.35 8.55 2.6 9.35 3.1 9.85 3.8 10.0 4.0 10.25 4.95 10.25 5.0 10.25 5.1 10.25 5.15 10.25 5.25 10.3 5.7 Q10.3 6.45 9.75 7.0 L9.05 7.45 8.95 7.5 8.9 7.55 Q8.9 8.3 8.05 8.85 L8.0 8.85 7.95 8.9 7.45 9.15 7.0 9.75 6.7 10.1 Q6.15 10.65 5.45 10.65 L5.35 10.65 5.05 10.65 4.0 10.15 4.0 10.1 3.95 10.05 3.6 9.55 3.55 9.35 -4.15 9.1 -4.2 9.1 -4.5 9.6 -4.6 9.8 -4.65 9.8 -5.0 10.1 -5.0 10.15 -5.1 10.25 -5.2 10.25 -5.8 10.5 -6.2 10.5 -6.35 10.5 -6.4 10.5 -6.7 10.45 -7.3 10.15 -7.85 9.25 -8.0 8.8 -8.0 8.7 -8.1 8.7 -8.35 8.65 -8.95 8.15 -8.95 8.1 -9.0 8.05 -9.25 7.9 -9.65 7.25 -9.45 6.5 -9.3 6.35 -9.2 5.95 -9.2 6.0 -9.15 5.95 -9.65 5.45 -9.65 5.4 Q-10.2 4.75 -9.85 4.3 -9.7 3.75 -9.1 3.65 -8.8 3.5 -8.3 3.65 L-8.0 3.65 -6.3 3.85 -6.15 3.85 -6.2 3.75 -6.25 3.75 -6.4 3.55 -6.45 3.5 -6.6 3.25 -6.7 3.05 -6.75 2.95 -6.7 2.95 -6.75 2.85 -6.8 2.85 -7.15 2.75 -9.1 2.1 -9.3 1.95 -9.65 1.8 -10.5 1.05 -10.55 1.0 -10.75 0.4 -10.75 0.35 -10.75 0.3 -10.5 -0.25 -10.5 -0.3 -10.05 -0.9 -9.9 -0.95 -9.9 -1.0 -9.3 -1.25 -9.2 -1.25 -8.9 -1.45 -7.45 -1.85 -7.2 -2.1 -7.25 -2.05 -7.2 -2.1 -7.15 -2.15 -7.1 -2.2 -7.05 -2.25 -6.8 -2.45 -6.75 -2.45 -6.6 -2.55 -6.5 -2.6 -6.25 -2.65 -6.3 -2.7 -6.55 -3.0 -6.6 -3.05 -6.6 -3.1 -6.7 -3.3 Q-7.05 -3.4 -7.3 -3.75 L-7.35 -3.75 -7.5 -3.95 -7.75 -4.3 -7.75 -4.35 -7.8 -4.5 -7.85 -4.55 -8.45 -5.05 -8.55 -5.25 -9.3 -5.7 -9.6 -6.4 -9.45 -6.9 -9.45 -7.0 -9.5 -7.1 -9.5 -7.15 -9.55 -7.3 -9.55 -7.4 -9.55 -7.65 -9.55 -7.95 Q-9.55 -8.5 -9.15 -8.9 L-8.9 -9.1 -8.5 -9.6 -8.5 -9.65 -8.4 -9.7 -8.4 -9.75 -8.05 -9.95 -7.7 -10.1 -7.75 -10.05 -6.95 -10.2 -5.75 -9.9 -5.5 -9.8 -5.45 -9.8 -5.2 -9.7 -4.95 -9.6 -4.65 -9.55 -2.65 -9.0 -2.0 -10.15 -1.4 -10.6 -0.85 -10.6 -0.5 -10.6 0.55 -10.45 0.6 -10.45 2.8 -9.85 2.95 -9.75 3.4 -9.6 3.5 -9.55 3.55 -9.55 5.1 -8.95 5.05 -8.95 7.0 -8.6 8.65 -8.85 8.7 -8.85 8.75 -8.85 8.8 -8.85 9.25 -8.9 M8.45 2.6 L8.4 2.7 8.5 2.6 8.45 2.6" fill="#000000" fill-rule="evenodd" stroke="none"/>
      <path d="M-6.15 8.3 Q-5.95 8.45 -5.75 8.2 L-5.55 7.7 -6.3 7.65 Q-6.4 8.15 -6.15 8.3 M-4.45 1.95 Q-4.7 1.4 -5.0 1.6 L-5.1 2.0 -5.0 2.45 Q-4.7 2.95 -4.4 2.75 L-4.35 2.7 -4.3 2.4 Q-4.3 2.2 -4.45 1.95 M-4.6 -3.5 L-4.45 -3.6 -4.45 -3.65 Q-4.1 -3.95 -4.2 -4.55 L-4.3 -4.85 Q-4.65 -5.6 -5.15 -5.2 -5.45 -4.85 -5.35 -4.3 L-5.25 -4.0 Q-5.0 -3.35 -4.6 -3.5 M5.0 8.7 L5.15 8.85 5.15 8.9 5.65 8.95 5.95 8.45 6.1 7.95 Q6.1 7.55 5.8 7.3 5.35 6.85 5.0 7.65 4.75 8.3 5.0 8.7 M4.4 1.85 Q4.1 1.7 3.85 2.2 3.6 2.85 3.8 3.05 4.1 3.25 4.4 2.7 4.6 2.0 4.4 1.85 M8.4 4.1 L8.65 4.25 8.75 4.1 8.75 4.15 8.7 4.25 8.95 4.4 8.95 4.45 9.05 4.5 9.25 4.95 9.25 5.0 8.95 5.45 8.95 5.5 8.75 5.55 8.75 5.6 8.7 5.65 8.65 5.6 8.3 5.85 8.2 5.9 8.3 5.9 9.25 6.0 9.25 6.1 8.85 6.3 8.15 6.3 8.0 6.3 7.9 6.5 Q8.3 6.5 8.4 6.7 L8.4 6.8 7.75 6.95 7.75 7.1 7.6 7.55 7.4 7.95 Q7.3 8.1 7.05 8.1 L6.95 8.05 6.85 7.55 6.8 7.4 6.7 8.25 6.1 9.25 5.8 9.5 5.4 9.65 5.2 9.65 4.65 9.35 4.5 9.1 Q4.3 8.7 4.35 8.2 L4.5 7.6 4.6 7.35 4.1 8.3 4.05 8.35 -4.85 8.05 -5.05 8.55 -5.05 8.6 -5.35 9.1 -5.65 9.35 -6.2 9.5 -6.4 9.5 -6.95 8.8 -7.0 8.6 -7.0 7.9 -7.3 7.9 -7.85 7.8 -8.05 7.7 -8.15 7.45 -8.7 7.15 -8.65 7.1 -8.1 6.9 Q-8.0 6.7 -7.75 6.65 L-7.9 6.65 -8.35 6.5 -8.3 6.4 -7.75 6.2 -7.55 6.2 -7.7 5.95 -8.1 5.5 -8.15 5.45 -8.6 5.1 -8.8 4.9 -8.9 4.65 -8.6 4.6 -8.15 4.65 -6.3 4.85 -4.05 4.45 -3.75 4.35 -3.35 4.25 -2.45 3.85 -0.75 3.55 -0.7 3.6 -1.0 4.0 -1.35 4.5 -1.45 4.6 -1.7 5.2 -1.45 5.3 0.75 5.15 0.95 4.4 Q1.0 4.0 1.15 4.1 L1.1 4.55 1.0 5.1 1.15 5.05 1.4 4.3 1.55 3.6 1.55 3.55 2.1 3.85 2.7 4.5 2.8 4.7 2.95 4.65 6.1 3.7 7.7 3.35 8.2 3.35 8.05 3.85 8.0 4.0 8.1 4.0 8.4 4.1 M6.85 -4.15 L7.0 -4.8 6.25 -4.8 6.45 -4.3 Q6.65 -4.05 6.85 -4.15 M-0.75 -0.95 L0.55 -0.8 0.2 -1.3 0.3 -1.4 0.5 -1.45 0.95 -0.75 2.75 -0.75 4.0 -0.95 4.05 -1.0 4.15 -1.1 4.1 -1.0 4.1 -0.95 5.15 -1.25 4.95 -1.65 4.15 -2.45 3.05 -2.95 2.5 -3.1 1.9 -3.15 1.8 -3.15 1.75 -3.1 1.65 -3.1 1.45 -2.95 0.1 -2.0 -0.85 -0.95 -0.75 -0.95 M4.1 -3.6 L5.6 -3.15 6.15 -2.95 5.7 -3.35 5.8 -3.5 6.5 -2.75 7.4 -2.3 7.4 -2.25 7.2 -2.2 6.8 -2.4 7.5 -1.3 8.0 -1.0 9.1 -0.1 9.4 -0.1 9.35 -0.05 9.2 -0.05 9.6 0.4 9.65 0.35 9.65 0.3 Q9.7 0.2 9.8 0.2 L9.85 0.2 9.7 0.5 9.9 0.75 9.7 0.85 9.55 0.65 9.05 1.1 9.1 1.15 9.05 1.25 8.95 1.15 8.15 1.6 5.3 2.35 5.2 2.65 4.7 3.4 4.5 3.65 3.75 3.9 3.25 3.55 3.2 3.55 2.95 3.0 2.9 2.35 2.9 2.2 2.75 2.2 2.8 2.35 2.6 2.45 2.5 2.25 -3.6 2.05 -3.65 2.85 -3.85 3.25 -3.9 3.25 -4.05 3.45 -4.6 3.6 -4.95 3.5 -5.35 3.2 -5.6 2.95 -5.65 2.85 -5.8 2.6 -6.05 1.85 -6.15 1.9 -6.25 1.9 -6.2 2.1 -6.4 2.2 -6.45 1.85 Q-8.05 1.6 -9.1 0.95 L-9.9 0.2 -9.85 0.15 -9.55 0.0 -9.55 -0.05 -6.8 -1.0 -6.25 -1.6 -6.1 -1.7 -4.85 -1.85 -2.25 -1.6 -1.6 -1.65 -1.35 -1.75 -0.1 -2.75 1.05 -3.5 1.75 -3.8 3.55 -3.75 4.1 -3.6 M-0.4 -8.9 L-0.8 -8.95 -0.85 -8.9 -0.85 -8.85 -0.5 -7.4 -0.3 -7.4 -0.4 -7.9 -0.5 -8.4 -0.45 -8.4 -0.25 -8.05 -0.1 -7.35 0.1 -7.35 2.15 -7.2 Q2.3 -7.2 2.35 -7.3 L2.2 -7.75 2.15 -7.85 1.7 -8.45 -0.4 -8.9 M8.85 -6.95 L8.25 -6.3 8.45 -6.25 9.0 -6.1 9.0 -6.0 Q8.9 -5.85 8.6 -5.85 L8.45 -5.8 8.8 -5.6 9.05 -5.55 9.25 -5.5 9.35 -5.4 9.4 -5.3 8.85 -5.0 8.75 -4.8 Q8.5 -4.6 8.0 -4.55 L7.7 -4.55 7.75 -4.05 7.65 -3.65 7.55 -3.35 7.1 -3.0 6.55 -3.05 6.35 -3.15 5.85 -3.65 5.75 -3.85 5.75 -3.95 5.55 -4.45 -3.4 -4.15 -3.9 -5.15 -3.8 -4.9 -3.7 -4.35 -3.7 -4.3 Q-3.6 -3.6 -3.95 -3.15 L-4.0 -3.1 -4.25 -2.85 -4.7 -2.8 -5.05 -2.95 -5.45 -3.25 -5.75 -3.6 Q-6.15 -4.2 -6.1 -5.05 L-6.15 -4.9 -6.25 -4.45 -6.4 -4.4 Q-6.55 -4.3 -6.7 -4.55 L-6.9 -4.9 -6.95 -5.0 -7.05 -5.4 -7.1 -5.5 Q-7.55 -5.45 -7.7 -5.7 L-7.7 -5.8 -7.25 -5.95 -7.3 -6.2 -7.45 -6.2 -8.15 -6.2 Q-8.45 -6.25 -8.6 -6.4 L-8.6 -6.45 -7.75 -6.55 -7.6 -6.55 -7.55 -6.55 -7.6 -6.65 -8.0 -6.85 -8.05 -6.85 -8.05 -6.95 -8.25 -7.0 -8.55 -7.45 -8.35 -8.0 -8.3 -8.0 -8.0 -8.2 -8.1 -8.35 -8.05 -8.4 -8.0 -8.25 -7.4 -8.45 -7.3 -8.45 -7.4 -8.6 -7.55 -9.1 -7.35 -9.15 -7.0 -9.1 -5.4 -8.75 -2.25 -7.85 -1.15 -9.65 -0.95 -9.65 0.4 -9.45 Q1.95 -9.15 3.1 -8.65 L4.75 -8.0 7.0 -7.6 8.8 -7.85 9.3 -7.9 9.6 -7.85 9.5 -7.55 9.25 -7.4 8.85 -6.95" fill="#8cb5e6" fill-rule="evenodd" stroke="none"/>
    </g>
  </defs>
</svg>
