<?xml version="1.0" encoding="UTF-8" standalone="no"?>
<svg xmlns:xlink="http://www.w3.org/1999/xlink" height="21.9px" width="23.85px" xmlns="http://www.w3.org/2000/svg">
  <g transform="matrix(1.0, 0.0, 0.0, 1.0, 11.4, 11.35)">
    <use data-characterId="289" height="21.9" transform="matrix(1.0, 0.0, 0.0, 1.0, -11.4, -11.35)" width="23.85" xlink:href="#shape0"/>
  </g>
  <defs>
    <g id="shape0" transform="matrix(1.0, 0.0, 0.0, 1.0, 11.4, 11.35)">
      <path d="M-0.05 -11.15 L1.15 -11.3 Q2.65 -11.0 4.45 -10.1 6.95 -8.9 8.5 -7.15 11.35 -4.0 12.1 -0.1 12.45 1.9 12.25 3.25 L12.1 3.5 12.1 3.55 12.2 3.75 12.25 3.8 12.45 4.85 12.3 5.75 12.3 5.7 Q12.1 6.6 11.55 7.0 L10.4 7.4 10.4 8.0 10.2 8.7 Q9.85 9.75 8.9 10.2 L8.95 10.2 8.1 10.5 7.45 10.55 7.35 10.55 6.15 10.2 5.05 9.8 4.3 9.45 3.5 9.1 2.8 8.75 2.75 8.7 2.55 8.6 2.4 8.85 1.75 9.35 0.65 9.45 0.55 9.45 0.4 9.45 -0.75 9.35 -1.35 8.85 -1.5 8.6 -1.7 8.7 -1.7 8.75 -2.45 9.15 -3.2 9.45 -4.0 9.8 -5.1 10.2 -6.3 10.55 -6.4 10.55 -7.05 10.5 -7.85 10.2 Q-8.8 9.75 -9.15 8.7 L-9.35 8.0 -9.35 7.4 -10.5 7.0 Q-11.0 6.6 -11.3 5.7 L-11.3 5.75 -11.4 4.85 -11.15 3.8 -11.15 3.75 -11.0 3.55 -11.1 3.5 -11.2 3.25 Q-11.45 1.9 -11.05 -0.1 -10.25 -4.0 -7.45 -7.15 -5.9 -8.9 -3.95 -9.95 L-3.65 -10.1 -1.1 -10.95 -0.05 -11.15" fill="#525655" fill-rule="evenodd" stroke="none"/>
      <path d="M-7.65 2.6 L-7.6 2.55 -7.65 2.55 -7.65 2.6 M-0.05 -10.65 L1.15 -10.8 1.1 -10.8 3.35 -10.1 4.3 -9.7 Q6.7 -8.5 8.15 -6.85 10.85 -3.85 11.6 -0.1 11.95 1.8 11.75 3.1 L11.6 3.3 11.55 3.35 11.65 3.6 11.7 3.6 11.95 4.65 11.8 5.45 11.05 6.7 9.95 7.05 9.95 7.65 9.75 8.3 Q9.45 9.3 8.5 9.75 L8.55 9.75 7.75 10.05 7.15 10.05 7.05 10.05 5.9 9.75 4.85 9.35 4.1 9.0 3.35 8.7 3.4 8.7 2.65 8.35 2.45 8.25 2.35 8.4 2.35 8.45 1.75 8.9 0.6 9.0 0.55 9.0 0.4 9.0 -0.65 8.9 -1.25 8.45 -1.25 8.4 -1.4 8.25 -1.55 8.35 -1.65 8.35 -2.3 8.7 -3.05 9.0 -3.8 9.35 -4.85 9.75 -6.0 10.05 -6.1 10.05 -6.7 10.05 -7.5 9.75 Q-8.4 9.3 -8.75 8.3 L-8.7 8.3 -8.9 7.65 -8.9 7.05 -10.0 6.7 -10.75 5.45 -10.85 4.65 -10.65 3.6 -10.55 3.35 -10.55 3.3 -10.7 3.1 Q-10.9 1.8 -10.55 -0.1 -9.8 -3.85 -7.1 -6.85 -5.6 -8.55 -3.75 -9.5 L-2.4 -10.1 -1.05 -10.5 -0.05 -10.65" fill="#000000" fill-rule="evenodd" stroke="none"/>
      <path d="M-0.9 -9.85 L0.65 -10.05 2.1 -9.8 4.05 -9.1 Q6.25 -8.0 7.7 -6.4 10.25 -3.55 10.95 0.05 L11.15 2.45 8.55 1.45 7.5 1.05 7.95 -0.7 Q8.1 -1.45 7.45 -3.25 6.7 -5.35 5.75 -6.3 L4.6 -7.25 2.75 -8.2 1.7 -8.55 0.55 -8.6 -0.65 -8.5 -0.7 -8.5 -1.8 -8.15 -1.75 -8.15 Q-3.55 -7.55 -4.65 -6.3 -6.3 -4.5 -6.45 -1.65 L-6.25 0.7 -7.55 1.95 -8.9 1.9 -10.1 2.45 -9.9 0.05 Q-9.2 -3.55 -6.6 -6.4 -5.2 -8.05 -3.45 -8.9 L-3.4 -8.9 -0.9 -9.85 M-5.0 -4.25 L-4.6 -4.85 -3.2 -6.35 Q-2.2 -7.2 -0.8 -7.65 L0.55 -7.75 1.9 -7.65 Q3.25 -7.2 4.25 -6.35 L5.65 -4.85 6.05 -4.25 6.3 -3.4 6.6 -1.8 6.35 1.0 3.95 0.15 3.6 -0.55 1.9 -1.8 0.55 -1.9 -0.9 -1.8 Q-1.75 -1.45 -2.6 -0.55 L-2.9 0.15 -5.3 1.0 -5.55 -1.8 -5.3 -3.4 -5.0 -4.25 M5.35 -3.15 L5.3 -3.3 4.9 -3.4 4.4 -3.45 3.75 -3.3 3.5 -3.2 2.65 -2.95 2.45 -2.55 2.45 -2.4 3.5 -1.8 Q3.6 -1.85 4.5 -2.45 L5.15 -2.9 5.25 -3.0 5.35 -3.15 M-2.45 0.1 L-1.95 -0.45 -0.85 -1.35 0.55 -1.5 1.9 -1.35 2.95 -0.45 3.5 0.1 2.0 6.3 0.6 6.3 0.4 6.3 -0.95 6.3 -2.45 0.1 M-4.35 -3.15 L-4.25 -3.0 -4.05 -2.9 -3.4 -2.4 -2.45 -1.8 Q-2.25 -1.8 -1.35 -2.4 L-1.3 -2.45 -1.55 -3.0 -2.45 -3.2 -2.6 -3.25 -3.35 -3.45 -3.85 -3.35 -4.25 -3.2 -4.35 -3.15 M-1.85 0.2 L-1.85 1.0 -0.95 0.5 -1.1 -0.2 -1.85 0.2 M-3.35 1.35 L-2.6 1.15 -2.45 1.35 -2.15 2.15 -2.15 2.95 -2.25 3.15 -2.9 3.25 -3.2 1.6 -3.35 1.35 M-1.65 1.2 L-1.5 2.1 -0.65 1.65 -0.8 0.8 -1.65 1.2 M0.1 2.3 L-0.9 2.65 -1.4 2.85 -0.5 5.85 0.55 5.9 1.55 5.85 2.4 2.85 1.9 2.65 1.0 2.3 0.55 2.25 0.1 2.3 M-6.0 5.25 L-7.25 6.1 -8.45 6.5 -9.6 6.2 -10.15 5.3 -10.25 4.65 -10.05 3.85 -9.65 3.3 -9.6 3.3 Q-9.35 3.0 -9.0 2.95 L-8.95 2.95 -8.45 2.9 -8.65 3.15 -8.8 3.45 -8.8 3.5 -9.05 4.15 -8.95 4.45 -8.8 4.45 -8.65 4.4 -7.7 3.5 -6.2 2.35 Q-5.5 1.9 -5.0 1.75 L-4.55 1.55 -3.75 3.4 -4.25 3.9 -4.25 3.95 -6.0 5.25 M-3.45 1.6 L-3.1 3.15 -3.3 3.25 -3.95 1.65 -3.45 1.6 M-2.1 6.1 L-1.65 7.7 -1.9 7.8 -5.05 9.2 -5.05 9.15 -6.15 9.45 -6.65 9.35 -7.15 9.2 -7.2 9.2 Q-7.9 8.8 -8.1 8.1 L-8.1 8.05 -8.25 7.25 -7.55 7.2 -7.6 7.2 -6.5 6.85 -4.0 5.4 -2.45 4.75 -2.1 6.1 M-0.35 6.85 L1.45 6.85 1.3 8.2 -0.2 8.2 -0.35 6.85 M8.3 6.1 L5.3 3.9 4.85 3.45 5.55 1.55 7.3 2.3 8.8 3.5 9.7 4.4 10.1 4.2 9.9 3.45 9.5 2.9 10.1 2.95 10.15 2.95 10.65 3.3 10.7 3.3 11.15 3.85 11.3 4.65 11.2 5.3 10.65 6.2 9.5 6.5 8.3 6.1 M2.85 0.2 L2.15 -0.2 2.0 0.5 2.85 1.0 2.85 0.2 M4.5 1.6 L5.0 1.65 4.45 3.25 4.15 3.15 4.5 1.6 M4.4 1.35 L4.25 1.6 3.9 3.25 3.25 3.15 3.2 2.95 3.2 2.15 Q3.25 1.65 3.45 1.35 L3.6 1.15 4.4 1.35 M2.65 1.2 L1.85 0.8 1.75 1.65 2.55 2.1 2.65 1.2 M3.15 6.1 L3.5 4.75 4.95 5.35 7.55 6.8 8.65 7.2 9.35 7.25 9.2 8.05 8.25 9.2 7.25 9.45 6.05 9.15 2.7 7.65 3.15 6.1" fill="#8cb5e6" fill-rule="evenodd" stroke="none"/>
    </g>
  </defs>
</svg>
