<?xml version="1.0" encoding="UTF-8" standalone="no"?>
<svg xmlns:xlink="http://www.w3.org/1999/xlink" height="18.15px" width="22.85px" xmlns="http://www.w3.org/2000/svg">
  <g transform="matrix(1.0, 0.0, 0.0, 1.0, 10.4, 11.9)">
    <use data-characterId="281" height="18.15" transform="matrix(1.0, 0.0, 0.0, 1.0, -10.4, -11.9)" width="22.85" xlink:href="#shape0"/>
  </g>
  <defs>
    <g id="shape0" transform="matrix(1.0, 0.0, 0.0, 1.0, 10.4, 11.9)">
      <path d="M10.2 -10.4 L10.2 -4.25 11.45 -4.25 12.15 -3.95 12.45 -3.25 12.45 -1.9 12.15 -1.2 11.6 -0.9 11.6 5.25 11.3 5.95 10.6 6.25 -6.6 6.25 -7.3 5.95 -7.6 5.25 -7.6 -0.9 -8.1 -1.2 -8.4 -1.9 -8.4 -3.25 -8.1 -3.95 -7.4 -4.25 7.05 -4.25 7.05 -10.4 7.2 -10.75 7.55 -10.9 9.7 -10.9 10.05 -10.75 10.2 -10.4" fill="#081a15" fill-opacity="0.49803922" fill-rule="evenodd" stroke="none"/>
      <path d="M5.55 -11.9 L7.7 -11.9 8.05 -11.75 8.2 -11.4 8.2 -5.25 9.45 -5.25 10.15 -4.95 10.45 -4.25 10.45 -2.9 10.15 -2.2 9.6 -1.9 9.6 4.25 9.3 4.95 8.6 5.25 -8.6 5.25 -9.3 4.95 -9.6 4.25 -9.6 -1.9 -10.1 -2.2 -10.4 -2.9 -10.4 -4.25 -10.1 -4.95 -9.4 -5.25 5.05 -5.25 5.05 -11.4 5.2 -11.75 Q5.35 -11.9 5.55 -11.9" fill="#000000" fill-rule="evenodd" stroke="none"/>
      <path d="M0.95 0.7 L0.95 -2.1 -7.55 -2.1 -7.55 0.7 0.95 0.7 M7.5 0.7 L7.5 -2.1 3.25 -2.1 3.25 0.7 7.5 0.7 M7.2 -9.45 L7.2 -8.3 7.2 -7.75 7.2 -6.6 7.2 -4.25 9.45 -4.25 9.45 -2.9 8.6 -2.9 8.6 4.25 2.05 4.25 2.05 2.55 -2.25 2.55 -2.25 4.25 -8.6 4.25 -8.6 -2.9 -9.4 -2.9 -9.4 -4.25 6.1 -4.25 6.1 -7.35 6.9 -7.35 6.9 -8.5 6.1 -8.5 6.1 -9.05 6.9 -9.05 6.9 -10.2 6.1 -10.2 6.1 -10.95 7.2 -10.95 7.2 -10.2 7.2 -9.45" fill="#8cb5e6" fill-rule="evenodd" stroke="none"/>
    </g>
  </defs>
</svg>
