<?xml version="1.0" encoding="UTF-8" standalone="no"?>
<svg xmlns:ffdec="https://www.free-decompiler.com/flash" xmlns:xlink="http://www.w3.org/1999/xlink" ffdec:objectType="frame" height="22.8px" width="20.55px" xmlns="http://www.w3.org/2000/svg">
  <g transform="matrix(1.0, 0.0, 0.0, 1.0, 9.0, 10.9)">
    <use ffdec:characterId="237" height="22.8" transform="matrix(1.0, 0.0, 0.0, 1.0, -9.0, -10.9)" width="20.55" xlink:href="#shape0"/>
  </g>
  <defs>
    <g id="shape0" transform="matrix(1.0, 0.0, 0.0, 1.0, 9.0, 10.9)">
      <path d="M9.65 -6.7 Q11.55 -4.2 11.55 -1.15 L11.55 10.9 11.25 11.6 10.55 11.9 -5.5 11.9 -6.2 11.6 -6.5 10.9 -6.5 -1.15 Q-6.5 -4.2 -4.65 -6.7 L-4.6 -6.7 Q-2.75 -9.0 0.05 -9.8 L0.45 -9.9 4.6 -9.9 5.0 -9.8 Q7.5 -9.1 9.25 -7.15 L9.3 -7.1 9.65 -6.7" fill="#081a15" fill-opacity="0.49803922" fill-rule="evenodd" stroke="none"/>
      <path d="M6.75 -8.15 L6.8 -8.1 7.15 -7.7 Q9.05 -5.25 9.05 -2.15 L9.05 9.9 8.75 10.6 8.05 10.9 -8.0 10.9 -8.7 10.6 -9.0 9.9 -9.0 -2.15 Q-9.0 -5.2 -7.2 -7.6 L-7.15 -7.7 Q-5.25 -10.1 -2.3 -10.85 L-1.85 -10.9 1.9 -10.9 2.4 -10.85 2.45 -10.8 2.45 -10.85 Q5.0 -10.15 6.75 -8.15" fill="#000000" fill-rule="evenodd" stroke="none"/>
      <path d="M-6.75 9.9 L-8.0 9.9 -8.0 4.15 -6.75 4.15 -6.75 9.9 M5.95 9.9 L4.25 9.9 4.25 4.15 5.95 4.15 5.95 9.9 M-5.95 9.9 L-5.95 4.15 3.4 4.15 3.4 9.9 -1.8 9.9 -1.8 5.75 -3.95 5.75 -3.95 9.9 -5.95 9.9 M8.05 9.9 L6.8 9.9 6.8 4.15 8.05 4.15 8.05 9.9 M-8.0 2.25 L-8.0 -2.15 Q-8.0 -4.9 -6.35 -7.1 -4.65 -9.2 -2.05 -9.9 L-2.05 -5.35 -1.3 -6.3 -1.25 -6.35 0.05 -6.7 Q0.7 -6.7 1.3 -6.35 L1.95 -5.65 2.1 -5.35 2.1 -9.9 Q4.45 -9.25 6.05 -7.45 L6.35 -7.1 Q8.05 -4.9 8.05 -2.15 L8.05 2.25 -8.0 2.25 M-1.15 -2.45 L-1.25 -2.5 -1.3 -2.5 -2.05 -3.5 -2.05 0.5 2.1 0.5 2.1 -3.5 Q1.5 -2.15 0.05 -2.15 L-1.15 -2.45" fill="#8cb5e6" fill-rule="evenodd" stroke="none"/>
    </g>
  </defs>
</svg>
