<?xml version="1.0" encoding="UTF-8" standalone="no"?>
<svg xmlns:xlink="http://www.w3.org/1999/xlink" height="23.75px" width="24.2px" xmlns="http://www.w3.org/2000/svg">
  <g transform="matrix(1.0, 0.0, 0.0, 1.0, 11.0, 11.05)">
    <use data-characterId="194" height="23.75" transform="matrix(1.0, 0.0, 0.0, 1.0, -11.0, -11.05)" width="24.2" xlink:href="#shape0"/>
  </g>
  <defs>
    <g id="shape0" transform="matrix(1.0, 0.0, 0.0, 1.0, 11.0, 11.05)">
      <path d="M2.0 -9.7 Q6.65 -9.7 9.9 -6.45 13.2 -3.1 13.2 1.5 13.2 6.1 9.9 9.35 6.65 12.7 2.0 12.7 -2.6 12.7 -5.9 9.35 -9.15 6.1 -9.15 1.5 -9.15 -3.1 -5.9 -6.45 -2.6 -9.7 2.0 -9.7" fill="#081a15" fill-opacity="0.2" fill-rule="evenodd" stroke="none"/>
      <path d="M11.0 0.0 Q11.0 4.55 7.75 7.75 4.55 11.05 -0.05 11.05 -4.6 11.05 -7.85 7.75 -11.0 4.55 -11.0 0.0 -11.0 -4.55 -7.85 -7.85 -4.6 -11.05 -0.05 -11.05 4.55 -11.05 7.75 -7.85 11.0 -4.55 11.0 0.0" fill="#000000" fill-rule="evenodd" stroke="none"/>
      <path d="M-1.15 -1.75 Q-2.2 -1.1 -2.2 0.15 L-2.2 0.2 -7.1 0.2 -7.1 -0.05 Q-7.1 -1.95 -6.1 -3.55 -5.2 -5.15 -3.65 -6.1 L-1.15 -1.75 M0.75 2.3 L1.1 2.15 3.4 6.15 Q1.8 7.05 0.0 7.05 L-2.45 6.6 -3.4 6.15 -1.1 2.1 0.0 2.4 0.75 2.3 M-5.7 6.45 Q-3.3 8.6 0.0 8.6 3.55 8.6 6.1 6.1 8.6 3.55 8.6 0.0 8.6 -3.3 6.45 -5.65 L6.1 -6.05 Q3.55 -8.6 0.0 -8.6 -3.55 -8.6 -6.1 -6.05 -8.6 -3.55 -8.6 0.0 -8.6 3.55 -6.1 6.1 L-5.7 6.45 M1.3 -0.3 L1.4 0.2 0.95 1.15 Q0.55 1.55 0.0 1.55 L-0.55 1.45 -0.95 1.15 -1.4 0.35 -1.4 0.2 Q-1.4 -0.4 -0.95 -0.8 L-0.45 -1.1 0.0 -1.2 Q0.55 -1.2 0.95 -0.8 L1.3 -0.3 M2.0 -0.95 L1.9 -1.0 1.95 -1.0 1.15 -1.75 3.65 -6.1 5.35 -4.65 6.15 -3.55 Q7.1 -1.95 7.1 -0.05 L7.1 0.2 2.25 0.2 2.25 0.15 2.0 -0.95 M7.4 -6.5 Q9.9 -3.8 9.9 0.0 9.9 4.1 7.0 7.0 4.1 9.9 0.0 9.9 -3.85 9.9 -6.6 7.4 L-7.0 7.0 Q-9.9 4.1 -9.9 0.0 -9.9 -4.1 -7.0 -6.95 -4.1 -9.85 0.0 -9.85 4.1 -9.85 7.0 -6.95 L7.4 -6.5" fill="#8cb5e6" fill-rule="evenodd" stroke="none"/>
    </g>
  </defs>
</svg>
