<?xml version="1.0" encoding="UTF-8" standalone="no"?>
<svg xmlns:xlink="http://www.w3.org/1999/xlink" height="22.7px" width="24.2px" xmlns="http://www.w3.org/2000/svg">
  <g transform="matrix(1.0, 0.0, 0.0, 1.0, 10.85, 10.85)">
    <use data-characterId="174" height="22.7" transform="matrix(1.0, 0.0, 0.0, 1.0, -10.85, -10.85)" width="24.2" xlink:href="#shape0"/>
  </g>
  <defs>
    <g id="shape0" transform="matrix(1.0, 0.0, 0.0, 1.0, 10.85, 10.85)">
      <path d="M2.5 -9.85 Q6.95 -9.85 10.15 -6.65 13.35 -3.45 13.35 1.0 13.35 5.5 10.15 8.7 6.95 11.85 2.5 11.85 -2.0 11.85 -5.2 8.7 -8.35 5.5 -8.35 1.0 -8.35 -3.45 -5.2 -6.65 -2.0 -9.85 2.5 -9.85 M8.65 8.45 L8.6 8.55 8.95 8.2 8.65 8.45" fill="#081a15" fill-rule="evenodd" stroke="none"/>
      <path d="M0.0 -10.85 Q4.45 -10.85 7.65 -7.65 10.85 -4.45 10.85 0.0 10.85 4.5 7.65 7.7 4.45 10.85 0.0 10.85 -4.5 10.85 -7.7 7.7 -10.85 4.5 -10.85 0.0 -10.85 -4.45 -7.7 -7.65 -4.5 -10.85 0.0 -10.85 M6.15 7.45 L6.1 7.55 6.45 7.2 6.15 7.45" fill="#000000" fill-rule="evenodd" stroke="none"/>
      <path d="M1.6 -2.45 L2.8 0.15 Q3.5 1.55 3.5 2.75 3.5 4.15 2.5 5.2 1.5 6.2 0.05 6.2 -1.1 6.2 -1.9 5.6 L-2.35 5.2 Q-3.4 4.15 -3.4 2.75 -3.4 1.6 -2.75 0.25 L-1.6 -2.3 -0.6 -5.55 -0.15 -6.75 0.05 -7.0 0.25 -6.75 0.55 -5.9 0.65 -5.6 Q1.25 -3.35 1.6 -2.45 M0.0 -7.55 Q-2.2 -7.55 -4.1 -6.35 -5.9 -5.2 -6.85 -3.25 -6.3 -3.05 -6.3 -2.45 L-6.3 2.5 Q-6.3 3.05 -6.85 3.3 -6.15 4.7 -4.95 5.75 L-4.1 6.4 Q-2.2 7.6 0.0 7.6 3.1 7.6 5.35 5.35 7.55 3.1 7.55 0.0 7.55 -2.85 5.7 -4.95 L5.35 -5.35 Q3.1 -7.55 0.0 -7.55 M6.8 -6.8 L7.2 -6.4 Q9.65 -3.75 9.65 0.0 9.65 4.0 6.8 6.85 4.0 9.65 0.0 9.65 -3.75 9.65 -6.45 7.25 L-6.85 6.85 Q-9.65 4.0 -9.65 0.0 -9.65 -4.0 -6.85 -6.8 -4.0 -9.65 0.0 -9.65 4.0 -9.65 6.8 -6.8" fill="#8cb5e6" fill-rule="evenodd" stroke="none"/>
    </g>
  </defs>
</svg>
