<?xml version="1.0" encoding="UTF-8" standalone="no"?>
<svg xmlns:xlink="http://www.w3.org/1999/xlink" height="24.25px" width="28.1px" xmlns="http://www.w3.org/2000/svg">
  <g transform="matrix(1.0, 0.0, 0.0, 1.0, 14.35, 11.4)">
    <use data-characterId="168" height="24.25" transform="matrix(1.0, 0.0, 0.0, 1.0, -14.35, -11.4)" width="28.1" xlink:href="#shape0"/>
  </g>
  <defs>
    <g id="shape0" transform="matrix(1.0, 0.0, 0.0, 1.0, 14.35, 11.4)">
      <path d="M-2.65 -7.25 L-1.8 -9.45 -1.05 -10.2 -0.2 -10.4 Q1.9 -10.4 1.85 -8.55 L1.75 -6.95 Q1.75 -6.8 4.55 -5.85 5.8 -6.0 8.35 -2.85 L10.4 -0.1 11.3 -0.35 12.75 -0.1 13.4 0.4 13.65 0.85 13.7 1.35 12.45 3.3 Q11.75 4.05 11.75 5.15 11.7 7.45 11.0 9.2 10.05 11.75 8.4 11.4 L7.5 12.6 6.95 12.85 6.5 12.6 6.2 12.2 5.95 11.4 6.0 10.7 Q5.15 11.55 4.15 11.95 L2.85 12.3 1.7 12.55 -1.1 12.5 -2.35 12.35 -3.25 12.0 -3.95 11.65 -4.55 11.25 -5.7 10.2 -5.75 10.25 Q-5.9 11.4 -6.55 11.4 L-7.65 10.55 -8.6 9.75 -9.3 8.95 -10.05 7.0 -11.75 6.95 Q-12.8 6.95 -13.2 6.45 L-13.35 5.6 -13.1 4.55 Q-12.75 3.8 -11.85 3.8 L-10.55 3.95 -10.65 3.0 -10.4 1.25 Q-9.2 -3.35 -4.95 -5.7 -3.15 -5.7 -2.65 -7.25" fill="#081a15" fill-opacity="0.49803922" fill-rule="evenodd" stroke="none"/>
      <path d="M-3.65 -8.25 L-2.8 -10.45 -2.05 -11.2 -1.2 -11.4 Q0.9 -11.4 0.85 -9.55 L0.75 -7.95 Q0.75 -7.8 3.55 -6.85 4.8 -7.0 7.35 -3.85 L9.4 -1.1 10.3 -1.35 11.75 -1.1 12.4 -0.6 12.65 -0.15 12.7 0.35 11.45 2.3 Q10.75 3.05 10.75 4.15 10.7 6.45 10.0 8.2 9.05 10.75 7.4 10.4 L6.5 11.6 5.95 11.85 5.5 11.6 5.2 11.2 4.95 10.4 5.0 9.7 3.15 10.95 1.85 11.3 0.7 11.55 -2.1 11.5 -3.35 11.35 -4.25 11.0 -4.95 10.65 -5.55 10.25 -6.7 9.2 -6.75 9.25 Q-6.9 10.4 -7.55 10.4 L-8.65 9.55 -9.6 8.75 Q-9.9 8.75 -10.3 7.95 L-11.05 6.0 -12.75 5.95 Q-13.8 5.95 -14.2 5.45 L-14.35 4.6 -14.1 3.55 Q-13.75 2.8 -12.85 2.8 L-11.55 2.95 -11.65 2.0 -11.4 0.25 Q-10.2 -4.35 -5.95 -6.7 -4.15 -6.7 -3.65 -8.25" fill="#181c1d" fill-rule="evenodd" stroke="none"/>
      <path d="M-1.2 -1.85 Q1.45 -1.85 2.4 0.4 2.9 1.65 2.9 4.15 2.9 5.35 2.5 5.8 L1.6 6.1 0.7 6.2 Q0.3 6.4 0.3 7.25 L0.45 8.6 0.55 8.5 0.7 8.5 0.3 8.7 Q0.55 9.25 0.25 9.65 L-0.15 9.25 -0.3 8.95 -0.65 9.2 -0.8 9.2 -0.85 7.7 Q-0.85 6.35 -0.45 5.75 -0.15 5.35 0.5 5.15 L1.4 4.85 Q1.8 4.55 1.8 3.65 L1.8 3.4 1.6 3.3 0.8 3.55 Q0.45 3.65 -0.3 2.9 L-0.45 3.0 Q-0.35 2.5 0.55 1.75 L1.45 0.65 1.35 0.35 1.25 0.2 1.3 0.1 1.55 0.65 1.55 0.4 0.8 -0.6 -0.75 -1.05 Q-2.25 -1.05 -3.2 0.15 -3.75 0.75 -3.9 1.4 L-2.2 3.25 -2.4 3.7 -3.0 4.0 -3.5 3.9 -4.0 3.8 -4.2 4.0 -4.2 4.4 -3.75 4.95 Q-3.05 5.2 -2.7 5.35 -1.25 6.1 -1.25 8.6 -1.25 9.1 -1.4 9.25 L-1.85 9.65 Q-2.55 9.85 -2.6 8.8 L-2.6 7.25 -3.0 6.6 -3.4 6.15 -3.9 6.2 -4.3 6.2 -4.1 6.05 -4.2 6.0 -4.45 6.0 -4.3 6.15 -4.65 5.95 -4.9 5.7 -5.0 5.8 -5.2 5.85 -5.15 5.8 -4.85 5.45 -4.7 5.0 -4.8 4.35 -4.95 3.75 -4.8 3.65 -4.95 2.65 -5.05 1.7 -4.85 2.0 -4.65 1.1 -4.5 0.55 -4.5 0.8 -4.3 0.4 -4.2 0.25 -3.75 -0.8 Q-2.9 -1.85 -1.2 -1.85 M4.1 -1.8 L4.1 -1.95 4.05 -2.0 3.65 -2.7 3.55 -2.55 3.5 -2.7 3.45 -2.8 3.5 -2.95 3.4 -2.85 3.25 -3.0 3.25 -3.3 3.2 -3.35 3.05 -3.5 2.5 -3.75 2.4 -3.7 2.25 -3.6 2.2 -3.65 2.35 -3.85 2.55 -3.95 1.45 -4.7 0.7 -4.95 0.4 -4.9 0.25 -4.7 -0.15 -4.85 -0.6 -4.85 -0.75 -4.85 -0.9 -4.75 -2.0 -4.6 -3.4 -4.2 -4.75 -3.6 Q-6.65 -2.2 -7.65 0.15 L-8.15 1.75 -8.3 2.6 -8.15 3.05 -7.85 3.2 -7.5 3.35 -7.3 3.7 -7.55 3.8 -7.65 3.85 -7.45 4.0 -7.25 4.1 -7.05 4.15 -7.0 4.4 -7.2 4.65 -7.7 4.85 -8.2 5.0 -8.4 5.35 -8.35 5.9 -8.0 7.2 -7.8 7.7 -7.5 8.2 -7.55 8.4 -7.5 8.8 -7.5 9.25 -7.5 9.5 -7.65 9.55 -7.7 9.55 -7.85 9.5 -7.9 9.55 -8.0 9.55 -8.4 9.2 -8.85 8.35 -9.45 7.45 -10.0 6.7 -9.9 6.65 -9.9 6.55 -9.95 6.55 -10.1 6.25 -10.25 6.0 -10.3 5.65 -10.3 5.45 -10.5 5.3 -11.05 5.2 -11.85 5.2 -12.7 5.15 Q-13.55 5.05 -13.55 4.6 L-13.3 4.3 -13.05 4.25 -13.15 4.05 -13.3 3.85 -13.15 3.7 -12.85 3.65 -12.2 3.7 -11.55 3.75 -10.85 3.6 -10.75 3.3 -10.8 2.55 -10.9 2.0 Q-10.9 0.55 -9.8 -1.45 L-7.55 -4.55 -5.6 -6.0 -4.2 -6.55 Q-3.45 -6.75 -3.15 -7.0 L-2.85 -7.3 -2.9 -7.55 -2.8 -7.95 -2.7 -8.05 -2.6 -8.15 -2.6 -8.7 -2.4 -9.05 -2.4 -9.0 -2.45 -8.9 -2.4 -8.8 -2.3 -8.75 -2.1 -9.0 Q-1.95 -9.3 -1.95 -9.95 L-1.95 -10.2 -2.0 -10.2 Q-1.7 -10.6 -1.2 -10.6 L-0.2 -10.3 0.0 -9.7 -0.05 -8.9 -0.15 -8.1 0.0 -7.35 0.3 -7.05 0.85 -6.85 1.6 -6.75 2.1 -6.65 2.5 -6.6 2.9 -6.35 3.2 -6.15 3.55 -6.05 3.6 -6.05 4.4 -5.45 5.6 -4.5 5.95 -4.25 6.25 -4.05 7.25 -3.05 8.9 -0.65 9.15 -0.1 9.35 0.05 9.7 -0.25 10.3 -0.5 11.05 -0.35 11.2 -0.2 Q11.3 -0.1 11.5 -0.1 L11.75 -0.15 11.9 -0.25 11.9 -0.1 11.95 0.1 11.6 0.8 10.9 1.4 10.2 2.0 Q9.85 2.45 9.85 2.9 L9.9 3.8 9.95 4.7 Q9.95 5.6 9.55 6.7 L9.25 7.65 8.9 8.6 8.05 9.45 7.4 9.55 7.4 9.45 7.55 9.45 7.3 9.3 7.15 9.25 6.85 9.5 6.6 9.95 6.35 10.5 5.95 11.0 5.75 10.15 5.8 9.45 5.9 8.9 5.9 8.75 5.8 8.5 5.65 8.65 5.5 8.75 5.45 8.5 5.65 7.9 5.9 7.3 5.95 7.1 6.2 6.8 6.5 4.9 6.5 4.7 6.45 4.4 6.15 4.55 5.75 4.85 Q5.2 5.25 4.85 5.25 L4.65 5.2 4.6 5.05 Q4.6 4.7 5.35 4.05 L5.9 3.55 6.2 3.2 6.05 3.05 6.1 2.95 6.2 2.9 6.05 2.95 6.0 3.0 5.85 2.9 5.95 2.3 5.65 1.15 5.15 -0.05 4.5 -1.2 4.1 -1.8 M1.2 9.65 L0.8 6.8 1.6 6.8 1.2 9.65 M-1.4 3.35 L-0.85 3.85 -0.55 4.6 -0.75 5.0 -1.15 5.35 -1.55 4.95 Q-1.7 4.85 -1.8 4.8 L-1.65 4.25 -1.55 4.0 Q-1.4 3.95 -1.4 3.7 L-1.4 3.35 M-2.85 8.2 L-2.95 9.1 -3.2 9.5 -3.5 9.1 -3.65 8.2 -3.5 7.35 -3.2 7.0 Q-3.05 7.0 -2.95 7.35 L-2.85 8.2" fill="#8cb5e6" fill-rule="evenodd" stroke="none"/>
    </g>
  </defs>
</svg>
