<?xml version="1.0" encoding="UTF-8" standalone="no"?>
<svg xmlns:xlink="http://www.w3.org/1999/xlink" height="18.9px" width="25.5px" xmlns="http://www.w3.org/2000/svg">
  <g transform="matrix(1.0, 0.0, 0.0, 1.0, 11.15, 8.25)">
    <use height="18.9" transform="matrix(1.0, 0.0, 0.0, 1.0, -11.15, -8.25)" width="25.5" xlink:href="#shape0"/>
  </g>
  <defs>
    <g id="shape0" transform="matrix(1.0, 0.0, 0.0, 1.0, 11.15, 8.25)">
      <path d="M2.75 -3.15 L3.05 -4.05 2.65 -4.1 2.3 -4.15 3.05 -7.25 3.35 -7.2 Q7.1 -6.65 9.6 -3.9 12.1 -1.2 12.1 2.5 12.05 4.7 11.1 6.7 L12.05 7.45 12.05 7.5 Q13.45 8.8 14.1 10.15 L14.35 10.65 -10.15 10.65 -9.2 10.05 -6.6 8.5 Q-8.75 5.95 -8.75 2.5 -8.8 -0.35 -7.15 -2.75 -5.6 -5.1 -3.0 -6.35 L-2.75 -6.45 -0.85 -3.8 -1.2 -3.65 -2.05 -3.25 0.35 -0.45 1.65 -0.75 2.1 -0.7 2.2 -1.2 4.6 -0.35 4.3 0.65 4.85 1.8 8.8 1.25 Q8.45 -0.5 7.15 -1.9 L5.4 -3.25 5.15 -2.35 2.75 -3.15 M-1.55 2.5 L-1.4 1.45 -4.0 -1.65 -4.35 -1.2 -4.4 -1.2 Q-5.65 0.45 -5.6 2.5 L-5.55 3.25 -1.55 2.7 -1.55 2.5" fill="#081a15" fill-opacity="0.49803922" fill-rule="evenodd" stroke="none"/>
      <path d="M-4.95 6.9 L-6.55 7.7 -7.15 8.0 -8.9 9.0 12.25 9.0 10.6 6.95 9.75 6.25 9.25 5.9 7.65 5.0 7.0 4.8 4.3 4.35 1.85 4.55 0.85 4.75 Q-1.4 5.3 -4.1 6.55 L-4.8 6.85 -4.95 6.9 M0.65 -1.05 L-0.2 -0.9 -0.8 -0.55 -1.1 -0.3 -1.55 0.35 -1.8 1.15 -1.85 1.5 -1.85 1.6 -1.7 2.3 -1.1 3.3 -1.05 3.35 -0.2 3.9 0.65 4.05 0.9 4.05 1.45 3.95 2.15 3.6 2.45 3.3 2.9 2.8 3.2 1.6 3.2 1.5 3.15 0.9 3.05 0.55 2.55 -0.2 2.45 -0.3 1.55 -0.9 0.9 -1.05 0.65 -1.05 M8.1 -4.45 Q5.9 -6.95 2.55 -7.5 L2.1 -5.7 2.2 -5.7 2.9 -5.55 3.95 -5.2 4.6 -4.9 6.6 -3.35 Q8.05 -1.8 8.45 0.15 L8.55 0.85 8.6 1.5 8.55 1.95 8.5 2.65 7.95 4.45 9.55 5.3 Q10.45 3.5 10.45 1.5 10.4 -1.9 8.1 -4.45 M3.7 -4.25 L3.8 -4.55 2.7 -4.9 2.6 -4.6 3.7 -4.25 M1.75 -4.15 L2.05 -5.05 1.65 -5.1 1.3 -5.15 2.05 -8.25 2.35 -8.2 Q6.1 -7.65 8.6 -4.9 11.1 -2.2 11.1 1.5 11.05 3.7 10.1 5.7 L11.05 6.45 11.05 6.5 Q12.45 7.8 13.1 9.15 L13.35 9.65 -11.15 9.65 -10.2 9.05 -7.6 7.5 Q-9.75 4.95 -9.75 1.5 -9.8 -1.35 -8.15 -3.75 -6.6 -6.1 -4.0 -7.35 L-3.75 -7.45 -1.85 -4.8 -2.2 -4.65 -3.05 -4.25 -0.65 -1.45 0.65 -1.75 1.1 -1.7 1.2 -2.2 3.6 -1.35 3.3 -0.35 3.85 0.8 7.8 0.25 Q7.45 -1.5 6.15 -2.9 L4.4 -4.25 4.15 -3.35 1.75 -4.15 M3.9 1.5 L3.7 2.65 7.9 2.05 7.95 1.5 7.9 0.95 3.9 1.5 M4.3 3.7 L7.35 4.2 7.8 2.75 3.3 3.4 3.05 3.7 4.3 3.7 M0.65 0.25 Q1.2 0.25 1.55 0.6 1.9 1.0 1.9 1.5 L1.55 2.35 0.65 2.7 Q0.15 2.7 -0.2 2.35 L-0.55 1.5 Q-0.55 1.0 -0.2 0.6 0.15 0.25 0.65 0.25 M-5.9 -2.6 L-5.45 -3.2 -4.95 -3.7 -4.05 -4.4 -3.45 -4.75 -2.85 -5.05 -3.95 -6.6 Q-6.2 -5.5 -7.6 -3.4 -9.1 -1.15 -9.1 1.5 -9.15 4.8 -7.05 7.2 L-5.3 6.35 -6.25 5.1 -6.45 4.8 -6.75 4.15 -7.1 3.05 -7.2 2.35 -7.25 1.5 Q-7.25 -0.75 -5.9 -2.6 M-2.55 1.5 L-2.4 0.45 -5.0 -2.65 -5.35 -2.2 -5.4 -2.2 Q-6.65 -0.55 -6.6 1.5 L-6.55 2.25 -2.55 1.7 -2.55 1.5 M-1.6 -0.8 L-1.25 -1.05 -3.6 -3.9 -4.5 -3.2 -2.05 -0.25 -1.6 -0.8 M-1.9 3.45 L-2.45 2.4 -6.45 2.95 -6.05 4.05 -1.9 3.45 M-5.7 4.75 L-4.65 6.05 Q-2.55 5.05 -0.65 4.5 L-1.3 4.05 -5.75 4.7 -5.7 4.75" fill="#000000" fill-rule="evenodd" stroke="none"/>
      <path d="M3.7 -4.25 L2.6 -4.6 2.7 -4.9 3.8 -4.55 3.7 -4.25 M8.1 -4.45 Q10.4 -1.9 10.45 1.5 10.45 3.5 9.55 5.3 L7.95 4.45 8.5 2.65 8.55 1.95 8.6 1.5 8.55 0.85 8.45 0.15 Q8.05 -1.8 6.6 -3.35 L4.6 -4.9 3.95 -5.2 2.9 -5.55 2.2 -5.7 2.1 -5.7 2.55 -7.5 Q5.9 -6.95 8.1 -4.45 M0.65 -1.05 L0.9 -1.05 1.55 -0.9 2.45 -0.3 2.55 -0.2 3.05 0.55 3.15 0.9 3.2 1.5 3.2 1.6 2.9 2.8 2.45 3.3 2.15 3.6 1.45 3.95 0.9 4.05 0.65 4.05 -0.2 3.9 -1.05 3.35 -1.1 3.3 -1.7 2.3 -1.85 1.6 -1.85 1.5 -1.8 1.15 -1.55 0.35 -1.1 -0.3 -0.8 -0.55 -0.2 -0.9 0.65 -1.05 M-4.95 6.9 L-4.8 6.85 -4.1 6.55 Q-1.4 5.3 0.85 4.75 L1.85 4.55 4.3 4.35 7.0 4.8 7.65 5.0 9.25 5.9 9.75 6.25 10.6 6.95 12.25 9.0 -8.9 9.0 -7.15 8.0 -6.55 7.7 -4.95 6.9 M0.65 0.25 Q0.15 0.25 -0.2 0.6 -0.55 1.0 -0.55 1.5 L-0.2 2.35 Q0.15 2.7 0.65 2.7 L1.55 2.35 1.9 1.5 Q1.9 1.0 1.55 0.6 1.2 0.25 0.65 0.25 M3.9 1.5 L7.9 0.95 7.95 1.5 7.9 2.05 3.7 2.65 3.9 1.5 M-5.9 -2.6 Q-7.25 -0.75 -7.25 1.5 L-7.2 2.35 -7.1 3.05 -6.75 4.15 -6.45 4.8 -6.25 5.1 -5.3 6.35 -7.05 7.2 Q-9.15 4.8 -9.1 1.5 -9.1 -1.15 -7.6 -3.4 -6.2 -5.5 -3.95 -6.6 L-2.85 -5.05 -3.45 -4.75 -4.05 -4.4 -4.95 -3.7 -5.45 -3.2 -5.9 -2.6 M-1.6 -0.8 L-2.05 -0.25 -4.5 -3.2 -3.6 -3.9 -1.25 -1.05 -1.6 -0.8 M-1.9 3.45 L-6.05 4.05 -6.45 2.95 -2.45 2.4 -1.9 3.45" fill="#8cb5e6" fill-rule="evenodd" stroke="none"/>
    </g>
  </defs>
</svg>
