<?xml version="1.0" encoding="UTF-8" standalone="no"?>
<svg xmlns:xlink="http://www.w3.org/1999/xlink" height="20.55px" width="25.8px" xmlns="http://www.w3.org/2000/svg">
  <g transform="matrix(1.0, 0.0, 0.0, 1.0, 12.6, 9.35)">
    <use data-characterId="119" height="20.55" transform="matrix(1.0, 0.0, 0.0, 1.0, -12.6, -9.35)" width="25.8" xlink:href="#shape0"/>
  </g>
  <defs>
    <g id="shape0" transform="matrix(1.0, 0.0, 0.0, 1.0, 12.6, 9.35)">
      <path d="M-3.8 0.4 L-3.75 0.05 Q-3.75 -1.35 -2.8 -2.35 L-1.5 -3.2 -1.5 -3.4 Q-1.5 -4.15 -1.05 -4.7 L0.1 -5.15 1.3 -5.15 Q1.05 -5.5 1.05 -6.0 1.05 -6.65 1.5 -7.05 2.0 -7.55 2.65 -7.55 3.25 -7.55 3.75 -7.05 4.15 -6.65 4.15 -6.0 L3.95 -5.15 5.2 -5.15 6.3 -4.7 Q6.75 -4.15 6.75 -3.4 L6.75 -3.2 Q7.2 -3.05 7.6 -2.7 L8.35 -2.8 Q10.0 -2.85 11.35 -1.6 12.7 -0.4 13.1 1.6 13.4 3.6 12.55 5.25 11.8 6.95 10.1 7.25 L9.8 7.3 9.05 8.45 8.75 8.8 8.55 8.9 8.4 9.0 8.7 9.7 8.7 10.15 8.35 10.9 7.55 11.2 -2.35 11.2 Q-2.8 11.2 -3.1 10.9 L-3.45 10.15 -3.45 9.7 -3.15 9.0 -3.8 8.5 -3.85 8.45 Q-4.8 7.45 -4.8 6.05 L-4.65 5.1 Q-6.5 4.85 -7.15 4.1 -7.8 3.3 -7.9 2.1 L-8.0 -0.15 Q-8.1 -1.75 -8.9 -2.1 L-5.05 -2.1 Q-4.9 1.0 -4.2 0.8 L-3.8 0.4 M10.25 4.1 Q10.65 3.25 10.5 2.05 10.3 0.95 9.6 0.35 L8.95 0.0 8.95 0.05 9.75 4.6 10.25 4.1" fill="#081a15" fill-rule="evenodd" stroke="none"/>
      <path d="M7.7 0.6 Q7.5 -0.35 6.9 -0.9 L7.5 2.45 Q7.8 1.65 7.7 0.6 M-6.55 -1.45 Q-6.55 -3.0 -5.5 -4.05 L-5.55 -4.05 Q-5.0 -4.65 -4.3 -4.9 -4.3 -5.75 -3.8 -6.4 L-3.75 -6.4 Q-3.25 -6.95 -2.4 -6.95 L-1.7 -6.95 -1.75 -7.5 Q-1.8 -8.3 -1.2 -8.8 L-1.2 -8.75 Q-0.65 -9.4 0.15 -9.35 0.85 -9.4 1.5 -8.75 1.95 -8.3 2.0 -7.5 L1.95 -6.95 2.7 -6.95 Q3.4 -7.0 4.05 -6.45 L4.05 -6.4 Q4.55 -5.75 4.6 -4.9 L5.2 -4.55 5.85 -4.6 Q7.6 -4.7 9.1 -3.35 10.5 -2.1 10.95 0.05 11.25 2.15 10.35 3.9 9.5 5.75 7.65 6.1 L7.55 6.1 6.8 7.2 6.5 7.55 6.4 7.6 6.55 8.2 6.55 8.65 6.1 9.65 Q5.7 10.0 5.05 10.05 L-4.85 10.05 -5.8 9.65 Q-6.3 9.15 -6.25 8.65 L-6.25 8.2 -6.1 7.6 -6.5 7.25 -6.55 7.2 Q-7.6 6.1 -7.6 4.55 L-7.5 3.9 Q-9.25 3.6 -9.9 2.85 L-9.9 2.8 Q-10.6 1.95 -10.7 0.65 L-10.7 0.7 -10.8 -1.65 Q-10.9 -3.0 -11.5 -3.3 L-12.6 -3.9 -7.25 -3.9 -7.2 -3.6 -6.95 -1.4 -6.8 -1.0 -6.6 -1.25 -6.55 -1.45" fill="#000000" fill-rule="evenodd" stroke="none"/>
      <path d="M0.15 -8.3 Q0.95 -8.3 0.95 -7.5 L0.7 -6.9 0.15 -6.7 Q-0.7 -6.7 -0.7 -7.5 -0.7 -8.3 0.15 -8.3 M2.7 -5.9 L3.25 -5.65 3.55 -4.9 -3.25 -4.9 Q-3.25 -5.9 -2.4 -5.9 L2.7 -5.9 M3.25 -4.1 Q4.25 -4.1 4.95 -3.3 5.7 -2.5 5.7 -1.45 L5.7 -1.35 6.75 4.6 Q6.75 5.65 6.05 6.4 5.35 7.15 4.35 7.15 L-4.1 7.15 Q-5.15 7.15 -5.8 6.4 -6.5 5.65 -6.55 4.6 L-6.25 2.95 -7.05 2.85 Q-8.65 2.7 -9.05 2.1 -9.75 1.25 -9.75 -0.85 L-9.75 -1.65 -9.95 -2.85 -8.25 -2.85 Q-8.0 0.05 -6.7 0.05 -6.15 0.05 -5.7 -0.65 L-5.6 -0.75 -5.55 -0.9 -5.5 -1.35 -5.5 -1.45 Q-5.5 -2.5 -4.75 -3.3 -4.05 -4.1 -3.05 -4.1 L3.25 -4.1 M5.85 -3.6 Q7.2 -3.6 8.35 -2.55 9.55 -1.5 9.85 0.2 10.15 1.95 9.45 3.45 8.75 4.75 7.5 5.05 L7.4 5.4 7.5 4.55 7.4 3.85 8.35 2.9 Q8.95 1.8 8.7 0.45 8.45 -0.9 7.55 -1.65 L6.35 -2.3 5.75 -3.55 5.85 -3.6 M5.05 7.9 Q5.45 7.9 5.45 8.2 L5.45 8.65 Q5.45 8.95 5.05 8.95 L-4.85 8.95 -5.2 8.65 -5.2 8.2 Q-5.2 7.9 -4.85 7.9 L-4.2 7.9 -4.1 7.9 4.35 7.9 4.45 7.9 5.05 7.9 M6.05 7.4 L5.9 7.5 5.55 7.7 6.05 7.4" fill="#8cb5e6" fill-rule="evenodd" stroke="none"/>
    </g>
  </defs>
</svg>
