<?xml version="1.0" encoding="UTF-8" standalone="no"?>
<svg xmlns:xlink="http://www.w3.org/1999/xlink" height="25.2px" width="22.5px" xmlns="http://www.w3.org/2000/svg">
  <g transform="matrix(1.0, 0.0, 0.0, 1.0, 9.4, 15.1)">
    <use data-characterId="117" height="25.2" transform="matrix(1.0, 0.0, 0.0, 1.0, -9.4, -15.1)" width="22.5" xlink:href="#shape0"/>
  </g>
  <defs>
    <g id="shape0" transform="matrix(1.0, 0.0, 0.0, 1.0, 9.4, 15.1)">
      <path d="M6.9 10.1 L-1.0 10.1 0.3 7.45 -6.15 6.5 -6.95 6.05 -7.2 5.2 -7.2 4.9 Q-7.2 4.35 -6.85 3.95 -6.45 3.55 -5.95 3.55 L-4.65 3.55 Q-4.3 1.65 -2.5 0.2 -0.7 -1.2 1.75 -1.5 L1.75 -2.85 1.7 -2.85 0.8 -4.75 0.1 -4.75 0.1 -6.95 2.05 -6.95 2.9 -14.65 3.85 -6.95 5.75 -6.95 5.75 -4.75 5.15 -4.75 4.15 -2.85 4.15 -1.5 Q6.55 -1.2 8.35 0.2 10.15 1.65 10.55 3.55 L11.8 3.55 Q12.35 3.55 12.75 3.95 13.1 4.35 13.1 4.9 L13.1 5.2 Q13.1 6.25 12.05 6.5 L5.55 7.45 6.9 10.1" fill="#081a15" fill-rule="evenodd" stroke="none"/>
      <path d="M0.75 -9.55 L0.6 -7.4 1.05 -7.4 0.75 -9.55 M4.75 9.65 L-3.15 9.65 -1.85 7.05 -8.35 6.05 Q-8.8 6.0 -9.1 5.65 L-9.4 4.8 -9.4 4.5 Q-9.4 3.9 -9.0 3.55 -8.6 3.1 -8.1 3.1 L-6.8 3.1 Q-6.4 1.25 -4.65 -0.25 -2.85 -1.65 -0.45 -1.9 L-0.45 -3.25 -1.35 -5.2 -2.0 -5.2 -2.0 -7.4 -0.1 -7.4 0.75 -15.1 1.7 -7.4 3.6 -7.4 3.6 -5.2 2.95 -5.2 2.0 -3.25 2.0 -1.9 Q4.4 -1.65 6.2 -0.25 8.0 1.25 8.4 3.1 L9.65 3.1 Q10.2 3.1 10.6 3.55 10.95 3.9 10.95 4.5 L10.95 4.8 Q10.95 5.85 9.9 6.05 L3.4 7.05 4.75 9.65 M1.4 3.1 L1.4 -3.25 0.2 -3.25 0.2 3.1 1.4 3.1 M-0.1 -3.95 L1.65 -3.95 2.25 -5.2 -0.65 -5.2 -0.1 -3.95 M-1.4 -5.8 L2.95 -5.8 2.95 -6.7 -1.4 -6.7 -1.4 -5.8 M-8.1 3.8 Q-8.75 3.8 -8.75 4.5 L-8.75 4.8 Q-8.75 5.35 -8.2 5.45 L0.75 6.55 9.75 5.45 Q10.35 5.35 10.35 4.8 L10.35 4.5 10.15 3.95 9.65 3.8 -8.1 3.8 M5.65 0.15 Q4.05 -1.05 2.0 -1.3 L2.0 3.1 7.75 3.1 Q7.35 1.4 5.65 0.15 M5.2 0.85 L5.7 1.35 6.45 2.4 2.75 2.4 5.2 0.85 M4.3 0.4 L2.75 1.5 2.75 -0.5 4.3 0.4 M-2.1 9.05 L3.7 9.05 2.75 7.15 0.75 7.15 -1.1 7.15 -2.1 9.05 M-2.85 0.4 L-1.3 -0.5 -1.3 1.5 -2.85 0.4 M-3.75 0.85 L-1.3 2.4 -5.0 2.4 -4.2 1.35 -3.75 0.85 M-4.05 0.15 Q-5.8 1.4 -6.15 3.1 L-0.45 3.1 -0.45 -1.3 Q-2.5 -1.05 -4.05 0.15" fill="#000000" fill-rule="evenodd" stroke="none"/>
      <path d="M5.2 0.85 L2.75 2.4 6.45 2.4 5.7 1.35 5.2 0.85 M5.65 0.15 Q7.35 1.4 7.75 3.1 L2.0 3.1 2.0 -1.3 Q4.05 -1.05 5.65 0.15 M-8.1 3.8 L9.65 3.8 10.15 3.95 10.35 4.5 10.35 4.8 Q10.35 5.35 9.75 5.45 L0.75 6.55 -8.2 5.45 Q-8.75 5.35 -8.75 4.8 L-8.75 4.5 Q-8.75 3.8 -8.1 3.8 M1.4 3.1 L0.2 3.1 0.2 -3.25 1.4 -3.25 1.4 3.1 M0.75 -9.55 L1.05 -7.4 0.6 -7.4 0.75 -9.55 M-0.1 -3.95 L-0.65 -5.2 2.25 -5.2 1.65 -3.95 -0.1 -3.95 M-1.4 -5.8 L-1.4 -6.7 2.95 -6.7 2.95 -5.8 -1.4 -5.8 M4.3 0.4 L2.75 -0.5 2.75 1.5 4.3 0.4 M-2.1 9.05 L-1.1 7.15 0.75 7.15 2.75 7.15 3.7 9.05 -2.1 9.05 M-3.75 0.85 L-4.2 1.35 -5.0 2.4 -1.3 2.4 -3.75 0.85 M-4.05 0.15 Q-2.5 -1.05 -0.45 -1.3 L-0.45 3.1 -6.15 3.1 Q-5.8 1.4 -4.05 0.15 M-2.85 0.4 L-1.3 1.5 -1.3 -0.5 -2.85 0.4" fill="#8cb5e6" fill-rule="evenodd" stroke="none"/>
    </g>
  </defs>
</svg>
