<?xml version="1.0" encoding="UTF-8" standalone="no"?>
<svg xmlns:xlink="http://www.w3.org/1999/xlink" height="19.65px" width="25.8px" xmlns="http://www.w3.org/2000/svg">
  <g transform="matrix(1.0, 0.0, 0.0, 1.0, 11.85, 9.8)">
    <use data-characterId="109" height="19.65" transform="matrix(1.0, 0.0, 0.0, 1.0, -11.85, -9.8)" width="25.8" xlink:href="#shape0"/>
  </g>
  <defs>
    <g id="shape0" transform="matrix(1.0, 0.0, 0.0, 1.0, 11.85, 9.8)">
      <path d="M-0.45 -9.8 L1.5 -9.8 1.1 -7.75 3.15 -7.75 2.65 -9.8 4.65 -9.8 5.5 -7.75 6.8 -7.75 8.45 -4.2 6.9 -4.2 7.0 -3.95 8.6 -3.95 10.85 0.55 8.8 0.55 9.2 1.4 11.3 1.4 11.4 1.55 13.95 6.75 11.35 6.75 12.6 9.85 7.3 9.85 6.6 6.75 -2.35 6.75 -3.15 9.85 -8.4 9.85 -7.15 6.75 -9.85 6.75 -7.2 1.4 -5.0 1.4 -4.65 0.55 -6.75 0.55 -4.5 -3.95 -2.8 -3.95 -2.7 -4.2 -4.35 -4.2 -2.6 -7.75 -1.3 -7.75 -0.45 -9.8" fill="#081a15" fill-rule="evenodd" stroke="none"/>
      <path d="M-2.45 -9.8 L-0.5 -9.8 -0.9 -7.75 1.15 -7.75 0.65 -9.8 2.65 -9.8 3.5 -7.75 4.8 -7.75 6.45 -4.2 4.9 -4.2 5.0 -3.95 6.6 -3.95 8.85 0.55 6.8 0.55 7.2 1.4 9.3 1.4 9.4 1.55 11.95 6.75 9.35 6.75 10.6 9.85 5.3 9.85 4.6 6.75 -4.35 6.75 -5.15 9.85 -10.4 9.85 -9.15 6.75 -11.85 6.75 -9.2 1.4 -7.0 1.4 -6.65 0.55 -8.75 0.55 -6.5 -3.95 -4.8 -3.95 -4.7 -4.2 -6.35 -4.2 -4.6 -7.75 -3.3 -7.75 -2.45 -9.8" fill="#000000" fill-rule="evenodd" stroke="none"/>
      <path d="M4.15 -6.75 L4.85 -5.25 4.1 -5.25 3.5 -6.75 4.15 -6.75 M-2.45 -2.95 L2.6 -2.95 3.2 -0.5 -3.0 -0.5 -2.45 -2.95 M5.95 -2.95 L7.2 -0.5 6.05 -0.5 5.05 -2.95 5.95 -2.95 M-1.55 -6.75 L1.7 -6.75 2.05 -5.25 -1.9 -5.25 -1.55 -6.75 M1.95 -8.75 L9.05 8.8 6.1 8.8 1.95 -8.75 M-3.7 2.4 L3.9 2.4 4.65 5.7 -4.5 5.7 -3.7 2.4 M8.65 2.4 L10.3 5.7 8.55 5.7 7.2 2.4 8.65 2.4 M-4.75 -5.25 L-4.0 -6.75 -3.35 -6.75 -3.95 -5.25 -4.75 -5.25 M-7.1 -0.5 L-5.9 -2.95 -4.9 -2.95 -5.9 -0.5 -7.1 -0.5 M-1.8 -8.75 L-5.95 8.8 -8.9 8.8 -1.8 -8.75 M-10.2 5.7 L-8.55 2.4 -7.05 2.4 -8.6 6.25 -8.4 5.7 -10.2 5.7" fill="#8cb5e6" fill-rule="evenodd" stroke="none"/>
    </g>
  </defs>
</svg>
