<?xml version="1.0" encoding="UTF-8" standalone="no"?>
<svg xmlns:xlink="http://www.w3.org/1999/xlink" height="18.75px" width="22.1px" xmlns="http://www.w3.org/2000/svg">
  <g transform="matrix(1.0, 0.0, 0.0, 1.0, 9.7, 9.45)">
    <use data-characterId="111" height="18.75" transform="matrix(1.0, 0.0, 0.0, 1.0, -9.7, -9.45)" width="22.1" xlink:href="#shape0"/>
  </g>
  <defs>
    <g id="shape0" transform="matrix(1.0, 0.0, 0.0, 1.0, 9.7, 9.45)">
      <path d="M-2.1 9.1 L-2.2 9.05 -2.55 8.85 -2.7 9.0 -3.4 9.3 -6.6 9.3 -7.3 9.0 -7.6 8.3 -7.6 7.4 -7.45 6.95 -5.8 3.8 -6.0 3.6 -6.3 3.3 -6.4 3.2 Q-7.0 2.4 -7.0 1.3 -7.0 0.0 -6.1 -0.9 L-6.1 -0.95 Q-5.35 -1.7 -4.4 -1.85 L-4.85 -6.85 -4.75 -7.4 -4.35 -7.8 -3.85 -7.95 -0.2 -7.95 0.35 -7.8 0.7 -7.4 0.8 -6.85 0.35 -1.9 2.55 -1.9 2.55 -3.15 2.15 -3.15 Q1.75 -3.15 1.5 -3.4 1.2 -3.65 1.15 -4.0 1.1 -4.4 1.35 -4.7 L2.2 -6.0 2.55 -6.3 3.0 -6.45 10.8 -6.45 Q11.45 -6.45 11.9 -5.95 12.45 -5.5 12.4 -4.9 L12.4 -4.75 Q12.4 -4.1 11.9 -3.6 11.5 -3.15 10.8 -3.15 L10.8 -1.8 11.1 -1.6 11.4 -0.9 11.4 5.15 11.1 5.85 10.4 6.15 Q10.3 7.4 9.45 8.3 L9.4 8.3 Q8.45 9.3 7.05 9.3 L5.85 9.1 5.9 9.1 Q5.2 8.9 4.7 8.3 L4.65 8.25 Q3.8 7.35 3.7 6.15 L2.5 6.15 Q2.4 7.4 1.5 8.3 0.5 9.3 -0.9 9.3 L-2.1 9.1" fill="#081a15" fill-rule="evenodd" stroke="none"/>
      <path d="M-4.2 7.6 L-4.3 7.55 -4.65 7.35 -4.8 7.5 -5.5 7.8 -8.7 7.8 -9.4 7.5 -9.7 6.8 -9.7 5.9 -9.55 5.45 -7.9 2.3 -8.1 2.1 -8.4 1.8 -8.5 1.7 Q-9.1 0.9 -9.1 -0.2 -9.1 -1.5 -8.2 -2.4 L-8.2 -2.45 Q-7.45 -3.2 -6.5 -3.35 L-6.95 -8.35 -6.85 -8.9 -6.45 -9.3 -5.95 -9.45 -2.3 -9.45 -1.75 -9.3 -1.4 -8.9 -1.3 -8.35 -1.75 -3.4 0.45 -3.4 0.45 -4.65 0.05 -4.65 -0.6 -4.9 -0.95 -5.5 -0.75 -6.2 0.1 -7.5 0.45 -7.8 0.9 -7.95 8.7 -7.95 Q9.35 -7.95 9.8 -7.45 10.35 -7.0 10.3 -6.4 L10.3 -6.25 Q10.3 -5.6 9.8 -5.1 9.4 -4.65 8.7 -4.65 L8.7 -3.3 9.0 -3.1 9.3 -2.4 9.3 3.65 9.0 4.35 8.3 4.65 Q8.2 5.9 7.35 6.8 L7.3 6.8 Q6.35 7.8 4.95 7.8 L3.75 7.6 3.8 7.6 Q3.1 7.4 2.6 6.8 L2.55 6.75 Q1.7 5.85 1.6 4.65 L0.4 4.65 Q0.3 5.9 -0.6 6.8 -1.6 7.8 -3.0 7.8 L-4.2 7.6" fill="#000000" fill-rule="evenodd" stroke="none"/>
      <path d="M-6.6 1.95 L-6.7 1.85 -7.7 1.1 Q-8.1 0.55 -8.1 -0.2 -8.1 -1.1 -7.5 -1.75 -6.85 -2.4 -5.95 -2.4 L-5.4 -2.4 -5.95 -8.45 -2.3 -8.45 -2.85 -2.4 1.45 -2.4 1.45 -5.65 0.05 -5.65 0.9 -6.95 8.7 -6.95 9.1 -6.75 9.3 -6.4 9.3 -6.25 9.1 -5.8 8.7 -5.65 7.7 -5.65 7.7 -2.4 8.3 -2.4 8.3 3.65 7.15 3.65 7.3 4.4 Q7.3 5.4 6.6 6.1 5.95 6.8 4.95 6.8 L4.1 6.65 3.3 6.1 Q2.6 5.4 2.6 4.4 L2.6 4.2 2.7 3.65 -0.75 3.65 -0.6 4.4 Q-0.6 5.4 -1.3 6.1 -2.0 6.8 -3.0 6.8 L-3.85 6.65 -4.2 6.45 -4.35 6.35 -5.05 5.55 -5.5 6.8 -8.7 6.8 -8.7 5.9 -6.6 1.95" fill="#8cb5e6" fill-rule="evenodd" stroke="none"/>
    </g>
  </defs>
</svg>
