<?xml version="1.0" encoding="UTF-8" standalone="no"?>
<svg xmlns:xlink="http://www.w3.org/1999/xlink" height="20.35px" width="20.75px" xmlns="http://www.w3.org/2000/svg">
  <g transform="matrix(1.0, 0.0, 0.0, 1.0, 10.4, 10.15)">
    <use data-characterId="99" height="20.35" transform="matrix(1.0, 0.0, 0.0, 1.0, -10.4, -10.15)" width="20.75" xlink:href="#shape0"/>
  </g>
  <defs>
    <g id="shape0" transform="matrix(1.0, 0.0, 0.0, 1.0, 10.4, 10.15)">
      <path d="M1.35 -10.15 Q2.35 -10.2 2.6 -9.1 L2.7 -8.55 4.15 -8.0 4.55 -8.3 Q5.05 -8.65 5.35 -8.6 5.8 -8.65 6.3 -8.15 L8.2 -6.3 8.2 -6.35 Q9.0 -5.6 8.4 -4.7 L8.4 -4.75 8.1 -4.25 8.7 -2.8 9.05 -2.7 9.35 -2.6 9.3 -2.6 Q10.25 -2.5 10.3 -1.45 L10.35 1.25 Q10.35 2.25 9.35 2.5 L8.75 2.65 8.2 4.1 8.45 4.55 8.45 4.5 Q9.1 5.45 8.25 6.25 L6.5 8.05 Q6.1 8.45 5.55 8.45 L4.9 8.25 4.35 7.95 2.85 8.6 2.65 9.2 2.6 9.2 Q2.35 9.9 1.75 10.1 L1.9 10.05 1.6 10.2 -1.65 10.2 -1.75 10.15 -1.85 10.1 Q-2.5 9.9 -2.7 9.15 L-2.85 8.6 -4.45 7.95 -4.95 8.2 -5.65 8.45 -6.25 8.3 -6.3 8.25 -6.6 8.05 -6.7 8.0 -6.7 7.95 -6.8 7.95 -6.7 7.9 -8.3 6.25 Q-9.1 5.45 -8.5 4.55 L-8.2 4.1 -8.85 2.65 -9.4 2.5 Q-10.45 2.25 -10.4 1.25 L-10.35 -1.45 Q-10.4 -2.5 -9.4 -2.6 L-9.45 -2.6 -9.15 -2.7 -9.1 -2.7 -8.75 -2.75 -8.15 -4.25 -8.45 -4.7 Q-9.0 -5.6 -8.25 -6.3 L-6.35 -8.15 Q-5.9 -8.65 -5.45 -8.6 L-4.6 -8.3 -4.2 -8.0 -2.75 -8.55 -2.65 -9.15 -2.65 -9.1 Q-2.45 -10.2 -1.45 -10.15 L1.35 -10.15" fill="#000000" fill-rule="evenodd" stroke="none"/>
      <path d="M-2.45 -4.4 Q-3.75 -4.4 -4.55 -3.45 -5.35 -2.5 -5.35 -0.8 L-5.35 0.95 Q-5.35 2.6 -4.65 3.5 -3.95 4.35 -2.8 4.35 -1.75 4.35 -1.05 3.55 -0.4 2.75 -0.4 1.45 -0.4 0.15 -0.9 -0.65 -1.45 -1.45 -2.35 -1.45 L-3.1 -1.35 -3.7 -0.9 Q-3.7 -1.95 -3.35 -2.5 -3.05 -3.05 -2.45 -3.05 L-1.85 -3.0 -1.35 -2.8 -1.05 -4.05 -1.7 -4.3 -2.45 -4.4 M1.85 -0.75 L1.85 0.55 2.65 0.55 Q3.15 0.55 3.35 0.85 L3.55 1.85 3.35 2.7 Q3.1 3.05 2.7 3.05 2.35 3.05 2.1 2.75 L1.9 1.9 0.25 1.9 Q0.25 3.15 0.95 3.75 1.65 4.35 2.65 4.35 3.8 4.35 4.5 3.7 5.2 3.05 5.2 1.85 L4.9 0.65 4.0 -0.15 4.8 -0.9 5.1 -1.95 Q5.1 -3.15 4.45 -3.8 3.8 -4.4 2.65 -4.4 1.65 -4.4 1.0 -3.75 0.35 -3.15 0.35 -2.05 L1.95 -2.05 2.2 -2.8 2.7 -3.05 Q3.1 -3.05 3.25 -2.75 L3.45 -1.95 Q3.45 -1.35 3.25 -1.05 3.1 -0.75 2.65 -0.75 L1.85 -0.75 M5.25 -7.55 L5.4 -7.55 5.55 -7.45 7.45 -5.6 7.5 -5.25 7.0 -4.45 6.95 -4.05 7.8 -2.15 Q7.9 -1.9 8.15 -1.85 L9.1 -1.65 9.25 -1.45 9.3 1.25 9.1 1.5 8.1 1.7 7.85 1.95 Q7.6 3.15 7.05 3.95 7.0 4.2 7.1 4.3 L7.55 5.05 Q7.7 5.35 7.5 5.55 L5.75 7.3 5.6 7.4 5.55 7.4 5.4 7.35 4.55 6.9 4.4 6.85 4.35 6.8 4.3 6.85 4.15 6.9 Q3.1 7.5 2.2 7.7 L1.9 8.0 1.65 8.9 1.45 9.15 -1.55 9.15 -1.75 8.9 -2.0 8.0 -2.3 7.7 -4.25 6.9 -4.35 6.85 -4.45 6.8 -4.5 6.85 -4.65 6.9 -5.45 7.35 -5.65 7.4 -5.85 7.3 -7.6 5.55 Q-7.8 5.35 -7.65 5.05 L-7.15 4.3 -7.15 3.95 Q-7.75 2.95 -7.95 1.95 L-8.2 1.7 -9.2 1.5 -9.4 1.25 -9.35 -1.45 -9.2 -1.65 -8.2 -1.85 -7.9 -2.15 -7.05 -4.05 -7.05 -4.45 -7.6 -5.25 -7.55 -5.6 -5.65 -7.45 -5.55 -7.5 -5.35 -7.55 -5.2 -7.5 -4.4 -6.95 -4.4 -6.9 -4.25 -6.85 -4.2 -6.85 -4.15 -6.9 Q-3.2 -7.4 -2.1 -7.7 L-1.85 -8.0 -1.65 -8.95 -1.45 -9.15 1.35 -9.15 1.55 -8.95 1.75 -8.0 2.05 -7.7 Q3.15 -7.4 4.05 -6.9 L4.15 -6.85 4.2 -6.85 4.35 -6.95 5.1 -7.5 5.25 -7.55" fill="url(#gradient0)" fill-rule="evenodd" stroke="none"/>
      <path d="M-2.8 -0.15 Q-2.45 -0.15 -2.25 0.25 L-2.05 1.45 -2.25 2.6 -2.8 3.05 Q-3.25 3.05 -3.45 2.5 L-3.7 0.95 -3.7 0.3 -3.35 -0.05 -2.8 -0.15" fill="url(#gradient1)" fill-rule="evenodd" stroke="none"/>
    </g>
    <radialGradient cx="0" cy="0" gradientTransform="matrix(0.0118, 0.0, 0.0, 0.0118, -0.05, 0.0)" gradientUnits="userSpaceOnUse" id="gradient0" r="819.2" spreadMethod="pad">
      <stop offset="0.0" stop-color="#f8df89"/>
      <stop offset="1.0" stop-color="#f5cb5b"/>
    </radialGradient>
    <radialGradient cx="0" cy="0" gradientTransform="matrix(0.0026, 0.0, 0.0, 0.0026, -2.85, 1.45)" gradientUnits="userSpaceOnUse" id="gradient1" r="819.2" spreadMethod="pad">
      <stop offset="0.0" stop-color="#f8df89"/>
      <stop offset="1.0" stop-color="#f5cb5b"/>
    </radialGradient>
  </defs>
</svg>
