<?xml version="1.0" encoding="UTF-8" standalone="no"?>
<svg xmlns:xlink="http://www.w3.org/1999/xlink" height="23.3px" width="24.65px" xmlns="http://www.w3.org/2000/svg">
  <g transform="matrix(1.0, 0.0, 0.0, 1.0, 11.05, 11.0)">
    <use data-characterId="89" height="23.3" transform="matrix(1.0, 0.0, 0.0, 1.0, -11.05, -11.0)" width="24.65" xlink:href="#shape0"/>
  </g>
  <defs>
    <g id="shape0" transform="matrix(1.0, 0.0, 0.0, 1.0, 11.05, 11.0)">
      <path d="M2.5 2.45 Q3.05 2.45 3.4 2.1 3.75 1.75 3.75 1.2 3.75 0.75 3.4 0.35 3.05 0.0 2.5 0.0 2.0 0.0 1.65 0.35 1.25 0.75 1.25 1.2 1.25 1.75 1.65 2.1 2.0 2.45 2.5 2.45 M5.4 -9.85 L5.65 -7.1 6.25 -6.9 8.35 -8.6 12.35 -4.65 10.65 -2.5 10.85 -1.9 13.6 -1.6 13.6 4.05 10.85 4.25 10.65 4.95 12.35 7.05 8.35 11.1 6.25 9.35 5.65 9.6 5.4 12.3 -0.35 12.3 -0.6 9.6 -1.25 9.35 -3.3 11.1 -7.35 7.05 -5.6 4.95 -5.8 4.25 -8.6 4.05 -8.6 -1.6 -5.8 -1.9 -5.6 -2.5 -7.35 -4.65 -3.3 -8.6 -1.25 -6.9 -0.6 -7.1 -0.35 -9.85 5.4 -9.85" fill="#081a15" fill-rule="evenodd" stroke="none"/>
      <path d="M2.9 -10.55 L3.15 -8.3 3.95 -7.95 5.7 -9.4 6.05 -9.5 6.35 -9.35 9.6 -6.1 9.75 -5.75 9.65 -5.4 8.2 -3.7 8.55 -2.9 10.8 -2.7 11.15 -2.5 11.25 -2.2 11.25 2.45 11.15 2.8 10.8 2.95 8.5 3.15 8.2 3.95 9.65 5.7 9.75 6.05 9.6 6.35 6.35 9.65 6.05 9.8 5.7 9.7 3.95 8.2 3.15 8.55 2.9 10.8 2.75 11.15 2.4 11.25 -2.2 11.25 -2.5 11.15 -2.7 10.8 -2.9 8.55 -3.7 8.2 -5.45 9.7 -5.8 9.8 -6.15 9.65 -9.4 6.35 -9.55 6.05 -9.4 5.7 -7.95 3.95 -8.3 3.15 -10.6 2.95 -10.9 2.8 -11.05 2.45 -11.05 -2.2 -10.9 -2.5 -10.6 -2.7 -8.3 -2.9 -7.95 -3.7 -9.4 -5.4 -9.55 -5.75 -9.4 -6.1 -6.15 -9.35 -5.8 -9.5 -5.5 -9.4 -3.7 -7.95 -2.9 -8.3 -2.7 -10.55 -2.5 -10.85 -2.2 -11.0 2.4 -11.0 2.75 -10.85 2.9 -10.55 M3.9 -6.25 L1.85 -7.1 1.65 -7.25 1.55 -7.5 1.4 -9.35 -1.2 -9.35 -1.35 -7.5 -1.45 -7.25 -1.65 -7.1 -3.7 -6.25 -3.95 -6.2 -4.2 -6.3 -5.7 -7.5 -7.5 -5.7 -6.3 -4.2 -6.2 -3.95 -6.2 -3.7 -7.0 -1.65 -7.2 -1.45 Q-7.3 -1.35 -7.45 -1.35 L-9.4 -1.15 -9.4 1.4 -7.45 1.6 Q-7.3 1.6 -7.2 1.7 L-7.0 1.95 -6.2 4.0 -6.2 4.25 -6.3 4.5 -7.5 5.95 -5.7 7.75 -4.2 6.5 -3.95 6.4 -3.7 6.45 -1.65 7.3 -1.45 7.45 -1.35 7.7 -1.2 9.6 1.4 9.6 1.55 7.7 1.65 7.45 1.85 7.3 3.9 6.45 4.2 6.4 4.45 6.5 5.95 7.75 7.75 5.95 6.5 4.5 6.35 4.25 6.4 3.95 7.25 1.9 7.4 1.7 7.65 1.6 9.6 1.4 9.6 -1.15 7.65 -1.35 7.4 -1.45 7.25 -1.65 6.4 -3.7 6.35 -3.95 6.5 -4.2 7.75 -5.7 5.95 -7.5 4.4 -6.3 4.2 -6.2 3.9 -6.25 M0.1 -2.9 Q1.35 -2.9 2.25 -2.05 3.15 -1.15 3.15 0.1 3.15 1.35 2.25 2.25 1.35 3.15 0.1 3.15 -1.15 3.15 -2.0 2.3 L-2.0 2.25 Q-2.95 1.35 -2.95 0.1 -2.95 -1.15 -2.0 -2.05 -1.15 -2.9 0.1 -2.9 M1.1 -0.9 Q0.7 -1.3 0.1 -1.3 -0.5 -1.3 -0.9 -0.9 L-0.85 -0.9 -1.3 0.1 Q-1.3 0.7 -0.9 1.1 -0.5 1.5 0.1 1.5 0.7 1.5 1.1 1.1 1.5 0.7 1.5 0.1 1.5 -0.45 1.1 -0.9" fill="#081a15" fill-rule="evenodd" stroke="none"/>
      <path d="M10.1 1.85 L7.7 2.1 6.85 4.15 8.4 5.95 5.95 8.4 4.1 6.9 2.05 7.75 1.85 10.1 -1.65 10.1 -1.85 7.75 -3.9 6.9 -5.75 8.4 -8.2 5.95 -6.7 4.15 -7.5 2.1 -9.9 1.85 -9.9 -1.6 -7.5 -1.85 -6.7 -3.9 -8.2 -5.75 -5.75 -8.15 -3.9 -6.7 -1.85 -7.55 -1.65 -9.85 1.85 -9.85 2.05 -7.55 4.1 -6.7 5.95 -8.15 8.4 -5.75 6.85 -3.9 7.7 -1.85 10.1 -1.6 10.1 1.85 M0.1 -2.4 Q-0.95 -2.4 -1.65 -1.7 -2.45 -0.95 -2.45 0.1 -2.45 1.15 -1.65 1.9 -0.95 2.65 0.1 2.65 1.15 2.65 1.9 1.9 2.65 1.15 2.65 0.1 2.65 -0.95 1.9 -1.7 1.15 -2.4 0.1 -2.4" fill="#8cb5e6" fill-rule="evenodd" stroke="none"/>
    </g>
  </defs>
</svg>
