<?xml version="1.0" encoding="UTF-8" standalone="no"?>
<svg xmlns:xlink="http://www.w3.org/1999/xlink" height="22.35px" width="23.25px" xmlns="http://www.w3.org/2000/svg">
  <g transform="matrix(1.0, 0.0, 0.0, 1.0, 10.4, 10.15)">
    <use data-characterId="91" height="22.35" transform="matrix(1.0, 0.0, 0.0, 1.0, -10.4, -10.15)" width="23.25" xlink:href="#shape0"/>
  </g>
  <defs>
    <g id="shape0" transform="matrix(1.0, 0.0, 0.0, 1.0, 10.4, 10.15)">
      <path d="M3.85 -8.15 Q4.85 -8.2 5.1 -7.1 L5.2 -6.55 6.65 -6.0 7.05 -6.3 Q7.55 -6.65 7.85 -6.6 8.3 -6.65 8.8 -6.15 L10.7 -4.3 10.7 -4.35 Q11.5 -3.6 10.9 -2.7 L10.9 -2.75 10.6 -2.25 11.2 -0.8 11.85 -0.6 11.8 -0.6 Q12.75 -0.5 12.8 0.55 L12.85 3.25 Q12.85 4.25 11.85 4.5 L11.25 4.65 10.7 6.1 10.95 6.55 10.95 6.5 Q11.6 7.45 10.75 8.25 L9.0 10.05 Q8.6 10.45 8.05 10.45 L7.4 10.25 6.85 9.95 5.35 10.6 5.15 11.2 5.1 11.2 Q4.85 11.9 4.25 12.1 L4.4 12.05 4.1 12.2 0.85 12.2 0.65 12.1 Q0.0 11.9 -0.2 11.15 L-0.35 10.6 -1.95 9.95 -2.45 10.2 -3.15 10.45 -3.75 10.3 -3.8 10.25 -4.1 10.05 -4.2 10.0 -4.2 9.95 -4.3 9.95 -4.2 9.9 -5.8 8.25 Q-6.6 7.45 -6.0 6.55 L-5.7 6.1 -6.35 4.65 -6.9 4.5 Q-7.95 4.25 -7.9 3.25 L-7.85 0.55 Q-7.9 -0.45 -6.95 -0.6 L-6.65 -0.7 -6.6 -0.7 -6.25 -0.75 -5.65 -2.25 -5.95 -2.7 Q-6.5 -3.6 -5.75 -4.3 L-3.85 -6.15 Q-3.4 -6.65 -2.95 -6.6 -2.45 -6.6 -2.1 -6.3 L-1.7 -6.0 -0.25 -6.55 -0.15 -7.15 -0.15 -7.1 Q0.05 -8.2 1.05 -8.15 L3.85 -8.15" fill="#000000" fill-rule="evenodd" stroke="none"/>
      <path d="M1.35 -10.15 Q2.35 -10.2 2.6 -9.1 L2.7 -8.55 4.15 -8.0 4.55 -8.3 Q5.05 -8.65 5.35 -8.6 5.8 -8.65 6.3 -8.15 L8.2 -6.3 8.2 -6.35 Q9.0 -5.6 8.4 -4.7 L8.4 -4.75 8.1 -4.25 8.7 -2.8 9.05 -2.7 9.35 -2.6 9.3 -2.6 Q10.25 -2.5 10.3 -1.45 L10.35 1.25 Q10.35 2.25 9.35 2.5 L8.75 2.65 8.2 4.1 8.45 4.55 8.45 4.5 Q9.1 5.45 8.25 6.25 L6.5 8.05 Q6.1 8.45 5.55 8.45 L4.9 8.25 4.35 7.95 2.85 8.6 2.65 9.2 2.6 9.2 Q2.35 9.9 1.75 10.1 L1.9 10.05 1.6 10.2 -1.65 10.2 -1.75 10.15 -1.85 10.1 Q-2.5 9.9 -2.7 9.15 L-2.85 8.6 -4.45 7.95 -4.95 8.2 -5.65 8.45 -6.25 8.3 -6.3 8.25 -6.6 8.05 -6.7 8.0 -6.7 7.95 -6.8 7.95 -6.7 7.9 -8.3 6.25 Q-9.1 5.45 -8.5 4.55 L-8.2 4.1 -8.85 2.65 -9.4 2.5 Q-10.45 2.25 -10.4 1.25 L-10.35 -1.45 Q-10.4 -2.5 -9.4 -2.6 L-9.45 -2.6 -9.15 -2.7 -9.1 -2.7 -8.75 -2.75 -8.15 -4.25 -8.45 -4.7 Q-9.0 -5.6 -8.25 -6.3 L-6.35 -8.15 Q-5.9 -8.65 -5.45 -8.6 L-4.6 -8.3 -4.2 -8.0 -2.75 -8.55 -2.65 -9.15 -2.65 -9.1 Q-2.45 -10.2 -1.45 -10.15 L1.35 -10.15" fill="#000000" fill-rule="evenodd" stroke="none"/>
      <path d="M3.25 -4.45 Q1.95 -4.45 1.15 -3.5 0.35 -2.55 0.35 -0.85 L0.35 0.9 Q0.35 2.55 1.05 3.45 1.75 4.3 2.9 4.3 3.95 4.3 4.65 3.5 5.3 2.7 5.3 1.4 5.3 0.1 4.8 -0.7 4.25 -1.5 3.35 -1.5 L2.6 -1.4 2.0 -0.95 Q2.0 -2.0 2.35 -2.55 2.65 -3.1 3.25 -3.1 L3.85 -3.05 4.35 -2.85 4.65 -4.1 4.0 -4.35 3.25 -4.45 M5.6 -7.45 L7.5 -5.6 7.55 -5.25 7.0 -4.45 Q6.85 -4.25 7.0 -4.05 L7.85 -2.15 8.15 -1.85 9.15 -1.65 9.3 -1.45 9.35 1.25 9.15 1.5 8.15 1.7 Q7.95 1.75 7.9 1.95 7.7 2.95 7.1 3.95 L7.1 4.3 7.6 5.05 Q7.75 5.35 7.55 5.55 L5.8 7.3 5.6 7.4 5.55 7.4 5.4 7.35 4.55 6.9 4.45 6.85 4.4 6.8 4.35 6.85 4.2 6.9 2.25 7.7 Q1.95 7.8 1.95 8.0 L1.7 8.9 1.5 9.15 -1.5 9.15 -1.7 8.9 -1.95 8.0 -2.25 7.7 Q-3.1 7.5 -4.25 6.9 L-4.35 6.85 -4.4 6.8 -4.45 6.85 -4.6 6.9 -5.45 7.35 -5.55 7.4 -5.6 7.4 -5.8 7.3 -7.55 5.55 -7.65 5.05 -7.15 4.3 Q-7.0 4.2 -7.1 3.95 L-7.95 1.95 -8.15 1.7 -9.15 1.5 -9.35 1.25 -9.3 -1.45 -9.15 -1.65 -8.2 -1.85 Q-7.95 -1.9 -7.85 -2.15 L-7.05 -4.05 Q-6.9 -4.25 -7.05 -4.45 L-7.55 -5.25 -7.5 -5.6 -5.65 -7.45 -5.45 -7.55 -5.25 -7.55 -5.15 -7.5 -4.4 -6.95 -4.2 -6.85 -4.1 -6.9 -2.1 -7.7 -1.8 -8.0 -1.6 -8.95 -1.4 -9.15 1.35 -9.15 1.6 -8.95 1.8 -8.0 2.05 -7.7 4.1 -6.9 4.2 -6.85 4.3 -6.9 4.35 -6.95 5.15 -7.5 5.25 -7.5 5.6 -7.45 M-3.3 3.0 L-4.0 2.95 -4.6 2.7 -4.75 3.95 -4.05 4.25 -3.3 4.3 Q-2.15 4.3 -1.35 3.45 -0.6 2.6 -0.6 1.05 L-0.6 -1.05 Q-0.6 -2.7 -1.3 -3.55 -1.95 -4.45 -3.05 -4.45 -4.1 -4.45 -4.75 -3.6 -5.4 -2.7 -5.4 -1.4 -5.4 0.0 -4.85 0.75 -4.35 1.55 -3.35 1.55 L-2.75 1.35 -2.25 0.9 -2.25 1.15 Q-2.25 2.05 -2.55 2.5 -2.85 3.0 -3.3 3.0" fill="url(#gradient0)" fill-rule="evenodd" stroke="none"/>
      <path d="M2.9 -0.2 L3.45 0.2 3.65 1.4 3.45 2.55 2.9 3.0 Q2.45 3.0 2.25 2.45 2.0 1.95 2.0 0.9 L2.0 0.25 Q2.1 0.0 2.35 -0.1 L2.9 -0.2" fill="url(#gradient1)" fill-rule="evenodd" stroke="none"/>
      <path d="M-3.05 0.25 L-3.6 -0.15 -3.8 -1.4 -3.6 -2.6 -3.05 -3.1 -2.45 -2.65 -2.25 -1.25 -2.25 -0.25 -2.6 0.15 -3.05 0.25" fill="url(#gradient2)" fill-rule="evenodd" stroke="none"/>
    </g>
    <radialGradient cx="0" cy="0" gradientTransform="matrix(0.0118, 0.0, 0.0, 0.0118, 0.0, 0.0)" gradientUnits="userSpaceOnUse" id="gradient0" r="819.2" spreadMethod="pad">
      <stop offset="0.0" stop-color="#f8df89"/>
      <stop offset="1.0" stop-color="#f5cb5b"/>
    </radialGradient>
    <radialGradient cx="0" cy="0" gradientTransform="matrix(0.0026, 0.0, 0.0, 0.0026, 2.85, 1.4)" gradientUnits="userSpaceOnUse" id="gradient1" r="819.2" spreadMethod="pad">
      <stop offset="0.0" stop-color="#f8df89"/>
      <stop offset="1.0" stop-color="#f5cb5b"/>
    </radialGradient>
    <radialGradient cx="0" cy="0" gradientTransform="matrix(0.0026, 0.0, 0.0, 0.0026, -3.0, -1.4)" gradientUnits="userSpaceOnUse" id="gradient2" r="819.2" spreadMethod="pad">
      <stop offset="0.0" stop-color="#f8df89"/>
      <stop offset="1.0" stop-color="#f5cb5b"/>
    </radialGradient>
  </defs>
</svg>
