<?xml version="1.0" encoding="UTF-8" standalone="no"?>
<svg xmlns:xlink="http://www.w3.org/1999/xlink" height="25.05px" width="25.1px" xmlns="http://www.w3.org/2000/svg">
  <g transform="matrix(1.0, 0.0, 0.0, 1.0, 12.6, 12.5)">
    <use data-characterId="423" height="25.05" transform="matrix(1.0, 0.0, 0.0, 1.0, -12.6, -12.5)" width="25.1" xlink:href="#shape0"/>
  </g>
  <defs>
    <g id="shape0" transform="matrix(1.0, 0.0, 0.0, 1.0, 12.6, 12.5)">
      <path d="M7.3 -11.3 L7.55 -11.35 Q8.5 -12.1 9.95 -12.4 L10.0 -12.4 11.3 -12.5 12.1 -12.15 12.5 -11.65 12.5 -11.45 12.5 -11.25 12.5 -11.2 12.35 -10.15 12.35 -10.05 12.35 -9.85 12.35 -9.7 11.4 -7.45 11.2 -7.2 8.25 -3.95 8.9 9.3 8.9 9.5 8.85 9.8 8.55 10.15 8.55 10.2 6.25 12.35 6.2 12.4 5.55 12.55 4.9 12.4 Q4.5 12.1 4.45 11.75 L1.75 2.55 1.6 2.25 1.45 2.4 -2.7 6.2 -2.65 8.65 -2.65 8.9 -2.8 9.3 -3.0 9.45 -4.7 11.1 Q-5.05 11.45 -5.45 11.45 L-5.95 11.4 -6.1 11.35 -6.55 10.7 -6.55 10.8 -7.1 9.35 -9.15 9.4 -9.35 9.15 Q-10.05 8.65 -9.3 7.1 L-10.7 6.6 -10.75 6.5 Q-11.15 6.35 -11.25 6.05 L-11.5 5.35 Q-11.5 4.8 -11.05 4.55 L-9.5 2.95 Q-9.15 2.6 -8.6 2.6 L-6.1 2.65 -2.3 -1.6 -7.05 -3.0 -7.25 -3.0 -10.15 -3.9 -11.8 -4.35 -11.9 -4.4 -12.3 -4.75 -12.35 -4.8 -12.6 -5.55 -12.25 -6.3 -10.15 -8.55 -9.65 -8.85 -9.25 -8.95 3.9 -8.2 7.3 -11.3 M-2.0 -1.75 L-1.95 -1.7 -1.95 -1.75 -2.0 -1.75" fill="#081a15" fill-opacity="0.49803922" fill-rule="evenodd" stroke="none"/>
      <path d="M9.85 -6.45 L9.8 -6.4 7.2 -3.45 7.8 8.0 7.75 8.4 7.55 8.8 5.5 10.65 4.9 10.9 Q4.5 10.9 4.25 10.7 L4.3 10.75 3.85 10.2 1.5 2.2 1.4 1.95 -2.3 5.3 -2.25 7.5 -2.3 7.85 -2.3 7.9 -2.55 8.25 -2.55 8.2 -4.05 9.65 -4.6 9.95 -4.65 9.95 -5.25 9.8 -5.65 9.35 -5.7 9.3 -6.15 8.1 -7.95 8.15 -8.15 7.95 Q-8.7 7.5 -8.05 6.15 L-9.3 5.65 -9.8 5.2 -9.8 5.25 -9.95 4.6 -9.95 4.55 Q-9.9 4.2 -9.65 4.0 L-8.15 2.5 -7.45 2.25 -5.3 2.3 -1.95 -1.4 -6.1 -2.65 -6.25 -2.7 -8.8 -3.45 -10.2 -3.85 -10.7 -4.25 -10.75 -4.25 -10.9 -4.9 -10.6 -5.5 -8.75 -7.5 -8.75 -7.45 -8.4 -7.7 -8.4 -7.75 -8.0 -7.8 3.45 -7.15 6.4 -9.85 6.55 -9.9 Q7.45 -10.55 8.7 -10.8 L8.75 -10.8 9.85 -10.9 Q10.25 -10.9 10.55 -10.6 L10.6 -10.55 10.85 -10.2 10.85 -10.15 10.9 -9.75 10.8 -8.85 10.8 -8.75 10.8 -8.7 10.75 -8.45 10.75 -8.5 9.9 -6.5 9.85 -6.45" fill="#000000" fill-rule="evenodd" stroke="none"/>
      <path d="M9.8 -8.75 L9.05 -7.05 6.15 -3.9 6.8 8.05 4.8 9.9 2.45 1.9 2.25 1.4 Q2.0 0.8 1.6 0.8 1.3 0.7 0.8 1.15 L-3.3 4.85 -3.25 7.5 -4.75 8.95 -5.65 6.55 -5.85 6.7 Q-7.05 7.55 -7.3 7.35 L-7.35 7.25 -7.05 6.4 -6.55 5.65 -8.95 4.7 -7.5 3.25 -4.85 3.3 -1.15 -0.85 -0.85 -1.25 -0.8 -1.65 Q-0.8 -1.95 -1.4 -2.25 L-5.95 -3.65 -8.55 -4.4 -9.9 -4.8 -8.05 -6.8 3.85 -6.15 Q5.75 -8.15 7.0 -9.05 7.8 -9.6 8.9 -9.8 L9.85 -9.9 9.8 -8.75" fill="#8cb5e6" fill-rule="evenodd" stroke="none"/>
    </g>
  </defs>
</svg>
