<?xml version="1.0" encoding="UTF-8" standalone="no"?>
<svg xmlns:xlink="http://www.w3.org/1999/xlink" height="23.55px" width="24.55px" xmlns="http://www.w3.org/2000/svg">
  <g transform="matrix(1.0, 0.0, 0.0, 1.0, 12.2, 11.75)">
    <use data-characterId="421" height="23.55" transform="matrix(1.0, 0.0, 0.0, 1.0, -12.2, -11.75)" width="24.55" xlink:href="#shape0"/>
  </g>
  <defs>
    <g id="shape0" transform="matrix(1.0, 0.0, 0.0, 1.0, 12.2, 11.75)">
      <path d="M4.2 -1.85 L4.45 -1.8 4.7 -1.8 4.75 -1.75 Q5.3 -1.7 6.1 -0.55 L7.05 1.1 7.05 1.15 7.15 1.45 7.2 1.5 7.05 1.85 Q6.5 2.85 5.95 3.05 L5.55 3.2 5.45 3.2 4.95 3.15 4.9 3.4 5.35 5.6 8.5 5.55 7.25 7.25 6.2 8.65 8.6 8.65 8.9 8.8 8.9 8.75 12.35 11.8 -12.2 11.8 -8.75 8.75 -8.6 8.7 -8.5 8.65 -5.95 8.65 -7.1 7.4 -8.3 5.6 -4.85 5.65 -4.4 4.75 -4.7 3.8 -4.7 3.75 -4.8 3.75 -7.45 4.0 -7.6 4.0 -7.9 3.6 -7.9 3.65 Q-8.1 3.4 -7.9 2.45 -7.85 1.6 -7.2 0.85 L-7.15 0.85 Q-6.3 -0.15 -5.15 -0.2 -3.7 -0.3 -2.9 0.55 L-2.85 0.6 -2.6 0.75 -2.55 0.85 -1.95 0.95 -2.0 0.95 -1.6 1.0 -1.6 -1.7 -6.2 -2.5 Q-9.25 -3.3 -10.95 -4.35 L-11.7 -4.8 -11.15 -6.05 -11.15 -6.2 -11.0 -6.2 -4.4 -9.15 Q-2.3 -10.25 -0.2 -11.65 L-0.05 -11.75 4.8 -9.0 4.75 -9.0 Q7.85 -7.5 11.3 -6.3 L11.45 -6.3 11.75 -4.7 11.2 -4.4 Q9.85 -3.55 6.65 -2.7 L1.6 -1.75 1.6 -0.55 1.75 -0.7 Q3.2 -1.85 4.2 -1.85" fill="#081a15" fill-opacity="0.49803922" fill-rule="evenodd" stroke="none"/>
      <path d="M3.65 -1.65 L3.85 -1.6 4.05 -1.6 4.1 -1.55 Q4.6 -1.5 5.3 -0.5 L6.1 0.95 6.1 1.0 6.2 1.25 6.25 1.3 6.1 1.6 5.15 2.65 4.8 2.75 4.75 2.75 4.7 2.75 4.3 2.7 4.25 2.95 4.65 4.85 7.35 4.8 6.3 6.3 5.35 7.5 7.45 7.5 7.7 7.65 7.7 7.6 10.7 10.25 -10.65 10.25 -7.65 7.6 -7.5 7.55 -7.4 7.5 -5.2 7.5 -6.2 6.4 -7.25 4.85 -4.25 4.9 -3.85 4.1 -4.1 3.3 -4.1 3.25 -4.2 3.25 -6.5 3.45 -6.65 3.45 -6.9 3.1 -6.9 3.15 -6.9 2.1 Q-6.85 1.35 -6.3 0.7 L-6.25 0.7 Q-5.5 -0.15 -4.5 -0.2 -3.25 -0.3 -2.55 0.45 L-2.5 0.5 -2.3 0.65 -2.25 0.7 -1.7 0.8 -1.75 0.8 -1.4 0.85 -1.4 -1.5 -5.4 -2.2 Q-8.05 -2.9 -9.55 -3.8 L-10.2 -4.2 -9.7 -5.3 -9.7 -5.4 -9.6 -5.4 Q-6.55 -6.7 -3.85 -8.0 -2.0 -8.95 -0.2 -10.15 L-0.05 -10.25 4.15 -7.85 4.1 -7.85 Q6.8 -6.55 9.8 -5.5 L9.95 -5.5 10.2 -4.1 9.7 -3.85 Q8.55 -3.1 5.75 -2.35 L1.35 -1.55 1.35 -0.5 1.5 -0.65 Q2.75 -1.65 3.65 -1.65" fill="#000000" fill-rule="evenodd" stroke="none"/>
      <path d="M-3.35 6.5 Q-1.7 7.6 0.25 7.6 2.1 7.6 3.55 6.45 L2.35 4.3 -0.35 4.6 -1.45 4.5 -3.35 6.5 M4.8 1.75 L4.7 1.8 4.65 1.8 4.35 1.65 Q4.3 1.15 3.9 1.15 L3.8 1.15 3.4 1.4 3.3 1.65 3.35 2.1 3.25 3.0 4.0 6.05 4.25 5.8 5.5 5.75 Q4.7 7.0 3.4 7.75 L3.25 7.8 1.75 8.4 0.25 8.55 -1.3 8.4 Q-2.1 8.2 -2.95 7.8 L-3.1 7.75 Q-4.6 7.0 -5.4 5.8 L-4.15 5.85 -3.8 6.15 -2.8 4.05 -2.85 4.05 Q-3.35 3.2 -3.2 2.55 L-2.75 1.85 -2.45 1.65 -0.65 1.85 -0.45 1.85 0.4 1.8 0.9 1.65 1.1 1.2 2.1 0.1 2.8 -0.4 3.65 -0.7 3.7 -0.7 4.0 -0.5 4.6 0.1 5.2 1.3 4.8 1.75 M0.0 -8.95 Q0.2 -7.9 0.9 -6.65 2.05 -4.6 4.0 -3.5 L0.0 -3.1 -4.05 -3.5 Q-1.15 -5.05 0.0 -8.95 M3.15 -7.25 Q5.9 -5.85 8.85 -4.9 7.95 -4.3 5.95 -3.9 2.1 -5.4 0.35 -8.95 1.55 -8.05 3.15 -7.25 M-3.35 8.4 Q-1.55 9.25 0.25 9.25 2.0 9.25 3.6 8.45 L3.75 8.4 7.1 8.4 8.2 9.35 -8.25 9.35 -7.15 8.4 -3.35 8.4 M0.4 1.05 L-0.45 1.15 -0.45 -1.75 -0.05 -1.75 0.4 -1.75 0.4 1.05 M-8.75 -4.8 Q-5.9 -5.85 -3.2 -7.25 L-0.35 -8.95 Q-2.2 -5.4 -5.95 -3.9 -8.0 -4.3 -8.75 -4.8 M-6.05 2.5 L-6.0 2.2 Q-6.0 1.7 -5.6 1.25 L-5.6 1.3 Q-5.1 0.7 -4.45 0.7 L-3.45 0.9 -3.85 1.3 -4.0 1.3 -4.1 1.3 Q-4.55 1.4 -4.75 1.7 L-4.8 1.7 -5.1 2.4 -6.05 2.5" fill="#8cb5e6" fill-rule="evenodd" stroke="none"/>
    </g>
  </defs>
</svg>
