<?xml version="1.0" encoding="UTF-8" standalone="no"?>
<svg xmlns:xlink="http://www.w3.org/1999/xlink" height="24.05px" width="20.0px" xmlns="http://www.w3.org/2000/svg">
  <g transform="matrix(1.0, 0.0, 0.0, 1.0, 9.95, 12.0)">
    <use data-characterId="411" height="24.05" transform="matrix(1.0, 0.0, 0.0, 1.0, -9.95, -12.0)" width="20.0" xlink:href="#shape0"/>
  </g>
  <defs>
    <g id="shape0" transform="matrix(1.0, 0.0, 0.0, 1.0, 9.95, 12.0)">
      <path d="M-0.85 -11.35 L-0.2 -11.95 0.7 -11.9 0.75 -11.8 1.15 -11.3 1.5 -10.6 1.55 -10.45 1.9 -9.8 Q5.15 -9.15 7.5 -6.4 L8.55 -5.1 Q10.05 -2.7 10.05 0.5 10.05 4.45 7.5 7.5 5.2 10.05 2.05 10.7 L1.7 11.4 1.65 11.4 1.55 11.5 1.55 11.6 0.1 12.05 -0.05 12.05 -0.75 11.85 -1.0 11.8 -1.35 11.5 -1.4 11.45 -1.95 10.7 Q-5.05 10.05 -7.25 7.55 L-7.3 7.5 Q-9.95 4.45 -9.95 0.5 -9.95 -3.6 -7.25 -6.45 L-7.25 -6.4 Q-5.0 -9.15 -1.7 -9.8 L-1.4 -10.5 -1.15 -10.85 -0.85 -11.35" fill="#081a15" fill-opacity="0.49803922" fill-rule="evenodd" stroke="none"/>
      <path d="M0.5 -10.35 L1.0 -9.8 0.95 -9.85 1.2 -9.3 1.25 -9.25 1.25 -9.2 1.6 -8.55 Q4.5 -8.0 6.45 -5.65 L7.35 -4.5 Q8.7 -2.35 8.7 0.4 8.7 3.8 6.45 6.45 4.5 8.7 1.8 9.25 L1.45 9.9 1.3 10.05 1.25 10.05 Q0.75 10.45 0.05 10.45 L-0.05 10.45 -0.1 10.45 -0.85 10.25 -0.9 10.25 -0.9 10.2 -1.2 10.0 -1.25 9.95 -1.75 9.3 Q-4.45 8.7 -6.35 6.55 L-6.45 6.45 Q-8.7 3.8 -8.7 0.4 -8.7 -3.15 -6.4 -5.65 -4.4 -8.0 -1.5 -8.55 L-1.2 -9.25 -1.15 -9.3 -0.8 -9.95 -0.75 -10.0 -0.2 -10.4 0.5 -10.35 M1.45 -8.45 L1.4 -8.4 1.5 -8.4 1.45 -8.45" fill="#000000" fill-rule="evenodd" stroke="none"/>
      <path d="M-1.15 -3.05 Q-2.15 -2.5 -2.15 -1.35 -2.15 -0.3 -1.3 0.35 L-1.0 0.5 -1.0 -3.15 -1.15 -3.05 M-5.1 -3.75 Q-5.85 -2.5 -5.85 -0.9 -5.85 1.2 -4.45 2.8 L-4.3 2.95 Q-3.0 4.45 -1.0 4.75 L-1.0 2.7 -1.15 2.95 -1.95 2.65 -1.7 1.65 -1.7 1.6 -1.75 1.55 -2.5 1.0 -2.6 0.9 -2.65 0.85 -3.65 1.3 -4.05 0.6 -3.25 0.0 -3.2 -0.05 -3.25 -0.1 -3.35 -0.45 -3.45 -1.25 -3.45 -1.3 -3.5 -1.3 -3.6 -1.3 -4.45 -1.55 -4.35 -2.4 -3.3 -2.35 -3.3 -2.4 -2.75 -3.4 -2.7 -3.45 -2.75 -3.55 -3.25 -4.1 -3.3 -4.2 -2.65 -4.75 -1.9 -4.05 -1.9 -4.1 -1.0 -4.45 -1.0 -6.7 Q-3.1 -6.25 -4.45 -4.65 L-5.1 -3.75 M2.1 -1.95 Q1.85 -2.75 1.0 -3.15 L1.0 0.5 1.75 -0.1 Q2.15 -0.6 2.15 -1.35 L2.1 -1.95 M2.9 -3.25 L3.3 -2.4 3.3 -2.35 4.35 -2.4 4.45 -1.55 4.05 -1.4 3.5 -1.3 3.45 -1.3 3.45 -1.25 3.2 -0.1 3.2 -0.05 3.25 0.0 4.05 0.6 3.6 1.3 2.65 0.85 2.6 0.9 1.75 1.55 1.7 1.6 1.7 1.65 1.95 2.65 1.15 2.95 1.0 2.7 1.0 4.75 1.75 4.6 Q3.35 4.15 4.5 2.8 5.85 1.2 5.85 -0.9 5.85 -2.55 5.1 -3.8 L4.5 -4.65 Q3.1 -6.25 1.0 -6.7 L1.0 -4.45 1.75 -4.15 1.85 -4.1 1.95 -4.05 1.95 -4.1 2.65 -4.75 3.3 -4.2 2.75 -3.55 2.7 -3.45 2.75 -3.4 2.9 -3.25 M0.65 -8.15 L0.8 -7.65 1.2 -7.6 Q3.9 -7.15 5.7 -5.0 L6.5 -3.95 Q7.7 -2.05 7.7 0.4 7.7 3.45 5.7 5.8 3.75 8.05 0.85 8.4 L0.85 8.65 0.65 9.25 0.05 9.45 -0.1 9.45 -0.4 9.35 -0.55 9.25 -0.85 8.65 -0.85 8.4 Q-3.75 8.05 -5.65 5.85 L-5.7 5.8 Q-7.7 3.45 -7.7 0.4 -7.7 -2.75 -5.65 -5.0 -3.7 -7.3 -0.75 -7.65 L-0.3 -8.8 0.05 -9.45 0.35 -8.8 0.65 -8.15" fill="#8cb5e6" fill-rule="evenodd" stroke="none"/>
    </g>
  </defs>
</svg>
