<?xml version="1.0" encoding="UTF-8" standalone="no"?>
<svg xmlns:xlink="http://www.w3.org/1999/xlink" height="14.55px" width="24.05px" xmlns="http://www.w3.org/2000/svg">
  <g transform="matrix(1.0, 0.0, 0.0, 1.0, 12.0, 7.2)">
    <use data-characterId="407" height="14.55" transform="matrix(1.0, 0.0, 0.0, 1.0, -12.0, -7.2)" width="24.05" xlink:href="#shape0"/>
  </g>
  <defs>
    <g id="shape0" transform="matrix(1.0, 0.0, 0.0, 1.0, 12.0, 7.2)">
      <path d="M11.35 -5.45 L11.45 -4.45 12.05 6.2 12.0 6.65 11.95 6.75 11.5 7.2 11.45 7.2 10.9 7.35 -10.85 7.35 -11.35 7.2 -11.4 7.2 -11.9 6.75 -11.9 6.65 -12.0 6.2 -11.45 -4.45 Q-11.45 -5.5 -10.75 -6.3 L-10.6 -6.35 Q-9.9 -7.2 -8.7 -7.2 L8.7 -7.2 Q9.8 -7.2 10.65 -6.4 L11.3 -5.5 11.35 -5.45" fill="#081a15" fill-opacity="0.2" fill-rule="evenodd" stroke="none"/>
      <path d="M7.55 -6.3 Q8.45 -6.3 9.2 -5.65 L9.25 -5.6 9.8 -4.8 9.95 -3.95 10.45 5.3 10.35 5.8 10.35 5.85 9.95 6.2 10.0 6.2 9.45 6.35 -9.45 6.35 -9.95 6.2 -10.3 5.85 -10.35 5.8 -10.45 5.3 -10.0 -3.95 Q-10.0 -4.85 -9.25 -5.55 L-9.25 -5.6 Q-8.65 -6.3 -7.6 -6.3 L7.55 -6.3" fill="#000000" fill-rule="evenodd" stroke="none"/>
      <path d="M-1.15 -3.45 L-6.95 -3.45 -6.95 -1.55 -1.15 -1.55 -1.15 -3.45 M8.55 -4.9 L8.85 -4.45 8.95 -3.9 9.45 5.35 6.4 5.35 6.4 2.8 4.75 2.8 4.75 5.35 -9.45 5.35 -9.0 -3.9 -8.55 -4.9 Q-8.2 -5.3 -7.6 -5.3 L7.55 -5.3 Q8.1 -5.3 8.55 -4.9 M6.7 -3.45 L0.9 -3.45 0.9 -1.55 6.7 -1.55 6.7 -3.45" fill="#8cb5e6" fill-rule="evenodd" stroke="none"/>
    </g>
  </defs>
</svg>
