<svg xmlns:xlink="http://www.w3.org/1999/xlink" height="15.85px" width="25.1px" xmlns="http://www.w3.org/2000/svg">
	<g transform="matrix(1.0, 0.0, 0.0, 1.0, 12.5, 7.9)">
		<use height="15.85" transform="matrix(1.0, 0.0, 0.0, 1.0, -12.5, -7.9)" width="25.1" xlink:href="#shape0" />
	</g>
	<defs>
		<g id="shape0" transform="matrix(1.0, 0.0, 0.0, 1.0, 12.5, 7.9)">
			<path d="M0.05 -7.9 L0.15 -7.9 4.3 -7.45 4.35 -7.45 4.6 -7.4 5.0 -7.35 5.2 -7.2 5.7 -7.05 Q7.1 -6.55 8.1 -5.6 L8.15 -5.55 8.8 -4.85 8.9 -4.65 9.65 -3.15 Q10.45 -2.95 11.15 -2.25 L11.8 -1.55 11.85 -1.3 12.1 0.1 12.6 3.9 12.6 4.0 Q12.6 4.85 11.95 5.35 L11.9 5.35 Q11.4 5.75 10.8 5.75 L10.35 5.75 10.05 5.85 10.05 6.5 Q10.1 7.2 9.7 7.6 L8.55 7.95 6.15 7.95 Q4.7 7.95 4.7 6.5 L4.7 5.85 -4.6 5.85 -4.6 6.5 Q-4.55 7.2 -4.95 7.6 -5.35 7.95 -6.1 7.95 L-8.45 7.95 Q-9.2 7.95 -9.55 7.6 -10.0 7.2 -9.95 6.5 L-9.95 5.85 -10.0 5.85 -10.05 5.75 -10.7 5.75 Q-11.3 5.75 -11.8 5.35 -12.5 4.85 -12.5 4.0 L-12.5 3.9 -12.0 0.1 Q-12.0 -1.3 -11.05 -2.25 -10.35 -2.95 -9.45 -3.15 -8.9 -4.65 -8.15 -5.4 -7.0 -6.55 -5.05 -7.15 L-4.6 -7.35 0.05 -7.9" fill="#081a15" fill-opacity="0.49803922" fill-rule="evenodd" stroke="none" />
			<path d="M7.65 -4.2 L7.6 -4.2 8.3 -2.8 Q9.0 -2.65 9.65 -2.0 L10.1 -1.4 10.2 -1.3 10.5 0.05 10.9 3.3 10.9 3.35 10.9 3.45 10.9 3.5 Q10.9 4.2 10.35 4.65 L10.3 4.65 9.35 5.0 8.9 5.0 8.7 5.05 8.7 5.65 Q8.75 6.25 8.4 6.6 L7.4 6.9 5.3 6.9 4.4 6.6 Q4.05 6.25 4.05 5.65 L4.05 5.05 -4.05 5.05 -4.05 5.65 Q-4.0 6.25 -4.35 6.6 -4.7 6.9 -5.35 6.9 L-7.4 6.9 -8.35 6.6 Q-8.75 6.25 -8.7 5.65 L-8.7 5.05 -8.75 5.05 -8.8 5.0 -9.35 5.0 -10.3 4.65 Q-10.9 4.2 -10.9 3.5 L-10.9 3.35 -10.9 3.3 -10.5 0.05 Q-10.5 -1.15 -9.65 -2.0 -9.05 -2.6 -8.3 -2.75 L-7.5 -4.3 -7.15 -4.7 Q-5.05 -6.9 0.0 -6.9 4.95 -6.9 7.0 -4.9 L7.6 -4.25 7.65 -4.2 M9.25 4.8 L9.3 4.8 9.15 4.6 9.25 4.8" fill="#000000" fill-rule="evenodd" stroke="none" />
			<path d="M-6.2 2.0 Q-5.8 1.6 -5.8 1.05 L-5.9 0.55 -6.2 0.1 Q-6.6 -0.3 -7.15 -0.3 -7.75 -0.3 -8.15 0.1 -8.55 0.5 -8.55 1.05 -8.55 1.6 -8.15 2.0 L-7.65 2.35 -7.15 2.45 Q-6.6 2.45 -6.2 2.0 M8.65 1.05 L8.55 0.55 8.25 0.1 Q7.85 -0.3 7.3 -0.3 6.7 -0.3 6.35 0.1 5.9 0.5 5.9 1.05 5.9 1.6 6.35 2.0 L6.8 2.35 7.3 2.45 Q7.85 2.45 8.25 2.0 8.65 1.6 8.65 1.05 M6.4 -4.1 L6.75 -3.7 7.55 -1.85 7.6 -1.85 8.1 -1.8 8.95 -1.3 9.3 -0.85 9.5 0.05 9.9 3.45 9.7 3.85 9.35 4.0 8.75 4.0 8.6 4.05 7.7 4.05 7.7 5.65 7.4 5.9 5.3 5.9 5.05 5.65 5.05 4.05 -5.05 4.05 -5.05 5.65 Q-5.05 5.9 -5.35 5.9 L-7.4 5.9 -7.7 5.65 -7.7 4.05 -8.6 4.05 -8.75 4.0 -9.35 4.0 -9.7 3.85 -9.9 3.45 -9.5 0.05 Q-9.5 -0.75 -8.95 -1.3 -8.4 -1.85 -7.6 -1.85 L-7.55 -1.85 Q-7.1 -3.35 -6.45 -4.0 -4.55 -5.9 0.0 -5.9 4.55 -5.9 6.4 -4.1 M1.05 -4.75 L1.4 -4.45 1.4 -4.3 1.05 -4.1 -1.05 -4.1 Q-1.25 -4.1 -1.3 -4.2 L-1.4 -4.45 -1.05 -4.75 -0.35 -4.75 -0.35 -5.1 -0.55 -5.1 -0.7 -5.05 -0.85 -5.05 Q-3.95 -4.95 -5.55 -3.45 -6.5 -2.65 -6.7 -1.6 L-6.65 -1.55 -6.45 -1.4 -5.65 -1.6 -1.0 -2.45 1.0 -2.45 Q3.65 -2.3 6.4 -1.4 L6.7 -1.6 6.2 -2.7 5.45 -3.45 Q3.65 -5.0 0.25 -5.1 L0.25 -4.75 1.05 -4.75 M3.65 -0.1 L0.0 -0.25 -3.65 -0.1 Q-5.15 0.15 -5.15 0.8 -5.15 1.25 -4.4 1.65 L-3.65 1.95 0.0 2.45 3.65 1.95 Q5.1 1.45 5.15 0.85 L5.15 0.8 Q5.15 0.15 3.65 -0.1" fill="#8cb5e6" fill-rule="evenodd" stroke="none" />
		</g>
	</defs>
</svg>