<?xml version="1.0" encoding="UTF-8" standalone="no"?>
<svg xmlns:xlink="http://www.w3.org/1999/xlink" height="24.45px" width="24.55px" xmlns="http://www.w3.org/2000/svg">
  <g transform="matrix(1.0, 0.0, 0.0, 1.0, 12.15, 11.95)">
    <use data-characterId="387" height="24.45" transform="matrix(1.0, 0.0, 0.0, 1.0, -12.15, -11.95)" width="24.55" xlink:href="#shape0"/>
  </g>
  <defs>
    <g id="shape0" transform="matrix(1.0, 0.0, 0.0, 1.0, 12.15, 11.95)">
      <path d="M-9.35 -4.3 L-9.35 -5.0 -9.7 -5.2 -9.8 -5.35 -10.05 -5.5 -10.35 -6.15 -10.35 -6.55 -10.15 -7.0 -9.7 -7.35 -4.3 -9.5 Q-4.0 -9.75 -3.65 -9.5 L1.8 -7.3 2.2 -7.0 2.3 -6.65 2.3 -6.15 2.1 -5.5 1.8 -5.35 1.75 -5.2 1.1 -5.0 0.95 -5.0 0.95 -4.0 1.5 -3.7 1.75 -3.15 1.75 -1.25 1.55 -0.75 1.2 -0.4 1.1 -0.4 0.75 -0.4 0.7 -0.4 -3.9 -1.0 -7.8 -0.6 -7.85 -0.6 -7.9 -0.6 -8.6 -0.45 -8.75 -0.45 -9.05 -0.45 -9.15 -0.45 -9.6 -0.8 -9.75 -1.3 -9.75 -3.15 -9.5 -3.7 -9.25 -3.95 -9.35 -4.3 M1.55 -8.15 L1.1 -8.5 Q0.95 -8.7 0.95 -9.0 L1.1 -9.5 Q1.25 -9.8 1.55 -9.8 L8.1 -11.95 8.1 -11.9 8.5 -11.95 9.05 -11.65 9.2 -11.15 9.2 5.5 Q9.25 5.4 9.4 5.4 L9.45 5.4 9.55 5.5 Q10.7 5.75 11.35 6.25 L11.55 6.45 12.1 7.1 12.15 7.2 Q12.75 8.3 11.9 9.95 L11.9 9.9 Q11.4 10.95 9.3 11.75 L9.25 11.75 5.3 12.45 5.25 12.45 Q1.45 12.6 -1.1 12.4 -4.3 12.1 -7.3 11.0 L-7.35 11.0 -10.3 9.45 Q-11.6 8.45 -11.95 7.3 L-11.9 7.3 Q-13.2 4.2 -8.0 2.1 L-7.85 2.05 Q-3.3 0.15 0.95 1.65 L1.0 1.65 1.1 1.7 Q3.45 2.55 5.05 4.05 L5.15 4.1 5.7 4.5 Q6.2 4.85 6.85 4.95 L6.85 -6.35 1.55 -8.15" fill="#081a15" fill-opacity="0.32941177" fill-rule="evenodd" stroke="none"/>
      <path d="M7.95 -10.5 L8.15 -9.9 8.15 4.25 8.35 4.3 Q9.4 4.6 10.0 5.05 L10.0 5.1 10.05 5.15 10.55 5.8 10.65 5.9 Q11.3 7.0 10.45 8.55 L10.4 8.65 Q9.9 9.5 8.05 10.2 L7.95 10.25 4.45 10.85 Q1.1 11.0 -1.1 10.8 -3.95 10.55 -6.6 9.55 -8.25 8.95 -9.2 8.2 -10.35 7.3 -10.75 6.2 -12.0 3.25 -7.1 1.3 L-7.0 1.25 Q-3.0 -0.35 0.85 0.95 L0.9 0.95 Q3.05 1.75 4.5 3.1 L4.45 3.1 5.0 3.5 5.05 3.55 5.6 3.8 5.6 -5.6 1.15 -7.1 Q0.85 -7.2 0.65 -7.45 L0.45 -8.05 0.65 -8.65 1.15 -9.0 6.85 -10.85 7.45 -10.85 7.95 -10.5 M1.85 -4.85 L1.65 -4.65 1.55 -4.6 Q1.3 -4.35 0.95 -4.3 L0.95 -3.9 1.35 -3.65 1.65 -2.95 1.65 -1.25 1.45 -0.7 1.5 -0.7 Q1.3 -0.45 1.0 -0.35 L0.4 -0.35 -3.5 -0.85 -3.55 -0.85 -6.85 -0.55 -6.8 -0.55 -6.9 -0.5 -7.0 -0.5 -7.6 -0.4 -7.55 -0.4 -8.15 -0.4 -8.2 -0.4 -8.65 -0.75 -8.85 -1.35 -8.85 -2.95 -8.55 -3.65 -8.15 -3.9 -8.15 -4.3 Q-8.5 -4.35 -8.75 -4.6 L-8.8 -4.65 -9.05 -4.85 -9.35 -5.55 -9.35 -5.9 -9.2 -6.45 -9.15 -6.45 -8.7 -6.8 -3.95 -8.75 -3.9 -8.8 -3.15 -8.75 -3.2 -8.75 1.55 -6.8 2.0 -6.45 2.15 -5.9 2.15 -5.55 1.85 -4.85" fill="#000000" fill-rule="evenodd" stroke="none"/>
      <path d="M-2.95 -5.3 L-4.15 -5.3 -4.15 -2.95 -2.95 -2.95 -2.95 -5.3 M-0.95 -5.3 L-2.0 -5.3 -2.0 -2.95 -0.95 -2.95 -0.95 -5.3 M-5.15 -5.3 L-6.25 -5.3 -6.25 -2.95 -5.15 -2.95 -5.15 -5.3 M6.6 5.9 L6.3 5.9 4.15 6.05 Q2.95 6.35 2.95 7.35 2.95 8.0 3.75 8.3 L6.3 8.4 7.6 8.15 7.9 8.05 Q8.6 7.7 8.6 7.15 L8.6 6.95 8.2 6.4 Q7.8 6.1 7.15 5.95 L7.15 7.4 6.6 7.4 6.6 5.9 M1.45 -8.05 L7.15 -9.9 7.15 5.0 7.35 5.05 7.9 5.2 Q8.85 5.45 9.35 5.85 L9.75 6.35 Q10.1 7.05 9.55 8.05 9.2 8.7 7.7 9.25 L4.4 9.85 Q1.15 10.0 -1.0 9.8 -3.7 9.55 -6.25 8.6 L-8.6 7.4 Q-9.5 6.7 -9.8 5.85 -10.55 3.75 -6.65 2.2 -2.95 0.7 0.55 1.9 2.55 2.65 3.85 3.9 L4.4 4.3 Q5.05 4.75 5.8 4.85 L6.6 4.9 6.6 -6.3 1.45 -8.05 M0.85 -5.55 L0.85 -5.3 -0.05 -5.3 -0.05 -2.95 0.65 -2.95 0.65 -1.3 -3.5 -1.85 -7.1 -1.5 -7.85 -1.35 -7.85 -2.95 -7.15 -2.95 -7.15 -5.3 -8.05 -5.3 -8.05 -5.55 -8.35 -5.55 -8.35 -5.9 -3.6 -7.85 1.15 -5.9 1.15 -5.55 0.85 -5.55" fill="#8cb5e6" fill-rule="evenodd" stroke="none"/>
    </g>
  </defs>
</svg>
