<?xml version="1.0" encoding="UTF-8" standalone="no"?>
<svg xmlns:xlink="http://www.w3.org/1999/xlink" height="19.95px" width="13.9px" xmlns="http://www.w3.org/2000/svg">
  <g transform="matrix(1.0, 0.0, 0.0, 1.0, 5.7, 9.95)">
    <use data-characterId="385" height="19.95" transform="matrix(1.0, 0.0, 0.0, 1.0, -5.7, -9.95)" width="13.9" xlink:href="#shape0"/>
  </g>
  <defs>
    <g id="shape0" transform="matrix(1.0, 0.0, 0.0, 1.0, 5.7, 9.95)">
      <path d="M7.25 -5.1 L7.2 -4.5 7.3 -4.4 8.0 -3.6 8.05 -3.6 8.05 -3.0 8.0 -2.8 7.7 -2.0 7.8 -1.85 Q8.2 -1.3 8.2 -0.55 8.2 0.2 7.7 0.8 L6.7 1.5 2.55 9.95 -1.65 1.5 Q-2.3 1.3 -2.65 0.8 -3.2 0.2 -3.15 -0.55 -3.15 -1.35 -2.55 -1.95 L-2.85 -2.4 -2.85 -2.35 -2.95 -3.0 -2.95 -3.15 -2.85 -3.75 -2.1 -4.5 -2.15 -5.1 Q-2.15 -7.15 -0.75 -8.55 0.55 -9.95 2.55 -9.95 4.45 -9.95 5.85 -8.55 7.15 -7.2 7.25 -5.3 L7.25 -5.1" fill="#081a15" fill-opacity="0.49803922" fill-rule="evenodd" stroke="none"/>
      <path d="M-5.7 -0.55 Q-5.7 -1.4 -5.15 -1.95 -5.55 -2.35 -5.5 -3.0 L-5.5 -3.15 Q-5.55 -4.1 -4.7 -4.55 L-4.7 -5.1 Q-4.7 -7.15 -3.3 -8.55 -2.0 -9.95 0.0 -9.95 1.95 -9.95 3.35 -8.55 4.7 -7.15 4.7 -5.1 L4.65 -4.55 Q5.5 -4.1 5.5 -3.15 L5.5 -3.0 Q5.5 -2.35 5.15 -1.95 5.65 -1.4 5.7 -0.55 5.7 0.25 5.15 0.85 L5.15 0.8 4.2 1.5 0.0 10.0 -4.2 1.5 Q-4.85 1.3 -5.2 0.8 L-5.2 0.85 Q-5.75 0.25 -5.7 -0.55" fill="#000000" fill-rule="evenodd" stroke="none"/>
      <path d="M3.75 -2.1 L1.9 -2.1 1.9 -0.2 Q1.9 0.45 1.25 0.45 0.65 0.45 0.65 -0.2 L0.65 -3.35 0.5 -3.35 Q0.05 -3.35 -0.3 -3.65 L-0.6 -4.45 -1.2 -4.45 Q-1.2 -3.85 -0.85 -3.4 -0.45 -2.95 0.1 -2.8 L0.1 -2.1 -3.65 -2.1 Q-4.5 -2.1 -4.5 -2.8 L-4.5 -2.95 Q-4.5 -3.55 -3.65 -3.55 L-3.55 -3.55 -3.7 -4.9 Q-3.7 -6.5 -2.6 -7.7 -1.5 -8.8 0.05 -8.8 1.6 -8.8 2.65 -7.7 3.75 -6.55 3.75 -4.9 L3.6 -3.55 3.7 -3.55 Q4.55 -3.55 4.55 -2.95 L4.55 -2.8 Q4.55 -2.1 3.75 -2.1 M-3.65 -1.45 L0.0 -1.45 0.0 -0.2 Q0.0 0.4 0.4 0.75 0.75 1.15 1.25 1.15 1.85 1.15 2.2 0.75 2.6 0.4 2.6 -0.2 L2.6 -1.45 3.75 -1.45 Q4.15 -1.45 4.45 -1.15 L4.75 -0.35 4.45 0.4 3.7 0.75 3.55 0.75 2.65 2.6 -0.55 2.6 -0.55 3.2 2.4 3.2 0.05 8.0 -1.25 5.35 0.25 5.35 0.25 4.75 -1.55 4.75 -3.2 1.35 -0.8 1.35 -0.8 0.75 -3.6 0.75 Q-4.1 0.75 -4.35 0.4 -4.7 0.15 -4.7 -0.35 L-4.35 -1.15 Q-4.1 -1.45 -3.65 -1.45" fill="#8cb5e6" fill-rule="evenodd" stroke="none"/>
    </g>
  </defs>
</svg>
