<?xml version="1.0" encoding="UTF-8" standalone="no"?>
<svg xmlns:xlink="http://www.w3.org/1999/xlink" height="26.8px" width="25.15px" xmlns="http://www.w3.org/2000/svg">
  <g transform="matrix(1.0, 0.0, 0.0, 1.0, 12.0, 11.75)">
    <use data-characterId="383" height="26.8" transform="matrix(1.0, 0.0, 0.0, 1.0, -12.0, -11.75)" width="25.15" xlink:href="#shape0"/>
  </g>
  <defs>
    <g id="shape0" transform="matrix(1.0, 0.0, 0.0, 1.0, 12.0, 11.75)">
      <path d="M-10.7 -4.6 L-9.55 -6.45 Q-9.55 -6.85 -6.4 -8.5 -3.35 -10.1 -2.4 -10.3 -1.9 -10.75 -1.9 -9.75 -1.9 -9.35 -4.25 -7.6 -6.65 -5.9 -6.65 -5.05 L-6.4 -3.45 -5.95 -2.35 -5.55 -2.05 Q-5.0 -1.75 -4.4 -1.75 -3.35 -6.45 1.75 -6.2 5.15 -6.05 6.15 -4.95 L7.5 -2.95 8.65 -4.0 Q9.4 -4.6 10.3 -4.75 10.0 -6.4 8.75 -6.55 7.65 -6.7 7.65 -9.0 L7.75 -9.45 8.1 -9.25 Q9.35 -8.2 10.25 -8.6 11.1 -7.6 12.25 -6.7 L13.05 -5.85 12.4 -4.2 Q12.0 -3.2 13.15 -1.7 L10.5 -0.8 Q9.15 -0.1 9.15 0.85 L8.8 3.8 7.65 8.05 Q7.45 8.55 7.7 9.25 L8.0 10.05 Q8.0 11.15 6.4 12.85 4.4 15.05 1.7 15.05 -2.45 14.85 -4.0 11.55 L-4.55 7.9 -5.05 5.6 -5.6 3.45 Q-5.55 1.5 -5.95 0.95 L-7.3 0.1 -8.7 0.2 -9.95 -0.45 -10.1 -1.1 -10.15 -1.8 -10.25 -2.6 Q-10.7 -3.55 -10.7 -4.6" fill="#081a15" fill-rule="evenodd" stroke="none"/>
      <path d="M-12.0 -5.9 L-10.85 -7.75 Q-10.85 -8.15 -7.7 -9.8 -4.65 -11.4 -3.7 -11.6 -3.2 -12.05 -3.2 -11.05 -3.2 -10.65 -5.55 -8.9 -7.95 -7.2 -7.95 -6.35 L-7.7 -4.75 -7.25 -3.65 -6.85 -3.35 -5.7 -3.05 Q-4.65 -7.75 0.45 -7.5 3.85 -7.35 4.85 -6.25 L6.2 -4.25 7.35 -5.3 Q8.1 -5.9 9.0 -6.05 8.7 -7.7 7.45 -7.85 6.35 -8.0 6.35 -10.3 L6.45 -10.75 Q6.65 -10.5 6.8 -10.55 8.05 -9.5 8.95 -9.9 L10.95 -8.0 11.75 -7.15 11.1 -5.5 Q10.7 -4.5 11.85 -3.0 L9.2 -2.1 Q7.85 -1.4 7.85 -0.45 L7.5 2.5 6.35 6.75 Q6.15 7.25 6.4 7.95 L6.7 8.75 Q6.7 9.85 5.1 11.55 3.1 13.75 0.4 13.75 -3.75 13.55 -5.3 10.25 L-5.85 6.6 -6.35 4.3 -6.9 2.15 Q-6.85 0.2 -7.25 -0.35 L-8.6 -1.2 -10.0 -1.1 -11.25 -1.75 -11.4 -2.4 -11.45 -3.1 -11.55 -3.9 Q-12.0 -4.85 -12.0 -5.9" fill="#000000" fill-rule="evenodd" stroke="none"/>
      <path d="M6.3 -2.2 L6.15 -2.8 6.45 -3.6 8.6 -5.4 9.15 -5.5 8.3 -4.55 8.3 -4.5 9.25 -4.95 9.55 -6.1 9.35 -6.85 8.2 -8.35 7.55 -8.4 Q7.3 -8.55 6.95 -9.3 L6.7 -10.05 6.95 -9.75 7.55 -9.3 8.75 -9.25 9.1 -8.8 Q9.5 -7.95 10.25 -7.5 L10.7 -7.25 11.1 -6.75 10.85 -6.35 10.3 -5.2 10.25 -4.35 11.0 -3.4 Q10.95 -3.2 10.6 -3.3 L9.35 -3.2 Q7.6 -2.15 7.45 -1.7 L7.15 -1.5 6.95 -1.45 6.75 -1.55 6.3 -2.2 M0.85 -6.4 L-0.65 -6.3 -1.7 -5.95 -2.35 -5.4 -2.7 -4.95 -1.7 -4.65 -1.0 -4.6 Q-1.0 -4.5 -1.75 -4.2 L-4.55 -2.95 -4.8 -2.85 -5.05 -2.9 -4.9 -3.75 -4.5 -4.6 -3.0 -6.1 -2.1 -6.5 0.9 -6.95 2.3 -6.75 3.5 -6.25 4.35 -5.65 5.1 -4.8 5.45 -4.15 5.75 -2.55 5.05 -3.85 4.55 -4.7 3.85 -5.45 2.7 -6.15 1.9 -6.35 0.9 -6.4 0.85 -6.4 1.65 -6.3 3.8 -5.15 5.2 -2.95 3.95 -4.0 0.55 -6.2 0.65 -6.35 0.85 -6.4 M1.9 -3.95 L-2.05 -5.1 -1.05 -5.9 0.4 -5.95 3.8 -3.8 2.8 -3.8 1.9 -3.95 M1.0 -1.55 L-0.9 -1.4 -2.8 -1.05 -4.65 -0.35 -6.05 0.45 -6.1 0.2 -5.95 -0.15 -6.25 -0.05 -6.45 -0.1 -5.45 -1.0 -4.45 -1.8 -4.35 -2.2 -3.95 -2.35 -3.35 -2.65 -1.85 -3.05 -0.15 -3.25 -0.1 -3.3 -1.95 -3.25 -2.85 -3.05 -4.25 -2.4 -4.7 -2.15 -5.15 -2.0 -5.45 -2.0 -5.25 -2.3 -4.85 -2.6 -2.25 -3.8 -1.15 -4.1 -0.35 -4.3 0.7 -3.85 1.45 -3.65 2.95 -3.6 4.55 -3.1 5.5 -2.45 6.4 -1.65 6.85 -0.95 6.95 1.35 6.6 0.65 5.85 -0.35 4.7 -0.95 4.1 -1.05 2.7 -1.4 1.0 -1.55 M-3.1 -0.45 L-0.4 -1.2 2.0 -1.15 2.2 -0.95 2.5 -0.8 2.6 -0.4 0.8 -0.5 -0.95 -0.35 -3.3 0.3 -3.1 -0.45 M3.7 -1.4 L3.85 -1.25 3.9 -1.3 3.7 -1.4 M4.05 -0.55 L4.0 -0.55 4.05 -0.6 4.05 -0.55 4.1 -0.55 4.15 -0.5 4.05 -0.55 M4.0 -0.55 L4.3 -0.4 4.35 0.85 4.65 1.05 4.7 1.45 Q4.7 2.45 4.35 2.8 L4.0 3.05 3.7 3.2 3.2 2.55 2.8 2.45 2.4 2.7 2.2 3.35 2.0 3.75 2.1 3.85 2.2 4.2 2.2 4.4 1.75 4.4 1.7 4.2 1.7 4.05 1.5 4.05 1.5 4.2 1.4 4.45 1.25 4.6 1.05 4.45 1.0 4.2 1.05 4.05 0.55 4.05 0.7 4.15 0.8 4.5 0.7 4.8 0.7 4.85 0.4 4.85 0.35 4.8 0.3 4.5 0.35 4.15 0.55 4.05 0.2 4.05 0.2 4.1 0.25 4.4 0.2 4.65 0.05 4.8 -0.1 4.65 -0.15 4.4 -0.1 4.1 -0.05 4.05 -0.5 4.05 Q-0.4 4.05 -0.35 4.15 L-0.3 4.4 -0.35 4.65 -0.5 4.75 -0.65 4.65 -0.7 4.4 -0.65 4.15 -0.5 4.05 -1.0 4.05 -1.0 4.1 -0.95 4.45 -1.0 4.75 -1.05 4.85 -1.25 4.85 -1.3 4.75 -1.35 4.45 -1.3 4.1 -1.25 4.05 -1.4 4.05 -1.4 4.0 -1.65 4.05 -1.6 4.1 -1.55 4.4 -1.55 4.6 -1.9 4.6 -1.95 4.4 -1.9 4.1 -1.8 4.05 -2.1 3.95 -2.65 3.35 -2.8 3.15 -3.7 2.7 -4.45 2.65 -5.0 1.95 -5.1 0.45 -4.7 0.1 -3.35 -0.4 -3.55 -0.05 -3.45 0.8 -2.85 1.1 -2.15 1.15 Q-1.85 1.15 -1.45 0.75 L-1.2 0.4 -1.15 0.0 1.5 -0.2 1.5 0.05 2.1 0.85 2.4 1.0 2.7 1.0 3.25 1.05 3.65 0.3 3.75 -0.55 3.95 -0.55 4.0 -0.55 M-1.7 7.4 L0.25 7.8 1.55 7.55 2.65 6.75 2.7 7.0 Q3.2 5.65 4.55 3.4 5.65 1.5 4.9 -0.2 L5.05 -0.45 5.5 -0.5 Q5.75 -0.45 5.75 0.2 5.75 2.1 4.4 4.4 L5.0 4.1 2.75 9.2 Q1.85 10.15 -1.5 10.15 L-2.75 8.25 -4.3 5.1 Q-4.95 4.2 -4.95 3.2 -4.95 2.2 -4.8 2.65 L-4.2 3.2 -3.55 3.8 -3.1 5.45 -2.55 7.35 -2.55 7.0 -1.7 7.7 -1.7 7.4 M-0.6 11.45 Q-0.6 11.35 1.5 10.6 2.4 10.25 3.5 9.15 L4.0 7.95 5.2 5.05 5.55 5.65 5.75 6.4 Q5.45 7.35 5.5 7.7 L6.0 8.45 Q6.4 8.75 6.25 9.05 L4.0 10.0 1.8 11.05 0.95 11.4 -0.6 11.45 M6.05 4.9 L5.45 3.25 6.0 1.6 6.1 0.4 6.65 1.55 6.55 3.2 6.05 4.9 M-0.9 2.45 L-0.8 2.6 -0.35 2.55 0.6 2.5 0.65 1.75 0.6 1.05 0.15 0.5 -0.05 0.25 -0.4 0.4 -0.9 1.8 -0.9 2.45 M0.5 6.6 L1.0 6.8 1.1 6.5 1.25 6.45 1.6 6.9 1.55 7.0 1.0 6.85 1.0 7.25 0.75 7.4 Q0.5 7.15 0.5 6.6 M1.7 6.25 L2.25 6.25 2.25 6.65 1.7 6.65 1.7 6.25 M-0.15 7.1 L-0.15 7.25 -0.35 7.45 -0.6 7.3 -0.65 6.95 -0.2 6.8 0.3 6.9 0.35 7.55 0.3 7.6 Q-0.05 7.6 -0.15 7.1 M2.15 11.45 L4.4 10.2 5.2 9.9 5.8 9.8 4.8 10.8 3.7 11.85 2.85 12.4 2.45 12.6 0.2 12.95 -1.25 12.9 -1.85 12.55 -1.0 12.3 0.3 12.05 2.15 11.45 M-6.3 -0.85 Q-6.45 -0.65 -6.7 -0.75 L-7.45 -1.35 -7.5 -1.4 -8.8 -1.8 -10.3 -1.85 -10.8 -2.1 -10.85 -2.55 -11.05 -4.35 -11.4 -5.8 -10.35 -6.85 -10.05 -7.1 Q-10.35 -7.4 -10.25 -7.55 L-9.0 -8.25 -8.05 -8.45 -8.15 -9.1 -7.8 -9.35 -5.95 -10.1 -5.5 -10.2 -4.85 -10.65 -4.1 -10.75 -3.95 -10.7 -5.2 -9.85 -7.75 -8.15 -8.7 -7.3 -10.05 -6.05 -10.2 -5.7 -10.0 -4.75 -9.6 -4.1 -8.5 -3.7 -8.7 -4.0 Q-9.0 -4.75 -8.85 -5.55 L-8.7 -5.9 Q-8.6 -6.0 -8.4 -4.4 L-7.6 -3.0 -6.0 -2.5 -5.85 -2.2 Q-5.8 -1.85 -6.3 -0.85 M-5.2 -0.5 L-2.8 -1.5 -2.1 -1.65 -2.25 -1.85 -2.65 -1.9 -2.85 -2.0 -3.5 -1.6 -4.5 -1.1 -5.65 -0.3 -5.2 -0.5 M-5.8 3.7 L-6.35 1.95 -6.25 0.95 -5.55 0.65 -5.45 1.8 -5.5 3.35 -5.2 4.45 -5.8 3.7 M-2.45 12.1 L-2.95 11.95 -3.35 11.7 -4.65 10.05 -4.9 8.95 -5.15 6.35 -5.3 5.3 -5.1 5.4 -4.9 5.6 -4.2 7.7 -2.05 10.55 -0.8 11.85 -2.45 12.1 M-0.85 7.05 L-0.95 7.35 -1.3 7.45 -1.6 7.35 -1.75 7.05 -1.6 6.8 Q-1.5 6.65 -1.3 6.65 L-0.95 6.8 -0.85 7.05" fill="#7fa4cf" fill-rule="evenodd" stroke="none"/>
    </g>
  </defs>
</svg>
