<?xml version="1.0" encoding="UTF-8" standalone="no"?>
<svg xmlns:xlink="http://www.w3.org/1999/xlink" height="22.7px" width="23.3px" xmlns="http://www.w3.org/2000/svg">
  <g transform="matrix(1.0, 0.0, 0.0, 1.0, 9.9, 9.8)">
    <use data-characterId="379" height="22.7" transform="matrix(1.0, 0.0, 0.0, 1.0, -9.9, -9.8)" width="23.3" xlink:href="#shape0"/>
  </g>
  <defs>
    <g id="shape0" transform="matrix(1.0, 0.0, 0.0, 1.0, 9.9, 9.8)">
      <path d="M13.4 12.9 L-7.9 12.9 -7.9 7.4 -7.8 7.4 -7.8 -7.75 -2.5 -7.75 -2.5 -5.9 7.4 -5.9 7.4 -7.8 11.85 -7.8 13.35 7.4 13.4 7.4 13.4 12.9" fill="#081a15" fill-rule="evenodd" stroke="none"/>
      <path d="M-7.5 7.0 L-9.8 7.0 -9.8 -9.75 -4.5 -9.75 -4.5 -7.9 5.4 -7.9 5.4 -9.8 9.85 -9.8 11.35 5.75 9.5 6.15 9.8 8.7 9.1 8.6 5.75 8.6 5.75 8.75 3.3 8.9 3.3 8.6 0.6 8.6 0.6 8.75 -1.9 8.9 -1.9 8.6 -5.55 8.6 -5.55 8.55 -7.55 -7.9 -5.35 -7.9 -5.45 -8.75 -8.4 -8.75 -7.5 7.0 M-1.45 -2.65 L-2.45 -2.65 -1.8 -0.75 Q-1.2 1.65 -0.9 4.55 L-0.7 7.95 0.75 7.85 0.75 7.6 Q0.5 3.25 -0.5 -0.15 L-0.5 -0.1 -1.45 -2.65 M1.7 -1.45 L1.7 -3.35 1.9 -3.0 1.8 -3.3 4.15 -3.3 5.25 -0.35 Q6.35 3.15 6.65 7.6 L8.3 7.6 6.5 -6.9 -6.4 -6.9 -4.65 7.6 -1.95 7.6 Q-2.3 1.95 -3.45 -1.45 L-3.45 -3.35 -3.4 -3.25 -3.4 -3.3 -1.0 -3.3 0.1 -0.35 Q1.15 3.15 1.45 7.6 L3.25 7.6 Q2.85 1.95 1.7 -1.45 M3.7 -2.65 L2.75 -2.65 3.45 -0.35 Q4.05 1.85 4.3 4.55 L4.45 7.95 5.95 7.85 5.95 7.6 Q5.7 3.25 4.65 -0.15 L4.65 -0.1 3.7 -2.65 M7.85 -7.9 L9.45 5.5 10.65 5.25 9.25 -9.15 6.05 -9.15 6.05 -7.9 7.85 -7.9" fill="#000000" fill-rule="evenodd" stroke="none"/>
      <path d="M-5.55 8.55 L-7.4 8.55 -7.5 7.0 -8.4 -8.75 -5.45 -8.75 -5.35 -7.9 -7.55 -7.9 -5.55 8.55 M-1.45 -2.65 L-0.5 -0.1 -0.5 -0.15 Q0.5 3.25 0.75 7.6 L0.75 7.85 -0.7 7.95 -0.9 4.55 Q-1.2 1.65 -1.8 -0.75 L-2.45 -2.65 -1.45 -2.65 M1.7 -1.45 Q2.85 1.95 3.25 7.6 L1.45 7.6 Q1.15 3.15 0.1 -0.35 L-1.0 -3.3 -3.4 -3.3 -3.4 -3.25 -3.45 -3.35 -3.45 -1.45 Q-2.3 1.95 -1.95 7.6 L-4.65 7.6 -6.4 -6.9 6.5 -6.9 8.3 7.6 6.65 7.6 Q6.35 3.15 5.25 -0.35 L4.15 -3.3 1.8 -3.3 1.9 -3.0 1.7 -3.35 1.7 -1.45 M7.85 -7.9 L6.05 -7.9 6.05 -9.15 9.25 -9.15 10.65 5.25 9.45 5.5 7.85 -7.9 M3.7 -2.65 L4.65 -0.1 4.65 -0.15 Q5.7 3.25 5.95 7.6 L5.95 7.85 4.45 7.95 4.3 4.55 Q4.05 1.85 3.45 -0.35 L2.75 -2.65 3.7 -2.65" fill="#8cb5e6" fill-rule="evenodd" stroke="none"/>
      <path d="M11.4 10.9 L-9.9 10.9 -9.9 5.4 11.4 5.4 11.4 10.9" fill="#000000" fill-rule="evenodd" stroke="none"/>
      <path d="M-8.45 8.1 L-8.35 8.0 -8.2 7.8 -8.25 7.8 -8.75 7.85 -9.8 7.85 -9.8 5.45 -8.75 5.45 -8.45 5.1 -8.35 5.0 -8.2 4.75 -8.25 4.8 Q-7.35 3.2 -5.6 3.25 -4.8 3.2 -4.05 3.75 L-2.95 4.75 -2.95 4.7 -2.3 5.35 -2.05 5.05 -2.0 5.0 -1.85 4.75 -1.9 4.8 Q-0.85 3.2 0.75 3.25 1.85 3.2 3.4 4.75 L4.0 5.35 4.25 5.05 4.35 4.8 4.4 4.8 Q5.45 3.2 7.1 3.25 8.2 3.2 9.75 4.75 L10.45 5.45 11.4 5.45 11.4 7.85 10.25 7.85 9.8 7.8 10.45 8.45 11.4 8.45 11.4 10.85 10.25 10.85 Q9.25 10.85 7.75 9.35 L7.0 8.7 6.85 8.8 6.65 9.1 6.65 9.05 6.55 9.2 Q5.65 10.85 3.95 10.85 2.85 10.85 1.4 9.35 L1.45 9.35 0.7 8.65 0.3 9.05 0.2 9.2 Q-0.7 10.85 -2.4 10.85 -3.5 10.85 -4.95 9.35 L-4.9 9.35 -5.6 8.7 -6.1 9.15 -6.1 9.2 Q-7.0 10.85 -8.75 10.85 L-9.8 10.85 -9.8 8.45 -8.75 8.45 -8.45 8.1 M7.1 6.9 Q5.75 6.9 4.95 8.15 L4.95 8.1 4.85 8.35 4.85 8.4 4.1 9.1 3.95 9.1 3.85 9.05 2.95 8.2 2.9 8.15 Q1.65 6.9 0.75 6.9 -0.55 6.9 -1.35 8.15 L-1.4 8.2 -1.55 8.45 -1.5 8.4 -2.25 9.1 -2.45 9.1 -3.4 8.2 -4.4 7.3 Q-5.0 6.9 -5.6 6.9 -6.95 6.9 -7.7 8.15 L-7.75 8.2 -7.9 8.45 Q-8.25 9.1 -8.75 9.1 L-9.15 9.1 -9.15 10.2 -8.75 10.2 Q-7.4 10.15 -6.65 8.9 L-6.6 8.7 -6.55 8.65 -5.7 8.0 -5.55 7.95 -5.45 8.0 -4.45 8.9 Q-3.3 10.15 -2.4 10.2 -1.1 10.15 -0.35 8.9 L-0.4 8.9 -0.3 8.75 -0.3 8.8 Q0.05 8.05 0.75 8.0 L0.9 8.0 1.9 8.9 Q3.05 10.15 3.95 10.2 5.25 10.15 6.0 8.9 L5.95 8.9 6.05 8.75 6.1 8.75 6.3 8.45 6.35 8.4 Q6.65 8.05 7.0 8.0 L7.1 7.95 7.2 8.0 8.2 8.9 Q9.45 10.15 10.25 10.2 L10.75 10.2 10.75 9.1 10.3 9.1 10.25 9.05 9.3 8.2 9.25 8.15 Q8.0 6.9 7.1 6.9 M7.1 3.9 Q5.75 3.9 4.95 5.15 L4.95 5.1 4.85 5.35 4.85 5.4 4.1 6.1 3.95 6.1 3.85 6.05 2.95 5.2 2.9 5.15 Q1.65 3.9 0.75 3.9 -0.55 3.9 -1.35 5.15 L-1.4 5.2 -1.55 5.45 -1.5 5.4 -2.25 6.1 -2.45 6.1 -3.4 5.2 -4.4 4.3 Q-5.0 3.9 -5.6 3.9 -6.95 3.9 -7.7 5.15 L-7.75 5.2 -7.9 5.45 Q-8.25 6.1 -8.75 6.1 L-9.15 6.1 -9.15 7.2 -8.75 7.2 Q-7.4 7.15 -6.65 5.9 L-6.6 5.75 Q-6.1 4.95 -5.6 5.0 L-5.5 5.0 -4.45 5.9 Q-3.3 7.15 -2.4 7.2 -1.1 7.15 -0.35 5.9 L-0.4 5.9 -0.3 5.75 -0.3 5.8 0.05 5.35 Q0.4 4.95 0.75 5.0 L0.85 5.0 1.9 5.9 Q3.05 7.15 3.95 7.2 5.25 7.15 6.0 5.9 L5.95 5.9 6.05 5.75 6.1 5.75 6.3 5.45 6.3 5.4 Q6.65 4.95 7.05 5.0 L7.15 5.0 8.2 5.9 Q9.45 7.15 10.25 7.2 L10.75 7.2 10.75 6.1 10.3 6.1 10.25 6.05 9.3 5.2 9.25 5.15 Q8.0 3.9 7.1 3.9 M-2.05 8.05 L-2.0 8.0 -1.85 7.8 -1.9 7.8 -2.4 7.85 -2.85 7.8 -2.3 8.35 -2.05 8.05 M-5.6 6.25 L-4.9 6.35 -5.65 5.65 -6.05 6.1 -6.0 5.9 -6.1 6.2 -6.15 6.3 -5.6 6.25 M4.25 8.05 L4.35 7.85 3.95 7.85 3.45 7.8 4.0 8.35 4.25 8.05 M0.75 6.25 L1.4 6.35 1.45 6.35 0.7 5.65 0.5 5.8 0.3 6.0 0.3 6.05 0.2 6.2 0.15 6.3 0.75 6.25 M7.1 6.25 L7.75 6.35 7.0 5.65 6.85 5.8 6.65 6.1 6.65 6.05 6.55 6.2 6.5 6.3 7.1 6.25" fill="#000000" fill-rule="evenodd" stroke="none"/>
      <path d="M7.1 3.9 Q8.0 3.9 9.25 5.15 L9.3 5.2 10.25 6.05 10.3 6.1 10.75 6.1 10.75 7.2 10.25 7.2 Q9.45 7.15 8.2 5.9 L7.15 5.0 7.05 5.0 Q6.65 4.95 6.3 5.4 L6.3 5.45 6.1 5.75 6.05 5.75 5.95 5.9 6.0 5.9 Q5.25 7.15 3.95 7.2 3.05 7.15 1.9 5.9 L0.85 5.0 0.75 5.0 Q0.4 4.95 0.05 5.35 L-0.3 5.8 -0.3 5.75 -0.4 5.9 -0.35 5.9 Q-1.1 7.15 -2.4 7.2 -3.3 7.15 -4.45 5.9 L-5.5 5.0 -5.6 5.0 Q-6.1 4.95 -6.6 5.75 L-6.65 5.9 Q-7.4 7.15 -8.75 7.2 L-9.15 7.2 -9.15 6.1 -8.75 6.1 Q-8.25 6.1 -7.9 5.45 L-7.75 5.2 -7.7 5.15 Q-6.95 3.9 -5.6 3.9 -5.0 3.9 -4.4 4.3 L-3.4 5.2 -2.45 6.1 -2.25 6.1 -1.5 5.4 -1.55 5.45 -1.4 5.2 -1.35 5.15 Q-0.55 3.9 0.75 3.9 1.65 3.9 2.9 5.15 L2.95 5.2 3.85 6.05 3.95 6.1 4.1 6.1 4.85 5.4 4.85 5.35 4.95 5.1 4.95 5.15 Q5.75 3.9 7.1 3.9 M7.1 6.9 Q8.0 6.9 9.25 8.15 L9.3 8.2 10.25 9.05 10.3 9.1 10.75 9.1 10.75 10.2 10.25 10.2 Q9.45 10.15 8.2 8.9 L7.2 8.0 7.1 7.95 7.0 8.0 Q6.65 8.05 6.35 8.4 L6.3 8.45 6.1 8.75 6.05 8.75 5.95 8.9 6.0 8.9 Q5.25 10.15 3.95 10.2 3.05 10.15 1.9 8.9 L0.9 8.0 0.75 8.0 Q0.05 8.05 -0.3 8.8 L-0.3 8.75 -0.4 8.9 -0.35 8.9 Q-1.1 10.15 -2.4 10.2 -3.3 10.15 -4.45 8.9 L-5.45 8.0 -5.55 7.95 -5.7 8.0 -6.55 8.65 -6.6 8.7 -6.65 8.9 Q-7.4 10.15 -8.75 10.2 L-9.15 10.2 -9.15 9.1 -8.75 9.1 Q-8.25 9.1 -7.9 8.45 L-7.75 8.2 -7.7 8.15 Q-6.95 6.9 -5.6 6.9 -5.0 6.9 -4.4 7.3 L-3.4 8.2 -2.45 9.1 -2.25 9.1 -1.5 8.4 -1.55 8.45 -1.4 8.2 -1.35 8.15 Q-0.55 6.9 0.75 6.9 1.65 6.9 2.9 8.15 L2.95 8.2 3.85 9.05 3.95 9.1 4.1 9.1 4.85 8.4 4.85 8.35 4.95 8.1 4.95 8.15 Q5.75 6.9 7.1 6.9" fill="#8cb5e6" fill-rule="evenodd" stroke="none"/>
    </g>
  </defs>
</svg>
