<?xml version="1.0" encoding="UTF-8" standalone="no"?>
<svg xmlns:xlink="http://www.w3.org/1999/xlink" height="22.3px" width="20.5px" xmlns="http://www.w3.org/2000/svg">
  <g transform="matrix(1.0, 0.0, 0.0, 1.0, 9.0, 10.9)">
    <use data-characterId="352" height="22.3" transform="matrix(1.0, 0.0, 0.0, 1.0, -9.0, -10.9)" width="20.5" xlink:href="#shape0"/>
  </g>
  <defs>
    <g id="shape0" transform="matrix(1.0, 0.0, 0.0, 1.0, 9.0, 10.9)">
      <path d="M2.5 -10.4 Q2.9 -10.4 3.2 -10.1 L7.2 -6.1 7.5 -5.4 7.2 -4.7 6.5 -4.4 6.2 -4.4 9.55 -1.05 9.85 -0.35 9.55 0.35 8.85 0.65 6.9 0.65 11.2 4.9 11.5 5.6 11.2 6.3 10.5 6.6 4.5 6.6 4.5 7.3 4.65 7.3 Q6.1 7.45 7.4 8.0 8.85 8.45 9.55 9.4 L9.5 9.35 9.55 9.4 9.9 9.8 9.95 9.85 10.1 10.45 10.1 10.6 9.9 11.1 9.75 11.25 9.1 11.4 -4.05 11.4 -4.7 11.15 -5.0 10.6 -5.05 10.45 -4.85 9.85 Q-4.15 8.75 -2.45 8.05 -1.15 7.5 0.55 7.3 L0.55 6.6 -5.5 6.6 -6.2 6.3 -6.5 5.6 -6.2 4.9 -1.9 0.65 -3.85 0.65 -4.55 0.35 -4.85 -0.35 -4.55 -1.05 -1.2 -4.4 -1.5 -4.4 Q-1.9 -4.4 -2.2 -4.7 L-2.5 -5.4 -2.2 -6.1 1.8 -10.1 2.5 -10.4" fill="#081a15" fill-opacity="0.49803922" fill-rule="evenodd" stroke="none"/>
      <path d="M0.0 -10.9 L0.7 -10.6 4.7 -6.6 5.0 -5.9 4.7 -5.2 Q4.4 -4.9 4.0 -4.9 L3.7 -4.9 7.05 -1.55 7.35 -0.85 7.05 -0.15 6.35 0.15 4.4 0.15 8.7 4.4 9.0 5.1 8.7 5.8 8.0 6.1 2.0 6.1 2.0 6.8 2.1 6.8 Q3.6 6.95 4.85 7.45 6.3 8.0 7.0 8.85 L7.05 8.9 7.4 9.3 7.6 10.0 7.6 10.05 7.25 10.65 7.3 10.65 6.6 10.9 -6.55 10.9 -7.2 10.65 -7.55 10.05 -7.55 10.0 -7.35 9.3 -7.35 9.35 Q-6.65 8.25 -4.95 7.55 -3.65 6.95 -1.95 6.8 L-1.95 6.1 -8.0 6.1 -8.7 5.8 -9.0 5.1 -8.7 4.4 -4.4 0.15 -6.35 0.15 -7.05 -0.15 -7.35 -0.85 -7.05 -1.55 -3.7 -4.9 -4.0 -4.9 Q-4.4 -4.9 -4.7 -5.2 L-5.0 -5.9 -4.7 -6.6 -0.7 -10.6 0.0 -10.9" fill="#000000" fill-rule="evenodd" stroke="none"/>
      <path d="M4.0 -5.9 L1.3 -5.9 6.35 -0.85 2.0 -0.85 8.0 5.1 1.0 5.1 1.0 7.7 2.0 7.8 4.5 8.4 Q5.7 8.85 6.3 9.55 L6.6 9.9 -6.55 9.9 Q-5.95 9.05 -4.55 8.45 -3.15 7.85 -1.25 7.7 L-0.95 7.7 -0.95 5.1 -8.0 5.1 -2.0 -0.85 -6.35 -0.85 -1.3 -5.9 -4.0 -5.9 0.0 -9.9 4.0 -5.9" fill="#8cb5e6" fill-rule="evenodd" stroke="none"/>
    </g>
  </defs>
</svg>
