<?xml version="1.0" encoding="UTF-8" standalone="no"?>
<svg xmlns:xlink="http://www.w3.org/1999/xlink" height="22.8px" width="24.3px" xmlns="http://www.w3.org/2000/svg">
  <g transform="matrix(1.0, 0.0, 0.0, 1.0, 10.9, 10.9)">
    <use data-characterId="342" height="22.8" transform="matrix(1.0, 0.0, 0.0, 1.0, -10.9, -10.9)" width="24.3" xlink:href="#shape0"/>
  </g>
  <defs>
    <g id="shape0" transform="matrix(1.0, 0.0, 0.0, 1.0, 10.9, 10.9)">
      <path d="M10.2 -6.7 L10.6 -6.3 10.7 -6.2 Q13.4 -3.25 13.4 1.0 13.4 5.5 10.2 8.7 7.0 11.9 2.5 11.9 -1.75 11.9 -4.7 9.2 L-4.8 9.1 -5.2 8.7 Q-8.4 5.5 -8.4 1.0 -8.4 -3.5 -5.2 -6.7 -2.0 -9.9 2.5 -9.9 7.0 -9.9 10.2 -6.7" fill="#081a15" fill-opacity="0.49803922" fill-rule="evenodd" stroke="none"/>
      <path d="M0.0 -10.9 Q4.5 -10.9 7.7 -7.7 L8.1 -7.3 8.15 -7.25 Q10.9 -4.25 10.9 0.0 10.9 4.5 7.7 7.7 4.5 10.9 0.0 10.9 -4.25 10.9 -7.25 8.15 L-7.3 8.1 -7.7 7.7 Q-10.9 4.5 -10.9 0.0 -10.9 -4.5 -7.7 -7.7 -4.5 -10.9 0.0 -10.9" fill="#000000" fill-rule="evenodd" stroke="none"/>
      <path d="M6.85 -2.2 L6.85 2.2 2.2 2.2 2.2 6.85 -2.2 6.85 -2.2 2.2 -6.85 2.2 -6.85 -2.2 -2.2 -2.2 -2.2 -6.85 2.2 -6.85 2.2 -2.2 6.85 -2.2 M-5.4 6.2 Q-3.15 8.25 0.0 8.25 3.4 8.25 5.85 5.85 8.25 3.4 8.25 0.0 8.25 -3.15 6.2 -5.5 L5.85 -5.85 Q3.4 -8.3 0.0 -8.3 -3.4 -8.3 -5.8 -5.85 -8.25 -3.4 -8.25 0.0 -8.25 3.4 -5.8 5.85 L-5.4 6.2 M7.4 -6.6 Q9.9 -3.85 9.9 0.0 9.9 4.1 7.0 7.0 4.1 9.9 0.0 9.9 -3.85 9.9 -6.6 7.4 L-7.0 7.0 Q-9.9 4.1 -9.9 0.0 -9.9 -4.1 -7.0 -7.0 -4.1 -9.9 0.0 -9.9 4.1 -9.9 7.0 -7.0 L7.4 -6.6" fill="#8cb5e6" fill-rule="evenodd" stroke="none"/>
    </g>
  </defs>
</svg>
