<svg xmlns:xlink="http://www.w3.org/1999/xlink" height="23.3px" width="23.8px" xmlns="http://www.w3.org/2000/svg">
	<g transform="matrix(1.0, 0.0, 0.0, 1.0, 10.65, 10.9)">
		<use height="23.3" transform="matrix(1.0, 0.0, 0.0, 1.0, -10.65, -10.9)" width="23.8" xlink:href="#shape0" />
	</g>
	<defs>
		<g id="shape0" transform="matrix(1.0, 0.0, 0.0, 1.0, 10.65, 10.9)">
			<path d="M5.45 -9.4 L12.15 -9.4 Q12.55 -9.4 12.85 -9.1 L13.15 -8.4 13.15 11.4 12.85 12.1 Q12.55 12.4 12.15 12.4 L-7.15 12.4 -7.85 12.1 -8.15 11.4 -8.15 3.2 -8.05 2.75 -7.75 2.4 -3.45 -0.85 -2.75 -1.05 -2.1 -0.75 -2.1 -0.7 Q-1.85 -0.45 -1.85 -0.05 L-1.85 1.15 0.8 -0.85 1.5 -1.05 1.55 -1.05 2.15 -0.7 2.4 -0.05 2.4 1.15 4.45 -0.45 4.45 -8.4 Q4.45 -8.8 4.75 -9.1 5.05 -9.4 5.45 -9.4" fill="#081a15" fill-rule="evenodd" stroke="none" />
			<path d="M10.35 -10.6 L10.65 -9.9 10.65 9.9 10.35 10.6 9.65 10.9 -9.65 10.9 -10.35 10.6 -10.65 9.9 -10.65 1.7 -10.55 1.25 -10.25 0.9 -5.95 -2.35 -5.25 -2.55 -4.6 -2.25 -4.6 -2.2 -4.35 -1.55 -4.35 -0.35 -1.7 -2.35 -1.0 -2.55 -0.95 -2.55 -0.35 -2.2 -0.1 -1.55 -0.1 -0.35 1.95 -1.95 1.95 -9.9 Q1.95 -10.3 2.25 -10.6 L2.95 -10.9 9.65 -10.9 10.35 -10.6" fill="#000000" fill-rule="evenodd" stroke="none" />
			<path d="M5.6 0.8 L7.0 0.8 7.0 -9.9 9.65 -9.9 9.65 9.9 -9.65 9.9 -9.65 1.7 -5.35 -1.55 -5.35 1.65 -1.1 -1.55 -1.1 1.65 2.95 -1.45 2.95 -9.9 5.6 -9.9 5.6 0.8 M-0.75 7.45 L1.85 7.45 1.85 6.2 -0.75 6.2 -0.75 7.45 M-0.75 5.35 L1.85 5.35 1.85 4.1 -0.75 4.1 -0.75 5.35 M-1.7 5.35 L-1.7 4.1 -4.3 4.1 -4.3 5.35 -1.7 5.35 M-5.25 5.35 L-5.25 4.1 -7.85 4.1 -7.85 5.35 -5.25 5.35 M-7.85 7.45 L-5.25 7.45 -5.25 6.2 -7.85 6.2 -7.85 7.45 M-1.7 7.45 L-1.7 6.2 -4.3 6.2 -4.3 7.45 -1.7 7.45" fill="#8cb5e6" fill-rule="evenodd" stroke="none" />
		</g>
	</defs>
</svg>