<?xml version="1.0" encoding="UTF-8" standalone="no"?>
<svg xmlns:xlink="http://www.w3.org/1999/xlink" height="23.9px" width="24.95px" xmlns="http://www.w3.org/2000/svg">
  <g transform="matrix(1.0, 0.0, 0.0, 1.0, 10.8, 10.8)">
    <use data-characterId="287" height="23.9" transform="matrix(1.0, 0.0, 0.0, 1.0, -10.8, -10.8)" width="24.95" xlink:href="#shape0"/>
  </g>
  <defs>
    <g id="shape0" transform="matrix(1.0, 0.0, 0.0, 1.0, 10.8, 10.8)">
      <path d="M3.05 -9.1 Q7.75 -9.1 10.9 -5.8 14.15 -2.55 14.15 1.95 14.15 6.6 10.9 9.9 7.75 13.1 3.05 13.1 -1.15 13.1 -4.15 10.45 L-4.3 10.35 -4.75 9.9 Q-8.1 6.6 -8.1 1.95 L-8.0 0.85 -8.0 0.75 Q-7.4 -3.4 -4.25 -6.2 L-4.3 -6.2 Q-1.25 -9.1 3.05 -9.1 M5.85 -0.6 L5.85 -0.65 Q4.7 -1.8 3.0 -1.8 1.4 -1.8 0.25 -0.65 L0.25 -0.6 Q-0.9 0.4 -0.9 2.0 -0.9 3.75 0.25 4.85 1.4 6.0 3.0 6.0 4.7 6.0 5.85 4.85 7.0 3.75 7.0 2.0 7.0 0.4 5.85 -0.6" fill="#081a15" fill-opacity="0.2" fill-rule="evenodd" stroke="none"/>
      <path d="M5.0 0.1 Q5.0 1.85 3.75 3.1 2.5 4.35 0.75 4.35 -1.0 4.35 -2.25 3.1 -3.5 1.85 -3.5 0.1 -3.5 -1.65 -2.25 -2.9 -1.0 -4.15 0.75 -4.15 2.5 -4.15 3.75 -2.9 5.0 -1.65 5.0 0.1" fill="#000000" fill-rule="evenodd" stroke="none"/>
      <path d="M2.9 -2.75 Q4.1 -1.65 4.1 0.0 4.1 1.75 2.9 2.9 1.7 4.1 0.0 4.1 -1.65 4.1 -2.85 2.9 -4.05 1.75 -4.05 0.0 -4.05 -1.65 -2.85 -2.75 -1.65 -3.95 0.0 -3.95 1.7 -3.95 2.9 -2.75 M6.95 -0.5 L9.5 -0.7 9.5 0.3 6.95 0.5 4.55 0.3 4.55 -0.7 6.95 -0.5 M0.75 -4.3 L-0.2 -4.3 0.0 -6.75 -0.25 -9.2 0.75 -9.2 0.95 -6.75 0.75 -4.3 M0.05 -9.5 Q-3.65 -9.5 -6.25 -7.05 -8.95 -4.65 -9.45 -1.1 L-6.9 -1.35 -4.45 -1.1 -4.45 -0.1 -6.9 -0.35 -9.45 -0.1 -9.45 -1.0 -9.5 -0.05 Q-9.5 3.95 -6.65 6.75 -3.95 9.5 0.05 9.5 4.05 9.5 6.75 6.75 9.55 3.95 9.55 -0.05 9.55 -3.9 6.75 -6.7 4.05 -9.5 0.05 -9.5 M-0.85 6.95 L-0.65 4.55 0.35 4.55 0.15 6.95 0.35 9.45 -0.65 9.45 -0.85 6.95 Z" fill="none" stroke="#000000" stroke-linecap="square" stroke-linejoin="round" stroke-width="2.0"/>
      <path d="M-0.85 6.95 L-0.65 9.45 0.35 9.45 0.15 6.95 0.35 4.55 -0.65 4.55 -0.85 6.95 M0.05 -9.5 Q4.05 -9.5 6.75 -6.7 9.55 -3.9 9.55 -0.05 9.55 3.95 6.75 6.75 4.05 9.5 0.05 9.5 -3.95 9.5 -6.65 6.75 -9.5 3.95 -9.5 -0.05 L-9.45 -1.0 -9.45 -0.1 -6.9 -0.35 -4.45 -0.1 -4.45 -1.1 -6.9 -1.35 -9.45 -1.1 Q-8.95 -4.65 -6.25 -7.05 -3.65 -9.5 0.05 -9.5 M6.95 -0.5 L4.55 -0.7 4.55 0.3 6.95 0.5 9.5 0.3 9.5 -0.7 6.95 -0.5 M2.9 -2.75 Q1.7 -3.95 0.0 -3.95 -1.65 -3.95 -2.85 -2.75 -4.05 -1.65 -4.05 0.0 -4.05 1.75 -2.85 2.9 -1.65 4.1 0.0 4.1 1.7 4.1 2.9 2.9 4.1 1.75 4.1 0.0 4.1 -1.65 2.9 -2.75 M0.75 -4.3 L0.95 -6.75 0.75 -9.2 -0.25 -9.2 0.0 -6.75 -0.2 -4.3 0.75 -4.3" fill="#8cb5e6" fill-rule="evenodd" stroke="none"/>
    </g>
  </defs>
</svg>
