<?xml version="1.0" encoding="UTF-8" standalone="no"?>
<svg xmlns:xlink="http://www.w3.org/1999/xlink" height="19.9px" width="21.35px" xmlns="http://www.w3.org/2000/svg">
  <g transform="matrix(1.0, 0.0, 0.0, 1.0, 9.8, 10.05)">
    <use data-characterId="285" height="19.9" transform="matrix(1.0, 0.0, 0.0, 1.0, -9.8, -10.05)" width="21.35" xlink:href="#shape0"/>
  </g>
  <defs>
    <g id="shape0" transform="matrix(1.0, 0.0, 0.0, 1.0, 9.8, 10.05)">
      <path d="M-3.7 9.85 L-3.7 7.0 -1.95 7.0 -1.35 -1.9 -1.8 -1.9 -1.8 -4.8 -0.6 -4.8 -0.6 -6.45 -2.05 -6.45 -2.05 -4.55 -8.3 -3.75 -8.3 -7.25 -2.7 -6.55 1.7 -10.05 6.05 -6.55 11.55 -7.25 11.55 -3.75 5.35 -4.55 5.35 -6.45 4.1 -6.45 4.1 -4.8 5.3 -4.8 5.3 -1.9 4.65 -1.9 5.35 7.0 7.15 7.0 7.15 9.85 -3.7 9.85" fill="#081a15" fill-opacity="0.49803922" fill-rule="evenodd" stroke="none"/>
      <path d="M-5.2 9.85 L-5.2 7.0 -3.45 7.0 -2.85 -1.9 -3.3 -1.9 -3.3 -4.8 -2.1 -4.8 -2.1 -6.45 -3.55 -6.45 -3.55 -4.55 -9.8 -3.75 -9.8 -7.25 -4.2 -6.55 0.2 -10.05 4.55 -6.55 10.05 -7.25 10.05 -3.75 3.85 -4.55 3.85 -6.45 2.6 -6.45 2.6 -4.8 3.8 -4.8 3.8 -1.9 3.15 -1.9 3.85 7.0 5.65 7.0 5.65 9.85 -5.2 9.85" fill="#000000" fill-rule="evenodd" stroke="none"/>
      <path d="M1.65 -6.55 L1.65 -4.5 -1.2 -4.5 -1.2 -6.55 1.65 -6.55 M-2.4 -2.85 L-2.4 -3.9 2.85 -3.9 2.85 -2.85 -2.4 -2.85 M9.1 -4.85 L4.75 -5.45 4.75 -5.65 9.1 -6.2 9.1 -4.85 M-1.65 -7.4 L0.2 -8.9 2.0 -7.4 -1.65 -7.4 M-8.9 -4.85 L-8.9 -6.2 -4.5 -5.65 -4.5 -5.45 -8.9 -4.85 M-4.3 8.9 L-4.3 7.95 4.65 7.95 4.65 8.9 -4.3 8.9 M-0.9 3.95 L-0.9 7.3 -2.55 7.3 -1.85 -2.2 2.2 -2.2 2.95 7.3 1.35 7.3 1.35 3.95 Q1.35 3.45 1.0 3.1 L0.2 2.8 Q-0.3 2.8 -0.55 3.1 -0.9 3.45 -0.9 3.95" fill="#8cb5e6" fill-rule="evenodd" stroke="none"/>
    </g>
  </defs>
</svg>
