<?xml version="1.0" encoding="UTF-8" standalone="no"?>
<svg xmlns:xlink="http://www.w3.org/1999/xlink" height="21.6px" width="23.1px" xmlns="http://www.w3.org/2000/svg">
  <g transform="matrix(1.0, 0.0, 0.0, 1.0, 10.4, 10.35)">
    <use data-characterId="263" height="21.6" transform="matrix(1.0, 0.0, 0.0, 1.0, -10.4, -10.35)" width="23.1" xlink:href="#shape0"/>
  </g>
  <defs>
    <g id="shape0" transform="matrix(1.0, 0.0, 0.0, 1.0, 10.4, 10.35)">
      <path d="M0.15 -9.95 L2.0 -10.1 3.95 -9.95 Q7.15 -9.4 9.55 -7.0 12.7 -3.85 12.7 0.55 12.7 5.0 9.55 8.1 6.45 11.25 2.0 11.25 -2.4 11.25 -5.55 8.1 -8.65 5.0 -8.65 0.55 -8.65 -3.85 -5.55 -7.0 -3.15 -9.4 0.15 -9.95" fill="#081a15" fill-opacity="0.49803922" fill-rule="evenodd" stroke="none"/>
      <path d="M0.0 -10.35 L1.9 -10.2 Q5.05 -9.65 7.4 -7.3 10.45 -4.25 10.45 0.05 10.45 4.4 7.4 7.45 4.35 10.5 0.0 10.5 -4.3 10.5 -7.35 7.45 -10.4 4.4 -10.4 0.05 -10.4 -4.25 -7.35 -7.3 -5.0 -9.65 -1.85 -10.2 L0.0 -10.35" fill="#000000" fill-rule="evenodd" stroke="none"/>
      <path d="M-3.95 1.35 L-7.25 -1.0 -7.35 0.0 Q-7.35 1.6 -6.7 3.0 -6.15 4.25 -5.2 5.15 L-3.95 1.35 M-2.5 -3.35 L-1.2 -7.25 Q-2.9 -6.95 -4.35 -5.95 -5.75 -4.9 -6.55 -3.35 L-2.5 -3.35 M0.0 4.3 L-3.2 6.6 -2.9 6.75 Q-1.5 7.35 0.0 7.35 1.7 7.35 3.2 6.6 L0.0 4.3 M6.7 3.0 Q7.35 1.6 7.35 0.0 L7.3 -0.7 7.25 -1.0 4.0 1.35 5.25 5.15 6.7 3.0 M5.55 -4.85 L4.35 -5.95 4.4 -5.95 Q2.95 -6.95 1.4 -7.2 L1.35 -7.2 1.25 -7.25 2.5 -3.35 6.55 -3.35 5.55 -4.85 M5.95 -8.1 L7.55 -6.7 7.55 -6.65 Q8.8 -5.25 9.45 -3.4 L9.45 -3.1 9.4 -3.05 9.6 -2.9 9.7 -2.75 9.75 -2.6 9.85 -2.2 9.85 -2.1 9.9 -2.0 9.9 -1.85 9.95 -1.55 9.95 -1.5 10.05 0.0 Q10.05 2.35 9.0 4.5 8.1 6.25 6.65 7.65 L6.6 7.7 6.35 7.85 6.2 8.0 5.95 8.05 5.9 8.05 5.85 8.1 5.75 8.15 5.65 8.3 5.45 8.5 5.4 8.5 Q2.9 10.05 0.0 10.05 -2.4 10.05 -4.5 9.0 L-4.9 8.8 -5.0 8.75 -5.3 8.55 -5.5 8.4 -5.75 8.15 -5.85 8.1 -5.9 8.05 -6.2 7.95 -6.65 7.6 Q-8.15 6.25 -9.0 4.5 -10.05 2.35 -10.05 0.0 -10.05 -1.4 -9.65 -2.7 L-9.5 -3.0 -9.4 -3.05 -9.4 -3.1 -9.4 -3.4 Q-8.4 -6.25 -5.95 -8.1 -3.9 -9.6 -1.4 -9.95 L-0.35 -10.05 -0.1 -10.0 -0.05 -9.95 0.0 -9.9 0.05 -9.95 0.15 -10.0 0.4 -10.05 1.4 -9.95 Q3.9 -9.6 5.95 -8.1" fill="#000000" fill-rule="evenodd" stroke="none"/>
      <path d="M0.9 -7.8 L0.35 -9.5 0.35 -9.55 Q3.3 -9.4 5.65 -7.7 L7.15 -6.35 Q8.35 -5.0 8.95 -3.25 L7.15 -3.25 5.9 -5.2 4.65 -6.35 Q3.15 -7.4 1.45 -7.7 L1.05 -7.75 0.9 -7.8 M7.7 -1.5 L9.2 -2.6 9.25 -2.5 9.35 -2.1 9.4 -1.85 9.45 -1.45 9.55 0.0 Q9.55 2.25 8.55 4.25 7.7 5.95 6.3 7.25 L6.0 7.5 5.9 7.55 5.3 5.75 5.4 5.7 Q6.5 4.65 7.15 3.2 7.85 1.7 7.85 0.0 L7.8 -0.75 7.7 -1.5 M0.0 -9.4 L2.15 -2.85 8.95 -2.85 3.4 1.15 5.55 7.7 0.0 3.65 -5.55 7.7 -3.4 1.15 -8.95 -2.85 -2.15 -2.85 0.0 -9.4 M-3.1 7.2 L0.0 7.85 Q2.0 7.85 3.8 6.85 L5.3 7.95 5.15 8.05 Q2.8 9.55 0.0 9.55 -2.3 9.55 -4.3 8.55 L-4.65 8.35 -4.75 8.3 -5.05 8.1 -5.3 7.95 -3.8 6.85 -3.1 7.2 M-7.15 -3.25 L-8.95 -3.25 Q-8.0 -5.95 -5.65 -7.7 -3.3 -9.4 -0.35 -9.55 L-0.35 -9.5 -0.9 -7.8 Q-2.95 -7.55 -4.65 -6.35 -6.3 -5.1 -7.15 -3.25 M-6.35 7.2 Q-7.75 5.95 -8.55 4.25 -9.55 2.25 -9.55 0.0 -9.55 -1.35 -9.2 -2.6 L-7.7 -1.5 -7.7 -1.3 -7.85 0.0 Q-7.85 1.7 -7.15 3.2 -6.5 4.7 -5.3 5.75 L-5.9 7.55 -6.35 7.2" fill="#8cb5e6" fill-rule="evenodd" stroke="none"/>
    </g>
  </defs>
</svg>
