<?xml version="1.0" encoding="UTF-8" standalone="no"?>
<svg xmlns:xlink="http://www.w3.org/1999/xlink" height="20.4px" width="21.4px" xmlns="http://www.w3.org/2000/svg">
  <g transform="matrix(1.0, 0.0, 0.0, 1.0, 9.7, 9.7)">
    <use data-characterId="257" height="20.4" transform="matrix(1.0, 0.0, 0.0, 1.0, -9.7, -9.7)" width="21.4" xlink:href="#shape0"/>
  </g>
  <defs>
    <g id="shape0" transform="matrix(1.0, 0.0, 0.0, 1.0, 9.7, 9.7)">
      <path d="M1.65 -8.6 Q1.9 -8.8 2.25 -8.6 L11.25 -5.0 11.6 -4.75 11.65 -4.7 11.7 -4.35 11.7 -3.7 11.5 -3.15 11.05 -2.95 10.9 -2.65 10.35 -2.45 9.45 -2.45 9.45 6.8 10.0 6.8 10.55 7.05 10.75 7.55 10.75 7.8 10.9 7.9 11.1 8.4 11.1 8.5 11.5 8.7 11.7 9.2 11.7 9.95 11.5 10.5 10.95 10.7 -6.95 10.7 -7.45 10.5 -7.7 9.95 -7.7 9.2 -7.45 8.7 -7.2 8.5 -7.2 8.4 -6.95 7.9 -6.8 7.75 -6.8 7.55 -6.55 7.05 -6.05 6.8 -5.45 6.8 -5.45 -2.45 -6.45 -2.45 -6.95 -2.65 -7.15 -2.95 -7.45 -3.15 -7.7 -3.7 -7.7 -4.35 -7.55 -4.75 -7.15 -5.05 1.65 -8.6" fill="#081a15" fill-opacity="0.49803922" fill-rule="evenodd" stroke="none"/>
      <path d="M9.7 -4.7 L9.5 -4.15 Q9.3 -4.0 9.05 -3.95 L8.9 -3.65 8.35 -3.45 7.45 -3.45 7.45 5.8 8.0 5.8 8.55 6.05 8.75 6.55 8.75 6.8 8.9 6.9 9.1 7.4 9.1 7.5 9.5 7.7 9.7 8.2 9.7 8.95 9.5 9.5 8.95 9.7 -8.95 9.7 -9.45 9.5 -9.7 8.95 -9.7 8.2 -9.45 7.7 -9.2 7.5 -9.2 7.4 -8.95 6.9 -8.8 6.75 -8.8 6.55 -8.55 6.05 -8.05 5.8 -7.45 5.8 -7.45 -3.45 -8.45 -3.45 -8.95 -3.65 -9.15 -3.95 -9.45 -4.15 -9.7 -4.7 -9.7 -5.35 -9.55 -5.75 -9.2 -6.05 -0.3 -9.65 0.25 -9.65 9.25 -6.05 9.6 -5.75 9.7 -5.35 9.7 -4.7" fill="#000000" fill-rule="evenodd" stroke="none"/>
      <path d="M-6.7 -4.2 L-8.45 -4.2 -8.45 -4.7 -8.95 -4.7 -8.95 -5.35 -0.05 -8.95 8.95 -5.35 8.95 -4.7 8.35 -4.7 8.35 -4.2 6.7 -4.2 6.7 6.55 8.0 6.55 8.0 7.4 8.35 7.4 8.35 8.2 8.95 8.2 8.95 8.95 -8.95 8.95 -8.95 8.2 -8.45 8.2 -8.45 7.4 -8.05 7.4 -8.05 6.55 -6.7 6.55 -6.7 -4.2 M5.0 6.55 L5.0 -4.2 2.95 -4.2 2.95 6.55 5.0 6.55 M1.15 6.55 L1.15 -4.2 -1.1 -4.2 -1.1 6.55 1.15 6.55 M-2.95 6.55 L-2.95 -4.2 -5.05 -4.2 -5.05 6.55 -2.95 6.55" fill="#8cb5e6" fill-rule="evenodd" stroke="none"/>
    </g>
  </defs>
</svg>
