<?xml version="1.0" encoding="UTF-8" standalone="no"?>
<svg xmlns:xlink="http://www.w3.org/1999/xlink" height="22.35px" width="25.2px" xmlns="http://www.w3.org/2000/svg">
  <g transform="matrix(1.0, 0.0, 0.0, 1.0, 12.1, 10.95)">
    <use data-characterId="229" height="22.35" transform="matrix(1.0, 0.0, 0.0, 1.0, -12.1, -10.95)" width="25.2" xlink:href="#shape0"/>
  </g>
  <defs>
    <g id="shape0" transform="matrix(1.0, 0.0, 0.0, 1.0, 12.1, 10.95)">
      <path d="M-2.8 -5.5 L3.85 -5.5 Q3.7 -6.75 2.75 -7.6 1.8 -8.5 0.5 -8.5 -0.75 -8.5 -1.75 -7.6 -2.7 -6.75 -2.8 -5.5 M0.75 -10.25 L0.3 -10.25 0.3 -9.2 0.5 -9.2 0.75 -9.2 0.75 -10.25 M-0.4 -10.95 L1.45 -10.95 1.45 -9.1 Q2.55 -8.85 3.35 -8.0 4.4 -6.95 4.55 -5.5 L4.55 -3.5 9.5 -0.45 7.1 -0.45 7.4 0.45 7.4 1.5 13.1 4.55 9.85 4.55 10.05 5.35 10.05 11.4 -9.0 11.4 -9.0 5.35 -8.75 4.55 -12.1 4.55 -6.4 1.5 -6.4 0.45 -6.1 -0.45 -8.45 -0.45 -3.55 -3.5 -3.55 -5.5 -3.5 -5.5 Q-3.4 -6.95 -2.35 -8.0 -1.5 -8.85 -0.4 -9.1 L-0.4 -10.95 M6.7 0.45 Q6.7 -0.35 5.9 -0.35 L4.55 -0.35 4.55 1.55 2.65 1.55 2.65 -0.35 1.45 -0.35 1.45 1.55 -0.45 1.55 -0.45 -0.35 -1.65 -0.35 -1.65 1.55 -3.55 1.55 -3.55 -0.35 -4.9 -0.35 Q-5.7 -0.35 -5.7 0.45 L-5.7 2.4 6.7 2.4 6.7 0.45 M3.85 -4.8 L-2.85 -4.8 -2.85 -3.65 3.85 -3.65 3.85 -4.8 M-6.0 -1.15 L7.05 -1.15 4.1 -2.95 -3.1 -2.95 -6.0 -1.15 M-4.35 3.85 L-3.7 3.85 -3.7 3.15 -4.35 3.15 -4.35 3.85 M-2.85 3.85 L-2.2 3.85 -2.2 3.15 -2.85 3.15 -2.85 3.85 M-1.35 3.85 L-0.7 3.85 -0.7 3.15 -1.35 3.15 -1.35 3.85 M9.35 5.35 Q9.35 4.55 8.6 4.55 L-7.55 4.55 -8.05 4.8 -8.3 5.35 -8.3 9.2 -4.1 9.2 -3.3 5.15 -2.5 9.2 -1.45 9.2 -1.45 7.1 2.45 7.1 2.45 9.2 3.55 9.2 4.3 5.15 5.15 9.2 9.35 9.2 9.35 5.35 M-5.7 3.85 L-5.2 3.85 -5.2 3.15 -5.7 3.15 -5.7 3.85 M-9.35 3.85 L-6.4 3.85 -6.4 2.25 -9.35 3.85 M-8.3 10.7 L-7.8 10.7 -7.8 10.0 -8.3 10.0 -8.3 10.7 M-5.3 10.7 L-4.55 10.7 -4.55 10.0 -5.3 10.0 -5.3 10.7 M-6.9 10.7 L-6.15 10.7 -6.15 10.0 -6.9 10.0 -6.9 10.7 M-1.45 10.7 L-1.45 10.0 -2.05 10.0 -2.05 10.7 -1.45 10.7 M2.45 6.5 L-1.45 6.5 Q-1.45 5.95 -0.85 5.55 L0.5 5.15 1.9 5.55 Q2.45 5.95 2.45 6.5 M6.7 3.85 L6.7 3.15 6.2 3.15 6.2 3.85 6.7 3.85 M4.7 3.85 L5.35 3.85 5.35 3.15 4.7 3.15 4.7 3.85 M7.4 3.85 L10.35 3.85 7.4 2.25 7.4 3.85 M1.7 3.85 L2.35 3.85 2.35 3.15 1.7 3.15 1.7 3.85 M0.2 3.85 L0.85 3.85 0.85 3.15 0.2 3.15 0.2 3.85 M3.2 3.85 L3.85 3.85 3.85 3.15 3.2 3.15 3.2 3.85 M2.45 10.7 L3.1 10.7 3.1 10.0 2.45 10.0 2.45 10.7 M7.95 10.0 L7.2 10.0 7.2 10.7 7.95 10.7 7.95 10.0 M5.55 10.7 L6.3 10.7 6.3 10.0 5.55 10.0 5.55 10.7 M9.35 10.7 L9.35 10.0 8.8 10.0 8.8 10.7 9.35 10.7" fill="#000000" fill-rule="evenodd" stroke="none"/>
      <path d="M-1.45 10.7 L-2.05 10.7 -2.05 10.0 -1.45 10.0 -1.45 10.7 M-5.3 10.7 L-5.3 10.0 -4.55 10.0 -4.55 10.7 -5.3 10.7 M-6.9 10.7 L-6.9 10.0 -6.15 10.0 -6.15 10.7 -6.9 10.7 M-8.3 10.7 L-8.3 10.0 -7.8 10.0 -7.8 10.7 -8.3 10.7 M-9.35 3.85 L-6.4 2.25 -6.4 3.85 -9.35 3.85 M-5.7 3.85 L-5.7 3.15 -5.2 3.15 -5.2 3.85 -5.7 3.85 M-1.35 3.85 L-1.35 3.15 -0.7 3.15 -0.7 3.85 -1.35 3.85 M-2.85 3.85 L-2.85 3.15 -2.2 3.15 -2.2 3.85 -2.85 3.85 M-4.35 3.85 L-4.35 3.15 -3.7 3.15 -3.7 3.85 -4.35 3.85 M9.35 10.7 L8.8 10.7 8.8 10.0 9.35 10.0 9.35 10.7 M5.55 10.7 L5.55 10.0 6.3 10.0 6.3 10.7 5.55 10.7 M7.95 10.0 L7.95 10.7 7.2 10.7 7.2 10.0 7.95 10.0 M2.45 10.7 L2.45 10.0 3.1 10.0 3.1 10.7 2.45 10.7 M3.2 3.85 L3.2 3.15 3.85 3.15 3.85 3.85 3.2 3.85 M2.45 6.5 Q2.45 5.95 1.9 5.55 L0.5 5.15 -0.85 5.55 Q-1.45 5.95 -1.45 6.5 L2.45 6.5 M0.2 3.85 L0.2 3.15 0.85 3.15 0.85 3.85 0.2 3.85 M1.7 3.85 L1.7 3.15 2.35 3.15 2.35 3.85 1.7 3.85 M9.35 5.35 L9.35 9.2 5.15 9.2 4.3 5.15 3.55 9.2 2.45 9.2 2.45 7.1 -1.45 7.1 -1.45 9.2 -2.5 9.2 -3.3 5.15 -4.1 9.2 -8.3 9.2 -8.3 5.35 -8.05 4.8 -7.55 4.55 8.6 4.55 Q9.35 4.55 9.35 5.35 M7.4 3.85 L7.4 2.25 10.35 3.85 7.4 3.85 M6.7 3.85 L6.2 3.85 6.2 3.15 6.7 3.15 6.7 3.85 M4.7 3.85 L4.7 3.15 5.35 3.15 5.35 3.85 4.7 3.85 M-6.0 -1.15 L-3.1 -2.95 4.1 -2.95 7.05 -1.15 -6.0 -1.15 M6.7 0.45 L6.7 2.4 -5.7 2.4 -5.7 0.45 Q-5.7 -0.35 -4.9 -0.35 L-3.55 -0.35 -3.55 1.55 -1.65 1.55 -1.65 -0.35 -0.45 -0.35 -0.45 1.55 1.45 1.55 1.45 -0.35 2.65 -0.35 2.65 1.55 4.55 1.55 4.55 -0.35 5.9 -0.35 Q6.7 -0.35 6.7 0.45 M3.85 -4.8 L3.85 -3.65 -2.85 -3.65 -2.85 -4.8 3.85 -4.8 M-2.8 -5.5 Q-2.7 -6.75 -1.75 -7.6 -0.75 -8.5 0.5 -8.5 1.8 -8.5 2.75 -7.6 3.7 -6.75 3.85 -5.5 L-2.8 -5.5 M0.75 -10.25 L0.75 -9.2 0.5 -9.2 0.3 -9.2 0.3 -10.25 0.75 -10.25" fill="#8cb5e6" fill-rule="evenodd" stroke="none"/>
    </g>
  </defs>
</svg>
