<?xml version="1.0" encoding="UTF-8" standalone="no"?>
<svg xmlns:xlink="http://www.w3.org/1999/xlink" height="20.8px" width="24.8px" xmlns="http://www.w3.org/2000/svg">
  <g transform="matrix(1.0, 0.0, 0.0, 1.0, 11.4, 9.85)">
    <use data-characterId="227" height="20.8" transform="matrix(1.0, 0.0, 0.0, 1.0, -11.4, -9.85)" width="24.8" xlink:href="#shape0"/>
  </g>
  <defs>
    <g id="shape0" transform="matrix(1.0, 0.0, 0.0, 1.0, 11.4, 9.85)">
      <path d="M12.1 0.05 L10.75 0.05 10.75 10.9 7.3 10.9 7.3 4.95 1.85 0.3 -3.2 4.6 -3.2 10.95 -6.7 10.95 -6.65 0.05 -8.1 0.05 -8.1 -1.25 -9.4 -1.25 -9.4 -4.35 -6.65 -4.35 -6.65 -8.8 -3.25 -8.8 -3.2 -4.35 7.3 -4.35 7.3 -8.85 10.75 -8.85 10.75 -4.35 13.4 -4.35 13.4 -1.25 12.1 -1.25 12.1 0.05" fill="#081a15" fill-rule="evenodd" stroke="none"/>
      <path d="M8.05 -9.15 L6.0 -9.15 6.0 -6.75 8.05 -6.75 8.05 -9.15 M10.1 -0.95 L8.75 -0.95 8.75 9.9 5.3 9.9 5.3 3.95 -0.15 -0.7 -5.2 3.6 -5.2 9.95 -8.7 9.95 -8.65 -0.95 -10.1 -0.95 -10.1 -2.25 -11.4 -2.25 -11.4 -5.35 -8.65 -5.35 -8.65 -9.8 -5.25 -9.8 -5.2 -5.35 5.3 -5.35 5.3 -9.85 8.75 -9.85 8.75 -5.35 11.4 -5.35 11.4 -2.25 10.1 -2.25 10.1 -0.95 M1.75 -0.95 L0.7 -0.95 5.3 3.05 5.3 2.15 1.75 -0.95 M8.05 -6.05 L6.5 -6.05 8.05 -4.85 8.05 -6.05 M6.0 -5.55 L6.0 -3.5 7.75 -4.2 6.0 -5.55 M6.0 -2.25 L6.0 -0.3 7.65 -0.95 6.0 -2.25 M-5.2 -1.65 L5.3 -1.65 5.3 -2.25 -5.2 -2.25 -5.2 -1.65 M9.4 -1.65 L9.4 -2.25 8.75 -2.25 8.75 -1.65 9.4 -1.65 M8.05 -1.55 L8.05 -3.6 6.35 -2.9 8.05 -1.55 M-5.2 -4.65 L-5.2 -2.95 5.3 -2.95 5.3 -4.65 -5.2 -4.65 M10.7 -2.95 L10.7 -4.65 8.75 -4.65 8.75 -2.95 10.7 -2.95 M6.0 9.2 L8.05 9.2 8.05 -0.4 6.0 0.45 6.0 9.2 M-10.7 -2.95 L-8.65 -2.95 -8.65 -4.65 -10.7 -4.65 -10.7 -2.95 M-5.95 -9.1 L-7.95 -9.1 -7.95 -6.7 -5.95 -6.7 -5.95 -9.1 M-5.95 -5.55 L-7.7 -4.15 -5.9 -3.45 -5.95 -5.55 M-7.95 -6.0 L-7.95 -4.85 -6.5 -6.0 -7.95 -6.0 M-9.4 -1.65 L-8.65 -1.65 -8.65 -2.25 -9.4 -2.25 -9.4 -1.65 M-5.9 -2.25 L-7.65 -0.9 -5.9 -0.25 -5.9 -2.25 M-7.95 -1.55 L-6.25 -2.85 -7.95 -3.5 -7.95 -1.55 M-1.95 -0.95 L-5.2 1.8 -5.2 2.75 -0.9 -0.95 -1.95 -0.95 M-8.0 9.25 L-5.9 9.25 -5.9 0.5 -7.95 -0.3 -8.0 9.25" fill="#000000" fill-rule="evenodd" stroke="none"/>
      <path d="M-8.0 9.25 L-7.95 -0.3 -5.9 0.5 -5.9 9.25 -8.0 9.25 M-1.95 -0.95 L-0.9 -0.95 -5.2 2.75 -5.2 1.8 -1.95 -0.95 M-7.95 -1.55 L-7.95 -3.5 -6.25 -2.85 -7.95 -1.55 M-5.9 -2.25 L-5.9 -0.25 -7.65 -0.9 -5.9 -2.25 M-9.4 -1.65 L-9.4 -2.25 -8.65 -2.25 -8.65 -1.65 -9.4 -1.65 M-7.95 -6.0 L-6.5 -6.0 -7.95 -4.85 -7.95 -6.0 M-5.95 -5.55 L-5.9 -3.45 -7.7 -4.15 -5.95 -5.55 M-5.95 -9.1 L-5.95 -6.7 -7.95 -6.7 -7.95 -9.1 -5.95 -9.1 M-10.7 -2.95 L-10.7 -4.65 -8.65 -4.65 -8.65 -2.95 -10.7 -2.95 M6.0 9.2 L6.0 0.45 8.05 -0.4 8.05 9.2 6.0 9.2 M-5.2 -4.65 L5.3 -4.65 5.3 -2.95 -5.2 -2.95 -5.2 -4.65 M8.05 -1.55 L6.35 -2.9 8.05 -3.6 8.05 -1.55 M10.7 -2.95 L8.75 -2.95 8.75 -4.65 10.7 -4.65 10.7 -2.95 M9.4 -1.65 L8.75 -1.65 8.75 -2.25 9.4 -2.25 9.4 -1.65 M6.0 -2.25 L7.65 -0.95 6.0 -0.3 6.0 -2.25 M-5.2 -1.65 L-5.2 -2.25 5.3 -2.25 5.3 -1.65 -5.2 -1.65 M6.0 -5.55 L7.75 -4.2 6.0 -3.5 6.0 -5.55 M8.05 -6.05 L8.05 -4.85 6.5 -6.05 8.05 -6.05 M1.75 -0.95 L5.3 2.15 5.3 3.05 0.7 -0.95 1.75 -0.95 M8.05 -9.15 L8.05 -6.75 6.0 -6.75 6.0 -9.15 8.05 -9.15" fill="#8cb5e6" fill-rule="evenodd" stroke="none"/>
    </g>
  </defs>
</svg>
