<?xml version="1.0" encoding="UTF-8" standalone="no"?>
<svg xmlns:xlink="http://www.w3.org/1999/xlink" height="23.7px" width="22.9px" xmlns="http://www.w3.org/2000/svg">
  <g transform="matrix(1.0, 0.0, 0.0, 1.0, 10.45, 11.05)">
    <use data-characterId="215" height="23.7" transform="matrix(1.0, 0.0, 0.0, 1.0, -10.45, -11.05)" width="22.9" xlink:href="#shape0"/>
  </g>
  <defs>
    <g id="shape0" transform="matrix(1.0, 0.0, 0.0, 1.0, 10.45, 11.05)">
      <path d="M-0.45 0.7 L-0.7 0.2 -0.45 0.75 -0.45 0.7 M-2.4 -3.2 L-2.4 -3.15 -2.35 -3.5 -2.4 -3.2 M9.7 10.25 L9.15 9.75 9.4 10.05 9.65 10.25 9.7 10.25 M8.4 9.05 L7.95 8.85 Q8.35 9.0 8.75 9.4 L8.4 9.05 M4.15 9.05 L4.8 9.7 4.9 9.8 5.0 9.9 5.4 10.25 4.85 9.7 4.15 9.05 M1.15 10.25 L1.2 10.25 1.05 10.15 1.15 10.25 M1.65 6.8 L2.45 6.05 2.45 6.0 1.65 6.8 M2.35 -5.35 L2.35 -5.2 2.4 -5.35 2.55 -5.5 2.35 -5.35 M8.1 -9.35 Q8.75 -9.0 8.75 -8.3 8.75 -7.6 8.2 -6.8 L8.1 -6.65 8.1 -5.95 Q8.05 -4.95 7.3 -3.15 L5.85 -0.4 4.85 0.55 3.6 4.6 4.3 4.9 Q5.45 1.7 6.15 0.2 7.0 -1.7 7.75 -2.2 L8.5 -2.45 9.1 -2.45 10.6 -2.3 Q11.3 -2.0 11.4 -1.3 L12.3 3.35 12.3 3.7 Q12.3 4.55 11.55 4.85 L11.1 4.9 10.2 4.55 9.25 3.3 8.7 5.2 Q9.05 5.35 9.95 6.2 L10.1 6.35 11.25 6.35 Q11.8 6.35 12.1 6.7 12.45 7.05 12.45 7.55 L12.45 11.45 Q12.45 11.95 12.1 12.25 11.8 12.65 11.25 12.65 L9.6 12.65 Q8.5 12.65 7.5 11.65 6.6 12.65 5.35 12.65 4.3 12.65 3.3 11.65 2.4 12.65 1.15 12.65 0.1 12.65 -0.95 11.65 -1.8 12.65 -3.15 12.65 L-7.25 12.65 Q-7.75 12.65 -8.1 12.25 -8.45 11.95 -8.45 11.45 L-8.45 7.55 Q-8.45 7.1 -8.1 6.7 -7.75 6.35 -7.25 6.35 L-7.0 6.35 Q-7.5 -0.4 -6.05 -2.4 -5.7 -2.9 -5.1 -2.9 L-4.65 -2.8 -4.2 -2.45 -3.7 -4.25 -3.25 -5.5 Q-2.9 -6.2 -2.15 -6.2 L-1.8 -6.15 Q-1.35 -6.0 -1.1 -5.65 L-0.95 -4.8 -1.2 -3.1 -1.2 -2.7 -0.8 -3.4 0.15 -4.7 Q0.55 -5.15 1.05 -5.3 L1.15 -5.55 1.2 -5.6 Q1.6 -6.7 2.55 -6.7 L2.9 -6.7 Q3.55 -6.55 3.85 -6.0 4.65 -7.45 5.7 -7.9 L6.25 -8.9 Q6.6 -9.55 7.35 -9.55 L8.1 -9.35" fill="#081a15" fill-opacity="0.49803922" fill-rule="evenodd" stroke="none"/>
      <path d="M-2.95 7.25 Q-2.55 7.25 -2.1 7.55 L-1.4 8.2 -1.15 8.45 -0.85 8.75 -0.5 8.35 -0.4 8.2 -0.2 7.95 Q-0.8 7.85 -1.65 7.0 L-2.3 6.5 -2.75 6.85 -2.8 7.0 -2.95 7.25 M-1.95 -0.65 L-2.15 -0.65 -2.75 1.9 -3.25 4.6 -3.0 4.55 -2.95 4.55 Q-2.5 2.15 -1.7 -0.05 L-1.95 -0.65 M4.05 7.95 Q3.45 7.9 2.6 7.0 L2.0 6.5 Q1.7 6.5 1.5 6.85 L1.45 7.0 1.25 7.25 Q1.7 7.25 2.15 7.55 L2.8 8.2 2.9 8.3 3.0 8.4 3.4 8.75 3.75 8.35 3.85 8.2 4.05 7.95 M2.1 -1.9 L1.85 -1.85 -0.35 5.3 0.45 4.55 2.35 -1.4 2.15 -1.7 2.1 -1.9 M4.9 -7.55 L5.35 -7.7 5.7 -8.45 6.1 -9.15 6.1 -9.1 6.3 -9.05 6.05 -8.3 5.6 -7.6 5.65 -6.8 Q5.6 -5.95 4.95 -4.4 L3.65 -1.85 Q3.4 -1.45 3.0 -1.25 L2.6 -1.1 0.95 4.3 1.25 4.25 Q1.9 4.3 2.6 5.25 L2.85 5.4 4.4 1.25 Q5.75 -2.2 6.5 -2.8 L8.2 -2.65 8.35 -1.95 8.95 -1.9 9.85 2.85 9.85 2.95 9.05 1.95 9.1 2.1 9.1 2.2 8.0 0.7 7.6 0.15 6.15 4.75 7.1 5.5 7.65 6.05 9.25 6.05 9.25 6.8 10.0 6.8 10.0 7.95 8.35 7.95 Q7.75 7.95 6.8 7.0 L6.2 6.5 5.9 6.7 5.75 6.85 5.65 7.0 5.5 7.25 Q6.2 7.25 7.1 8.2 L7.4 8.55 7.65 8.75 9.25 8.75 9.25 9.5 10.0 9.5 10.0 10.65 8.35 10.65 Q7.7 10.65 6.8 9.7 L6.2 9.2 5.9 9.4 5.75 9.6 5.65 9.7 Q5.2 10.65 4.1 10.65 3.45 10.65 2.6 9.7 L2.0 9.2 Q1.85 9.2 1.65 9.35 L1.5 9.6 1.45 9.7 Q0.85 10.65 -0.1 10.65 -0.8 10.65 -1.65 9.7 L-2.3 9.2 -2.75 9.6 -2.8 9.7 Q-3.35 10.65 -4.4 10.65 L-8.5 10.65 -8.5 9.9 -9.25 9.9 -9.25 8.75 -5.15 8.75 -4.7 8.35 -4.6 8.2 -4.4 7.95 -4.55 7.95 -4.55 8.0 -8.5 8.0 -8.5 7.25 -9.25 7.25 -9.25 6.05 -7.7 6.05 -7.9 2.15 Q-8.0 -2.0 -7.1 -3.2 L-7.1 0.25 Q-6.9 -1.7 -6.35 -2.45 -6.55 -0.25 -6.1 3.5 L-5.75 6.05 -5.65 6.05 -5.45 -1.05 -4.55 -5.45 -4.15 -6.5 -4.4 -4.7 -4.5 -1.55 -3.8 -4.7 -3.4 -5.75 -3.65 -3.95 Q-3.9 0.1 -3.6 3.35 L-2.45 -0.8 Q-3.25 -1.85 -1.8 -4.25 L-1.0 -5.35 Q-0.55 -5.8 -0.1 -5.8 L0.2 -6.5 0.4 -6.85 0.65 -7.0 0.75 -6.75 0.55 -6.4 0.15 -5.75 0.25 -4.95 0.65 -5.05 0.95 -5.75 1.15 -6.1 1.4 -6.25 1.5 -6.0 1.3 -5.65 0.9 -5.0 Q1.2 -3.55 0.25 -1.55 -0.1 -0.7 -0.35 -0.45 -0.75 0.0 -1.4 0.1 L-2.0 2.65 -2.4 4.7 -2.1 4.85 -1.4 5.5 -1.35 5.6 -0.95 5.75 1.6 -2.15 1.4 -2.45 1.4 -3.2 Q2.9 -8.2 4.6 -8.45 L4.95 -9.2 5.35 -9.9 5.35 -9.85 5.55 -9.8 5.3 -9.05 4.85 -8.35 4.9 -7.55" fill="#8cb5e6" fill-rule="evenodd" stroke="none"/>
      <path d="M4.95 8.95 L5.0 8.85 5.15 8.65 5.5 8.45 6.1 8.95 Q6.95 9.9 7.6 9.9 L9.3 9.9 9.3 8.75 7.7 8.75 7.1 8.2 6.4 7.55 5.5 7.25 Q4.45 7.25 3.85 8.2 L3.8 8.35 3.4 8.75 2.85 8.2 2.15 7.55 Q1.7 7.25 1.25 7.25 0.25 7.25 -0.35 8.2 L-0.45 8.35 -0.8 8.75 -1.4 8.2 Q-2.3 7.25 -2.95 7.25 -4.0 7.25 -4.6 8.2 L-4.7 8.35 -5.1 8.75 -9.25 8.75 -9.25 9.9 -5.1 9.9 Q-4.0 9.9 -3.55 8.95 L-3.5 8.85 -3.35 8.6 -3.0 8.45 -2.4 8.95 Q-1.55 9.9 -0.85 9.9 0.2 9.9 0.7 8.95 L0.75 8.85 1.25 8.45 1.85 8.95 Q2.75 9.9 3.4 9.9 4.4 9.9 4.95 8.95 M5.4 -9.8 L5.35 -9.8 5.35 -9.85 4.95 -9.2 4.6 -8.45 Q2.9 -8.15 1.4 -3.15 1.25 -2.6 1.6 -2.15 L-0.95 5.75 -1.35 5.6 -1.4 5.5 -2.1 4.85 Q-2.55 4.55 -3.0 4.55 L-3.25 4.6 -2.75 1.9 -2.15 -0.65 Q-1.5 -0.7 -1.1 -1.2 L-0.5 -2.3 Q0.5 -4.25 0.15 -5.75 L0.55 -6.4 0.75 -6.75 0.65 -7.0 0.55 -7.0 0.35 -6.85 0.2 -6.5 -0.1 -5.8 Q-0.65 -5.75 -1.0 -5.35 L-1.8 -4.25 Q-3.25 -1.85 -2.45 -0.75 L-3.75 4.15 -3.8 4.75 -4.05 4.9 Q-4.75 0.85 -4.4 -4.65 L-4.15 -6.5 -4.55 -5.4 -5.45 -1.05 -5.65 6.05 -6.35 6.05 -6.85 2.75 Q-7.3 -1.0 -7.1 -3.2 -8.0 -2.0 -7.9 2.15 L-7.7 6.05 -9.25 6.05 -9.25 7.25 -5.35 7.25 -4.25 6.35 -2.6 6.1 Q-1.8 6.25 -0.95 7.0 L0.15 6.25 1.7 6.1 Q2.5 6.25 3.3 7.0 4.75 5.6 5.9 6.1 6.85 6.3 7.75 7.2 L9.25 7.2 9.25 6.05 7.65 6.05 7.1 5.5 Q6.2 4.55 5.5 4.55 L5.2 4.6 6.95 -0.85 8.0 0.7 9.1 2.2 9.1 2.1 8.2 -2.65 7.1 -2.75 6.5 -2.75 Q5.75 -2.2 4.4 1.25 L2.8 5.5 Q2.0 4.3 1.25 4.25 L1.15 4.25 Q0.4 4.25 -0.35 5.3 L1.85 -1.85 2.25 -2.0 2.9 -2.6 4.2 -5.15 Q4.85 -6.7 4.9 -7.55 L4.85 -8.35 5.3 -9.05 5.55 -9.75 5.4 -9.8 M6.1 -10.85 Q6.75 -10.5 6.75 -9.8 6.75 -9.1 6.2 -8.3 L6.1 -8.15 6.1 -7.45 Q6.05 -6.45 5.3 -4.65 L3.85 -1.9 2.85 -0.95 1.6 3.1 2.3 3.4 Q3.45 0.2 4.15 -1.3 5.0 -3.2 5.75 -3.7 L6.5 -3.95 7.1 -3.95 8.6 -3.8 Q9.3 -3.5 9.4 -2.8 L10.3 1.85 10.3 2.2 Q10.3 3.05 9.55 3.35 L9.1 3.4 Q8.6 3.4 8.2 3.05 L7.25 1.8 6.7 3.7 Q7.05 3.85 7.95 4.7 L8.1 4.85 9.25 4.85 Q9.8 4.85 10.1 5.2 10.45 5.55 10.45 6.05 L10.45 9.95 10.1 10.75 Q9.8 11.15 9.25 11.15 L7.6 11.15 Q6.5 11.15 5.5 10.15 4.6 11.15 3.35 11.15 2.3 11.15 1.3 10.15 0.4 11.15 -0.85 11.15 -1.9 11.15 -2.95 10.15 -3.8 11.15 -5.15 11.15 L-9.25 11.15 Q-9.75 11.15 -10.1 10.75 L-10.45 9.95 -10.45 6.05 -10.1 5.2 Q-9.75 4.85 -9.25 4.85 L-9.0 4.85 Q-9.5 -1.9 -8.05 -3.9 -7.7 -4.4 -7.1 -4.4 L-6.65 -4.3 -6.2 -3.95 -5.7 -5.75 -5.25 -7.0 Q-4.9 -7.7 -4.15 -7.7 L-3.8 -7.65 Q-3.35 -7.5 -3.1 -7.15 L-2.95 -6.3 -3.2 -4.6 -3.2 -4.2 -2.8 -4.9 -1.85 -6.2 -0.95 -6.8 -0.85 -7.05 -0.8 -7.1 Q-0.4 -8.2 0.55 -8.2 L0.9 -8.2 Q1.55 -8.05 1.85 -7.5 2.65 -8.95 3.7 -9.4 L4.25 -10.4 Q4.6 -11.05 5.35 -11.05 L6.1 -10.85" fill="#000000" fill-rule="evenodd" stroke="none"/>
    </g>
  </defs>
</svg>
