<?xml version="1.0" encoding="UTF-8" standalone="no"?>
<svg xmlns:xlink="http://www.w3.org/1999/xlink" height="25.95px" width="19.1px" xmlns="http://www.w3.org/2000/svg">
  <g transform="matrix(1.0, 0.0, 0.0, 1.0, 8.3, 12.6)">
    <use data-characterId="213" height="25.95" transform="matrix(1.0, 0.0, 0.0, 1.0, -8.3, -12.6)" width="19.1" xlink:href="#shape0"/>
  </g>
  <defs>
    <g id="shape0" transform="matrix(1.0, 0.0, 0.0, 1.0, 8.3, 12.6)">
      <path d="M0.35 -3.8 L-0.15 -2.85 1.8 -2.85 1.8 -4.6 1.85 -4.8 1.45 -4.8 Q0.9 -4.75 0.35 -3.8 M2.95 -3.8 L2.95 -3.85 2.45 -2.85 4.4 -2.85 4.4 -4.55 4.45 -4.8 4.1 -4.8 Q3.55 -4.75 2.95 -3.8 M5.9 -7.0 Q6.75 -7.2 7.5 -9.05 L8.15 -10.6 8.15 -7.35 8.1 -7.0 8.55 -7.0 Q9.35 -7.15 10.15 -9.05 L10.8 -10.5 10.8 -7.35 10.7 -6.65 10.7 -6.6 10.65 -6.6 Q10.1 -4.8 8.5 -4.8 L6.65 -4.8 Q6.1 -4.75 5.55 -3.8 L5.05 -2.85 7.9 -2.85 7.9 -2.55 Q7.9 0.05 8.4 3.15 8.85 6.3 10.5 10.7 L10.55 10.75 10.65 13.35 -5.8 13.35 -5.6 10.8 -5.6 10.7 Q-3.95 6.3 -3.45 3.15 -3.0 0.05 -2.95 -2.55 L-2.95 -2.85 -0.8 -2.85 -0.8 -4.55 -0.7 -5.2 -0.7 -5.25 Q-0.15 -7.05 1.45 -7.0 L3.3 -7.0 Q4.15 -7.15 4.95 -9.05 L5.6 -10.5 5.6 -7.35 5.55 -7.0 5.9 -7.0" fill="#081a15" fill-opacity="0.49803922" fill-rule="evenodd" stroke="none"/>
      <path d="M-2.15 -5.8 L-2.65 -4.85 -0.7 -4.85 -0.7 -6.5 -0.7 -6.6 -0.65 -6.8 -1.05 -6.8 Q-1.6 -6.75 -2.15 -5.8 M0.45 -5.8 L0.45 -5.85 -0.05 -4.85 1.9 -4.85 1.9 -6.55 1.95 -6.8 1.6 -6.8 Q1.05 -6.75 0.45 -5.8 M3.4 -9.0 Q4.25 -9.2 5.0 -11.05 L5.65 -12.6 5.65 -9.35 5.6 -9.0 6.05 -9.0 Q6.85 -9.15 7.65 -11.05 L8.3 -12.5 8.3 -9.35 8.2 -8.65 8.2 -8.6 8.15 -8.6 Q7.6 -6.8 6.0 -6.8 L4.15 -6.8 Q3.6 -6.75 3.05 -5.8 L2.55 -4.85 5.4 -4.85 5.4 -4.55 Q5.4 -1.95 5.9 1.15 6.35 4.3 8.0 8.7 L8.05 8.75 8.15 11.35 -8.3 11.35 -8.1 8.8 -8.1 8.75 -8.1 8.7 Q-6.45 4.3 -5.95 1.15 -5.5 -1.95 -5.45 -4.55 L-5.45 -4.85 -3.3 -4.85 -3.3 -6.55 -3.2 -7.2 -3.2 -7.25 Q-2.65 -9.05 -1.05 -9.0 L0.8 -9.0 Q1.65 -9.15 2.45 -11.05 L3.1 -12.5 3.1 -9.35 3.05 -9.0 3.4 -9.0" fill="#000000" fill-rule="evenodd" stroke="none"/>
      <path d="M-0.75 3.45 Q-0.75 4.25 0.0 4.25 0.75 4.25 0.75 3.45 0.75 2.7 0.0 2.7 -0.35 2.7 -0.55 3.0 L-0.75 3.45 M-4.05 3.65 L-4.05 3.9 -3.95 4.45 Q-3.6 5.95 -2.3 6.85 L-2.15 6.9 -1.95 6.9 -1.9 6.8 -0.65 4.9 -0.65 4.7 -0.75 4.6 -1.3 3.8 -1.35 3.45 -1.5 3.35 -3.95 3.5 -4.05 3.65 M-1.85 -0.2 L-1.95 -0.15 -1.95 0.0 -0.9 2.15 -0.6 2.2 -0.2 2.05 0.6 2.15 0.75 2.2 0.9 2.15 1.95 -0.05 1.9 -0.2 1.8 -0.25 0.6 -0.65 Q-0.65 -0.8 -1.7 -0.25 L-1.85 -0.2 M4.3 -3.75 Q4.3 -1.45 4.75 1.35 5.25 4.7 6.9 8.95 L6.95 10.2 -7.15 10.2 -7.0 8.95 -6.05 6.0 Q-5.15 3.2 -4.9 1.35 L-4.4 -3.75 4.3 -3.75 M4.05 3.6 L3.9 3.5 1.55 3.35 Q1.35 3.35 1.35 3.5 L1.3 3.95 0.75 4.6 0.65 4.75 0.65 4.85 0.7 4.95 1.95 6.9 2.15 7.0 2.25 6.9 3.2 6.05 Q3.95 5.15 4.05 3.85 L4.05 3.6" fill="#8cb5e6" fill-rule="evenodd" stroke="none"/>
    </g>
  </defs>
</svg>
