<?xml version="1.0" encoding="UTF-8" standalone="no"?>
<svg xmlns:xlink="http://www.w3.org/1999/xlink" height="20.2px" width="22.5px" xmlns="http://www.w3.org/2000/svg">
  <g transform="matrix(1.0, 0.0, 0.0, 1.0, 9.9, 9.55)">
    <use data-characterId="202" height="20.2" transform="matrix(1.0, 0.0, 0.0, 1.0, -9.9, -9.55)" width="22.5" xlink:href="#shape0"/>
  </g>
  <defs>
    <g id="shape0" transform="matrix(1.0, 0.0, 0.0, 1.0, 9.9, 9.55)">
      <path d="M4.55 -6.05 L4.25 -6.2 4.2 -6.2 Q3.8 -6.2 3.5 -5.6 L3.5 -5.55 3.35 -5.05 3.6 -5.1 3.65 -5.1 4.7 -5.1 4.55 -6.05 M-6.3 6.7 Q-7.7 4.6 -7.3 1.9 L-7.3 1.85 Q-7.0 -0.85 -5.25 -2.55 -4.15 -3.7 -2.8 -3.95 -1.5 -5.05 0.1 -5.1 0.15 -5.85 0.65 -6.3 L0.65 -6.25 Q3.4 -8.9 4.65 -8.5 5.95 -8.25 7.0 -5.65 L7.15 -5.3 5.65 -4.9 7.2 -4.05 Q8.9 -4.0 10.45 -2.6 L10.45 -2.55 Q12.15 -0.85 12.55 1.85 L12.55 1.9 Q12.85 4.6 11.5 6.7 10.1 8.8 7.85 9.1 L6.8 9.1 Q4.95 10.65 2.55 10.65 0.15 10.65 -1.65 9.1 L-2.65 9.1 -2.7 9.1 Q-4.95 8.8 -6.3 6.7" fill="#081a15" fill-opacity="0.49803922" fill-rule="evenodd" stroke="none"/>
      <path d="M2.05 -7.05 L1.75 -7.2 1.7 -7.2 Q1.3 -7.2 1.0 -6.6 L1.0 -6.55 0.85 -6.05 1.1 -6.1 1.15 -6.1 2.2 -6.1 2.05 -7.05 M-8.8 5.7 Q-10.2 3.6 -9.8 0.9 L-9.8 0.85 Q-9.5 -1.85 -7.75 -3.55 -6.65 -4.7 -5.3 -4.95 -4.0 -6.05 -2.4 -6.1 -2.35 -6.85 -1.85 -7.3 L-1.85 -7.25 Q0.9 -9.9 2.15 -9.5 3.45 -9.25 4.5 -6.65 L4.65 -6.3 3.15 -5.9 4.7 -5.05 Q6.4 -5.0 7.95 -3.6 L7.95 -3.55 Q9.65 -1.85 10.05 0.85 L10.05 0.9 Q10.35 3.6 9.0 5.7 7.6 7.8 5.35 8.1 L4.3 8.1 Q2.45 9.65 0.05 9.65 -2.35 9.65 -4.15 8.1 L-5.15 8.1 -5.2 8.1 Q-7.45 7.8 -8.8 5.7" fill="#000000" fill-rule="evenodd" stroke="none"/>
      <path d="M2.0 -4.4 L1.3 -5.05 3.4 -4.65 Q2.8 -4.55 2.3 -4.25 L2.1 -4.3 2.0 -4.4 M8.1 4.7 Q7.0 6.2 5.3 6.55 6.65 4.7 6.65 2.35 6.65 -0.6 4.7 -2.6 3.9 -3.45 3.0 -3.9 L3.65 -4.05 Q5.7 -4.2 7.25 -2.85 8.85 -1.45 9.05 0.75 9.3 2.95 8.1 4.7 M5.95 2.1 Q5.95 4.5 4.25 6.2 2.5 7.9 0.05 7.9 -2.4 7.9 -4.15 6.2 -5.85 4.5 -5.85 2.1 -5.85 -0.3 -4.15 -2.0 -2.4 -3.7 0.05 -3.7 2.5 -3.7 4.25 -2.0 5.95 -0.3 5.95 2.1 M4.35 2.05 L2.45 0.15 1.35 2.5 4.35 2.05 M3.9 3.75 Q2.25 4.6 -0.9 4.4 L-0.7 5.05 -2.6 5.05 -2.4 4.1 -3.9 3.5 -3.85 4.05 -3.35 5.05 -2.45 6.25 Q-1.2 7.3 0.65 7.05 L0.3 6.0 1.85 6.0 1.8 6.7 3.4 5.35 Q3.9 4.55 3.9 3.75 M1.25 3.35 L0.05 1.65 -1.0 3.35 1.25 3.35 M-7.95 4.7 Q-9.15 2.95 -8.95 0.75 -8.7 -1.45 -7.05 -2.85 -5.5 -4.2 -3.5 -4.05 L-2.85 -3.9 -4.55 -2.6 Q-6.55 -0.6 -6.55 2.35 -6.55 4.7 -5.15 6.55 -6.9 6.2 -7.95 4.7 M-2.45 -0.05 L-4.2 1.95 -1.35 2.35 -2.45 -0.05 M-3.7 -4.75 L-2.05 -5.1 -1.85 -4.35 -2.15 -4.25 Q-2.85 -4.65 -3.7 -4.75" fill="#8cb5e6" fill-rule="evenodd" stroke="none"/>
    </g>
  </defs>
</svg>
