<?xml version="1.0" encoding="UTF-8" standalone="no"?>
<svg xmlns:xlink="http://www.w3.org/1999/xlink" height="22.5px" width="23.0px" xmlns="http://www.w3.org/2000/svg">
  <g transform="matrix(1.0, 0.0, 0.0, 1.0, 10.5, 10.45)">
    <use data-characterId="186" height="22.5" transform="matrix(1.0, 0.0, 0.0, 1.0, -10.5, -10.45)" width="23.0" xlink:href="#shape0"/>
  </g>
  <defs>
    <g id="shape0" transform="matrix(1.0, 0.0, 0.0, 1.0, 10.5, 10.45)">
      <path d="M9.4 8.95 Q6.35 12.05 2.0 12.05 -2.35 12.05 -5.45 8.95 -8.5 5.9 -8.5 1.55 -8.5 -2.8 -5.45 -5.9 -2.35 -8.95 2.0 -8.95 6.35 -8.95 9.4 -5.9 12.5 -2.8 12.5 1.55 12.5 5.9 9.4 8.95" fill="#081a15" fill-opacity="0.49803922" fill-rule="evenodd" stroke="none"/>
      <path d="M7.4 7.45 Q4.35 10.55 0.0 10.55 -4.35 10.55 -7.45 7.45 -10.5 4.4 -10.5 0.05 -10.5 -4.3 -7.45 -7.4 -4.35 -10.45 0.0 -10.45 4.35 -10.45 7.4 -7.4 10.5 -4.3 10.5 0.05 10.5 4.4 7.4 7.45" fill="#000000" fill-rule="evenodd" stroke="none"/>
      <path d="M-7.45 5.9 Q-9.5 3.35 -9.5 0.05 -9.5 -3.3 -7.45 -5.8 L-1.65 0.05 -7.45 5.9 M-8.35 2.2 L-7.0 2.2 -7.0 0.1 -5.8 2.2 -4.45 2.2 -5.45 0.3 -5.55 0.1 -5.1 -0.1 Q-4.65 -0.45 -4.65 -1.05 L-4.7 -1.4 Q-5.0 -2.4 -7.0 -2.4 L-8.35 -2.4 -8.35 2.2 M-6.7 -1.65 Q-5.85 -1.65 -5.85 -1.05 L-5.85 -0.9 Q-5.95 -0.6 -6.25 -0.45 L-6.75 -0.4 -7.0 -0.4 -7.0 -1.65 -6.7 -1.65 M-5.15 7.95 L-6.0 7.3 -0.2 1.45 5.85 7.5 Q3.3 9.55 0.05 9.55 -2.9 9.55 -5.15 7.95 M-0.2 -1.4 L-6.0 -7.25 Q-3.4 -9.5 0.05 -9.5 3.3 -9.5 5.85 -7.45 L-0.2 -1.4 M7.95 -5.2 Q9.5 -2.9 9.5 0.05 9.5 1.55 9.1 2.9 L9.1 2.95 Q8.55 4.7 7.3 6.15 L1.25 0.05 7.3 -6.05 7.95 -5.2 M4.45 2.2 L5.8 2.2 5.8 0.1 7.0 2.2 8.4 2.2 7.3 0.25 7.2 0.1 7.6 -0.05 Q8.15 -0.45 8.15 -1.05 L8.1 -1.4 Q7.8 -2.4 5.8 -2.4 L4.45 -2.4 4.45 2.2 M6.1 -1.65 Q6.85 -1.65 6.85 -1.05 L6.85 -0.9 6.55 -0.5 6.05 -0.4 5.8 -0.4 5.8 -1.65 6.1 -1.65" fill="#8cb5e6" fill-rule="evenodd" stroke="none"/>
    </g>
  </defs>
</svg>
