<?xml version="1.0" encoding="UTF-8" standalone="no"?>
<svg xmlns:xlink="http://www.w3.org/1999/xlink" height="22.1px" width="22.95px" xmlns="http://www.w3.org/2000/svg">
  <g transform="matrix(1.0, 0.0, 0.0, 1.0, 9.7, 10.3)">
    <use data-characterId="176" height="22.1" transform="matrix(1.0, 0.0, 0.0, 1.0, -9.7, -10.3)" width="22.95" xlink:href="#shape0"/>
  </g>
  <defs>
    <g id="shape0" transform="matrix(1.0, 0.0, 0.0, 1.0, 9.7, 10.3)">
      <path d="M6.35 -5.2 L7.1 -5.45 7.85 -5.15 10.0 -3.55 12.4 -2.6 Q13.25 -2.3 13.25 -1.45 L13.2 3.05 12.85 3.9 12.0 4.25 8.95 4.25 8.95 10.6 8.6 11.5 7.75 11.8 -6.0 11.8 Q-6.5 11.8 -6.85 11.5 L-7.2 10.6 -7.2 4.35 Q-7.2 3.55 -6.35 3.25 -4.55 2.65 -3.2 1.85 L-1.0 0.45 0.2 -0.45 0.9 -0.65 0.9 -1.5 0.95 -1.7 -5.05 -1.7 Q-5.55 -1.7 -5.9 -2.05 -6.25 -2.4 -6.25 -2.9 L-6.25 -6.15 Q-6.25 -6.95 -5.4 -7.25 -4.5 -7.55 -3.9 -7.95 L-2.2 -9.05 -1.45 -9.3 -0.7 -9.0 0.8 -7.95 2.4 -7.25 3.05 -6.8 3.25 -6.15 3.25 -3.2 3.95 -3.6 5.5 -4.6 6.35 -5.2" fill="#000000" fill-rule="evenodd" stroke="none"/>
      <path d="M3.85 -6.2 L4.6 -6.45 5.35 -6.15 Q6.8 -4.95 7.5 -4.55 L9.9 -3.6 Q10.75 -3.3 10.75 -2.45 L10.7 2.05 10.35 2.9 Q10.0 3.25 9.5 3.25 L6.45 3.25 6.45 9.6 6.1 10.5 5.25 10.8 -8.5 10.8 -9.35 10.5 -9.7 9.6 -9.7 3.35 Q-9.7 2.55 -8.85 2.25 -7.05 1.65 -5.7 0.85 L-3.5 -0.55 -2.3 -1.45 -1.6 -1.65 -1.6 -2.5 -1.55 -2.7 -7.55 -2.7 Q-8.05 -2.7 -8.4 -3.05 -8.75 -3.4 -8.75 -3.9 L-8.75 -7.15 Q-8.75 -7.95 -7.9 -8.25 -7.0 -8.55 -6.4 -8.95 L-4.7 -10.05 -3.95 -10.3 -3.2 -10.0 -1.7 -8.95 -0.1 -8.25 0.55 -7.8 0.75 -7.15 0.75 -4.2 1.45 -4.6 3.0 -5.6 3.85 -6.2" fill="#000000" fill-rule="evenodd" stroke="none"/>
      <path d="M-3.0 9.6 L-8.5 9.6 -8.5 3.35 Q-6.55 2.75 -5.1 1.85 L-2.8 0.4 -1.6 -0.45 -0.4 0.5 -0.4 -2.5 Q1.0 -2.95 2.05 -3.55 L4.6 -5.25 5.35 -4.6 6.95 -3.55 Q7.95 -2.95 9.55 -2.5 L9.5 2.0 5.55 2.0 5.55 -1.15 3.55 -1.15 3.55 2.0 1.9 2.0 3.55 2.75 5.25 3.35 5.25 9.6 -0.2 9.6 -0.2 5.25 -3.0 5.25 -3.0 9.6 M-4.7 -3.9 L-7.55 -3.9 -7.55 -7.15 Q-6.5 -7.45 -5.75 -7.9 L-3.95 -9.1 -3.4 -8.65 -2.3 -7.9 -0.45 -7.15 -0.45 -3.9 -3.3 -3.9 -3.3 -6.15 -4.7 -6.15 -4.7 -3.9" fill="#8cb5e6" fill-rule="evenodd" stroke="none"/>
    </g>
  </defs>
</svg>
