<?xml version="1.0" encoding="UTF-8" standalone="no"?>
<svg xmlns:xlink="http://www.w3.org/1999/xlink" height="19.15px" width="24.6px" xmlns="http://www.w3.org/2000/svg">
  <g transform="matrix(1.0, 0.0, 0.0, 1.0, 10.95, 8.55)">
    <use data-characterId="83" height="19.15" transform="matrix(1.0, 0.0, 0.0, 1.0, -10.95, -8.55)" width="24.6" xlink:href="#shape0"/>
  </g>
  <defs>
    <g id="shape0" transform="matrix(1.0, 0.0, 0.0, 1.0, 10.95, 8.55)">
      <path d="M13.65 -3.75 L13.65 10.6 -9.7 10.6 -9.7 -3.75 -4.1 -3.75 2.0 -7.25 8.05 -3.75 13.65 -3.75" fill="#081a15" fill-rule="evenodd" stroke="none"/>
      <path d="M6.85 3.55 L-5.45 3.55 -5.45 8.7 -4.25 8.7 -4.25 5.85 -4.2 5.85 Q-4.2 5.35 -3.8 5.0 -3.45 4.65 -2.95 4.65 -2.4 4.65 -2.05 5.0 -1.7 5.35 -1.7 5.85 L-1.65 5.85 -1.65 8.7 -0.65 8.7 -0.65 5.85 -0.6 5.85 Q-0.6 5.35 -0.15 5.0 0.15 4.65 0.65 4.65 1.2 4.65 1.55 5.0 1.95 5.35 1.95 5.85 L2.0 5.85 2.0 8.7 3.0 8.7 3.0 5.85 Q3.05 5.35 3.4 5.0 3.75 4.65 4.25 4.65 4.8 4.65 5.2 5.0 5.55 5.35 5.55 5.85 L5.55 8.7 6.85 8.7 6.85 3.55 M6.05 1.8 L6.05 0.05 7.8 0.05 7.8 1.8 6.05 1.8 M8.85 7.9 L8.85 6.1 Q8.85 5.7 9.1 5.5 9.35 5.2 9.7 5.2 10.05 5.2 10.3 5.5 L10.6 6.1 10.6 7.9 8.85 7.9 M11.7 4.5 L7.4 4.5 7.4 8.65 11.7 8.65 11.7 4.5 M8.85 1.8 L8.85 0.05 10.6 0.0 10.6 1.75 8.85 1.8 M12.3 -5.0 L12.3 9.3 -10.95 9.3 -10.95 -5.0 -5.4 -5.0 0.65 -8.55 6.8 -5.0 12.3 -5.0 M8.85 -1.2 L8.85 -2.9 10.6 -2.9 10.6 -1.2 8.85 -1.2 M11.7 -4.45 L5.7 -4.45 5.7 -3.45 5.05 -3.45 5.05 2.95 7.4 2.95 7.4 3.9 11.7 3.9 11.7 -4.45 M6.05 -1.2 L6.05 -2.9 7.8 -2.9 7.8 -1.2 6.05 -1.2 M5.05 -4.05 L5.05 -5.0 -3.75 -5.0 -3.75 -4.05 5.05 -4.05 M0.15 -3.45 L0.15 2.95 1.15 2.95 1.15 -3.45 0.15 -3.45 M4.45 -3.45 L3.5 -3.45 3.5 2.95 4.45 2.95 4.45 -3.45 M1.75 -3.45 L1.75 2.95 2.85 2.95 2.85 -3.45 1.75 -3.45 M0.65 -7.85 L-3.15 -5.6 -3.25 -5.55 4.6 -5.55 4.55 -5.6 0.65 -7.85 M-7.45 -1.2 L-9.2 -1.2 -9.2 -2.9 -7.45 -2.9 -7.45 -1.2 M-4.65 -1.2 L-6.4 -1.2 -6.4 -2.9 -4.65 -2.9 -4.65 -1.2 M-2.25 -3.45 L-3.1 -3.45 -3.1 2.95 -2.25 2.95 -2.25 -3.45 M-1.65 -3.45 L-1.65 2.95 -0.45 2.95 -0.45 -3.45 -1.65 -3.45 M-10.35 -4.45 L-10.35 3.9 -6.05 3.9 -6.05 2.95 -3.75 2.95 -3.75 -3.45 -4.35 -3.45 -4.35 -4.45 -10.35 -4.45 M-4.65 1.75 L-6.4 1.75 -6.4 0.0 -4.65 0.0 -4.65 1.75 M-7.45 1.75 L-9.2 1.75 -9.2 0.0 -7.45 0.0 -7.45 1.75 M-7.45 7.9 L-9.2 7.9 -9.2 6.1 -8.9 5.5 Q-8.65 5.2 -8.3 5.2 -8.0 5.2 -7.7 5.5 -7.45 5.7 -7.45 6.1 L-7.45 7.9 M-10.35 8.65 L-6.05 8.65 -6.05 4.5 -10.35 4.5 -10.35 8.65" fill="#000000" fill-rule="evenodd" stroke="none"/>
      <path d="M0.65 -7.85 L4.55 -5.6 4.6 -5.55 -3.25 -5.55 -3.15 -5.6 0.65 -7.85 M1.75 -3.45 L2.85 -3.45 2.85 2.95 1.75 2.95 1.75 -3.45 M4.45 -3.45 L4.45 2.95 3.5 2.95 3.5 -3.45 4.45 -3.45 M0.15 -3.45 L1.15 -3.45 1.15 2.95 0.15 2.95 0.15 -3.45 M5.05 -4.05 L-3.75 -4.05 -3.75 -5.0 5.05 -5.0 5.05 -4.05 M6.05 -1.2 L7.8 -1.2 7.8 -2.9 6.05 -2.9 6.05 -1.2 M11.7 -4.45 L11.7 3.9 7.4 3.9 7.4 2.95 5.05 2.95 5.05 -3.45 5.7 -3.45 5.7 -4.45 11.7 -4.45 M8.85 -1.2 L10.6 -1.2 10.6 -2.9 8.85 -2.9 8.85 -1.2 M8.85 1.8 L10.6 1.75 10.6 0.0 8.85 0.05 8.85 1.8 M8.85 7.9 L10.6 7.9 10.6 6.1 10.3 5.5 Q10.05 5.2 9.7 5.2 9.35 5.2 9.1 5.5 8.85 5.7 8.85 6.1 L8.85 7.9 M11.7 4.5 L11.7 8.65 7.4 8.65 7.4 4.5 11.7 4.5 M6.05 1.8 L7.8 1.8 7.8 0.05 6.05 0.05 6.05 1.8 M6.85 3.55 L6.85 8.7 5.55 8.7 5.55 5.85 Q5.55 5.35 5.2 5.0 4.8 4.65 4.25 4.65 3.75 4.65 3.4 5.0 3.05 5.35 3.0 5.85 L3.0 8.7 2.0 8.7 2.0 5.85 1.95 5.85 Q1.95 5.35 1.55 5.0 1.2 4.65 0.65 4.65 0.15 4.65 -0.15 5.0 -0.6 5.35 -0.6 5.85 L-0.65 5.85 -0.65 8.7 -1.65 8.7 -1.65 5.85 -1.7 5.85 Q-1.7 5.35 -2.05 5.0 -2.4 4.65 -2.95 4.65 -3.45 4.65 -3.8 5.0 -4.2 5.35 -4.2 5.85 L-4.25 5.85 -4.25 8.7 -5.45 8.7 -5.45 3.55 6.85 3.55 M-4.65 -1.2 L-4.65 -2.9 -6.4 -2.9 -6.4 -1.2 -4.65 -1.2 M-7.45 -1.2 L-7.45 -2.9 -9.2 -2.9 -9.2 -1.2 -7.45 -1.2 M-2.25 -3.45 L-2.25 2.95 -3.1 2.95 -3.1 -3.45 -2.25 -3.45 M-10.35 -4.45 L-4.35 -4.45 -4.35 -3.45 -3.75 -3.45 -3.75 2.95 -6.05 2.95 -6.05 3.9 -10.35 3.9 -10.35 -4.45 M-1.65 -3.45 L-0.45 -3.45 -0.45 2.95 -1.65 2.95 -1.65 -3.45 M-7.45 7.9 L-7.45 6.1 Q-7.45 5.7 -7.7 5.5 -8.0 5.2 -8.3 5.2 -8.65 5.2 -8.9 5.5 L-9.2 6.1 -9.2 7.9 -7.45 7.9 M-7.45 1.75 L-7.45 0.0 -9.2 0.0 -9.2 1.75 -7.45 1.75 M-4.65 1.75 L-4.65 0.0 -6.4 0.0 -6.4 1.75 -4.65 1.75 M-10.35 8.65 L-10.35 4.5 -6.05 4.5 -6.05 8.65 -10.35 8.65" fill="#8cb5e6" fill-rule="evenodd" stroke="none"/>
    </g>
  </defs>
</svg>
