<?xml version="1.0" encoding="UTF-8" standalone="no"?>
<svg xmlns:xlink="http://www.w3.org/1999/xlink" height="20.65px" width="22.45px" xmlns="http://www.w3.org/2000/svg">
  <g transform="matrix(1.0, 0.0, 0.0, 1.0, 10.0, 9.65)">
    <use data-characterId="81" height="20.65" transform="matrix(1.0, 0.0, 0.0, 1.0, -10.0, -9.65)" width="22.45" xlink:href="#shape0"/>
  </g>
  <defs>
    <g id="shape0" transform="matrix(1.0, 0.0, 0.0, 1.0, 10.0, 9.65)">
      <path d="M-0.85 -6.6 L-0.85 -5.35 0.25 -6.4 0.2 -6.45 2.4 -8.65 4.55 -6.55 4.55 -6.5 12.45 1.35 10.5 3.25 10.5 11.0 6.75 11.0 6.75 9.3 -1.85 9.3 -1.85 11.0 -5.6 11.0 -5.6 3.2 -7.5 1.25 -4.6 -1.6 -4.6 -6.6 -0.85 -6.6" fill="#081a15" fill-rule="evenodd" stroke="none"/>
      <path d="M-3.35 -7.6 L-3.35 -6.35 -2.25 -7.4 -2.3 -7.45 -0.1 -9.65 2.05 -7.55 2.05 -7.5 9.95 0.35 8.0 2.25 8.0 10.0 4.25 10.0 4.25 8.3 -4.35 8.3 -4.35 10.0 -8.1 10.0 -8.1 2.2 -10.0 0.25 -7.1 -2.6 -7.1 -7.6 -3.35 -7.6" fill="#000000" fill-rule="evenodd" stroke="none"/>
      <path d="M4.55 7.3 L2.75 7.3 2.75 -2.85 4.55 -1.05 4.55 7.3 M2.05 -3.55 L2.05 1.75 0.25 1.75 0.25 -5.35 2.05 -3.55 M7.0 9.0 L5.2 9.0 5.2 -0.35 7.0 1.45 7.0 9.0 M-0.1 -8.3 L8.5 0.35 7.65 1.2 -0.95 -7.45 -0.1 -8.3 M-4.35 -6.65 L-4.35 -4.95 -6.15 -3.15 -6.15 -6.65 -4.35 -6.65 M-7.8 1.1 L-8.65 0.25 -1.4 -7.0 -0.55 -6.15 -7.8 1.1 M-0.45 -5.35 L-0.45 1.75 -2.25 1.75 -2.25 -3.55 -0.45 -5.35 M-2.9 7.3 L-4.7 7.3 -4.7 -1.1 -2.9 -2.85 -2.9 7.3 M-5.35 9.0 L-7.15 9.0 -7.15 1.4 -5.35 -0.4 -5.35 9.0" fill="#8cb5e6" fill-rule="evenodd" stroke="none"/>
    </g>
  </defs>
</svg>
