<svg xmlns:xlink="http://www.w3.org/1999/xlink" height="42.9px" width="22.85px" xmlns="http://www.w3.org/2000/svg">
	<g transform="matrix(1.0, 0.0, 0.0, 1.0, -0.9, -7.1)">
		<use height="42.9" transform="matrix(1.0, 0.0, 0.0, 1.0, 0.9, 7.1)" width="22.85" xlink:href="#shape0"/>
	</g>
	<defs>
		<g id="shape0" transform="matrix(1.0, 0.0, 0.0, 1.0, -0.9, -7.1)">
			<path d="M6.65 7.1 L18.15 7.1 18.2 18.5 14.1 18.5 14.2 22.0 10.75 22.0 10.65 18.5 6.6 18.5 6.65 7.1" fill="#f5cb5b" fill-opacity="0.49803922" fill-rule="evenodd" stroke="none"/>
			<path d="M7.45 7.75 L17.55 7.75 17.6 17.9 13.25 17.9 13.25 22.4 11.55 22.4 11.55 17.9 7.4 17.9 7.45 7.75 M9.8 10.25 L15.15 10.2 15.15 15.5 9.8 15.45 9.8 10.25 M8.65 9.0 L8.6 16.85 16.45 16.85 16.45 8.95 8.65 9.0" fill="#ffffcb" fill-rule="evenodd" stroke="none"/>
			<path d="M14.65 10.7 L10.3 10.75 10.3 14.95 14.65 15.0 14.65 10.7 M15.65 9.7 L15.65 16.0 9.3 15.95 9.3 9.75 15.65 9.7" fill="#f5cb5b" fill-opacity="0.49803922" fill-rule="evenodd" stroke="none"/>
			<path d="M5.8 25.7 L18.8 25.7 18.8 32.05 5.8 32.05 5.8 25.7 M17.55 35.4 Q18.2 35.4 18.6 35.85 19.05 36.25 19.05 36.9 L18.6 38.0 Q18.2 38.4 17.55 38.4 16.95 38.4 16.5 38.0 16.05 37.5 16.05 36.9 16.05 36.25 16.5 35.85 16.95 35.4 17.55 35.4 M16.75 27.8 L7.9 27.8 7.9 29.95 16.75 29.95 16.75 27.8 M23.1 21.05 L23.1 49.35 1.55 49.35 1.55 21.05 23.1 21.05 M21.0 47.3 L21.0 23.2 3.6 23.2 3.6 47.3 21.0 47.3" fill="#ffffcb" fill-rule="evenodd" stroke="none"/>
			<path d="M5.8 25.7 L5.8 32.05 18.8 32.05 18.8 25.7 5.8 25.7 M16.75 27.8 L16.75 29.95 7.9 29.95 7.9 27.8 16.75 27.8 M21.0 47.3 L3.6 47.3 3.6 23.2 21.0 23.2 21.0 47.3" fill="none" stroke="#f5cb5b" stroke-linecap="square" stroke-linejoin="round" stroke-opacity="0.29803923" stroke-width="1.0"/>
			<path d="M23.1 21.05 L1.55 21.05 1.55 49.35 23.1 49.35 23.1 21.05" fill="none" stroke="#f5cb5b" stroke-linecap="square" stroke-linejoin="round" stroke-opacity="0.49803922" stroke-width="1.0"/>
			<path d="M17.55 35.4 Q16.95 35.4 16.5 35.85 16.05 36.25 16.05 36.9 16.05 37.5 16.5 38.0 16.95 38.4 17.55 38.4 18.2 38.4 18.6 38.0 L19.05 36.9 Q19.05 36.25 18.6 35.85 18.2 35.4 17.55 35.4 Z" fill="none" stroke="#f5cb5b" stroke-linecap="round" stroke-linejoin="round" stroke-opacity="0.49803922" stroke-width="1.0"/>
		</g>
	</defs>
</svg>