<?xml version="1.0" encoding="UTF-8" standalone="no"?>
<svg xmlns:xlink="http://www.w3.org/1999/xlink" height="23.75px" width="23.5px" xmlns="http://www.w3.org/2000/svg">
  <g transform="matrix(1.0, 0.0, 0.0, 1.0, 11.7, 11.7)">
    <use data-characterId="419" height="23.75" transform="matrix(1.0, 0.0, 0.0, 1.0, -11.7, -11.7)" width="23.5" xlink:href="#shape0"/>
  </g>
  <defs>
    <g id="shape0" transform="matrix(1.0, 0.0, 0.0, 1.0, 11.7, 11.7)">
      <path d="M7.85 -9.9 Q8.5 -10.45 9.4 -10.45 10.25 -10.6 11.05 -9.9 L11.25 -9.8 11.25 -9.7 Q11.8 -9.0 11.8 -8.15 11.8 -7.15 11.1 -6.4 L11.05 -6.4 Q10.25 -5.7 9.4 -5.7 8.4 -5.75 7.85 -6.25 L6.3 -6.25 6.3 -4.1 7.05 -4.05 7.55 -4.15 7.8 -3.55 Q8.3 -2.55 9.35 -2.25 L10.6 -1.9 9.1 -0.4 Q8.05 0.55 8.05 1.85 8.05 3.1 8.9 4.6 9.85 6.45 8.9 7.95 L7.8 9.1 7.65 9.1 Q5.65 10.7 2.0 11.8 L1.9 11.85 1.85 11.85 0.6 12.05 0.35 12.05 -0.95 11.85 -1.0 11.85 -1.05 11.8 Q-4.8 10.7 -6.85 8.95 L-7.9 7.95 -7.9 7.8 Q-8.9 6.35 -7.85 4.6 L-7.9 4.6 Q-7.15 3.1 -7.05 1.9 -7.1 0.55 -8.1 -0.4 L-8.15 -0.4 -9.5 -1.9 -8.25 -2.25 -8.3 -2.25 Q-7.35 -2.55 -6.85 -3.55 L-6.85 -3.65 -6.65 -4.15 -5.95 -4.05 -5.4 -4.05 -5.4 -4.1 -5.2 -4.15 -5.2 -6.25 -7.7 -6.25 -7.7 -4.5 -11.7 -4.5 -11.7 -11.7 -7.7 -11.7 -7.7 -9.9 7.85 -9.9" fill="#081a15" fill-opacity="0.49803922" fill-rule="evenodd" stroke="none"/>
      <path d="M8.15 -9.15 Q8.9 -9.25 9.6 -8.65 L9.75 -8.55 9.75 -8.5 Q10.25 -7.85 10.25 -7.15 10.25 -6.25 9.65 -5.6 L9.6 -5.6 Q8.9 -5.0 8.15 -5.0 7.3 -5.05 6.8 -5.5 L5.45 -5.5 5.45 -3.6 6.1 -3.55 6.55 -3.65 6.75 -3.15 Q7.2 -2.25 8.1 -2.0 L9.2 -1.7 7.9 -0.4 Q7.0 0.45 7.0 1.55 7.0 2.65 7.7 3.95 8.55 5.55 7.7 6.85 L7.6 6.95 6.75 7.85 6.65 7.85 Q4.9 9.25 1.7 10.2 L1.65 10.25 1.6 10.25 0.5 10.45 0.3 10.45 -0.85 10.25 -0.9 10.25 -0.95 10.2 Q-4.2 9.25 -6.0 7.75 L-6.9 6.85 -6.9 6.75 Q-7.75 5.5 -6.85 3.95 L-6.9 3.95 Q-6.25 2.65 -6.15 1.6 -6.2 0.45 -7.05 -0.4 L-7.1 -0.4 -8.3 -1.7 -7.2 -2.0 -7.25 -2.0 Q-6.4 -2.25 -6.0 -3.15 L-6.0 -3.2 -5.8 -3.65 -5.2 -3.55 -4.7 -3.55 -4.7 -3.6 -4.55 -3.65 -4.55 -5.5 -6.7 -5.5 -6.7 -3.95 -10.2 -3.95 -10.2 -10.2 -6.7 -10.2 -6.7 -8.65 6.8 -8.65 Q7.35 -9.15 8.15 -9.15" fill="#000000" fill-rule="evenodd" stroke="none"/>
      <path d="M7.3 -7.85 Q7.6 -8.25 8.15 -8.2 L8.9 -7.9 8.95 -7.9 9.25 -7.15 8.95 -6.35 8.9 -6.3 8.15 -6.0 Q7.6 -6.0 7.3 -6.4 L7.2 -6.5 -7.7 -6.5 -7.7 -4.95 -9.25 -4.95 -9.25 -9.25 -7.7 -9.25 -7.7 -7.7 7.2 -7.7 7.3 -7.85 M7.2 -1.1 Q6.05 0.0 6.0 1.55 5.95 2.8 6.85 4.4 7.35 5.4 6.85 6.25 L6.1 7.05 6.15 7.0 Q4.5 8.35 1.4 9.25 L1.45 9.25 0.4 9.45 -0.7 9.25 -0.65 9.25 Q-3.75 8.35 -5.4 7.0 L-5.35 7.05 -6.1 6.25 Q-6.6 5.4 -6.05 4.4 -5.2 2.8 -5.2 1.55 -5.3 0.05 -6.4 -1.1 L-6.5 -1.25 Q-5.65 -1.65 -5.2 -2.55 -4.65 -2.5 -4.1 -2.8 -3.55 -3.1 -3.05 -3.75 L-3.1 -3.7 -2.3 -4.65 -2.3 -4.7 -2.0 -4.75 2.75 -4.75 3.05 -4.7 3.85 -3.75 Q4.35 -3.05 5.0 -2.75 L5.95 -2.6 Q6.45 -1.6 7.3 -1.25 L7.2 -1.1 M3.45 1.6 L2.9 2.3 1.8 1.3 1.15 0.6 1.05 -0.15 1.5 -0.65 1.85 -0.75 Q2.75 -0.75 3.25 0.3 3.6 1.0 3.45 1.6 M3.9 0.0 Q3.15 -1.4 1.85 -1.4 L1.2 -1.25 1.05 -1.2 1.45 -2.25 1.55 -2.6 -1.5 -2.6 -1.4 -2.25 Q-0.7 -1.05 -1.1 0.6 L-1.75 1.3 -3.25 3.0 Q-3.6 3.95 -3.15 4.85 -2.65 5.95 -1.15 7.05 L0.05 7.2 1.2 7.05 Q2.7 5.95 3.2 4.85 3.7 4.0 3.3 3.0 L3.25 2.9 Q3.95 2.55 4.1 1.7 4.3 0.85 3.9 0.0" fill="#8cb5e6" fill-rule="evenodd" stroke="none"/>
    </g>
  </defs>
</svg>
