<?xml version="1.0" encoding="UTF-8" standalone="no"?>
<svg xmlns:xlink="http://www.w3.org/1999/xlink" height="22.3px" width="29.1px" xmlns="http://www.w3.org/2000/svg">
  <g transform="matrix(1.0, 0.0, 0.0, 1.0, 14.25, 10.85)">
    <use data-characterId="415" height="22.3" transform="matrix(1.0, 0.0, 0.0, 1.0, -14.25, -10.85)" width="29.1" xlink:href="#shape0"/>
  </g>
  <defs>
    <g id="shape0" transform="matrix(1.0, 0.0, 0.0, 1.0, 14.25, 10.85)">
      <path d="M6.1 -5.6 Q6.65 -5.6 10.7 -7.35 L12.15 -7.65 13.65 -7.95 Q14.5 -7.95 14.85 -7.15 14.6 -5.85 13.8 -4.85 13.05 -3.9 11.6 -3.05 L12.1 -2.4 12.3 -1.45 12.0 -0.25 Q11.55 0.6 10.6 0.6 L9.35 0.3 Q8.75 0.0 8.45 -0.45 8.6 0.3 8.25 0.65 L7.85 0.25 Q7.65 -0.1 7.25 -0.1 6.65 -0.1 6.7 2.5 6.85 5.05 4.9 5.05 4.2 5.05 3.95 4.5 L3.65 3.45 3.1 3.8 2.95 3.95 Q3.6 5.95 3.6 7.6 3.6 8.55 0.7 11.45 L-0.05 10.95 -0.85 10.4 Q-1.8 10.4 -2.1 10.0 -2.45 9.4 -2.0 7.3 -1.55 5.05 -2.95 3.5 -4.05 2.3 -4.6 2.3 L-7.3 2.65 Q-8.05 2.55 -8.9 0.4 L-8.0 -0.45 -11.35 -2.9 Q-12.75 -4.1 -12.75 -5.0 -12.75 -5.4 -12.3 -5.4 -11.9 -5.4 -11.9 -5.85 -11.9 -6.7 -12.35 -7.55 L-12.9 -8.75 -12.6 -9.45 -12.1 -9.6 -10.8 -8.15 Q-9.55 -6.6 -8.25 -6.1 L-5.4 -5.1 -4.95 -5.05 Q-3.25 -4.4 -2.25 -4.65 L-0.55 -2.75 Q-0.6 -4.85 0.2 -5.75 0.6 -6.2 1.05 -6.2 L1.6 -6.2 1.75 -6.0 2.35 -4.2 2.65 -2.85 3.3 -4.35 4.7 -5.1 Q5.65 -5.6 6.1 -5.6" fill="#081a15" fill-rule="evenodd" stroke="none"/>
      <path d="M4.85 -6.85 Q5.35 -6.85 9.4 -8.6 L10.9 -8.9 12.35 -9.25 Q13.25 -9.25 13.6 -8.45 13.3 -7.1 12.5 -6.15 11.75 -5.2 10.35 -4.35 L10.85 -3.65 11.05 -2.75 10.75 -1.55 Q10.25 -0.7 9.35 -0.7 7.8 -0.7 7.35 -1.4 L7.25 -0.9 7.0 -0.65 5.95 -0.75 Q5.35 -0.75 5.45 1.55 5.55 3.8 3.6 3.8 2.9 3.8 2.7 3.35 L2.35 2.45 1.7 2.7 Q2.35 4.7 2.35 6.3 2.35 7.3 -0.6 10.2 L-1.5 9.8 -2.2 9.65 Q-3.95 9.1 -3.3 6.0 -2.8 3.8 -4.25 2.4 L-5.85 1.35 -8.6 1.55 Q-9.25 1.35 -10.2 -0.85 L-9.25 -1.75 -12.6 -4.2 Q-14.0 -5.35 -14.0 -6.25 -14.0 -6.7 -13.6 -6.45 -13.25 -6.2 -13.25 -6.6 L-13.7 -7.2 Q-14.1 -7.8 -14.25 -9.5 L-13.9 -10.5 -13.35 -10.85 -12.05 -9.4 Q-10.8 -7.9 -9.5 -7.4 L-6.65 -6.4 -6.25 -6.35 Q-4.5 -5.65 -3.55 -5.95 L-1.8 -4.05 Q-1.85 -6.15 -1.1 -7.05 -0.65 -7.5 -0.2 -7.5 L0.35 -7.45 0.45 -7.3 1.05 -5.5 1.35 -4.15 2.05 -5.65 3.4 -6.4 4.85 -6.85" fill="#000000" fill-rule="evenodd" stroke="none"/>
      <path d="M11.5 -7.05 L12.3 -7.7 13.05 -8.3 12.6 -7.7 12.3 -7.35 12.3 -7.3 12.4 -7.35 12.25 -7.15 11.9 -6.5 Q10.9 -5.45 10.15 -5.45 L10.15 -5.4 10.2 -5.4 10.3 -5.35 10.35 -5.3 9.9 -5.1 9.5 -4.9 8.95 -4.75 8.8 -4.55 8.65 -4.5 8.55 -4.45 8.75 -4.35 8.75 -4.25 8.9 -4.35 9.0 -4.45 9.0 -4.35 9.0 -4.25 8.9 -4.1 8.75 -3.8 8.75 -3.7 8.8 -3.65 Q8.8 -3.45 8.95 -3.35 L9.4 -3.35 9.35 -3.25 10.15 -3.15 10.2 -3.15 10.05 -3.05 9.9 -3.05 9.35 -3.05 Q9.45 -2.95 9.65 -2.9 L10.05 -3.0 10.15 -2.9 10.1 -2.75 9.8 -2.55 9.7 -2.55 9.7 -2.5 9.75 -2.5 9.9 -2.55 10.2 -2.65 10.3 -2.7 10.0 -2.45 9.7 -2.35 9.4 -2.4 9.15 -2.5 9.1 -2.5 9.05 -2.4 9.1 -2.2 9.15 -2.2 9.15 -2.15 9.1 -2.1 9.25 -2.1 9.55 -2.1 9.85 -2.2 9.95 -2.2 9.8 -2.05 9.8 -1.9 9.7 -1.9 9.65 -1.95 9.5 -1.9 9.35 -1.9 8.6 -2.1 7.9 -2.5 7.8 -2.5 8.35 -1.9 Q8.75 -1.6 9.2 -1.6 L9.55 -1.7 9.9 -1.9 9.9 -1.85 9.6 -1.6 8.95 -1.5 8.4 -1.7 7.85 -2.1 7.95 -2.1 7.8 -2.2 7.6 -2.35 7.85 -1.95 7.85 -1.9 7.4 -2.3 7.35 -2.3 7.3 -2.25 7.15 -2.2 7.05 -2.2 7.1 -2.0 7.15 -1.85 Q6.9 -1.95 6.8 -2.1 L6.8 -1.85 6.8 -1.65 6.8 -1.45 6.65 -1.4 6.65 -1.5 6.65 -1.55 Q6.5 -1.6 6.45 -1.85 L6.4 -2.1 6.2 -1.85 6.2 -1.7 6.3 -1.5 6.4 -1.3 6.35 -1.3 6.1 -1.55 6.0 -1.8 5.85 -1.65 5.7 -1.45 5.6 -1.6 5.65 -1.7 5.65 -1.75 5.6 -1.85 5.2 -1.7 5.0 -1.6 Q5.0 -1.5 5.3 -1.45 L5.5 -1.55 5.4 -1.35 5.15 -1.3 5.0 -1.3 4.65 -1.45 4.75 -1.3 4.55 -1.15 4.55 -1.0 4.45 -1.0 4.35 -1.05 4.25 -1.2 4.25 -1.15 4.25 -1.05 4.35 -1.0 4.45 -0.8 4.4 -0.45 4.45 -0.4 4.45 -0.3 4.4 -0.1 4.3 0.1 4.3 0.25 4.5 0.2 4.4 0.4 4.25 0.6 4.25 0.7 4.3 0.75 4.25 0.8 4.6 1.65 4.55 1.7 4.5 1.8 4.5 1.9 4.6 2.05 4.5 2.15 4.25 1.65 4.0 1.55 4.0 1.65 4.25 1.75 4.15 1.85 4.1 2.1 4.05 2.15 3.7 1.85 3.35 1.6 3.45 1.85 3.55 2.05 3.45 2.05 3.6 2.5 3.65 3.0 3.2 2.45 2.85 2.15 2.95 1.85 3.05 1.65 2.95 1.5 3.0 1.25 3.0 1.05 2.8 0.75 2.25 0.45 2.1 0.55 1.95 0.6 2.05 0.8 2.0 0.8 2.1 1.0 2.35 1.25 0.3 1.85 0.15 1.85 -0.05 1.9 -0.35 1.85 -0.3 0.4 0.55 0.5 2.45 0.1 2.5 0.1 2.85 -0.65 2.85 -1.0 2.75 -1.15 2.65 -1.25 2.5 -1.25 1.55 -0.75 Q1.25 -0.6 1.05 -0.6 L0.7 -0.75 0.3 -0.9 0.3 -0.85 -0.05 -0.85 -0.15 -1.15 -0.25 -2.5 -0.3 -2.6 -0.3 -2.25 -0.45 -2.5 -0.4 -3.05 -0.45 -3.35 -0.45 -3.65 -0.45 -3.7 -0.45 -3.85 -0.45 -4.55 -0.5 -4.8 -0.45 -4.8 -0.45 -4.85 -0.45 -5.05 -0.5 -5.2 -0.55 -4.75 -0.6 -4.4 -0.65 -4.35 -0.65 -3.35 Q-0.65 -2.2 -0.95 -2.0 L-1.25 -1.3 -1.45 -0.7 -1.95 -0.6 -3.2 -0.45 -4.05 -0.7 -4.25 -0.9 -4.35 -1.3 -4.45 -1.05 -4.55 -0.75 -4.2 -0.25 -3.9 -0.05 -3.8 0.05 -3.75 0.1 -3.55 0.25 -2.95 0.35 -2.6 0.35 -1.85 0.3 -1.3 0.3 -1.25 0.65 -1.15 1.4 -1.3 1.6 Q-1.45 1.8 -1.7 1.8 L-2.6 1.6 -3.05 1.35 -3.2 1.5 -3.4 1.5 -3.4 1.4 -3.45 1.35 -3.4 1.3 -3.35 1.2 -3.4 1.1 -3.45 1.05 -3.45 0.75 -3.6 0.9 -3.65 1.0 -3.75 1.0 -3.8 1.3 -4.0 1.45 -4.2 1.4 -4.4 1.35 -3.9 0.9 -3.75 0.75 -3.8 0.65 -3.9 0.55 -4.15 0.65 -4.45 1.0 -4.4 1.0 -4.35 1.05 -4.45 1.25 -4.55 1.5 -4.6 1.5 -4.7 1.35 -4.55 1.35 -4.55 1.15 -4.6 1.0 -4.7 0.95 -4.55 0.75 -4.75 0.25 -5.15 0.6 -5.3 0.55 -5.3 0.5 -5.15 0.2 -5.3 0.1 -5.15 0.05 -5.35 0.0 -5.5 0.0 -5.55 -0.2 -5.7 -0.25 -6.45 0.0 -7.15 0.3 -7.9 0.2 -8.7 0.05 -8.55 -0.05 -9.25 -0.25 -9.45 -0.45 -9.2 -0.45 -9.25 -0.5 -9.2 -0.55 -8.55 -0.45 -7.95 -0.35 -7.5 -0.3 -7.15 -0.4 -6.9 -0.45 -7.8 -0.55 -8.0 -0.6 -8.1 -0.55 -8.15 -0.5 -8.4 -0.55 -8.7 -0.6 -8.85 -0.8 -9.2 -0.8 -9.3 -0.95 -9.2 -1.05 -8.9 -1.05 -8.9 -1.3 -8.65 -1.3 -8.5 -1.35 -8.45 -1.45 -8.3 -1.45 -8.2 -1.4 -8.05 -1.35 -7.9 -1.45 -8.05 -1.5 -8.15 -1.6 -8.1 -1.65 -7.75 -1.6 -7.7 -1.6 -8.65 -2.2 -9.55 -2.6 -9.15 -2.5 -10.2 -3.2 -11.05 -3.85 -11.45 -4.1 -11.7 -4.35 Q-11.9 -4.35 -12.1 -4.6 L-12.65 -5.3 -12.7 -5.3 -12.7 -5.25 -13.05 -5.75 -13.2 -6.1 -12.3 -5.1 -11.6 -4.5 -11.6 -4.6 -12.85 -5.95 -12.35 -5.4 -11.65 -5.0 -12.25 -5.65 -12.85 -6.35 -12.95 -6.5 -13.0 -6.65 -12.9 -6.65 -12.8 -6.6 -12.8 -6.5 Q-12.8 -6.25 -12.45 -6.25 L-12.45 -6.35 -11.7 -5.75 -11.05 -5.2 -11.05 -5.3 -11.1 -5.35 -11.05 -5.45 -11.05 -5.55 -11.3 -6.1 -11.95 -6.85 -13.4 -8.85 -13.4 -8.9 -12.7 -7.85 -12.6 -7.95 -13.2 -8.75 -13.4 -9.3 -13.4 -9.35 -13.35 -9.4 -12.45 -8.05 -11.5 -7.1 -12.6 -8.45 -12.95 -8.9 -13.4 -10.0 -12.9 -9.35 -12.6 -8.95 -12.6 -9.1 Q-11.9 -7.95 -10.6 -7.05 L-9.4 -6.3 -8.7 -5.95 -7.55 -5.35 -8.0 -5.6 -8.5 -5.95 -7.15 -5.6 -6.5 -5.35 -7.05 -5.65 -7.7 -5.9 -7.7 -5.85 -7.8 -5.85 -8.55 -6.25 -9.1 -6.65 -7.6 -5.95 Q-6.15 -5.35 -5.9 -5.3 L-3.8 -4.9 -3.6 -4.6 -3.35 -4.25 -3.35 -4.2 -3.4 -4.2 -3.1 -3.95 -2.85 -3.6 -2.95 -3.65 -3.0 -3.75 -3.35 -3.55 -3.4 -3.3 -3.35 -3.05 -3.0 -2.9 -3.0 -2.85 -3.05 -2.75 -2.8 -2.7 -2.5 -2.75 Q-1.95 -2.75 -1.9 -2.5 L-1.85 -2.35 -1.6 -2.3 -1.35 -2.8 -1.35 -3.0 -1.3 -3.05 -1.25 -3.2 -1.25 -3.35 -1.2 -3.45 -1.2 -3.55 -0.95 -4.6 -0.55 -5.65 -0.45 -6.25 -0.2 -6.65 -0.15 -6.55 -0.15 -6.4 -0.2 -6.5 -0.25 -6.45 -0.25 -6.35 -0.2 -6.1 -0.15 -5.7 -0.1 -5.8 0.0 -6.05 0.05 -5.95 -0.05 -4.8 -0.05 -4.55 0.1 -4.35 0.4 -2.35 0.7 -2.35 1.65 -2.9 2.4 -3.35 2.3 -3.35 2.4 -3.6 2.45 -3.7 2.3 -3.85 2.25 -3.9 2.1 -3.85 2.05 -3.65 2.1 -3.65 2.1 -3.6 1.95 -3.6 1.95 -3.65 Q1.95 -3.9 2.3 -4.6 L2.7 -5.35 2.8 -5.35 2.9 -5.45 3.0 -5.6 3.05 -5.6 3.15 -5.55 3.65 -5.95 3.65 -5.8 4.4 -6.2 4.9 -6.45 5.0 -6.4 5.05 -6.35 5.0 -6.25 4.7 -5.95 4.95 -5.95 5.05 -5.95 5.2 -5.8 5.45 -6.0 5.65 -6.1 5.75 -6.1 5.8 -6.05 6.4 -6.4 7.0 -6.7 7.05 -6.7 7.1 -6.65 7.3 -6.9 8.15 -7.45 7.95 -7.05 8.7 -7.6 8.7 -7.55 9.2 -7.7 9.35 -7.7 9.35 -7.55 9.15 -7.45 8.95 -7.35 9.1 -7.25 9.0 -7.2 8.85 -7.1 9.3 -7.25 9.45 -7.15 11.1 -7.7 11.85 -8.05 12.2 -8.35 12.25 -8.3 12.25 -8.25 12.7 -8.3 12.25 -7.8 11.5 -7.05 M0.5 5.65 L0.15 5.6 -0.05 5.55 -0.3 5.35 -0.4 5.15 -0.4 4.5 -0.35 4.65 0.25 4.7 0.6 4.65 0.75 4.6 0.8 4.65 0.9 4.6 1.0 4.5 1.0 4.6 1.1 4.5 1.25 4.6 1.25 4.85 1.05 5.6 0.5 5.65 M-0.25 2.6 L0.7 2.6 0.7 3.6 -0.25 3.6 -0.25 2.6 M-0.25 6.45 L-0.35 6.35 0.15 6.4 0.4 6.45 0.5 6.4 0.65 6.35 0.75 6.35 1.1 6.45 1.45 6.2 1.5 6.15 1.5 6.25 1.25 6.9 0.7 7.5 0.5 7.05 0.3 6.95 0.25 7.15 0.15 7.2 0.1 7.1 0.1 7.25 0.15 7.6 0.0 7.6 0.0 7.65 0.05 7.7 0.1 7.7 0.1 7.75 0.0 7.9 0.05 7.95 0.1 8.2 -0.25 8.2 -0.25 8.05 -0.4 7.35 -0.25 6.45 M-11.55 -4.5 L-11.65 -4.45 -11.45 -4.35 -11.55 -4.5 M-1.6 3.4 L-2.05 3.45 -2.45 3.5 -2.55 3.3 -2.6 3.35 -2.8 3.35 -2.8 3.25 -2.85 3.25 -3.0 3.3 -3.05 3.3 -3.15 3.2 -3.0 2.9 -2.85 3.15 -2.75 2.8 -2.75 2.7 -2.7 2.5 -2.6 2.5 -2.5 2.45 -2.5 2.35 -1.3 2.7 Q-1.1 3.35 -1.6 3.4 M-1.35 4.4 L-1.4 4.45 -1.3 4.45 -1.2 4.4 -1.1 4.4 -1.05 4.7 -1.05 4.85 -1.1 4.95 -1.1 4.75 -1.15 4.6 -1.45 4.75 -2.05 4.85 -2.2 4.85 -2.2 4.65 -2.4 4.8 -2.65 4.9 -2.5 4.75 -2.4 4.5 -2.6 4.4 -2.8 4.2 -3.0 4.3 -3.15 4.35 -3.2 4.35 -3.15 4.3 -3.15 4.25 -3.1 4.15 -3.05 4.15 -2.45 4.15 -1.85 4.2 -1.85 4.15 -1.65 4.25 -1.35 4.4 M-2.35 5.85 L-2.15 5.85 -2.1 5.75 -1.9 5.85 -1.8 5.75 -1.65 5.8 -1.45 5.8 -1.4 5.8 -1.35 5.85 -1.25 6.0 -1.1 6.25 -1.1 6.2 -1.1 6.1 -1.0 6.55 -1.05 6.75 -1.05 6.95 -0.95 7.75 -1.0 7.8 -1.0 7.9 -1.05 7.6 Q-1.1 7.3 -1.25 7.3 L-1.3 7.35 -1.4 7.35 -1.25 7.4 -1.2 7.5 -1.25 7.65 -1.25 7.7 -1.2 7.95 -1.05 8.45 -0.65 9.35 -0.75 9.4 -1.25 9.0 -1.65 8.45 -1.65 8.3 -1.65 8.2 -1.8 8.3 -1.85 8.2 -1.85 8.1 -1.9 8.0 -1.95 7.85 -2.05 7.95 -2.5 8.1 -2.6 8.25 -2.75 8.55 -2.95 8.45 -3.05 8.2 -2.85 7.95 -2.7 7.5 -2.75 7.45 -2.8 7.35 -2.8 7.5 -2.95 7.5 -3.0 7.5 -2.8 7.25 -2.6 7.05 -2.7 7.0 -2.7 6.95 -2.85 7.1 -2.95 7.15 -3.0 7.1 -3.0 7.05 -2.75 6.75 -2.6 6.4 -2.6 6.35 -2.5 6.1 -2.25 5.9 -2.4 5.9 -2.35 5.85" fill="#7fa4cf" fill-rule="evenodd" stroke="none"/>
    </g>
  </defs>
</svg>
