<?xml version="1.0" encoding="UTF-8" standalone="no"?>
<svg xmlns:xlink="http://www.w3.org/1999/xlink" height="20.05px" width="20.95px" xmlns="http://www.w3.org/2000/svg">
  <g transform="matrix(1.0, 0.0, 0.0, 1.0, 10.45, 10.0)">
    <use data-characterId="405" height="20.05" transform="matrix(1.0, 0.0, 0.0, 1.0, -10.45, -10.0)" width="20.95" xlink:href="#shape0"/>
  </g>
  <defs>
    <g id="shape0" transform="matrix(1.0, 0.0, 0.0, 1.0, 10.45, 10.0)">
      <path d="M-2.85 -8.8 L-2.85 -8.2 -1.25 -9.5 -1.25 -9.55 0.05 -10.0 Q0.75 -10.0 1.3 -9.55 L1.4 -9.5 9.8 -2.3 9.85 -2.3 Q10.9 -1.4 10.25 0.1 L9.9 0.65 9.95 0.9 Q10.2 1.95 9.75 2.95 L9.6 3.15 9.9 3.85 9.95 3.85 9.95 3.9 Q10.2 5.05 9.75 5.9 L9.75 5.95 9.95 6.6 Q10.2 7.7 9.75 8.6 9.15 9.5 8.05 9.9 L8.05 9.95 8.0 9.95 7.45 10.05 -7.35 10.05 -8.75 9.5 -9.75 8.05 Q-10.05 7.0 -9.5 6.0 L-9.5 5.95 -9.75 5.4 Q-10.05 4.3 -9.5 3.3 L-9.4 3.1 -9.75 2.45 Q-9.95 1.6 -9.65 0.75 L-10.2 0.1 Q-10.85 -1.4 -9.75 -2.3 L-8.5 -3.35 -8.5 -8.8 -2.85 -8.8" fill="#081a15" fill-opacity="0.30980393" fill-rule="evenodd" stroke="none"/>
      <path d="M-3.05 -8.15 L-3.05 -7.15 -1.0 -8.9 Q-0.6 -9.3 0.05 -9.3 0.65 -9.3 1.05 -8.9 L9.15 -1.95 Q10.0 -1.2 9.5 -0.05 L9.1 0.55 9.2 0.9 Q9.45 1.8 9.0 2.7 L8.8 3.0 9.2 3.8 Q9.45 4.75 9.0 5.5 L8.9 5.7 9.2 6.35 Q9.45 7.3 9.0 8.1 8.55 8.85 7.6 9.2 L7.05 9.3 -7.0 9.3 Q-7.65 9.25 -8.2 8.8 L-9.0 7.6 Q-9.3 6.75 -8.8 5.9 L-8.65 5.7 -9.0 5.05 Q-9.3 4.15 -8.8 3.3 L-8.55 2.95 -9.0 2.2 Q-9.25 1.45 -8.85 0.65 L-9.45 -0.05 Q-9.95 -1.2 -9.1 -1.95 L-7.8 -3.05 -7.8 -8.15 -3.05 -8.15 M8.7 -1.45 L0.6 -8.4 0.55 -8.45 0.2 -8.6 0.05 -8.6 -0.2 -8.55 -0.5 -8.45 -0.55 -8.4 -8.65 -1.45 Q-9.15 -0.95 -8.85 -0.35 L-8.5 0.05 -8.35 0.15 -8.05 0.2 -7.4 -0.05 -0.55 -5.95 0.05 -6.15 Q0.4 -6.15 0.6 -5.95 L7.45 -0.05 7.55 0.05 7.9 0.2 8.1 0.2 8.4 0.15 8.65 0.0 8.95 -0.35 Q9.2 -0.95 8.7 -1.45 M3.05 3.3 L3.15 2.75 3.15 2.35 4.85 2.35 4.8 2.2 Q4.55 1.25 5.0 0.5 L5.05 0.35 3.15 0.35 3.15 -0.45 3.1 -0.6 5.8 -0.6 3.45 -2.65 -3.4 -2.65 -5.7 -0.6 -3.05 -0.6 -3.1 -0.45 -3.1 0.35 -4.9 0.35 -4.65 0.9 Q-4.4 1.65 -4.65 2.35 L-3.1 2.35 -3.1 2.75 -3.0 3.3 -4.85 3.3 -4.65 3.8 Q-4.35 4.65 -4.75 5.35 L4.95 5.35 4.8 5.05 Q4.55 4.05 5.0 3.3 L3.05 3.3 M0.4 4.4 L-0.35 4.4 Q-1.15 4.4 -1.7 3.85 -2.3 3.25 -2.3 2.5 L-2.3 0.55 Q-2.3 -0.3 -1.7 -0.85 -1.15 -1.45 -0.35 -1.45 L0.4 -1.45 Q1.2 -1.45 1.75 -0.85 2.35 -0.3 2.35 0.55 L2.35 2.5 Q2.35 3.3 1.75 3.85 1.2 4.4 0.4 4.4 M8.5 6.5 L8.5 6.45 8.45 6.35 7.95 5.7 Q7.5 5.35 7.05 5.35 L7.0 5.35 6.5 5.45 6.35 5.5 6.05 5.7 6.0 5.75 5.55 6.2 Q5.25 6.8 5.45 7.4 L5.5 7.6 Q5.75 8.3 6.35 8.5 L6.35 8.45 7.05 8.6 7.2 8.55 7.4 8.5 8.35 7.75 Q8.7 7.2 8.5 6.5 M8.45 3.85 L8.3 3.45 8.3 3.5 7.75 3.0 7.7 3.0 7.75 2.95 7.0 2.8 6.8 2.8 6.5 2.85 6.2 3.0 5.7 3.45 5.55 3.65 Q5.25 4.25 5.45 4.9 L5.5 5.0 5.6 5.2 Q5.9 4.95 6.35 4.8 L7.0 4.7 7.05 4.7 Q7.75 4.7 8.35 5.15 L8.4 5.2 Q8.7 4.65 8.5 3.95 L8.45 3.85 M8.5 1.1 L8.4 0.85 8.1 0.85 Q7.5 0.85 7.05 0.5 L6.5 0.0 6.35 0.05 5.95 0.35 5.9 0.35 5.55 0.75 Q5.25 1.4 5.45 2.0 L5.6 2.35 5.7 2.55 Q6.0 2.3 6.35 2.2 L7.0 2.1 Q7.7 2.1 8.3 2.55 L8.35 2.35 Q8.7 1.75 8.5 1.1 M-4.85 8.1 L-5.2 8.6 5.4 8.6 4.8 7.6 Q4.6 6.9 4.8 6.3 L-4.65 6.3 -4.65 6.35 Q-4.3 7.3 -4.85 8.1 M-8.3 7.5 Q-8.0 8.5 -7.0 8.6 L-7.0 8.55 -6.6 8.55 -6.35 8.5 -6.3 8.5 -5.4 7.75 Q-5.05 7.2 -5.25 6.5 L-5.3 6.3 -5.4 6.15 -5.85 5.7 Q-6.25 5.35 -6.8 5.35 L-7.25 5.45 -7.75 5.7 -7.8 5.75 -8.25 6.2 Q-8.55 6.8 -8.35 7.4 L-8.3 7.5 M-8.35 4.9 L-8.3 5.0 -8.25 5.2 -7.45 4.8 -6.8 4.7 Q-6.05 4.7 -5.4 5.15 L-5.35 5.2 Q-5.05 4.65 -5.25 3.95 L-5.5 3.45 -6.05 3.0 -6.1 3.0 -6.05 2.95 -6.8 2.8 -7.25 2.85 Q-7.65 2.95 -7.9 3.25 L-8.05 3.4 -8.1 3.45 -8.2 3.6 -8.25 3.65 Q-8.55 4.2 -8.35 4.9 M-8.3 2.1 L-8.15 2.55 -8.1 2.55 Q-7.8 2.3 -7.45 2.2 L-6.8 2.1 Q-6.1 2.1 -5.5 2.55 L-5.4 2.35 Q-5.05 1.75 -5.25 1.1 -5.4 0.6 -5.65 0.35 L-5.75 0.35 -6.05 0.15 -6.4 0.0 -7.0 0.5 Q-7.45 0.85 -8.05 0.85 L-8.3 0.85 Q-8.55 1.4 -8.35 2.0 L-8.3 2.1 M-7.15 -7.45 L-7.15 -3.65 -3.75 -6.55 -3.75 -7.45 -7.15 -7.45 M-0.15 -5.45 L-2.3 -3.6 2.35 -3.6 0.2 -5.45 0.05 -5.5 -0.15 -5.45" fill="#000000" fill-rule="evenodd" stroke="none"/>
      <path d="M8.7 -1.45 Q9.2 -0.95 8.95 -0.35 L8.65 0.0 8.4 0.15 8.1 0.2 7.9 0.2 7.55 0.05 7.45 -0.05 0.6 -5.95 Q0.4 -6.15 0.05 -6.15 L-0.55 -5.95 -7.4 -0.05 -8.05 0.2 -8.35 0.15 -8.5 0.05 -8.85 -0.35 Q-9.15 -0.95 -8.65 -1.45 L-0.55 -8.4 -0.5 -8.45 -0.2 -8.55 0.05 -8.6 0.2 -8.6 0.55 -8.45 0.6 -8.4 8.7 -1.45 M3.05 3.3 L5.0 3.3 Q4.55 4.05 4.8 5.05 L4.95 5.35 -4.75 5.35 Q-4.35 4.65 -4.65 3.8 L-4.85 3.3 -3.0 3.3 -3.1 2.75 -3.1 2.35 -4.65 2.35 Q-4.4 1.65 -4.65 0.9 L-4.9 0.35 -3.1 0.35 -3.1 -0.45 -3.05 -0.6 -5.7 -0.6 -3.4 -2.65 3.45 -2.65 5.8 -0.6 3.1 -0.6 3.15 -0.45 3.15 0.35 5.05 0.35 5.0 0.5 Q4.55 1.25 4.8 2.2 L4.85 2.35 3.15 2.35 3.15 2.75 3.05 3.3 M0.4 4.4 Q1.2 4.4 1.75 3.85 2.35 3.3 2.35 2.5 L2.35 0.55 Q2.35 -0.3 1.75 -0.85 1.2 -1.45 0.4 -1.45 L-0.35 -1.45 Q-1.15 -1.45 -1.7 -0.85 -2.3 -0.3 -2.3 0.55 L-2.3 2.5 Q-2.3 3.25 -1.7 3.85 -1.15 4.4 -0.35 4.4 L0.4 4.4 M-0.15 -5.45 L0.05 -5.5 0.2 -5.45 2.35 -3.6 -2.3 -3.6 -0.15 -5.45 M8.5 1.1 Q8.7 1.75 8.35 2.35 L8.3 2.55 Q7.7 2.1 7.0 2.1 L6.35 2.2 Q6.0 2.3 5.7 2.55 L5.6 2.35 5.45 2.0 Q5.25 1.4 5.55 0.75 L5.9 0.35 5.95 0.35 6.35 0.05 6.5 0.0 7.05 0.5 Q7.5 0.85 8.1 0.85 L8.4 0.85 8.5 1.1 M8.45 3.85 L8.5 3.95 Q8.7 4.65 8.4 5.2 L8.35 5.15 Q7.75 4.7 7.05 4.7 L7.0 4.7 6.35 4.8 Q5.9 4.95 5.6 5.2 L5.5 5.0 5.45 4.9 Q5.25 4.25 5.55 3.65 L5.7 3.45 6.2 3.0 6.5 2.85 6.8 2.8 7.0 2.8 7.75 2.95 7.7 3.0 7.75 3.0 8.3 3.5 8.45 3.85 M8.5 6.5 Q8.7 7.2 8.35 7.75 L7.4 8.5 7.2 8.55 7.05 8.6 6.35 8.45 6.35 8.5 Q5.75 8.3 5.5 7.6 L5.45 7.4 Q5.25 6.8 5.55 6.2 L6.0 5.75 6.05 5.7 6.35 5.5 6.5 5.45 7.0 5.35 7.05 5.35 Q7.5 5.35 7.95 5.7 L8.45 6.35 8.5 6.45 8.5 6.5 M-4.85 8.1 Q-4.3 7.3 -4.65 6.35 L-4.65 6.3 4.8 6.3 Q4.6 6.9 4.8 7.6 L5.4 8.6 -5.2 8.6 -4.85 8.1 M-7.15 -7.45 L-3.75 -7.45 -3.75 -6.55 -7.15 -3.65 -7.15 -7.45 M-8.3 2.1 L-8.35 2.0 Q-8.55 1.4 -8.3 0.85 L-8.05 0.85 Q-7.45 0.85 -7.0 0.5 L-6.4 0.0 -6.05 0.15 -5.75 0.35 -5.65 0.35 Q-5.4 0.6 -5.25 1.1 -5.05 1.75 -5.4 2.35 L-5.5 2.55 Q-6.1 2.1 -6.8 2.1 L-7.45 2.2 Q-7.8 2.3 -8.1 2.55 L-8.3 2.1 M-8.35 4.9 Q-8.55 4.2 -8.25 3.65 L-8.2 3.6 -8.1 3.45 -8.05 3.4 -7.9 3.25 Q-7.65 2.95 -7.25 2.85 L-6.8 2.8 -6.05 2.95 -6.1 3.0 -6.05 3.0 -5.5 3.45 -5.25 3.95 Q-5.05 4.65 -5.35 5.2 L-5.4 5.15 Q-6.05 4.7 -6.8 4.7 L-7.45 4.8 -8.25 5.2 -8.3 5.0 -8.35 4.9 M-8.3 7.5 L-8.35 7.4 Q-8.55 6.8 -8.25 6.2 L-7.8 5.75 -7.75 5.7 -7.25 5.45 -6.8 5.35 Q-6.25 5.35 -5.85 5.7 L-5.4 6.15 -5.3 6.3 -5.25 6.5 Q-5.05 7.2 -5.4 7.75 L-6.3 8.5 -6.35 8.5 -6.6 8.55 -7.0 8.55 -7.55 8.35 Q-8.1 8.1 -8.3 7.5" fill="#8cb5e6" fill-rule="evenodd" stroke="none"/>
    </g>
  </defs>
</svg>
