<?xml version="1.0" encoding="UTF-8" standalone="no"?>
<svg xmlns:xlink="http://www.w3.org/1999/xlink" height="23.3px" width="23.4px" xmlns="http://www.w3.org/2000/svg">
  <g transform="matrix(1.0, 0.0, 0.0, 1.0, 10.2, 10.9)">
    <use data-characterId="393" height="23.3" transform="matrix(1.0, 0.0, 0.0, 1.0, -10.2, -10.9)" width="23.4" xlink:href="#shape0"/>
  </g>
  <defs>
    <g id="shape0" transform="matrix(1.0, 0.0, 0.0, 1.0, 10.2, 10.9)">
      <path d="M7.65 -9.2 L8.05 -8.7 9.9 -3.15 9.9 -3.0 9.9 -2.85 9.9 1.45 10.15 1.5 10.45 1.75 13.0 4.6 Q13.2 4.75 13.2 5.25 L12.9 5.9 12.35 6.2 12.35 11.4 12.05 12.1 11.35 12.4 -5.5 12.4 -6.2 12.1 -6.5 11.4 -6.5 6.15 -6.9 5.9 -7.2 5.2 -6.9 4.5 -4.35 1.75 -4.05 1.55 -3.65 1.45 3.65 1.45 3.65 -2.8 3.75 -3.2 5.55 -8.55 5.95 -9.15 6.45 -9.35 7.0 -9.4 7.05 -9.4 7.65 -9.2" fill="#081a15" fill-opacity="0.49803922" fill-rule="evenodd" stroke="none"/>
      <path d="M2.55 -10.2 L2.95 -10.65 2.9 -10.65 3.45 -10.85 4.0 -10.9 4.05 -10.9 4.65 -10.7 5.0 -10.2 6.85 -4.65 6.9 -4.35 6.9 -0.05 7.15 0.0 7.1 0.0 7.45 0.25 9.95 3.05 10.2 3.75 9.9 4.45 9.9 4.4 9.35 4.7 9.35 9.9 9.05 10.6 8.35 10.9 -8.5 10.9 -9.2 10.6 -9.5 9.9 -9.5 4.65 -9.9 4.4 -10.2 3.7 -9.9 3.0 -7.35 0.25 -7.05 0.05 -7.0 0.05 -6.65 -0.05 0.65 -0.05 0.65 -4.3 0.7 -4.6 2.55 -10.15 2.55 -10.2" fill="#000000" fill-rule="evenodd" stroke="none"/>
      <path d="M-5.0 8.0 L-5.0 5.05 -6.65 5.05 -6.65 8.0 -5.0 8.0 M-1.25 5.05 L-2.9 5.05 -2.9 8.0 -1.25 8.0 -1.25 5.05 M6.3 8.0 L6.3 5.05 4.6 5.05 4.6 8.0 6.3 8.0 M2.55 5.05 L0.85 5.05 0.85 8.0 2.55 8.0 2.55 5.05 M2.95 -3.75 L2.95 -0.45 4.4 -0.45 4.4 -3.75 2.95 -3.75 M1.65 -4.3 L3.5 -9.85 4.05 -9.9 5.9 -4.35 5.9 0.9 6.7 0.9 9.2 3.7 8.35 3.7 8.35 9.9 -8.5 9.9 -8.5 3.7 -9.2 3.7 -6.65 0.95 1.65 0.95 1.65 -4.3" fill="#8cb5e6" fill-rule="evenodd" stroke="none"/>
    </g>
  </defs>
</svg>
