<?xml version="1.0" encoding="UTF-8" standalone="no"?>
<svg xmlns:xlink="http://www.w3.org/1999/xlink" height="17.5px" width="21.8px" xmlns="http://www.w3.org/2000/svg">
  <g transform="matrix(1.0, 0.0, 0.0, 1.0, 10.9, 8.75)">
    <use data-characterId="369" height="17.5" transform="matrix(1.0, 0.0, 0.0, 1.0, -10.9, -8.75)" width="21.8" xlink:href="#shape0"/>
  </g>
  <defs>
    <g id="shape0" transform="matrix(1.0, 0.0, 0.0, 1.0, 10.9, 8.75)">
      <path d="M1.45 -6.1 Q0.4 -6.65 0.6 -7.35 0.5 -8.15 1.45 -8.5 L1.5 -8.5 2.65 -8.75 3.65 -8.6 3.65 -8.55 3.9 -8.4 4.4 -8.15 4.7 -7.45 4.7 -5.3 9.4 -5.3 9.65 -5.25 9.9 -5.3 10.6 -5.0 10.9 -4.3 10.9 -3.3 10.9 -3.05 10.9 -2.8 10.6 -2.1 Q10.3 -1.8 9.9 -1.8 L8.35 -1.8 8.3 -1.7 6.85 -0.2 9.9 -0.2 10.6 0.1 10.9 0.8 10.9 1.05 10.9 1.3 10.9 1.65 10.6 2.35 9.9 2.65 9.65 2.65 9.4 2.65 8.6 2.65 8.75 5.85 9.25 6.1 9.55 6.8 9.55 7.75 9.25 8.45 Q8.95 8.75 8.55 8.75 L8.3 8.75 8.05 8.75 5.8 8.75 5.55 8.75 5.3 8.75 4.6 8.45 Q4.3 8.15 4.3 7.75 L4.3 6.8 Q4.3 6.4 4.6 6.1 L5.0 5.85 5.25 2.65 1.65 2.65 1.8 5.85 Q2.05 5.9 2.25 6.1 L2.55 6.8 2.55 7.75 2.25 8.45 1.55 8.75 1.3 8.75 1.05 8.75 -1.2 8.75 -1.45 8.75 -1.7 8.75 -2.4 8.45 -2.7 7.75 -2.7 6.8 -2.4 6.1 -1.95 5.85 -1.7 2.65 -5.55 2.65 -5.4 5.8 Q-5.1 5.85 -4.85 6.1 -4.55 6.4 -4.55 6.8 L-4.55 7.75 -4.85 8.45 Q-5.15 8.75 -5.55 8.75 L-5.8 8.75 -6.05 8.75 -8.35 8.75 -8.6 8.75 -8.85 8.75 -9.55 8.45 -9.85 7.75 -9.85 6.8 -9.55 6.1 -9.15 5.85 -8.9 2.65 -9.4 2.65 -9.65 2.65 -9.9 2.65 -10.6 2.35 -10.9 1.65 -10.9 1.3 -10.85 1.05 -10.9 0.8 -10.6 0.1 -9.9 -0.2 -6.9 -0.2 -8.25 -1.75 -8.3 -1.8 -9.4 -1.8 -9.65 -1.8 -9.9 -1.8 Q-10.3 -1.8 -10.6 -2.1 L-10.9 -2.8 -10.9 -3.8 -10.85 -4.05 -10.9 -4.3 -10.6 -5.0 -9.9 -5.3 -5.3 -5.3 -5.3 -5.7 -5.8 -5.85 -5.75 -5.85 -5.9 -5.85 -5.95 -5.9 Q-7.0 -6.4 -6.8 -7.1 -7.0 -7.8 -5.95 -8.3 L-5.9 -8.3 -5.75 -8.35 -5.8 -8.35 -4.8 -8.5 Q-3.35 -8.5 -3.0 -7.75 L-2.95 -7.7 -2.8 -7.1 -2.75 -6.7 -2.75 -5.3 2.1 -5.3 2.1 -5.9 1.6 -6.05 1.65 -6.05 1.5 -6.05 1.45 -6.1" fill="#000000" fill-rule="evenodd" stroke="none"/>
      <path d="M-3.1 0.95 L-0.4 0.95 -0.4 -2.15 -3.1 0.95 M-4.25 -2.65 L-6.9 -2.65 -4.25 0.5 -4.25 -2.65 M-0.7 -2.65 L-3.65 -2.65 -3.65 0.7 -0.7 -2.65 M0.2 0.95 L3.0 0.95 0.2 -2.15 0.2 0.95 M7.15 -2.65 L4.15 -2.65 4.15 0.6 7.15 -2.65 M3.55 -2.65 L0.5 -2.65 3.55 0.65 3.55 -2.65 M3.75 -7.3 L3.85 -7.3 3.85 -4.15 10.05 -4.15 10.05 -2.65 8.0 -2.65 4.65 0.95 10.05 0.95 10.05 1.8 7.65 1.8 7.95 6.95 8.7 6.95 8.7 7.9 5.45 7.9 5.45 6.95 6.1 6.95 6.4 1.8 0.7 1.8 1.0 6.95 1.7 6.95 1.7 7.9 -1.55 7.9 -1.55 6.95 -0.85 6.95 -0.55 1.8 -6.5 1.8 -6.2 6.95 -5.4 6.95 -5.4 7.9 -8.7 7.9 -8.7 6.95 -8.05 6.95 -7.75 1.8 -9.75 1.8 -9.75 0.95 -4.6 0.95 -7.7 -2.65 -9.75 -2.65 -9.75 -4.15 -4.15 -4.15 -4.15 -6.6 -4.65 -6.55 -5.35 -6.65 -5.65 -6.95 -5.35 -7.25 -4.65 -7.35 -3.7 -7.05 -3.6 -7.05 -3.6 -4.15 3.25 -4.15 3.25 -6.8 2.8 -6.75 2.05 -6.85 1.75 -7.15 2.05 -7.45 2.8 -7.6 3.75 -7.3" fill="#8cb5e6" fill-rule="evenodd" stroke="none"/>
    </g>
  </defs>
</svg>
