<?xml version="1.0" encoding="UTF-8" standalone="no"?>
<svg xmlns:xlink="http://www.w3.org/1999/xlink" height="21.85px" width="22.4px" xmlns="http://www.w3.org/2000/svg">
  <g transform="matrix(1.0, 0.0, 0.0, 1.0, 9.95, 10.3)">
    <use data-characterId="363" height="21.85" transform="matrix(1.0, 0.0, 0.0, 1.0, -9.95, -10.3)" width="22.4" xlink:href="#shape0"/>
  </g>
  <defs>
    <g id="shape0" transform="matrix(1.0, 0.0, 0.0, 1.0, 9.95, 10.3)">
      <path d="M0.95 -0.85 L1.55 -1.05 2.25 -0.75 2.35 -0.65 2.5 -0.05 2.5 0.9 4.25 -0.45 4.25 -7.8 Q4.25 -8.2 4.55 -8.5 L5.25 -8.8 11.45 -8.8 12.15 -8.5 12.45 -7.8 12.45 10.55 12.15 11.25 11.45 11.55 -6.45 11.55 Q-6.85 11.55 -7.15 11.25 L-7.45 10.55 -7.45 3.0 -7.35 2.6 -7.0 2.15 -3.05 -0.85 -3.0 -0.85 -2.4 -1.05 Q-2.0 -1.05 -1.7 -0.75 L-1.6 -0.65 -1.45 -0.05 -1.45 0.9 0.9 -0.85 0.95 -0.85" fill="#081a15" fill-opacity="0.49803922" fill-rule="evenodd" stroke="none"/>
      <path d="M1.75 -1.95 L1.75 -9.3 Q1.75 -9.7 2.05 -10.0 2.35 -10.3 2.75 -10.3 L8.95 -10.3 9.65 -10.0 9.95 -9.3 9.95 9.05 9.65 9.75 8.95 10.05 -8.95 10.05 -9.65 9.75 -9.95 9.05 -9.95 1.5 -9.85 1.05 -9.55 0.7 -5.55 -2.35 -4.85 -2.55 Q-4.5 -2.55 -4.2 -2.25 L-4.2 -2.2 -3.95 -1.55 -3.95 -0.6 -1.6 -2.35 -0.9 -2.55 -0.25 -2.25 -0.25 -2.2 0.0 -1.55 0.0 -0.6 1.75 -1.95" fill="#000000" fill-rule="evenodd" stroke="none"/>
      <path d="M5.2 0.6 L6.5 0.6 6.5 -9.3 8.95 -9.3 8.95 9.05 -8.95 9.05 -8.95 1.5 -4.95 -1.55 -4.95 1.4 -1.0 -1.55 -1.0 1.4 2.75 -1.45 2.75 -9.3 5.2 -9.3 5.2 0.6 M1.7 6.8 L1.7 5.6 -0.7 5.6 -0.7 6.8 1.7 6.8 M1.7 4.85 L1.7 3.65 -0.7 3.65 -0.7 4.85 1.7 4.85 M-1.6 6.8 L-1.6 5.6 -4.0 5.6 -4.0 6.8 -1.6 6.8 M-1.6 4.85 L-1.6 3.65 -4.0 3.65 -4.0 4.85 -1.6 4.85 M-4.9 4.85 L-4.9 3.65 -7.25 3.65 -7.25 4.85 -4.9 4.85 M-7.25 6.8 L-4.9 6.8 -4.9 5.6 -7.25 5.6 -7.25 6.8" fill="#8cb5e6" fill-rule="evenodd" stroke="none"/>
    </g>
  </defs>
</svg>
