<?xml version="1.0" encoding="UTF-8" standalone="no"?>
<svg xmlns:xlink="http://www.w3.org/1999/xlink" height="21.25px" width="20.5px" xmlns="http://www.w3.org/2000/svg">
  <g transform="matrix(1.0, 0.0, 0.0, 1.0, 10.3, 10.55)">
    <use data-characterId="361" height="21.25" transform="matrix(1.0, 0.0, 0.0, 1.0, -10.3, -10.55)" width="20.5" xlink:href="#shape0"/>
  </g>
  <defs>
    <g id="shape0" transform="matrix(1.0, 0.0, 0.0, 1.0, 10.3, 10.55)">
      <path d="M-10.25 10.7 L-10.3 0.05 -3.3 -1.35 -2.4 -9.9 2.1 -9.9 3.9 -6.8 10.15 -3.0 10.05 10.7 -10.25 10.7" fill="#000000" fill-rule="evenodd" stroke="none"/>
      <path d="M9.85 9.9 L9.65 10.35 9.2 10.55 5.55 10.55 5.2 10.45 4.95 10.1 4.95 9.75 6.4 5.0 Q7.45 1.75 8.65 -0.1 L9.0 -0.35 9.4 -0.35 9.75 -0.15 9.85 0.25 9.85 9.9 M6.25 -1.75 L6.25 -1.6 6.4 -1.25 6.5 -1.1 6.55 -1.05 6.65 -0.95 7.0 -0.85 7.1 -0.85 7.15 -0.85 Q7.4 -0.85 7.65 -1.1 L7.9 -1.7 7.9 -1.75 7.65 -2.25 7.45 -2.4 7.1 -2.5 6.5 -2.25 6.25 -1.75 M-0.1 -3.75 Q-0.5 -4.15 -1.05 -4.15 -1.6 -4.15 -2.0 -3.75 -2.35 -3.4 -2.35 -2.85 -2.35 -2.3 -2.0 -1.9 L-1.5 -1.6 -1.05 -1.55 Q-0.5 -1.55 -0.1 -1.9 0.25 -2.3 0.25 -2.85 L0.2 -3.3 -0.1 -3.75 M1.55 -0.65 L1.6 -0.65 2.4 -0.55 2.8 -0.35 2.95 0.05 5.0 -0.4 5.45 -0.3 5.7 0.0 5.75 0.4 6.05 0.2 5.6 -0.2 Q5.05 -0.75 4.95 -1.55 L4.95 -1.6 4.95 -1.7 2.25 -1.7 2.15 -1.7 1.6 -0.75 1.55 -0.65 0.75 -0.75 -0.3 -0.2 0.8 -0.1 1.05 -0.2 1.55 -0.65 M0.35 -9.25 L0.35 -6.65 2.8 -6.65 2.55 -7.55 1.85 -9.25 0.35 -9.25 M6.35 -8.65 L6.55 -9.1 7.0 -9.3 7.7 -9.3 8.15 -9.1 8.35 -8.65 8.35 -6.8 8.85 -6.75 9.2 -6.6 9.4 -6.25 10.2 -2.95 10.1 -2.45 9.75 -2.0 9.55 -1.75 9.25 -1.7 9.2 -1.15 9.2 -1.1 8.6 -0.2 7.75 0.4 7.7 0.65 6.25 3.6 Q4.55 7.2 3.6 10.1 L3.35 10.45 2.95 10.55 -1.75 10.55 -2.15 10.4 -2.4 10.0 -2.3 9.55 Q0.25 5.5 2.85 2.9 L2.0 3.55 2.05 3.55 Q-1.95 7.0 -4.5 10.3 L-4.75 10.5 -5.05 10.55 -9.55 10.55 -10.0 10.35 -10.2 9.9 -10.2 8.0 -10.1 7.75 -9.95 7.5 -4.65 3.4 -8.5 5.35 -9.2 5.75 -9.65 5.8 -10.05 5.6 -10.2 5.15 -10.2 1.0 -10.05 0.65 Q-9.95 0.45 -9.75 0.4 L-6.9 -0.5 -6.85 -0.5 -3.75 -0.85 -3.8 -0.9 Q-4.45 -1.75 -4.45 -2.85 -4.45 -4.25 -3.5 -5.15 L-3.45 -5.2 -3.6 -5.6 -3.6 -9.9 -3.4 -10.35 -2.95 -10.55 2.25 -10.55 2.6 -10.45 2.85 -10.15 4.1 -7.25 6.35 -7.05 6.35 -8.65" fill="#000000" fill-rule="evenodd" stroke="none"/>
      <path d="M5.1 0.25 L1.6 3.05 Q-2.45 6.55 -5.05 9.9 L-9.55 9.9 -9.55 8.0 Q-5.1 4.4 -3.85 3.65 L-2.4 2.8 Q0.0 1.45 2.6 0.8 L5.1 0.25 M9.2 9.9 L5.55 9.9 7.0 5.2 Q8.05 2.05 9.2 0.25 L9.2 9.9 M5.65 3.3 Q3.95 6.95 2.95 9.9 L-1.75 9.9 Q2.6 3.0 7.05 0.3 L7.1 0.25 7.1 0.35 5.65 3.3 M6.05 -0.65 Q5.65 -1.05 5.6 -1.6 L5.6 -1.7 Q5.6 -2.3 6.05 -2.75 6.5 -3.2 7.1 -3.2 L7.75 -3.05 8.15 -2.75 8.5 -2.3 8.6 -1.7 8.55 -1.3 8.15 -0.65 7.4 -0.2 7.1 -0.2 6.5 -0.3 6.05 -0.65 M7.1 -2.5 L6.5 -2.25 6.25 -1.7 Q6.25 -1.45 6.4 -1.25 L6.5 -1.1 Q6.7 -0.9 7.0 -0.85 L7.1 -0.85 7.65 -1.1 7.9 -1.7 7.9 -1.75 7.65 -2.25 7.45 -2.4 7.1 -2.5 M-0.1 -3.75 Q-0.5 -4.15 -1.05 -4.15 -1.6 -4.15 -2.0 -3.75 -2.35 -3.4 -2.35 -2.85 -2.35 -2.3 -2.0 -1.9 L-1.5 -1.6 -1.05 -1.55 Q-0.5 -1.55 -0.1 -1.9 0.25 -2.3 0.25 -2.85 L0.2 -3.3 -0.1 -3.75 M0.85 -4.75 L1.2 -4.35 Q1.7 -3.7 1.7 -2.85 1.7 -1.9 1.1 -1.15 0.5 -0.4 -0.4 -0.2 L1.5 0.0 2.3 0.1 0.75 0.6 -1.15 1.25 Q-5.0 2.7 -8.8 4.75 L-9.55 5.15 -9.55 1.0 -6.75 0.1 -2.3 -0.25 -2.0 -0.25 -2.5 -0.5 -3.25 -1.25 Q-3.8 -1.95 -3.8 -2.85 -3.8 -4.0 -3.0 -4.75 L-2.2 -5.35 -1.05 -5.6 -0.15 -5.45 0.85 -4.75 M2.05 -9.4 L0.35 -9.4 0.35 -6.65 2.8 -6.65 2.05 -9.4 M7.0 -8.65 L7.7 -8.65 7.7 -6.2 7.75 -6.2 8.75 -6.1 9.55 -2.8 9.2 -2.35 9.05 -2.35 8.9 -2.75 8.3 -3.4 Q7.75 -3.8 7.1 -3.8 6.4 -3.8 5.85 -3.4 5.3 -3.0 5.1 -2.35 L2.25 -2.35 2.3 -2.85 2.3 -2.95 Q2.25 -4.0 1.65 -4.8 L1.3 -5.2 Q0.35 -6.2 -1.05 -6.2 L-2.2 -6.0 -2.95 -5.6 -2.95 -9.9 2.25 -9.9 3.65 -6.65 7.0 -6.35 7.0 -8.65" fill="#8cb5e6" fill-rule="evenodd" stroke="none"/>
    </g>
  </defs>
</svg>
