<?xml version="1.0" encoding="UTF-8" standalone="no"?>
<svg xmlns:xlink="http://www.w3.org/1999/xlink" height="22.7px" width="23.85px" xmlns="http://www.w3.org/2000/svg">
  <g transform="matrix(1.0, 0.0, 0.0, 1.0, 10.9, 10.8)">
    <use data-characterId="357" height="22.7" transform="matrix(1.0, 0.0, 0.0, 1.0, -10.9, -10.8)" width="23.85" xlink:href="#shape0"/>
  </g>
  <defs>
    <g id="shape0" transform="matrix(1.0, 0.0, 0.0, 1.0, 10.9, 10.8)">
      <path d="M12.6 -9.55 L12.65 -9.5 Q13.35 -9.0 12.4 -7.2 L10.7 -4.65 Q8.2 -1.1 6.15 0.85 L4.15 2.5 4.05 2.65 Q2.15 4.4 2.15 6.25 2.85 5.75 3.6 5.45 4.0 5.25 4.45 5.45 L4.9 5.9 4.9 5.95 5.0 6.65 5.0 6.7 3.8 8.75 3.65 8.95 2.85 9.75 1.85 10.75 1.65 10.9 Q0.7 11.5 -0.05 11.75 L-0.65 11.9 -1.35 11.6 -1.65 10.9 -1.65 10.85 -1.55 10.6 Q-1.4 9.8 -0.2 8.4 L-1.35 5.85 Q-1.8 5.8 -2.15 5.45 L-2.4 5.25 -2.75 4.5 -5.35 3.3 -5.5 3.4 -5.6 3.45 Q-6.95 4.55 -7.6 4.7 L-7.75 4.7 -8.25 4.65 -8.3 4.6 -8.8 4.05 -8.8 3.45 Q-8.45 1.9 -6.75 0.2 -5.15 -1.3 -3.75 -1.8 L-3.7 -1.85 -3.65 -1.85 Q-3.35 -2.05 -2.9 -1.85 L-2.4 -1.35 -2.35 -1.25 -2.4 -0.55 -2.45 -0.5 -3.2 0.95 Q-1.45 0.95 0.4 -0.85 L0.5 -0.95 2.25 -3.05 2.25 -3.0 Q4.1 -5.15 7.75 -7.65 11.8 -10.55 12.6 -9.55" fill="#081a15" fill-opacity="0.49803922" fill-rule="evenodd" stroke="none"/>
      <path d="M10.65 -10.5 Q11.4 -10.05 10.35 -8.2 L10.4 -8.2 8.7 -5.65 8.6 -5.55 Q6.25 -2.15 4.25 -0.3 L4.15 -0.2 2.05 1.55 2.05 1.6 Q0.1 3.4 0.15 5.3 0.85 4.8 1.6 4.45 L2.35 4.4 2.9 4.9 Q3.1 5.25 2.95 5.65 L1.7 7.85 1.65 7.9 1.65 7.95 0.85 8.75 -0.15 9.75 -0.2 9.75 -0.25 9.8 -2.0 10.75 -2.65 10.9 -3.35 10.6 -3.65 9.9 -3.65 9.85 -3.6 9.55 -3.6 9.6 Q-3.45 8.85 -2.25 7.45 L-3.35 4.85 -4.1 4.5 -4.2 4.45 -4.15 4.45 -4.35 4.3 -4.4 4.25 -4.75 3.5 -7.4 2.3 -7.45 2.35 -7.4 2.3 -7.45 2.35 -9.65 3.7 -9.65 3.65 -10.3 3.6 -10.35 3.6 -10.8 3.1 -10.8 3.15 -10.85 2.45 Q-10.45 0.95 -8.8 -0.7 L-8.75 -0.85 Q-7.1 -2.35 -5.7 -2.9 L-4.95 -2.85 -4.9 -2.85 -4.4 -2.35 -4.4 -2.3 Q-4.25 -1.95 -4.45 -1.55 L-4.4 -1.55 -5.2 -0.05 Q-3.4 -0.1 -1.5 -1.95 L-1.5 -2.0 0.2 -4.05 Q2.1 -6.15 5.7 -8.65 9.75 -11.5 10.55 -10.6 L10.65 -10.5" fill="#000000" fill-rule="evenodd" stroke="none"/>
      <path d="M9.5 -8.7 L7.9 -6.25 Q5.5 -2.8 3.45 -0.95 L1.35 0.85 Q-1.85 3.9 -0.5 7.1 L-0.1 6.7 0.25 6.4 2.0 5.35 0.9 7.25 0.15 8.05 -0.85 9.0 Q-1.75 9.65 -2.55 9.85 L-2.65 9.9 -2.65 9.85 Q-2.45 9.15 -1.1 7.6 L-2.85 3.65 -2.9 3.7 Q-3.25 3.95 -3.5 3.7 L-3.7 3.55 -3.75 3.25 -3.75 3.1 -3.65 2.9 -7.6 1.1 -8.1 1.55 -9.9 2.7 Q-9.55 1.4 -8.05 -0.1 -6.6 -1.45 -5.35 -1.95 -5.7 -1.1 -6.35 -0.2 L-6.4 -0.1 -7.05 0.55 -5.85 0.9 Q-3.35 1.3 -0.8 -1.3 L0.95 -3.4 Q2.8 -5.45 6.25 -7.85 9.55 -10.15 9.9 -9.85 10.05 -9.65 9.5 -8.7" fill="#8cb5e6" fill-rule="evenodd" stroke="none"/>
    </g>
  </defs>
</svg>
