<?xml version="1.0" encoding="UTF-8" standalone="no"?>
<svg xmlns:xlink="http://www.w3.org/1999/xlink" height="15.55px" width="27.7px" xmlns="http://www.w3.org/2000/svg">
  <g transform="matrix(1.0, 0.0, 0.0, 1.0, 12.8, 7.75)">
    <use data-characterId="340" height="15.55" transform="matrix(1.0, 0.0, 0.0, 1.0, -12.8, -7.75)" width="27.7" xlink:href="#shape0"/>
  </g>
  <defs>
    <g id="shape0" transform="matrix(1.0, 0.0, 0.0, 1.0, 12.8, 7.75)">
      <path d="M-0.45 4.45 L-0.5 4.55 -0.5 4.6 -0.65 4.75 -0.65 4.8 -0.5 4.8 -0.5 4.6 -0.35 4.45 -0.35 4.55 -0.3 4.65 -0.3 4.8 -0.2 4.8 -0.2 4.7 -0.15 4.65 -0.3 4.45 -0.35 4.45 -0.45 4.45 M9.95 -7.75 Q10.8 -7.8 10.8 -6.95 L10.8 -5.7 11.25 -5.7 Q12.6 -5.75 13.6 -4.55 L14.05 -4.0 14.35 -3.55 14.75 -2.45 Q15.05 -1.2 14.75 4.5 L14.7 4.8 13.8 4.8 13.8 6.9 Q13.8 7.75 12.95 7.75 L11.5 7.75 Q10.7 7.75 10.7 6.9 L10.7 4.8 4.5 4.8 4.55 5.25 Q4.5 6.3 3.8 7.05 L3.0 7.6 2.95 7.6 2.9 7.65 2.1 7.8 1.95 7.8 Q0.85 7.75 0.15 7.05 L0.2 7.05 -0.4 6.15 -1.0 7.05 Q-1.75 7.75 -2.8 7.8 -3.9 7.75 -4.6 7.05 -5.35 6.3 -5.35 5.25 L-5.3 4.8 -10.55 4.8 -10.55 4.5 Q-11.05 -0.5 -10.55 -2.45 -9.8 -5.75 -7.15 -5.7 L-6.4 -5.7 -6.4 -6.95 Q-6.45 -7.75 -5.6 -7.75 L-2.25 -7.75 Q-1.4 -7.8 -1.4 -6.95 L-1.4 -5.7 1.35 -5.7 1.35 -6.95 Q1.3 -7.75 2.15 -7.75 L9.95 -7.75" fill="#081a15" fill-opacity="0.49803922" fill-rule="evenodd" stroke="none"/>
      <path d="M7.95 -7.75 Q8.8 -7.8 8.8 -6.95 L8.8 -5.7 9.25 -5.7 Q10.6 -5.75 11.6 -4.55 L12.05 -4.0 12.35 -3.55 12.75 -2.45 Q13.05 -1.2 12.75 4.5 L12.7 4.8 11.8 4.8 11.8 6.9 Q11.8 7.75 10.95 7.75 L9.5 7.75 Q8.7 7.75 8.7 6.9 L8.7 4.8 2.5 4.8 2.55 5.25 Q2.5 6.3 1.8 7.05 L1.0 7.6 0.95 7.6 0.9 7.65 0.1 7.8 -0.05 7.8 Q-1.15 7.75 -1.85 7.05 L-1.8 7.05 -2.4 6.15 -3.0 7.05 Q-3.75 7.75 -4.8 7.8 -5.9 7.75 -6.6 7.05 -7.35 6.3 -7.35 5.25 L-7.3 4.8 -12.55 4.8 -12.55 4.5 Q-13.05 -0.5 -12.55 -2.45 -11.8 -5.75 -9.15 -5.7 L-8.4 -5.7 -8.4 -6.95 Q-8.45 -7.75 -7.6 -7.75 L-4.25 -7.75 Q-3.4 -7.8 -3.4 -6.95 L-3.4 -5.7 -0.65 -5.7 -0.65 -6.95 Q-0.7 -7.75 0.15 -7.75 L7.95 -7.75 M-2.2 4.7 L-2.15 4.65 -2.2 4.65 -2.2 4.7" fill="#000000" fill-rule="evenodd" stroke="none"/>
      <path d="M0.1 0.05 Q0.6 0.05 0.6 -0.45 L0.6 -3.35 Q0.6 -3.85 0.1 -3.85 L-1.4 -3.85 Q-1.9 -3.85 -1.9 -3.35 L-1.9 -0.45 Q-1.9 0.05 -1.4 0.05 L0.1 0.05 M3.75 0.05 Q4.25 0.05 4.25 -0.45 L4.25 -3.35 Q4.25 -3.85 3.75 -3.85 L2.25 -3.85 Q1.75 -3.85 1.75 -3.35 L1.75 -0.45 Q1.75 0.05 2.25 0.05 L3.75 0.05 M-9.15 -4.7 L9.25 -4.7 Q10.15 -4.7 10.85 -3.85 L10.0 -3.85 Q9.5 -3.85 9.5 -3.35 L9.5 -0.45 Q9.5 0.05 10.0 0.05 L11.65 0.05 11.85 0.0 11.7 3.75 7.95 3.75 7.95 3.65 7.95 -3.35 Q7.95 -3.85 7.45 -3.85 L5.95 -3.85 Q5.45 -3.85 5.45 -3.35 L5.45 3.65 5.45 3.75 2.6 3.75 2.6 2.85 Q2.6 2.35 2.1 2.35 L-7.05 2.35 Q-7.55 2.35 -7.55 2.85 L-7.55 3.75 -11.6 3.75 Q-12.0 -0.6 -11.55 -2.25 -11.0 -4.7 -9.15 -4.7 M7.75 -6.75 L7.75 -5.4 0.4 -5.4 0.4 -6.75 7.75 -6.75 M10.75 6.7 L9.7 6.7 9.7 4.7 10.75 4.7 10.75 6.7 M-0.05 4.0 Q0.5 4.0 0.85 4.35 L1.2 5.25 Q1.2 5.75 0.85 6.1 L-0.05 6.45 Q-0.55 6.45 -0.9 6.1 -1.25 5.75 -1.25 5.25 -1.25 4.75 -0.9 4.35 -0.55 4.0 -0.05 4.0 M-5.6 -3.85 L-6.25 -3.85 Q-6.75 -3.85 -6.75 -3.35 L-6.75 -0.45 Q-6.75 0.05 -6.25 0.05 L-5.6 0.05 Q-5.1 0.05 -5.1 -0.45 L-5.1 -3.35 Q-5.1 -3.85 -5.6 -3.85 M-8.25 -3.85 L-8.95 -3.85 Q-9.45 -3.85 -9.45 -3.35 L-9.45 -0.45 Q-9.45 0.05 -8.95 0.05 L-8.25 0.05 Q-7.75 0.05 -7.75 -0.45 L-7.75 -3.35 Q-7.75 -3.85 -8.25 -3.85 M-4.45 -6.75 L-4.45 -5.4 -7.4 -5.4 -7.4 -6.75 -4.45 -6.75 M-4.8 4.0 Q-4.3 4.0 -3.95 4.35 -3.6 4.75 -3.6 5.25 -3.6 5.75 -3.95 6.1 -4.3 6.45 -4.8 6.45 -5.3 6.45 -5.7 6.1 L-6.05 5.25 Q-6.05 4.75 -5.7 4.35 -5.3 4.0 -4.8 4.0" fill="#8cb5e6" fill-rule="evenodd" stroke="none"/>
    </g>
  </defs>
</svg>
