<?xml version="1.0" encoding="UTF-8" standalone="no"?>
<svg xmlns:xlink="http://www.w3.org/1999/xlink" height="22.8px" width="22.5px" xmlns="http://www.w3.org/2000/svg">
  <g transform="matrix(1.0, 0.0, 0.0, 1.0, 9.75, 10.9)">
    <use data-characterId="310" height="22.8" transform="matrix(1.0, 0.0, 0.0, 1.0, -9.75, -10.9)" width="22.5" xlink:href="#shape0"/>
  </g>
  <defs>
    <g id="shape0" transform="matrix(1.0, 0.0, 0.0, 1.0, 9.75, 10.9)">
      <path d="M3.0 -9.9 Q5.9 -9.9 8.1 -8.0 L8.15 -7.95 8.1 -8.0 9.15 -7.0 9.1 -7.0 9.15 -6.95 Q10.4 -5.5 10.8 -3.55 L10.95 -3.2 10.95 7.4 11.75 7.4 12.45 7.7 12.75 8.4 12.75 10.9 12.45 11.6 11.75 11.9 -5.75 11.9 -6.45 11.6 -6.75 10.9 -6.75 8.4 -6.45 7.7 Q-6.15 7.4 -5.75 7.4 L-4.95 7.4 -4.95 -3.2 -4.8 -3.5 Q-4.25 -6.25 -2.1 -8.0 0.1 -9.9 3.0 -9.9" fill="#081a15" fill-rule="evenodd" stroke="none"/>
      <path d="M6.15 -7.95 Q7.4 -6.5 7.8 -4.55 L7.95 -4.2 7.95 6.4 8.75 6.4 Q9.15 6.4 9.45 6.7 L9.75 7.4 9.75 9.9 9.45 10.6 8.75 10.9 -8.75 10.9 -9.45 10.6 -9.75 9.9 -9.75 7.4 -9.45 6.7 Q-9.15 6.4 -8.75 6.4 L-7.95 6.4 -7.95 -4.2 -7.8 -4.5 Q-7.25 -7.25 -5.1 -9.0 -2.9 -10.9 0.0 -10.9 2.9 -10.9 5.1 -9.0 L5.15 -8.95 5.1 -9.0 6.15 -8.0 6.1 -8.0 6.15 -7.95" fill="#000000" fill-rule="evenodd" stroke="none"/>
      <path d="M-4.45 2.45 L-4.6 2.3 -5.35 1.5 -5.35 7.4 -0.8 7.4 -0.8 4.0 Q-2.9 3.75 -4.45 2.45 M5.35 7.4 L5.35 1.5 Q3.55 3.7 0.8 4.0 L0.8 7.4 5.35 7.4 M6.95 7.4 L8.75 7.4 8.75 9.9 -8.75 9.9 -8.75 7.4 -6.95 7.4 -6.95 -3.05 6.95 -3.05 6.95 7.4 M5.35 -7.35 Q6.5 -6.0 6.85 -4.15 L-6.85 -4.15 Q-6.4 -6.65 -4.45 -8.25 -2.55 -9.9 0.0 -9.9 2.55 -9.9 4.45 -8.25 L5.35 -7.35" fill="#8cb5e6" fill-rule="evenodd" stroke="none"/>
    </g>
  </defs>
</svg>
