<?xml version="1.0" encoding="UTF-8" standalone="no"?>
<svg xmlns:xlink="http://www.w3.org/1999/xlink" height="17.1px" width="29.75px" xmlns="http://www.w3.org/2000/svg">
  <g transform="matrix(1.0, 0.0, 0.0, 1.0, 13.4, 7.8)">
    <use data-characterId="291" height="17.1" transform="matrix(1.0, 0.0, 0.0, 1.0, -13.4, -7.8)" width="29.75" xlink:href="#shape0"/>
  </g>
  <defs>
    <g id="shape0" transform="matrix(1.0, 0.0, 0.0, 1.0, 13.4, 7.8)">
      <path d="M5.1 -6.3 L8.25 0.4 9.95 -1.8 12.05 1.65 12.95 1.45 16.35 9.3 -10.4 9.3 -5.45 0.7 -4.25 1.7 0.0 -3.1 0.25 -2.8 1.9 -0.9 5.1 -6.3" fill="#081a15" fill-rule="evenodd" stroke="none"/>
      <path d="M-2.45 3.15 L-2.7 4.75 0.05 2.5 3.3 4.95 3.1 3.4 6.8 6.05 8.8 4.0 12.2 6.75 9.7 0.85 8.6 2.65 6.9 -2.15 5.1 0.15 3.15 -4.05 2.3 -2.45 1.9 -6.2 -4.1 3.85 -2.45 3.15 M-8.1 3.0 L-8.3 0.35 -12.25 7.15 -12.1 7.15 -5.1 4.25 -1.45 -1.8 -3.0 -3.6 -6.25 0.1 -8.1 3.0 M2.1 -7.8 L5.25 -1.1 6.95 -3.3 9.05 0.15 9.95 -0.05 13.35 7.8 -13.4 7.8 -8.45 -0.8 -7.25 0.2 -3.0 -4.6 -2.75 -4.3 -1.1 -2.4 2.1 -7.8" fill="#000000" fill-rule="evenodd" stroke="none"/>
      <path d="M-8.1 3.0 L-6.25 0.1 -3.0 -3.6 -1.45 -1.8 -5.1 4.25 -12.1 7.15 -12.25 7.15 -8.3 0.35 -8.1 3.0 M-2.45 3.15 L-4.1 3.85 1.9 -6.2 2.3 -2.45 3.15 -4.05 5.1 0.15 6.9 -2.15 8.6 2.65 9.7 0.85 12.2 6.75 8.8 4.0 6.8 6.05 3.1 3.4 3.3 4.95 0.05 2.5 -2.7 4.75 -2.45 3.15" fill="#8cb5e6" fill-rule="evenodd" stroke="none"/>
    </g>
  </defs>
</svg>
