<?xml version="1.0" encoding="UTF-8" standalone="no"?>
<svg xmlns:xlink="http://www.w3.org/1999/xlink" height="21.7px" width="15.9px" xmlns="http://www.w3.org/2000/svg">
  <g transform="matrix(1.0, 0.0, 0.0, 1.0, 6.6, 11.0)">
    <use data-characterId="283" height="21.7" transform="matrix(1.0, 0.0, 0.0, 1.0, -6.6, -11.0)" width="15.9" xlink:href="#shape0"/>
  </g>
  <defs>
    <g id="shape0" transform="matrix(1.0, 0.0, 0.0, 1.0, 6.6, 11.0)">
      <path d="M9.3 -5.8 L7.35 -5.8 7.35 -3.2 8.5 -3.2 8.5 0.7 7.4 0.7 8.35 10.7 -3.25 10.7 -2.3 0.7 -3.3 0.7 -3.3 -3.2 -2.2 -3.2 -2.2 -5.8 -4.1 -5.8 2.55 -10.0 9.3 -5.8" fill="#081a15" fill-opacity="0.49803922" fill-rule="evenodd" stroke="none"/>
      <path d="M6.8 -6.8 L4.85 -6.8 4.85 -4.2 6.0 -4.2 6.0 -0.3 4.9 -0.3 5.85 9.7 -5.75 9.7 -4.8 -0.3 -5.8 -0.3 -5.8 -4.2 -4.7 -4.2 -4.7 -6.8 -6.6 -6.8 0.05 -11.0 6.8 -6.8" fill="#000000" fill-rule="evenodd" stroke="none"/>
      <path d="M2.65 -4.75 L2.65 -6.35 1.05 -6.35 1.05 -4.75 2.65 -4.75 M0.05 -9.8 L3.2 -7.85 -3.05 -7.85 0.05 -9.8 M4.95 -1.35 L2.4 -1.35 2.4 -1.9 4.95 -1.9 4.95 -1.35 M-1.6 -1.35 L-1.6 -1.9 1.75 -1.9 1.75 -1.35 -1.6 -1.35 M4.95 -3.2 L4.95 -2.55 2.4 -2.55 2.4 -3.2 4.95 -3.2 M-1.6 -3.2 L1.75 -3.2 1.75 -2.55 -1.6 -2.55 -1.6 -3.2 M3.8 -7.15 L3.8 -3.9 -3.7 -3.9 -3.7 -7.15 3.8 -7.15 M4.75 8.55 L0.85 6.5 4.35 4.6 4.75 8.55 M-3.15 4.35 L3.5 4.35 0.15 6.15 -3.15 4.35 M4.25 3.45 L0.75 1.3 3.85 -0.6 4.25 3.45 M3.4 3.7 L-3.2 3.7 0.1 1.7 3.4 3.7 M3.55 8.65 L-3.25 8.65 0.15 6.85 3.55 8.65 M0.1 0.95 L-2.45 -0.65 2.7 -0.65 0.1 0.95 M-0.9 -4.75 L-0.9 -6.35 -2.5 -6.35 -2.5 -4.75 -0.9 -4.75 M-4.8 -1.35 L-4.8 -1.9 -2.25 -1.9 -2.25 -1.35 -4.8 -1.35 M-3.7 -0.65 L-0.5 1.3 -4.1 3.5 -3.75 -0.65 -3.7 -0.65 M-4.8 -3.2 L-2.25 -3.2 -2.25 -2.55 -4.8 -2.55 -4.8 -3.2 M-4.6 8.65 L-4.2 4.55 -0.55 6.5 -4.6 8.65" fill="#8cb5e6" fill-rule="evenodd" stroke="none"/>
    </g>
  </defs>
</svg>
