<?xml version="1.0" encoding="UTF-8" standalone="no"?>
<svg xmlns:xlink="http://www.w3.org/1999/xlink" height="21.5px" width="21.5px" xmlns="http://www.w3.org/2000/svg">
  <g transform="matrix(1.0, 0.0, 0.0, 1.0, 9.9, 10.0)">
    <use data-characterId="259" height="21.5" transform="matrix(1.0, 0.0, 0.0, 1.0, -9.9, -10.0)" width="21.5" xlink:href="#shape0"/>
  </g>
  <defs>
    <g id="shape0" transform="matrix(1.0, 0.0, 0.0, 1.0, 9.9, 10.0)">
      <path d="M11.6 1.5 Q11.6 5.65 8.7 8.6 5.75 11.5 1.6 11.5 -2.55 11.5 -5.45 8.6 -8.4 5.65 -8.4 1.5 -8.4 -2.6 -5.45 -5.55 -2.5 -8.5 1.6 -8.5 5.75 -8.5 8.7 -5.55 11.6 -2.65 11.6 1.5" fill="#081a15" fill-opacity="0.49803922" fill-rule="evenodd" stroke="none"/>
      <path d="M0.5 -5.5 L-0.3 -5.5 -0.3 -8.0 0.1 -8.0 0.5 -8.0 0.5 -5.5 M-3.15 -3.6 Q-3.15 -4.45 -2.3 -4.45 L2.5 -4.45 Q3.45 -4.45 3.35 -3.6 L3.35 -1.9 Q3.35 -1.35 2.95 -1.15 L2.55 -1.05 -2.3 -1.05 Q-3.15 -1.05 -3.15 -1.9 L-3.15 -3.6 M3.15 5.2 L3.5 5.05 Q4.4 4.6 4.4 3.6 L4.4 -3.9 Q4.4 -4.55 3.95 -5.0 3.5 -5.45 2.85 -5.5 L1.55 -5.5 1.55 -7.9 Q4.0 -7.45 5.8 -5.65 8.15 -3.3 8.15 0.0 8.15 3.35 5.8 5.7 3.45 8.05 0.1 8.05 -3.2 8.05 -5.55 5.7 -7.95 3.35 -7.95 0.0 -7.95 -3.3 -5.55 -5.65 -3.75 -7.45 -1.35 -7.85 L-1.35 -5.5 -2.6 -5.5 Q-4.1 -5.4 -4.2 -3.95 L-4.2 3.55 -3.9 4.5 Q-3.5 5.15 -2.75 5.2 L3.15 5.2 M10.1 0.0 Q10.1 4.15 7.2 7.1 4.25 10.0 0.1 10.0 -4.05 10.0 -6.95 7.1 -9.9 4.15 -9.9 0.0 -9.9 -4.1 -6.95 -7.05 -4.0 -10.0 0.1 -10.0 4.25 -10.0 7.2 -7.05 10.1 -4.15 10.1 0.0 M0.1 -9.25 Q-3.75 -9.25 -6.45 -6.55 -9.2 -3.8 -9.2 0.0 -9.2 3.85 -6.45 6.6 -3.75 9.3 0.1 9.3 3.95 9.3 6.7 6.6 9.4 3.85 9.4 0.0 9.4 -3.85 6.7 -6.55 3.95 -9.25 0.1 -9.25 M2.55 0.2 Q2.65 0.5 2.35 0.5 L-2.0 0.5 -2.35 0.25 -2.0 0.0 2.25 0.0 Q2.55 0.0 2.55 0.2 M-2.25 3.85 Q-3.1 3.75 -3.0 3.0 L-2.75 2.45 Q-2.5 2.2 -2.15 2.25 -1.4 2.25 -1.4 3.05 -1.5 3.95 -2.25 3.85 M-2.0 1.3 L-2.35 1.05 -2.0 0.8 2.35 0.8 2.6 1.05 2.35 1.3 -2.0 1.3 M2.25 3.85 Q1.45 3.85 1.45 3.05 1.45 2.25 2.25 2.25 3.05 2.25 3.05 3.05 L2.8 3.6 Q2.6 3.85 2.25 3.85" fill="#000000" fill-rule="evenodd" stroke="none"/>
      <path d="M2.25 3.85 Q2.6 3.85 2.8 3.6 L3.05 3.05 Q3.05 2.25 2.25 2.25 1.45 2.25 1.45 3.05 1.45 3.85 2.25 3.85 M-2.0 1.3 L2.35 1.3 2.6 1.05 2.35 0.8 -2.0 0.8 -2.35 1.05 -2.0 1.3 M-2.25 3.85 Q-1.5 3.95 -1.4 3.05 -1.4 2.25 -2.15 2.25 -2.5 2.2 -2.75 2.45 L-3.0 3.0 Q-3.1 3.75 -2.25 3.85 M2.55 0.2 Q2.55 0.0 2.25 0.0 L-2.0 0.0 -2.35 0.25 -2.0 0.5 2.35 0.5 Q2.65 0.5 2.55 0.2 M0.1 -9.25 Q3.95 -9.25 6.7 -6.55 9.4 -3.85 9.4 0.0 9.4 3.85 6.7 6.6 3.95 9.3 0.1 9.3 -3.75 9.3 -6.45 6.6 -9.2 3.85 -9.2 0.0 -9.2 -3.8 -6.45 -6.55 -3.75 -9.25 0.1 -9.25 M3.15 5.2 L-2.75 5.2 Q-3.5 5.15 -3.9 4.5 L-4.2 3.55 -4.2 -3.95 Q-4.1 -5.4 -2.6 -5.5 L-1.35 -5.5 -1.35 -7.85 Q-3.75 -7.45 -5.55 -5.65 -7.95 -3.3 -7.95 0.0 -7.95 3.35 -5.55 5.7 -3.2 8.05 0.1 8.05 3.45 8.05 5.8 5.7 8.15 3.35 8.15 0.0 8.15 -3.3 5.8 -5.65 4.0 -7.45 1.55 -7.9 L1.55 -5.5 2.85 -5.5 Q3.5 -5.45 3.95 -5.0 4.4 -4.55 4.4 -3.9 L4.4 3.6 Q4.4 4.6 3.5 5.05 L3.15 5.2 M-3.15 -3.6 L-3.15 -1.9 Q-3.15 -1.05 -2.3 -1.05 L2.55 -1.05 2.95 -1.15 Q3.35 -1.35 3.35 -1.9 L3.35 -3.6 Q3.45 -4.45 2.5 -4.45 L-2.3 -4.45 Q-3.15 -4.45 -3.15 -3.6 M0.5 -5.5 L0.5 -8.0 0.1 -8.0 -0.3 -8.0 -0.3 -5.5 0.5 -5.5" fill="#8cb5e6" fill-rule="evenodd" stroke="none"/>
    </g>
  </defs>
</svg>
