<?xml version="1.0" encoding="UTF-8" standalone="no"?>
<svg xmlns:xlink="http://www.w3.org/1999/xlink" height="24.55px" width="14.25px" xmlns="http://www.w3.org/2000/svg">
  <g transform="matrix(1.0, 0.0, 0.0, 1.0, 5.85, 10.3)">
    <use data-characterId="243" height="24.55" transform="matrix(1.0, 0.0, 0.0, 1.0, -5.85, -10.3)" width="14.25" xlink:href="#shape0"/>
  </g>
  <defs>
    <g id="shape0" transform="matrix(1.0, 0.0, 0.0, 1.0, 5.85, 10.3)">
      <path d="M-1.2 12.55 Q-2.45 12.55 -3.25 11.7 L-3.35 11.6 -3.35 11.45 Q-3.45 6.75 -1.85 5.85 L-1.9 3.7 Q-1.85 1.8 -0.4 -1.1 L0.2 -2.4 Q0.75 -3.7 0.85 -5.5 L0.45 -5.9 0.4 -5.95 0.4 -6.95 0.3 -7.3 Q0.3 -8.3 2.65 -8.3 4.95 -8.3 4.95 -7.3 L4.85 -6.95 4.85 -5.95 4.8 -5.85 4.4 -5.5 Q4.5 -3.7 5.05 -2.4 L5.65 -1.1 Q7.1 1.8 7.15 3.7 L7.2 6.0 Q8.55 7.05 8.4 11.45 L8.4 11.6 8.3 11.7 Q7.5 12.55 6.25 12.55 L5.85 12.55 4.65 13.25 4.65 13.65 4.7 13.9 4.45 14.0 2.6 14.25 0.85 14.05 0.6 13.95 0.6 13.7 0.65 13.25 Q-0.25 13.0 -0.6 12.55 L-1.2 12.55" fill="#081a15" fill-rule="evenodd" stroke="none"/>
      <path d="M-3.7 10.55 Q-4.95 10.55 -5.75 9.7 L-5.85 9.6 -5.85 9.45 Q-5.95 4.75 -4.35 3.85 L-4.4 1.7 Q-4.35 -0.2 -2.9 -3.1 L-2.3 -4.4 Q-1.75 -5.7 -1.65 -7.5 L-2.05 -7.9 -2.1 -7.95 -2.1 -8.95 -2.2 -9.3 Q-2.2 -10.3 0.15 -10.3 2.45 -10.3 2.45 -9.3 L2.35 -8.95 2.35 -7.95 2.3 -7.85 1.9 -7.5 Q2.0 -5.7 2.55 -4.4 L3.15 -3.1 Q4.6 -0.2 4.65 1.7 L4.7 4.0 Q6.05 5.05 5.9 9.45 L5.9 9.6 5.8 9.7 Q5.0 10.55 3.75 10.55 L3.35 10.55 Q3.0 11.0 2.15 11.25 L2.15 11.65 2.2 11.9 1.95 12.0 0.1 12.25 -1.65 12.05 -1.9 11.95 -1.9 11.7 -1.85 11.25 Q-2.75 11.0 -3.1 10.55 L-3.7 10.55 M-1.4 -8.25 Q-0.9 -7.75 0.1 -7.75 1.0 -7.75 1.65 -8.25 L1.65 -8.5 0.15 -8.35 -1.4 -8.5 -1.4 -8.25 M-1.65 -4.1 L-2.3 -2.8 Q-3.65 -0.1 -3.7 1.7 -3.85 5.7 -2.6 9.95 L-1.75 10.55 -1.1 8.2 -0.3 6.15 0.0 5.55 0.35 6.15 1.25 8.05 2.05 10.55 2.85 9.95 3.9 5.05 3.95 1.7 Q3.9 -0.2 2.5 -2.8 L1.9 -4.1 Q1.4 -5.25 1.25 -7.2 L0.1 -7.05 -1.0 -7.2 Q-1.1 -5.4 -1.65 -4.1 M-1.45 -9.3 L0.15 -9.05 1.7 -9.3 0.15 -9.6 -1.45 -9.3 M2.75 1.45 L2.75 1.6 1.75 1.8 Q1.25 1.8 0.8 1.45 0.3 0.85 -0.65 0.85 -1.75 0.85 -2.6 1.35 -2.55 0.3 -1.8 -0.45 -1.05 -1.25 0.05 -1.25 1.2 -1.25 1.95 -0.45 2.75 0.35 2.75 1.45 M1.95 3.3 Q1.15 4.1 0.05 4.1 -1.05 4.1 -1.8 3.3 -2.35 2.8 -2.5 2.15 -1.65 1.55 -0.65 1.55 -0.05 1.55 0.35 1.95 0.9 2.5 1.7 2.5 L1.75 2.5 2.6 2.45 1.95 3.3 M5.2 9.3 Q5.25 6.25 4.6 5.1 L3.6 9.85 Q4.5 9.95 5.2 9.3 M-1.2 11.45 L1.45 11.4 Q1.35 9.85 0.05 7.1 -1.1 9.95 -1.2 11.45 M-5.15 9.3 Q-4.4 10.0 -3.4 9.85 -4.1 7.25 -4.3 4.8 -5.2 5.85 -5.15 9.3" fill="#000000" fill-rule="evenodd" stroke="none"/>
      <path d="M-1.2 11.45 Q-1.1 9.95 0.05 7.1 1.35 9.85 1.45 11.4 L-1.2 11.45 M5.2 9.3 Q4.5 9.95 3.6 9.85 L4.6 5.1 Q5.25 6.25 5.2 9.3 M-5.15 9.3 Q-5.2 5.85 -4.3 4.8 -4.1 7.25 -3.4 9.85 -4.4 10.0 -5.15 9.3 M1.95 3.3 L2.6 2.45 1.75 2.5 1.7 2.5 Q0.9 2.5 0.35 1.95 -0.05 1.55 -0.65 1.55 -1.65 1.55 -2.5 2.15 -2.35 2.8 -1.8 3.3 -1.05 4.1 0.05 4.1 1.15 4.1 1.95 3.3 M2.75 1.45 Q2.75 0.35 1.95 -0.45 1.2 -1.25 0.05 -1.25 -1.05 -1.25 -1.8 -0.45 -2.55 0.3 -2.6 1.35 -1.75 0.85 -0.65 0.85 0.3 0.85 0.8 1.45 1.25 1.8 1.75 1.8 L2.75 1.6 2.75 1.45 M-1.4 -8.25 L-1.4 -8.5 0.15 -8.35 1.65 -8.5 1.65 -8.25 Q1.0 -7.75 0.1 -7.75 -0.9 -7.75 -1.4 -8.25 M-1.65 -4.1 Q-1.1 -5.4 -1.0 -7.2 L0.1 -7.05 1.25 -7.2 Q1.4 -5.25 1.9 -4.1 L2.5 -2.8 Q3.9 -0.2 3.95 1.7 L3.9 5.05 2.85 9.95 2.05 10.55 1.25 8.05 0.35 6.15 0.0 5.55 -0.3 6.15 -1.1 8.2 -1.75 10.55 -2.6 9.95 Q-3.85 5.7 -3.7 1.7 -3.65 -0.1 -2.3 -2.8 L-1.65 -4.1 M-1.45 -9.3 L0.15 -9.6 1.7 -9.3 0.15 -9.05 -1.45 -9.3" fill="#8cb5e6" fill-rule="evenodd" stroke="none"/>
    </g>
  </defs>
</svg>
