<?xml version="1.0" encoding="UTF-8" standalone="no"?>
<svg xmlns:xlink="http://www.w3.org/1999/xlink" height="22.6px" width="23.05px" xmlns="http://www.w3.org/2000/svg">
  <g transform="matrix(1.0, 0.0, 0.0, 1.0, 10.4, 10.45)">
    <use data-characterId="235" height="22.6" transform="matrix(1.0, 0.0, 0.0, 1.0, -10.4, -10.45)" width="23.05" xlink:href="#shape0"/>
  </g>
  <defs>
    <g id="shape0" transform="matrix(1.0, 0.0, 0.0, 1.0, 10.4, 10.45)">
      <path d="M-7.8 -5.55 L1.25 -9.0 1.3 -9.0 Q1.7 -9.3 2.3 -9.0 L11.8 -5.55 11.9 -5.55 12.35 -5.15 12.4 -5.1 12.65 -4.4 12.65 10.9 12.3 11.8 Q11.9 12.15 11.4 12.15 L-7.4 12.15 Q-7.9 12.15 -8.25 11.8 -8.65 11.4 -8.65 10.9 L-8.65 -4.4 -8.35 -5.1 -8.3 -5.15 -7.95 -5.45 -7.8 -5.55" fill="#081a15" fill-opacity="0.49803922" fill-rule="evenodd" stroke="none"/>
      <path d="M10.2 -6.45 L10.4 -5.9 10.4 9.4 10.1 10.1 9.4 10.4 -9.4 10.4 -10.1 10.1 -10.4 9.4 -10.4 -5.9 -10.2 -6.45 -9.75 -6.8 -9.75 -6.85 -0.6 -10.35 0.1 -10.35 9.75 -6.85 9.8 -6.8 10.25 -6.4 10.2 -6.45 M8.4 -5.2 L7.55 -5.5 7.55 8.4 8.4 8.4 8.4 -5.2 M-0.25 -8.3 L-6.8 -5.8 6.75 -5.8 -0.25 -8.3 M-8.05 -5.3 L-8.4 -5.2 -8.4 8.4 -8.05 8.4 -8.05 -5.3" fill="#000000" fill-rule="evenodd" stroke="none"/>
      <path d="M5.9 1.7 L5.9 -3.5 3.3 -3.5 3.3 1.7 5.9 1.7 M2.55 8.25 L2.55 3.1 -2.65 3.1 -2.65 8.25 2.55 8.25 M9.4 9.4 L-9.4 9.4 -9.4 -5.9 -0.25 -9.4 9.4 -5.9 9.4 9.4 M1.3 1.7 L1.3 -3.5 -1.3 -3.5 -1.3 1.7 1.3 1.7 M-3.4 1.7 L-3.4 -3.5 -5.95 -3.5 -5.95 1.7 -3.4 1.7" fill="#8cb5e6" fill-rule="evenodd" stroke="none"/>
    </g>
  </defs>
</svg>
