<?xml version="1.0" encoding="UTF-8" standalone="no"?>
<svg xmlns:xlink="http://www.w3.org/1999/xlink" height="15.45px" width="23.9px" xmlns="http://www.w3.org/2000/svg">
  <g transform="matrix(1.0, 0.0, 0.0, 1.0, 10.55, 7.3)">
    <use data-characterId="233" height="15.45" transform="matrix(1.0, 0.0, 0.0, 1.0, -10.55, -7.3)" width="23.9" xlink:href="#shape0"/>
  </g>
  <defs>
    <g id="shape0" transform="matrix(1.0, 0.0, 0.0, 1.0, 10.55, 7.3)">
      <path d="M0.7 4.6 L0.8 4.7 0.65 4.65 0.7 4.6 0.6 4.55 0.6 4.6 0.75 4.8 0.75 5.1 0.8 5.1 -0.3 6.75 Q-1.7 8.1 -3.7 8.15 -5.65 8.1 -7.0 6.75 -8.35 5.35 -8.35 3.4 -8.4 1.9 -7.5 0.7 L-7.5 0.75 -4.05 -5.05 -3.65 -5.4 -2.8 -6.4 Q-1.9 -7.05 -0.95 -7.1 L-0.8 -7.1 -0.3 -7.05 Q0.7 -6.85 1.3 -5.7 L1.45 -5.45 1.5 -5.4 1.5 -5.35 1.6 -5.15 1.6 -5.1 1.8 -4.55 1.8 -4.5 2.6 -4.3 3.2 -4.4 Q3.3 -5.1 3.7 -5.7 L3.65 -5.7 Q4.25 -6.85 5.35 -7.05 L5.85 -7.1 Q6.8 -7.15 7.75 -6.4 L8.3 -5.9 8.7 -5.35 9.05 -5.05 12.4 0.45 12.85 1.1 13.1 1.6 13.15 1.65 13.15 1.8 13.2 1.95 13.25 2.0 13.25 2.1 13.25 2.2 13.3 2.25 13.3 2.35 13.3 2.45 13.3 2.55 13.35 2.6 13.35 2.85 13.35 3.25 Q13.3 5.25 12.0 6.65 10.6 8.0 8.65 8.05 6.7 8.0 5.4 6.65 L5.25 6.5 5.2 6.45 5.05 6.3 5.0 6.3 5.0 6.25 4.2 4.85 4.2 4.9 4.15 4.95 Q3.45 5.65 2.5 5.65 1.65 5.65 0.95 5.1 L0.8 5.1 0.95 4.55 0.85 4.45 0.7 4.6 M0.75 4.8 L0.75 4.7 0.8 4.9 0.75 4.8" fill="#081a15" fill-opacity="0.49803922" fill-rule="evenodd" stroke="none"/>
      <path d="M9.6 0.1 L10.05 0.75 10.3 1.25 10.35 1.45 10.4 1.6 10.4 1.7 10.45 1.85 10.45 2.0 10.45 2.05 10.5 2.2 10.5 2.3 10.5 2.75 Q10.5 4.6 9.25 5.9 7.95 7.2 6.15 7.2 4.35 7.2 3.1 5.9 L2.95 5.75 2.9 5.7 2.75 5.55 Q2.1 4.75 1.9 3.8 L1.6 3.95 1.4 4.2 Q0.8 4.8 0.0 4.8 -0.8 4.8 -1.4 4.25 L-1.45 4.25 -1.45 4.2 -1.7 3.85 -1.85 3.8 Q-2.1 5.05 -3.05 6.0 -4.35 7.3 -6.2 7.3 -8.0 7.3 -9.3 6.0 -10.55 4.7 -10.55 2.9 -10.55 1.5 -9.75 0.4 L-6.3 -5.4 -5.95 -5.65 -5.1 -6.65 Q-4.3 -7.25 -3.45 -7.3 L-3.3 -7.3 -2.9 -7.25 Q-2.0 -7.05 -1.5 -6.05 L-1.35 -5.8 -1.35 -5.75 -1.3 -5.7 -1.2 -5.5 -1.05 -5.0 -1.0 -4.75 0.1 -4.5 1.0 -4.7 Q1.05 -5.4 1.45 -6.05 1.95 -7.05 2.9 -7.25 L3.35 -7.3 Q4.2 -7.3 5.05 -6.65 L5.55 -6.2 5.95 -5.6 6.25 -5.4 9.6 0.1" fill="#000000" fill-rule="evenodd" stroke="none"/>
      <path d="M3.35 -6.55 L4.6 -6.05 4.45 -6.05 3.3 -5.9 1.95 -5.45 Q2.35 -6.35 3.1 -6.5 L3.35 -6.55 M4.2 -5.25 L5.65 -4.9 7.95 -1.2 6.15 -1.55 Q4.35 -1.55 3.1 -0.3 2.05 0.7 1.85 2.1 L1.4 1.4 Q0.8 0.8 0.0 0.8 -0.8 0.8 -1.4 1.4 L-1.45 1.4 -1.85 2.1 Q-2.1 0.8 -3.05 -0.2 -4.4 -1.45 -6.2 -1.45 L-8.05 -1.05 -5.7 -4.9 -4.25 -5.25 Q-3.45 -5.25 -2.4 -4.55 -0.8 -3.75 0.1 -3.75 1.15 -3.75 2.45 -4.6 3.6 -5.25 4.2 -5.25 M6.15 -5.2 L3.8 -5.25 4.45 -5.3 6.15 -5.2 M4.6 3.45 L5.05 3.75 Q4.5 2.75 5.3 1.95 6.1 1.15 7.1 1.65 L6.85 1.25 Q6.35 0.8 5.75 0.8 5.1 0.8 4.6 1.25 4.2 1.7 4.2 2.35 4.2 3.05 4.6 3.45 M9.6 0.1 L10.05 0.75 9.4 -0.15 9.6 0.1 M6.15 0.0 Q7.3 0.0 8.1 0.85 8.9 1.65 8.9 2.75 8.9 3.95 8.1 4.75 7.3 5.6 6.15 5.6 5.0 5.6 4.2 4.75 3.4 3.95 3.4 2.75 3.4 1.65 4.2 0.85 5.0 0.0 6.15 0.0 M0.9 2.75 L0.65 3.45 0.45 3.65 0.15 3.75 0.1 3.75 0.0 3.75 -0.7 3.45 -0.95 2.75 -0.7 2.2 -0.7 2.15 Q-0.35 1.85 0.0 1.85 0.35 1.85 0.65 2.15 L0.9 2.75 M-3.35 -6.55 L-3.05 -6.5 Q-2.4 -6.35 -2.0 -5.45 L-3.35 -5.9 -4.5 -6.05 -4.6 -6.05 -3.35 -6.55 M-1.05 -5.0 L-1.0 -4.75 -1.0 -4.4 -1.05 -5.0 M-6.2 -5.2 L-4.5 -5.3 -4.25 -5.3 -6.2 -5.2 M-6.2 0.1 Q-5.05 0.1 -4.25 0.9 -3.4 1.7 -3.4 2.9 -3.4 4.05 -4.25 4.85 -5.05 5.7 -6.2 5.7 -7.35 5.7 -8.15 4.85 -8.95 4.05 -8.95 2.9 -8.95 1.7 -8.15 0.9 -7.35 0.1 -6.2 0.1 M-7.85 3.45 L-7.45 3.75 Q-7.9 2.75 -7.15 1.95 -6.35 1.15 -5.35 1.65 L-5.6 1.25 Q-6.1 0.8 -6.75 0.8 -7.4 0.8 -7.85 1.25 L-8.3 2.35 -7.85 3.45" fill="#8cb5e6" fill-rule="evenodd" stroke="none"/>
    </g>
  </defs>
</svg>
