<?xml version="1.0" encoding="UTF-8" standalone="no"?>
<svg xmlns:xlink="http://www.w3.org/1999/xlink" height="21.25px" width="23.3px" xmlns="http://www.w3.org/2000/svg">
  <g transform="matrix(1.0, 0.0, 0.0, 1.0, 10.65, 9.85)">
    <use data-characterId="200" height="21.25" transform="matrix(1.0, 0.0, 0.0, 1.0, -10.65, -9.85)" width="23.3" xlink:href="#shape0"/>
  </g>
  <defs>
    <g id="shape0" transform="matrix(1.0, 0.0, 0.0, 1.0, 10.65, 9.85)">
      <path d="M-7.75 0.4 Q-6.7 -1.9 -5.3 -3.7 L-5.6 -4.0 -5.85 -4.45 -5.85 -4.75 -5.65 -5.1 -4.35 -6.4 -3.85 -6.65 -3.3 -6.4 -3.15 -6.25 -0.4 -8.1 0.0 -8.2 0.1 -8.15 0.45 -7.95 1.85 -6.6 2.05 -6.2 1.95 -5.7 1.95 -5.65 1.75 -5.45 1.65 -5.4 Q0.7 -4.95 -0.6 -3.75 L2.65 -0.5 6.25 -4.1 5.7 -4.65 Q5.45 -4.9 5.45 -5.2 L5.7 -5.7 8.1 -8.1 8.6 -8.35 8.65 -8.35 9.15 -8.1 12.45 -4.8 12.65 -4.3 12.45 -3.75 10.0 -1.35 9.45 -1.15 Q9.15 -1.15 8.95 -1.35 L8.4 -1.9 4.8 1.7 8.6 5.5 9.0 5.35 9.55 5.6 11.8 7.85 12.0 8.35 11.8 8.9 9.7 11.05 9.4 11.25 9.3 11.25 9.05 11.25 9.0 11.25 8.65 11.05 6.4 8.8 6.15 8.25 Q6.15 8.0 6.3 7.85 L2.45 4.0 1.0 5.45 2.65 7.1 2.85 7.25 3.05 7.75 2.85 8.3 1.5 9.65 Q-0.2 11.0 -1.55 11.2 L-5.55 11.35 -5.65 11.35 -6.15 11.4 -6.8 11.25 -7.05 10.7 -7.05 10.3 -7.05 10.1 -6.9 5.95 Q-6.75 4.55 -5.25 2.85 L-5.2 2.85 -3.95 1.5 -3.45 1.25 Q-3.15 1.25 -2.9 1.5 L-2.8 1.65 -1.15 3.25 0.3 1.85 -2.9 -1.35 -5.8 2.05 -5.9 2.15 -7.0 3.55 -7.0 3.6 -7.4 3.85 -7.45 3.85 -8.0 3.75 -8.3 3.5 -8.55 3.15 -8.6 2.65 -7.75 0.4" fill="#081a15" fill-opacity="0.49803922" fill-rule="evenodd" stroke="none"/>
      <path d="M6.6 -9.85 L7.15 -9.6 10.45 -6.3 10.65 -5.8 10.45 -5.25 8.0 -2.85 7.45 -2.65 Q7.15 -2.65 6.95 -2.85 L6.4 -3.4 2.8 0.2 6.6 4.0 7.0 3.85 7.55 4.1 9.8 6.35 10.0 6.85 9.8 7.4 7.7 9.55 7.35 9.75 6.95 9.75 7.0 9.75 6.65 9.55 4.4 7.3 4.15 6.75 4.3 6.35 0.45 2.5 -1.0 3.95 0.65 5.6 0.85 5.75 1.05 6.25 0.85 6.8 -0.5 8.15 Q-2.2 9.5 -3.55 9.7 L-7.55 9.85 -7.65 9.85 -8.15 9.9 -8.2 9.9 -8.8 9.75 -9.05 9.25 -9.05 9.2 -9.05 8.8 -9.05 8.6 -8.9 4.4 Q-8.75 3.1 -7.25 1.35 L-5.95 0.0 -5.45 -0.25 Q-5.15 -0.25 -4.9 0.0 L-4.8 0.15 -3.15 1.75 -1.7 0.35 -4.9 -2.85 -7.8 0.55 -7.85 0.6 -9.0 2.05 -9.45 2.35 -10.0 2.25 -10.3 2.0 -10.6 1.65 -10.6 1.6 -10.6 1.15 -9.75 -1.1 Q-8.75 -3.4 -7.3 -5.25 L-7.65 -5.55 -7.65 -5.5 -7.85 -5.85 -7.85 -6.25 -7.65 -6.6 -6.35 -7.9 -5.85 -8.15 -5.3 -7.9 -5.15 -7.75 -2.4 -9.6 -2.45 -9.6 -1.95 -9.7 -1.55 -9.45 -0.15 -8.1 0.05 -7.7 0.0 -7.25 -0.35 -6.9 Q-1.3 -6.45 -2.6 -5.25 L0.65 -2.0 4.25 -5.6 3.7 -6.15 Q3.45 -6.4 3.45 -6.7 L3.7 -7.2 6.1 -9.6 6.6 -9.85" fill="#000000" fill-rule="evenodd" stroke="none"/>
      <path d="M-6.35 -5.3 L-6.4 -5.35 -6.35 -5.35 -7.15 -6.1 -5.85 -7.4 -5.15 -6.7 Q-3.6 -8.2 -2.1 -8.95 L-0.7 -7.6 -3.65 -5.25 0.65 -0.95 5.3 -5.6 4.2 -6.7 6.6 -9.1 9.9 -5.8 7.45 -3.4 6.4 -4.45 1.75 0.2 6.6 5.0 7.0 4.6 9.25 6.85 7.15 9.0 4.9 6.75 5.3 6.3 0.45 1.45 -2.05 3.95 0.25 6.25 0.3 6.25 -1.0 7.55 Q-2.5 8.8 -3.7 8.95 L-7.55 9.1 -7.8 9.1 -8.3 9.1 -8.3 8.85 -8.3 8.6 -8.15 4.5 Q-8.0 3.35 -6.7 1.8 L-5.45 0.5 -5.45 0.55 -3.15 2.8 -0.65 0.35 -4.95 -3.95 -8.4 0.05 -9.6 1.6 -9.9 1.35 -9.1 -0.8 Q-7.95 -3.35 -6.35 -5.3 M7.45 -4.75 L8.5 -5.8 6.6 -7.7 5.6 -6.7 7.45 -4.75" fill="#8cb5e6" fill-rule="evenodd" stroke="none"/>
    </g>
  </defs>
</svg>
