<?xml version="1.0" encoding="UTF-8" standalone="no"?>
<svg xmlns:xlink="http://www.w3.org/1999/xlink" height="23.4px" width="16.45px" xmlns="http://www.w3.org/2000/svg">
  <g transform="matrix(1.0, 0.0, 0.0, 1.0, 7.2, 10.7)">
    <use data-characterId="192" height="23.4" transform="matrix(1.0, 0.0, 0.0, 1.0, -7.2, -10.7)" width="16.45" xlink:href="#shape0"/>
  </g>
  <defs>
    <g id="shape0" transform="matrix(1.0, 0.0, 0.0, 1.0, 7.2, 10.7)">
      <path d="M2.7 -4.4 L2.6 -4.3 2.6 -3.05 2.7 -2.95 2.85 -2.75 8.3 12.0 8.3 12.35 8.1 12.6 7.75 12.7 5.6 12.7 5.5 12.7 1.75 11.7 1.55 11.75 1.45 11.75 1.35 11.8 -1.75 12.7 -1.95 12.7 -4.2 12.7 -4.5 12.6 -4.7 12.35 -4.7 12.0 0.75 -2.75 0.85 -2.95 1.0 -3.05 1.0 -4.3 0.85 -4.4 0.8 -4.45 0.75 -4.4 0.7 -4.3 -0.35 -3.15 -0.3 -3.1 -0.15 -2.75 -0.15 -2.65 Q-0.15 -2.4 -0.3 -2.25 L-1.55 -1.0 -1.25 -0.8 -1.1 -0.4 -1.25 -0.1 -1.35 0.0 -4.45 3.2 Q-4.7 3.5 -5.0 3.45 L-5.5 3.25 -5.7 2.8 -5.5 2.3 -3.9 0.2 -4.0 0.2 -4.3 0.05 -4.35 0.0 -4.5 -0.35 -4.5 -0.55 -4.35 -0.9 -3.1 -2.1 -3.3 -2.35 Q-3.5 -2.7 -3.05 -3.1 L-3.0 -3.15 -2.5 -3.5 -4.5 -3.5 Q-5.15 -3.5 -5.15 -4.15 -5.15 -4.95 -4.55 -4.8 L-3.5 -5.0 -3.55 -5.15 -3.55 -5.55 -3.3 -5.8 -3.15 -5.85 -2.95 -5.9 -2.25 -5.9 Q-2.3 -6.4 -1.6 -6.4 L-1.5 -6.4 -0.85 -6.3 -1.25 -6.65 -1.7 -6.55 -2.25 -6.75 -2.25 -6.7 -4.15 -8.5 -4.25 -8.65 Q-4.45 -9.1 -4.25 -9.3 -4.2 -9.75 -3.7 -9.7 L-3.3 -9.5 -2.35 -8.95 -2.3 -9.05 -2.2 -9.15 -1.8 -9.3 -1.7 -9.3 -1.35 -9.15 -0.85 -8.65 -0.55 -8.75 -0.05 -8.55 0.0 -8.5 1.25 -6.9 1.3 -6.85 1.45 -6.55 1.8 -6.6 2.05 -6.55 2.3 -6.9 3.5 -8.5 3.55 -8.55 4.1 -8.75 4.4 -8.65 4.85 -9.15 5.25 -9.3 5.4 -9.3 5.75 -9.15 5.8 -9.1 5.95 -8.95 6.85 -9.55 Q7.15 -10.0 7.7 -9.45 8.1 -9.2 7.8 -8.65 L7.7 -8.5 5.75 -6.7 5.65 -6.65 5.55 -6.6 5.25 -6.55 4.9 -6.7 4.85 -6.75 4.5 -6.4 4.35 -6.3 5.1 -6.4 5.2 -6.4 Q5.85 -6.4 5.85 -5.9 L6.5 -5.9 6.8 -5.85 6.9 -5.8 7.1 -5.55 7.15 -5.15 7.1 -5.0 8.15 -4.8 Q8.75 -4.95 8.75 -4.15 8.75 -3.5 8.1 -3.5 L6.1 -3.5 6.55 -3.15 6.65 -3.1 Q7.15 -2.6 6.8 -2.25 L6.7 -2.1 7.9 -0.9 8.1 -0.55 8.1 -0.35 7.9 0.0 7.85 0.05 7.6 0.2 7.55 0.2 9.05 2.3 9.25 2.8 9.05 3.25 Q8.75 3.55 8.45 3.45 L8.2 3.3 4.9 0.0 4.8 -0.1 Q4.7 -0.3 4.75 -0.4 L4.8 -0.8 5.1 -1.0 3.9 -2.25 3.7 -2.65 3.7 -2.75 3.9 -3.1 3.95 -3.15 2.9 -4.3 2.8 -4.4 2.8 -4.45 2.7 -4.4 M3.7 -6.25 L3.6 -6.3 3.5 -6.2 3.8 -6.2 3.7 -6.25 M-0.05 -6.25 L-0.15 -6.2 0.05 -6.2 -0.05 -6.3 -0.05 -6.25" fill="#081a15" fill-opacity="0.49803922" fill-rule="evenodd" stroke="none"/>
      <path d="M4.55 -4.6 L4.6 -4.55 4.45 -4.6 4.55 -4.6 4.45 -4.65 4.1 -4.65 4.1 -4.6 4.4 -4.4 4.7 -4.4 4.7 -4.45 4.75 -4.4 5.05 -3.9 4.9 -3.35 5.9 -2.4 6.1 -1.9 6.1 -1.75 5.9 -1.2 5.7 -1.15 5.65 -1.1 5.7 -1.1 5.85 -1.15 5.75 -1.1 6.95 0.55 Q7.25 0.8 7.2 1.2 L6.95 1.8 Q6.5 2.2 6.1 2.05 L6.15 2.05 5.8 1.85 2.75 -1.2 2.65 -1.3 2.6 -1.4 Q2.4 -1.7 2.5 -1.85 L2.6 -2.2 2.6 -2.3 2.7 -2.4 1.8 -3.3 Q1.55 -3.55 1.55 -3.85 L1.55 -3.95 Q1.55 -4.15 1.7 -4.35 L1.0 -5.05 1.0 -4.35 1.05 -4.3 1.25 -4.05 1.25 -4.0 6.3 9.7 6.3 10.15 6.0 10.5 5.55 10.65 3.55 10.65 3.45 10.65 3.4 10.65 -0.05 9.75 -0.2 9.75 -0.25 9.75 -0.3 9.8 -3.2 10.65 -3.3 10.65 -3.45 10.65 -5.55 10.65 -6.0 10.5 -6.25 10.1 -6.2 9.6 -1.2 -3.95 -1.0 -4.3 -1.0 -4.35 -1.0 -5.05 -1.65 -4.35 -1.55 -3.95 -1.55 -3.85 -1.75 -3.3 -2.7 -2.4 -2.6 -2.3 -2.45 -1.8 -2.55 -1.4 -2.6 -1.3 -2.7 -1.2 -5.6 1.75 Q-5.9 2.1 -6.25 2.05 L-6.9 1.8 -7.2 1.2 Q-7.25 0.8 -6.9 0.55 L-6.85 0.55 -5.7 -1.05 -5.8 -1.15 -5.85 -1.2 -6.1 -1.75 -6.1 -1.9 -5.85 -2.4 -4.9 -3.35 -4.95 -3.5 Q-5.2 -3.9 -4.7 -4.4 L-4.65 -4.45 -4.7 -4.4 -4.35 -4.4 -4.05 -4.6 -4.1 -4.65 -4.4 -4.65 -4.5 -4.6 -4.7 -4.4 -5.85 -4.4 Q-6.7 -4.4 -6.7 -5.25 L-6.5 -5.95 -5.85 -6.1 -5.2 -6.25 -5.15 -6.7 -4.8 -7.0 -4.85 -6.95 -4.75 -7.0 -4.7 -7.05 -4.4 -7.15 -3.95 -7.15 -3.8 -7.4 -3.9 -7.45 -5.65 -9.1 -5.7 -9.2 -5.75 -9.25 -5.8 -9.35 Q-6.1 -9.9 -5.8 -10.15 -5.75 -10.7 -5.1 -10.65 L-5.05 -10.65 -4.55 -10.45 -3.9 -10.0 -3.85 -10.05 -3.35 -10.3 -3.25 -10.3 Q-2.95 -10.3 -2.7 -10.05 L-2.4 -9.75 -2.15 -9.8 Q-1.85 -9.8 -1.6 -9.6 L-1.4 -9.4 -0.3 -7.95 -0.25 -7.9 -0.15 -7.75 0.0 -7.8 0.1 -7.8 0.35 -8.0 1.35 -9.4 1.55 -9.55 2.15 -9.8 2.4 -9.75 2.65 -10.05 2.7 -10.05 3.2 -10.3 3.35 -10.3 3.9 -10.05 4.55 -10.45 4.55 -10.5 5.1 -10.7 5.65 -10.4 Q6.2 -10.05 5.85 -9.35 L5.8 -9.25 5.75 -9.2 5.7 -9.1 3.9 -7.45 3.85 -7.45 4.05 -7.15 4.4 -7.15 4.65 -7.1 4.75 -7.05 4.9 -7.0 5.15 -6.7 5.3 -6.25 5.9 -6.1 6.5 -5.95 6.7 -5.25 Q6.7 -4.4 5.85 -4.4 L4.75 -4.4 4.55 -4.6 M-1.7 -7.15 L-1.7 -7.2 -1.8 -7.15 -1.7 -7.15 -1.6 -7.15 -1.65 -7.2 -1.7 -7.15 M-4.5 -4.6 L-4.45 -4.6 -4.6 -4.55 -4.5 -4.6" fill="#000000" fill-rule="evenodd" stroke="none"/>
      <path d="M-2.15 8.95 L-4.25 8.95 -4.45 9.05 -4.6 9.5 -2.15 8.95 M-0.85 8.5 L-1.45 7.85 -1.7 7.65 -2.55 6.75 -3.3 6.0 -4.25 8.45 -4.15 8.5 -0.85 8.5 M-0.65 1.85 L-1.0 -0.15 -1.75 1.85 -0.65 1.85 M-1.45 2.35 L-0.05 5.1 1.55 2.35 -1.45 2.35 M-0.8 5.15 L-2.1 2.75 -3.0 5.15 -0.8 5.15 M-1.55 -5.95 L-1.4 -5.9 -1.4 -5.75 -2.95 -4.1 -2.35 -4.0 -2.3 -3.95 -2.3 -3.85 -4.1 -2.05 -3.35 -1.95 -3.25 -1.85 -3.25 -1.75 -6.25 1.25 -6.4 1.25 -6.4 1.1 -4.45 -1.55 -5.3 -1.7 -5.35 -1.75 -5.35 -1.9 -3.55 -3.65 -4.1 -3.75 -4.2 -3.8 -4.15 -3.95 -1.55 -5.95 M-2.2 -6.0 L-2.2 -5.9 -2.3 -5.8 -3.65 -5.8 -3.35 -5.4 -3.35 -5.3 -3.4 -5.2 -5.85 -5.15 -5.95 -5.25 -5.9 -5.35 -4.15 -5.75 -4.45 -6.2 -4.5 -6.35 -4.4 -6.4 -3.05 -6.4 -3.25 -6.7 -3.25 -6.8 -3.15 -6.85 -1.25 -6.6 -1.15 -6.5 -1.25 -6.4 -2.45 -6.35 -2.2 -6.0 M-0.85 -7.45 L-0.85 -7.3 -1.0 -7.3 -1.9 -8.1 -2.05 -7.6 -2.15 -7.65 -3.1 -8.6 -3.2 -8.1 -3.25 -8.0 -3.4 -8.05 -5.15 -9.7 -5.15 -9.85 -5.0 -9.85 -3.5 -8.9 -3.45 -9.45 -3.35 -9.55 -3.25 -9.55 -2.3 -8.6 -2.25 -8.95 -2.15 -9.05 -2.05 -9.0 -0.85 -7.45 M-2.65 5.65 L-1.55 6.8 -1.4 6.9 0.0 8.35 2.75 5.65 -2.65 5.65 M3.5 6.45 L3.5 6.4 3.35 6.05 0.9 8.5 4.15 8.5 4.25 8.45 3.5 6.45 M4.6 9.5 L4.45 9.05 4.25 8.95 2.05 8.95 4.6 9.5 M2.25 3.1 L2.15 2.8 0.8 5.15 3.0 5.15 2.3 3.15 2.25 3.1 M1.75 1.85 L1.1 -0.05 0.7 1.85 1.75 1.85 M-0.25 -0.95 L-0.4 -0.9 0.05 1.3 0.45 -0.9 0.35 -0.95 -0.25 -0.95 M0.55 -1.45 L0.0 -2.9 -0.55 -1.45 0.55 -1.45 M4.2 -3.75 L4.1 -3.75 3.55 -3.65 5.35 -1.9 5.35 -1.75 5.3 -1.7 4.45 -1.55 6.4 1.1 6.4 1.25 6.3 1.3 3.25 -1.75 3.25 -1.85 3.35 -1.95 4.1 -2.05 2.3 -3.85 2.3 -3.95 2.35 -4.0 2.95 -4.1 1.4 -5.75 1.4 -5.9 1.55 -5.95 4.15 -3.95 4.2 -3.8 4.2 -3.75 M0.5 -3.8 L5.55 9.9 3.55 9.9 -0.05 8.95 -0.35 9.0 -0.55 9.05 -3.45 9.9 -5.55 9.9 -0.5 -3.8 -0.25 -3.95 -0.25 -6.25 0.0 -6.55 0.25 -6.25 0.25 -3.95 0.5 -3.8 M3.15 -6.85 L3.25 -6.8 3.25 -6.7 3.05 -6.4 4.4 -6.4 4.5 -6.35 4.45 -6.2 4.15 -5.75 5.9 -5.35 5.95 -5.25 5.85 -5.15 3.4 -5.2 3.35 -5.3 3.35 -5.4 3.65 -5.8 2.3 -5.8 2.2 -5.85 2.2 -6.0 2.45 -6.35 1.25 -6.4 1.15 -6.5 1.25 -6.6 3.15 -6.85 M3.35 -8.05 L3.25 -8.0 3.15 -8.1 3.1 -8.65 2.15 -7.7 2.0 -7.65 1.95 -7.75 1.9 -8.15 1.0 -7.3 0.85 -7.3 Q0.7 -7.4 0.8 -7.45 L2.0 -9.0 2.15 -9.05 2.2 -8.95 2.25 -8.6 3.2 -9.55 3.35 -9.55 3.4 -9.5 3.5 -8.9 5.0 -9.9 5.15 -9.85 5.15 -9.7 3.35 -8.05" fill="#8cb5e6" fill-rule="evenodd" stroke="none"/>
    </g>
  </defs>
</svg>
