<?xml version="1.0" encoding="UTF-8" standalone="no"?>
<svg xmlns:xlink="http://www.w3.org/1999/xlink" height="20.5px" width="15.6px" xmlns="http://www.w3.org/2000/svg">
  <g transform="matrix(1.0, 0.0, 0.0, 1.0, 7.8, 10.2)">
    <use data-characterId="184" height="20.5" transform="matrix(1.0, 0.0, 0.0, 1.0, -7.8, -10.2)" width="15.6" xlink:href="#shape0"/>
  </g>
  <defs>
    <g id="shape0" transform="matrix(1.0, 0.0, 0.0, 1.0, 7.8, 10.2)">
      <path d="M-3.35 -6.55 L-3.45 -6.5 -3.4 -6.5 -3.35 -6.55 M1.85 -7.8 L1.85 -7.75 1.75 -7.3 2.05 -7.2 3.15 -8.55 3.15 -8.5 3.4 -8.75 3.55 -8.85 3.85 -8.95 Q4.3 -9.05 4.75 -8.45 L4.9 -8.0 4.75 -7.55 3.25 -5.5 3.3 -4.5 3.25 -3.85 3.25 -3.8 3.35 -3.4 3.35 -3.35 3.35 -3.05 3.3 -2.9 3.3 -2.3 3.3 -1.7 3.35 -1.7 4.25 -0.4 4.25 -0.35 4.3 0.05 4.3 0.15 4.0 0.5 3.55 0.65 3.4 0.65 3.3 0.95 3.0 3.65 2.75 6.15 2.75 6.25 2.65 6.95 2.65 7.0 2.7 6.95 2.8 6.95 3.4 7.1 3.5 7.1 Q6.8 7.85 7.65 9.1 L7.8 9.6 7.6 10.15 7.55 10.15 7.05 10.3 -7.05 10.3 -7.55 10.15 -7.8 9.6 -7.65 9.1 Q-6.7 7.8 -3.5 7.25 L-3.5 7.15 -3.35 6.95 -3.05 6.35 -3.15 3.8 -3.15 3.85 -3.35 4.2 -3.45 4.25 -3.85 4.3 Q-4.75 4.3 -5.05 3.85 L-5.0 3.9 Q-5.55 3.45 -5.2 2.6 L-5.1 2.35 -5.05 2.35 -3.85 0.4 -3.5 -0.6 -3.35 -0.85 -3.35 -0.9 -3.4 -0.95 -4.0 -1.6 -4.45 -2.5 -4.7 -2.65 -4.9 -2.8 -4.95 -2.85 -5.1 -3.2 -5.25 -4.0 -5.25 -4.05 -5.1 -4.5 -4.7 -4.8 -4.4 -4.9 -4.2 -5.6 -3.55 -6.45 -3.05 -6.95 -2.35 -7.25 -2.45 -7.7 Q-2.55 -8.1 -2.05 -8.4 L-1.95 -8.6 -1.65 -9.35 -1.45 -9.65 -1.2 -9.9 -0.1 -10.2 Q1.05 -10.2 1.5 -9.4 L1.8 -8.9 1.8 -8.8 1.8 -8.65 1.8 -8.4 1.85 -7.9 1.85 -7.8" fill="#000000" fill-rule="evenodd" stroke="none"/>
      <path d="M-1.9 -2.0 L-1.6 -2.75 -2.3 -4.25 -2.65 -4.0 -2.7 -3.6 -2.55 -3.7 -2.5 -3.45 -2.8 -2.95 -2.65 -2.75 -2.3 -2.25 -2.1 -1.5 -1.9 -2.0 M0.8 7.6 L0.65 6.1 0.65 4.25 0.9 3.75 0.5 1.05 -0.65 3.55 -0.8 4.9 -1.3 6.25 -1.35 7.3 -1.5 7.7 0.8 7.6 M1.35 -6.6 L1.6 -6.55 2.1 -6.15 3.7 -8.1 3.85 -8.2 Q4.0 -8.2 4.15 -8.0 L2.5 -5.75 2.55 -4.5 2.5 -4.0 2.5 -3.7 2.55 -3.2 2.55 -2.3 2.55 -1.6 2.65 -1.35 2.95 -1.1 3.55 -0.1 3.2 -0.1 2.8 0.1 2.55 0.95 2.25 3.55 2.0 6.1 1.9 7.4 2.65 7.7 3.35 7.85 Q6.25 8.5 7.05 9.55 L-7.05 9.55 Q-6.1 8.35 -2.8 7.85 L-2.8 7.4 -2.3 6.55 -2.4 3.7 -2.1 3.3 -2.1 0.55 -2.55 0.65 -3.85 3.55 Q-4.8 3.55 -4.5 2.8 L-3.2 0.65 -2.8 -0.4 -2.25 -0.65 -2.25 -0.95 -2.65 -1.25 -3.45 -2.1 -3.75 -2.75 -3.75 -2.95 -4.35 -3.3 -4.5 -4.1 -3.75 -4.4 -3.45 -5.45 -3.05 -5.95 -2.65 -6.35 -1.5 -6.65 -0.9 -6.85 -0.9 -6.9 -0.8 -7.05 -0.9 -7.05 -1.2 -7.3 -1.6 -7.55 Q-1.85 -7.7 -1.6 -7.85 L-1.3 -8.35 -1.1 -8.8 -0.8 -9.3 -0.15 -9.45 Q0.55 -9.45 0.8 -9.05 L1.05 -8.65 1.05 -8.4 1.1 -7.85 0.95 -7.4 0.65 -7.4 0.5 -7.3 Q0.3 -7.05 0.65 -6.9 0.7 -6.8 1.35 -6.6" fill="#8cb5e6" fill-rule="evenodd" stroke="none"/>
    </g>
  </defs>
</svg>
