<?xml version="1.0" encoding="UTF-8" standalone="no"?>
<svg xmlns:xlink="http://www.w3.org/1999/xlink" height="22.5px" width="20.3px" xmlns="http://www.w3.org/2000/svg">
  <g transform="matrix(1.0, 0.0, 0.0, 1.0, 9.15, 10.5)">
    <use data-characterId="182" height="22.5" transform="matrix(1.0, 0.0, 0.0, 1.0, -9.15, -10.5)" width="20.3" xlink:href="#shape0"/>
  </g>
  <defs>
    <g id="shape0" transform="matrix(1.0, 0.0, 0.0, 1.0, 9.15, 10.5)">
      <path d="M8.85 -8.4 L9.35 -7.3 9.4 -7.25 Q10.3 -4.8 10.0 -2.1 L10.0 -2.05 10.0 -1.95 Q9.7 0.4 8.5 2.45 L9.05 2.45 9.75 2.75 10.05 3.3 10.05 3.35 11.15 10.9 11.15 10.95 11.1 11.35 10.8 11.8 10.6 11.95 10.15 12.0 4.1 12.0 3.65 11.9 3.6 11.9 3.2 11.35 3.1 10.95 3.1 10.9 3.7 6.95 Q1.75 7.85 -0.4 8.05 -2.95 8.3 -5.35 7.55 L-5.4 7.5 -6.5 7.05 -7.0 6.65 Q-7.25 6.25 -7.1 5.9 L-6.85 5.4 -1.4 -0.05 -3.0 -3.6 -3.0 -3.65 -3.1 -4.05 -3.05 -4.15 -2.8 -4.7 -2.35 -4.95 -2.2 -5.0 -1.75 -4.9 -1.7 -4.9 1.85 -3.3 7.25 -8.7 7.75 -8.95 8.5 -8.85 8.55 -8.8 8.85 -8.45 8.85 -8.4" fill="#081a15" fill-opacity="0.49803922" fill-rule="evenodd" stroke="none"/>
      <path d="M6.85 -9.95 L7.35 -8.8 Q8.35 -6.3 8.0 -3.6 L8.0 -3.55 8.0 -3.5 Q7.7 -1.1 6.5 0.95 L7.05 0.95 Q7.4 0.95 7.7 1.2 L8.05 1.8 9.15 9.35 9.15 9.4 9.1 9.9 9.05 9.95 8.75 10.35 8.7 10.35 8.15 10.5 2.1 10.5 1.6 10.35 1.55 10.35 1.2 9.95 1.2 9.9 1.1 9.4 1.1 9.35 1.65 5.45 Q-0.25 6.35 -2.4 6.55 L-7.25 6.05 -7.4 6.0 -8.55 5.5 -8.5 5.55 -9.0 5.15 -9.05 5.1 -9.15 4.45 -8.85 3.9 -3.4 -1.55 -5.0 -5.1 -5.0 -5.05 -5.1 -5.65 -4.8 -6.15 -4.8 -6.2 -4.3 -6.45 -4.25 -6.5 -3.65 -6.4 -3.7 -6.4 -0.15 -4.8 5.25 -10.2 Q5.45 -10.45 5.8 -10.5 L6.4 -10.4 6.85 -9.95 M0.05 -3.6 L-2.9 -4.95 -3.2 -5.0 -3.45 -4.85 -3.6 -4.6 -3.55 -4.3 -2.2 -1.35 -7.6 4.1 -7.75 4.35 -7.7 4.7 -7.45 4.9 -7.05 5.05 Q-4.85 5.8 -2.5 5.55 0.5 5.25 2.95 3.5 L2.2 8.95 2.25 9.2 2.4 9.45 2.7 9.5 7.6 9.5 7.85 9.45 8.05 9.2 8.1 8.95 7.15 2.4 6.95 2.1 6.65 1.95 4.55 1.95 Q6.6 -0.5 7.0 -3.65 7.3 -6.15 6.4 -8.45 L6.25 -8.85 6.0 -9.05 5.7 -9.1 5.45 -8.95 0.05 -3.6 0.1 -3.6 0.05 -3.55 0.05 -3.6 M5.45 -8.1 L5.4 -8.25 5.35 -8.4 6.15 -8.25 5.6 -7.7 5.45 -8.1 M6.65 2.95 L6.2 2.95 6.15 2.55 6.65 2.95 M4.55 1.95 L4.55 2.0 4.55 1.95 M2.7 8.5 L3.25 8.5 3.2 9.0 3.2 9.1 3.1 9.0 2.75 8.6 2.7 8.5 M7.1 9.1 L7.1 9.0 7.0 8.5 7.6 8.5 7.5 8.6 7.15 9.0 7.1 9.1 M-2.65 -4.7 L-2.1 -3.5 -3.3 -4.05 -2.65 -4.7 M-7.05 5.05 L-7.3 4.85 -7.4 4.5 -7.2 4.2 -7.05 4.1 -7.1 3.95 -6.85 4.05 -6.7 4.1 -6.6 4.15 -6.35 4.25 -6.45 4.3 -6.45 4.35 -6.35 4.65 -6.4 4.75 -6.55 4.95 -6.85 5.1 -6.9 5.1 -6.85 4.7 -6.9 4.8 -6.95 4.6 -7.05 5.05" fill="#000000" fill-rule="evenodd" stroke="none"/>
      <path d="M6.4 -8.45 Q7.3 -6.15 7.0 -3.65 6.6 -0.5 4.55 1.95 L7.05 1.95 8.15 9.5 2.1 9.5 2.95 3.5 Q0.5 5.25 -2.5 5.55 -4.85 5.8 -7.05 5.05 L-8.15 4.6 -2.2 -1.35 -4.1 -5.5 0.05 -3.6 5.95 -9.5 6.4 -8.45" fill="#8cb5e6" fill-rule="evenodd" stroke="none"/>
    </g>
  </defs>
</svg>
