<?xml version="1.0" encoding="UTF-8" standalone="no"?>
<svg xmlns:xlink="http://www.w3.org/1999/xlink" height="21.05px" width="18.65px" xmlns="http://www.w3.org/2000/svg">
  <g transform="matrix(1.0, 0.0, 0.0, 1.0, 8.05, 9.95)">
    <use data-characterId="170" height="21.05" transform="matrix(1.0, 0.0, 0.0, 1.0, -8.05, -9.95)" width="18.65" xlink:href="#shape0"/>
  </g>
  <defs>
    <g id="shape0" transform="matrix(1.0, 0.0, 0.0, 1.0, 8.05, 9.95)">
      <path d="M5.05 -6.45 L4.75 -5.25 Q5.7 -4.9 6.55 -4.15 8.35 -2.7 9.25 -0.35 L9.5 -0.1 9.55 -0.05 Q10.5 0.75 10.5 1.65 L10.5 1.7 10.6 3.65 Q10.6 5.05 10.2 5.5 10.45 6.1 10.25 7.0 L9.2 8.75 9.15 8.8 9.15 8.85 9.05 8.9 8.2 9.2 6.55 10.55 Q5.55 11.1 4.7 11.1 L4.45 11.1 Q3.7 10.95 3.05 10.15 L3.0 10.1 2.5 9.1 2.45 9.05 2.4 9.1 1.85 10.15 0.4 11.1 0.15 11.1 Q-0.7 11.1 -1.7 10.55 L-3.35 9.1 -4.15 8.75 Q-5.05 8.1 -5.25 7.0 -5.5 6.15 -5.25 5.55 L-5.25 5.45 Q-5.6 5.0 -5.55 3.65 L-5.45 1.7 -5.45 1.65 Q-5.5 0.6 -4.3 -0.25 -3.4 -2.7 -1.65 -4.15 L0.2 -5.25 Q-0.1 -5.8 -0.05 -6.45 -0.05 -7.5 0.7 -8.2 1.4 -8.95 2.45 -8.95 3.55 -8.95 4.3 -8.2 5.0 -7.5 5.05 -6.45" fill="#081a15" fill-opacity="0.49803922" fill-rule="evenodd" stroke="none"/>
      <path d="M2.55 -7.45 L2.25 -6.25 Q3.2 -5.9 4.05 -5.15 5.85 -3.7 6.75 -1.35 L7.0 -1.1 7.05 -1.05 Q8.0 -0.25 8.0 0.65 L8.0 0.7 8.1 2.65 Q8.1 4.05 7.7 4.5 7.95 5.1 7.75 6.0 L6.7 7.75 6.65 7.8 6.65 7.85 6.55 7.9 5.7 8.2 4.05 9.55 Q3.05 10.1 2.2 10.1 L1.95 10.1 Q1.2 9.95 0.55 9.15 L0.5 9.1 0.0 8.1 -0.05 8.05 -0.1 8.1 -0.65 9.15 Q-1.3 9.95 -2.1 10.1 L-2.35 10.1 Q-3.2 10.1 -4.2 9.55 L-5.85 8.1 -5.8 8.15 -5.85 8.1 -6.65 7.75 Q-7.55 7.1 -7.75 6.0 -8.0 5.15 -7.75 4.55 L-7.75 4.45 Q-8.1 4.0 -8.05 2.65 L-7.95 0.7 -7.95 0.65 Q-8.0 -0.4 -6.8 -1.25 -5.9 -3.7 -4.15 -5.15 -3.25 -5.9 -2.3 -6.25 -2.6 -6.8 -2.55 -7.45 -2.55 -8.5 -1.8 -9.2 -1.1 -9.95 -0.05 -9.95 1.05 -9.95 1.8 -9.2 2.5 -8.5 2.55 -7.45" fill="#000000" fill-rule="evenodd" stroke="none"/>
      <path d="M-0.05 -5.7 Q1.8 -5.7 3.4 -4.35 4.75 -3.25 5.5 -1.6 L5.25 -1.7 0.0 -2.4 Q-3.5 -2.4 -5.3 -1.7 -5.45 -1.65 -5.55 -1.55 -4.8 -3.25 -3.45 -4.35 -1.9 -5.7 -0.05 -5.7 M-0.05 -9.0 L1.05 -8.55 Q1.55 -8.05 1.55 -7.45 L1.4 -6.85 -0.05 -7.0 -1.45 -6.85 -1.6 -7.45 -1.15 -8.55 Q-0.65 -9.0 -0.05 -9.0 M0.0 -1.7 L5.05 -1.1 Q7.0 -0.3 7.0 0.65 L7.1 2.85 5.55 1.6 Q3.75 0.9 0.0 0.9 -3.8 0.9 -5.55 1.6 L-7.1 2.85 -7.0 0.65 Q-7.0 -0.3 -5.05 -1.1 L0.0 -1.7 M6.2 6.0 Q6.55 5.3 6.35 4.6 L6.3 4.45 6.5 4.45 6.6 4.45 6.65 4.45 6.8 4.7 6.8 4.75 6.8 5.75 5.95 7.1 5.95 7.05 5.9 7.1 6.1 6.3 6.2 6.0 M4.25 5.0 L4.55 4.35 2.7 2.75 2.35 3.35 4.25 5.0 M2.95 5.45 L3.3 4.9 1.45 3.25 1.05 3.85 2.95 5.45 M4.55 6.95 Q3.3 8.6 2.15 8.45 1.6 8.4 1.0 7.45 0.65 6.8 0.0 6.7 L-0.15 6.65 -0.15 6.7 Q-0.8 6.8 -1.1 7.45 -1.65 8.4 -2.3 8.45 -2.8 8.55 -3.5 8.1 L-4.7 6.95 Q-5.4 6.05 -5.4 4.4 L-5.05 3.45 -4.2 2.65 -0.05 2.25 4.05 2.65 Q4.5 2.85 4.9 3.45 L5.25 4.4 Q5.25 6.05 4.55 6.95 M-6.45 4.8 L-6.4 5.7 -6.3 6.0 -6.2 6.15 -6.0 7.05 -6.05 7.0 Q-6.7 6.5 -6.85 5.75 L-6.9 5.25 -6.85 4.7 -6.9 4.7 -6.7 4.45 -6.35 4.45 -6.45 4.75 -6.45 4.8" fill="#8cb5e6" fill-rule="evenodd" stroke="none"/>
    </g>
  </defs>
</svg>
