<?xml version="1.0" encoding="UTF-8" standalone="no"?>
<svg xmlns:xlink="http://www.w3.org/1999/xlink" height="22.55px" width="24.1px" xmlns="http://www.w3.org/2000/svg">
  <g transform="matrix(1.0, 0.0, 0.0, 1.0, 10.75, 9.65)">
    <use data-characterId="113" height="22.55" transform="matrix(1.0, 0.0, 0.0, 1.0, -10.75, -9.65)" width="24.1" xlink:href="#shape0"/>
  </g>
  <defs>
    <g id="shape0" transform="matrix(1.0, 0.0, 0.0, 1.0, 10.75, 9.65)">
      <path d="M-3.65 -4.05 L-3.15 -4.2 -3.65 -4.2 -3.65 -4.05 M6.0 -3.0 L6.7 -2.55 6.7 -4.05 6.0 -3.0 M5.8 -1.25 L6.15 0.0 7.3 0.0 7.3 -0.35 7.25 -0.55 6.7 -0.55 6.7 -2.35 5.8 -1.25 M2.8 -1.4 L2.65 -2.25 0.95 -2.25 0.95 -4.1 0.9 -4.05 0.9 2.2 2.2 2.2 2.2 0.0 4.05 0.0 2.8 -1.4 M3.5 -4.05 L3.2 -4.45 3.2 -3.75 3.5 -4.05 M10.05 -6.7 L11.05 -5.95 11.5 -5.15 Q11.6 -4.65 11.25 -4.25 L10.35 -3.1 11.55 -2.3 12.05 -1.55 11.9 -0.65 11.2 0.4 10.6 0.85 11.8 1.95 Q12.3 2.45 12.1 3.1 L11.6 5.45 11.6 5.5 12.15 5.5 Q12.65 5.5 13.0 5.85 13.35 6.2 13.35 6.7 L13.35 11.7 Q13.35 12.25 13.0 12.55 12.65 12.9 12.15 12.9 L-5.95 12.9 Q-6.5 12.9 -6.85 12.55 L-7.15 11.7 -7.15 8.1 Q-7.9 8.0 -8.15 7.3 -8.45 6.55 -7.85 6.0 L-6.05 4.4 Q-5.7 4.1 -5.3 4.1 -4.8 4.1 -4.5 4.4 L-3.95 4.8 -4.2 3.55 Q-4.35 2.85 -3.85 2.4 L-2.65 1.4 -3.35 0.8 Q-3.65 0.1 -3.25 -0.45 L-1.6 -2.65 -1.7 -3.35 -3.3 -2.9 -3.65 -2.85 -4.3 -3.05 -4.85 -3.95 -4.9 -4.95 Q-5.0 -5.85 -4.1 -6.15 L-0.2 -7.55 0.2 -7.65 0.85 -7.4 1.4 -6.65 Q1.7 -7.05 2.2 -7.05 2.8 -7.05 3.2 -6.5 L4.45 -4.8 4.7 -3.95 Q4.7 -3.5 4.35 -3.2 L3.8 -2.7 3.95 -1.95 4.6 -1.15 4.85 -1.95 5.05 -2.2 5.05 -2.25 Q4.5 -2.9 5.0 -3.65 L5.65 -4.7 Q6.05 -5.25 6.7 -5.25 L7.3 -5.1 8.35 -6.5 Q8.65 -6.9 9.2 -6.95 L9.35 -6.95 10.05 -6.7 M-1.75 -0.5 L-1.2 -0.5 -1.2 -1.2 -1.75 -0.5 -2.3 0.25 -1.75 0.25 -1.75 -0.5 M-7.05 6.9 L-6.1 6.9 -6.1 6.05 -7.05 6.9" fill="#081a15" fill-rule="evenodd" stroke="none"/>
      <path d="M6.15 -6.2 L6.15 -6.85 5.5 -6.05 5.7 -6.05 5.7 -4.95 6.25 -4.95 7.2 -6.2 6.15 -6.2 M-9.55 4.9 L-8.6 4.9 -8.6 4.05 -9.55 4.9 M-4.25 -2.5 L-3.7 -2.5 -3.7 -3.2 -4.25 -2.5 -4.8 -1.75 -4.25 -1.75 -4.25 -2.5 M-6.15 -6.05 L-5.65 -6.2 -6.15 -6.2 -6.15 -6.05 M1.0 -6.05 L0.7 -6.45 0.7 -5.75 1.0 -6.05 M0.3 -3.4 L0.15 -4.25 -1.55 -4.25 -1.55 -6.1 -1.6 -6.05 -1.6 0.2 -0.3 0.2 -0.3 -2.0 1.55 -2.0 0.3 -3.4 M3.5 -5.0 L4.2 -4.55 4.2 -6.05 3.5 -5.0 M3.3 -3.25 L3.65 -2.0 4.8 -2.0 4.8 -2.35 4.75 -2.55 4.2 -2.55 4.2 -4.35 3.3 -3.25 M7.55 -8.7 L8.55 -7.95 9.0 -7.15 Q9.1 -6.65 8.75 -6.25 L7.85 -5.1 9.05 -4.3 9.55 -3.55 9.4 -2.65 8.7 -1.6 8.1 -1.15 9.3 -0.05 Q9.8 0.45 9.6 1.1 L9.1 3.45 9.1 3.5 9.65 3.5 Q10.15 3.5 10.5 3.85 10.85 4.2 10.85 4.7 L10.85 9.7 10.5 10.55 Q10.15 10.9 9.65 10.9 L-8.45 10.9 Q-9.0 10.9 -9.35 10.55 L-9.65 9.7 -9.65 6.1 Q-10.4 6.0 -10.65 5.3 -10.95 4.55 -10.35 4.0 L-8.55 2.4 Q-8.2 2.1 -7.8 2.1 -7.3 2.1 -7.0 2.4 L-6.45 2.8 -6.7 1.55 Q-6.85 0.85 -6.35 0.4 L-5.15 -0.6 Q-5.65 -0.8 -5.85 -1.2 -6.15 -1.9 -5.75 -2.45 L-4.1 -4.65 -4.2 -5.35 -5.8 -4.9 -6.15 -4.85 -6.8 -5.05 Q-7.25 -5.4 -7.35 -5.95 L-7.4 -6.95 Q-7.5 -7.85 -6.6 -8.15 L-2.7 -9.55 -2.3 -9.65 -1.65 -9.4 Q-1.2 -9.15 -1.1 -8.65 -0.8 -9.05 -0.3 -9.05 0.3 -9.05 0.7 -8.5 L1.95 -6.8 2.2 -5.95 Q2.2 -5.5 1.85 -5.2 L1.3 -4.7 1.45 -3.95 2.1 -3.15 2.35 -3.95 2.55 -4.2 2.55 -4.25 Q2.0 -4.9 2.5 -5.65 L3.15 -6.7 Q3.55 -7.25 4.2 -7.25 L4.8 -7.1 5.85 -8.5 Q6.15 -8.9 6.7 -8.95 L6.85 -8.95 7.55 -8.7" fill="#000000" fill-rule="evenodd" stroke="none"/>
      <path d="M3.1 1.7 L4.3 0.6 3.3 -3.15 4.25 -4.45 3.5 -4.95 4.15 -6.0 5.05 -5.45 6.8 -7.7 7.75 -6.95 6.1 -4.75 8.35 -3.25 7.7 -2.2 5.3 -3.75 4.65 -2.9 5.35 -0.35 6.2 -1.15 8.45 0.9 8.45 0.95 7.9 3.25 6.65 3.25 6.65 5.8 7.9 5.8 7.9 4.75 9.65 4.75 9.65 9.8 8.05 9.8 8.05 7.35 6.75 7.35 6.75 9.8 0.35 9.8 0.35 6.25 -0.95 6.25 -0.95 9.8 -4.65 9.8 -4.65 6.55 -6.75 6.55 -6.75 9.8 -8.5 9.8 -8.5 4.95 -9.55 4.95 -7.8 3.35 -6.55 4.45 -5.15 3.7 -5.55 1.4 -3.75 -0.2 -3.75 -1.7 -4.8 -1.7 -2.9 -4.25 -3.1 -6.85 -6.15 -6.0 -6.25 -6.95 -2.3 -8.35 -2.1 -5.35 -0.3 -7.75 1.0 -6.0 -0.05 -5.0 0.25 -3.35 2.3 -1.1 3.1 -0.85 3.1 1.7 M1.4 4.05 L1.4 -0.35 0.1 -0.35 0.1 4.05 1.4 4.05 M4.15 5.8 L5.45 5.8 5.45 3.25 4.15 3.25 4.15 5.8 M-1.05 4.05 L-1.05 -0.35 -2.35 -0.35 -2.35 4.05 -1.05 4.05" fill="#8cb5e6" fill-rule="evenodd" stroke="none"/>
    </g>
  </defs>
</svg>
