<?xml version="1.0" encoding="UTF-8" standalone="no"?>
<svg xmlns:xlink="http://www.w3.org/1999/xlink" height="22.15px" width="25.0px" xmlns="http://www.w3.org/2000/svg">
  <g transform="matrix(1.0, 0.0, 0.0, 1.0, 10.1, 10.05)">
    <use data-characterId="115" height="22.15" transform="matrix(1.0, 0.0, 0.0, 1.0, -10.1, -10.05)" width="25.0" xlink:href="#shape0"/>
  </g>
  <defs>
    <g id="shape0" transform="matrix(1.0, 0.0, 0.0, 1.0, 10.1, 10.05)">
      <path d="M4.0 -6.75 L8.35 -0.9 8.5 -0.55 Q8.85 -0.85 9.3 -0.85 L10.15 -0.55 14.5 3.5 Q15.1 4.05 14.8 4.8 14.55 5.45 13.85 5.55 L13.85 10.9 13.5 11.75 Q13.15 12.1 12.65 12.1 L-4.85 12.1 Q-5.35 12.1 -5.7 11.75 L-6.05 10.9 -6.05 7.4 Q-6.75 7.35 -7.05 6.65 -7.3 5.9 -6.7 5.35 L-1.75 0.95 -2.4 0.35 Q-2.7 -0.3 -2.25 -0.9 L-0.65 -3.0 -0.65 -7.35 -0.3 -8.2 Q0.05 -8.55 0.55 -8.55 L1.3 -8.55 2.15 -8.2 2.5 -7.35 2.5 -7.1 3.05 -7.2 Q3.6 -7.2 4.0 -6.75" fill="#081a15" fill-rule="evenodd" stroke="none"/>
      <path d="M1.0 -8.25 L5.35 -2.4 5.5 -2.05 6.3 -2.35 Q6.85 -2.35 7.15 -2.05 L11.5 2.0 Q12.1 2.55 11.8 3.3 11.55 3.95 10.85 4.05 L10.85 9.4 10.5 10.25 Q10.15 10.6 9.65 10.6 L-7.85 10.6 Q-8.35 10.6 -8.7 10.25 L-9.05 9.4 -9.05 5.9 Q-9.75 5.85 -10.05 5.15 -10.3 4.4 -9.7 3.85 L-4.75 -0.55 -5.4 -1.15 Q-5.7 -1.8 -5.25 -2.4 L-3.65 -4.5 -3.65 -8.85 -3.3 -9.7 Q-2.95 -10.05 -2.45 -10.05 L-1.7 -10.05 Q-1.2 -10.05 -0.85 -9.7 -0.5 -9.3 -0.5 -8.85 L-0.5 -8.6 0.05 -8.7 Q0.6 -8.7 1.0 -8.25" fill="#000000" fill-rule="evenodd" stroke="none"/>
      <path d="M-0.65 3.9 L-0.65 -0.4 -1.95 -0.4 -1.95 3.9 -0.65 3.9 M7.95 5.6 L7.95 3.1 6.7 3.1 6.7 5.6 7.95 5.6 M5.6 5.6 L5.6 3.1 4.35 3.1 4.35 5.6 5.6 5.6 M1.65 3.9 L1.65 -0.4 0.45 -0.4 0.45 3.9 1.65 3.9 M6.3 -1.2 L10.65 2.85 9.6 2.85 9.6 9.4 8.1 9.4 8.1 7.05 6.85 7.05 6.85 9.4 0.7 9.4 0.7 6.0 -0.55 6.0 -0.55 9.4 -4.15 9.4 -4.15 6.3 -6.15 6.3 -6.15 9.4 -7.85 9.4 -7.85 4.75 -8.9 4.75 -3.3 -0.25 -3.3 -1.65 -4.3 -1.65 -2.45 -4.15 -2.45 -8.85 -1.7 -8.85 -1.7 -5.2 0.05 -7.5 4.35 -1.65 3.35 -1.65 3.35 1.6 6.3 -1.2" fill="#7fa4cf" fill-rule="evenodd" stroke="none"/>
    </g>
  </defs>
</svg>
