<?xml version="1.0" encoding="UTF-8" standalone="no"?>
<svg xmlns:xlink="http://www.w3.org/1999/xlink" height="22.2px" width="22.2px" xmlns="http://www.w3.org/2000/svg">
  <g transform="matrix(1.0, 0.0, 0.0, 1.0, 11.05, 11.15)">
    <use data-characterId="146" height="19.8" transform="matrix(1.0, 0.0, 0.0, 1.0, -9.9, -9.9)" width="19.8" xlink:href="#shape0"/>
  </g>
  <defs>
    <g id="shape0" transform="matrix(1.0, 0.0, 0.0, 1.0, 9.9, 9.9)">
      <path d="M9.05 -7.05 L6.15 -3.9 6.8 8.05 4.8 9.9 2.25 1.4 Q2.0 0.8 1.6 0.8 1.3 0.7 0.8 1.15 L-3.3 4.85 -3.25 7.5 -4.75 8.95 -5.65 6.55 Q-7.05 7.55 -7.3 7.35 L-7.35 7.25 -7.05 6.4 -6.55 5.65 -8.95 4.7 -7.5 3.25 -4.85 3.3 -1.15 -0.85 Q-0.7 -1.35 -0.8 -1.65 -0.8 -1.95 -1.4 -2.25 L-5.95 -3.65 -9.9 -4.8 -8.05 -6.8 3.85 -6.15 Q5.75 -8.15 7.0 -9.05 7.8 -9.6 8.9 -9.8 L9.85 -9.9 9.9 -9.85 9.8 -8.9 Q9.6 -7.85 9.05 -7.05" fill="#ffffff" fill-rule="evenodd" stroke="none"/>
    </g>
  </defs>
</svg>
