<?xml version="1.0" encoding="UTF-8" standalone="no"?>
<svg xmlns:xlink="http://www.w3.org/1999/xlink" height="19.9px" width="22.15px" xmlns="http://www.w3.org/2000/svg">
  <g transform="matrix(1.0, 0.0, 0.0, 1.0, 11.1, 10.05)">
    <use data-characterId="261" height="17.4" transform="matrix(1.0, 0.0, 0.0, 1.0, -9.45, -8.7)" width="18.95" xlink:href="#shape0"/>
  </g>
  <defs>
    <g id="shape0" transform="matrix(1.0, 0.0, 0.0, 1.0, 9.45, 8.7)">
      <path d="M-3.45 -0.9 L-0.8 -0.9 -0.8 -3.6 -3.45 -3.6 -3.45 -0.9 M-7.15 -3.6 L-7.15 -0.9 -4.4 -0.9 -4.4 -3.6 -7.15 -3.6 M9.5 -5.35 L8.95 -4.35 8.3 -4.75 8.3 8.7 5.65 8.7 5.65 3.65 2.45 3.65 2.45 8.7 -2.3 8.7 -2.3 3.65 -5.6 3.65 -5.6 8.7 -8.15 8.7 -8.15 -3.4 -8.8 -3.0 -9.45 -3.95 -3.95 -7.45 -1.05 -5.55 4.05 -8.7 9.5 -5.35 M4.55 -3.6 L4.55 -0.9 7.25 -0.9 7.25 -3.6 4.55 -3.6 M3.55 -0.9 L3.55 -3.6 0.85 -3.6 0.85 -0.9 3.55 -0.9" fill="#ffffff" fill-rule="evenodd" stroke="none"/>
    </g>
  </defs>
</svg>
