<?xml version="1.0" encoding="UTF-8" standalone="no"?>
<svg xmlns:xlink="http://www.w3.org/1999/xlink" height="16.1px" width="22.2px" xmlns="http://www.w3.org/2000/svg">
  <g transform="matrix(1.0, 0.0, 0.0, 1.0, 11.1, 8.05)">
    <use data-characterId="252" height="13.7" transform="matrix(1.0, 0.0, 0.0, 1.0, -9.9, -6.85)" width="19.8" xlink:href="#shape0"/>
  </g>
  <defs>
    <g id="shape0" transform="matrix(1.0, 0.0, 0.0, 1.0, 9.9, 6.85)">
      <path d="M-3.65 3.35 Q-4.0 3.7 -4.0 4.2 -4.0 4.7 -3.65 5.05 -3.3 5.4 -2.8 5.4 -2.3 5.4 -1.9 5.05 -1.55 4.7 -1.55 4.2 -1.55 3.7 -1.9 3.35 -2.3 2.95 -2.8 2.95 -3.3 2.95 -3.65 3.35 M-4.7 2.3 Q-3.9 1.55 -2.8 1.55 -1.7 1.55 -0.9 2.3 -0.1 3.1 -0.1 4.2 -0.1 5.3 -0.9 6.1 -1.7 6.85 -2.8 6.85 -3.9 6.85 -4.7 6.1 -5.45 5.3 -5.45 4.2 -5.45 3.1 -4.7 2.3 M-7.1 -4.6 L-7.65 -4.4 -7.85 -3.85 -7.85 -2.1 -7.65 -1.55 -7.1 -1.35 -0.95 -1.35 -0.95 -4.6 -7.1 -4.6 M5.55 -6.2 Q6.2 -5.5 6.2 -4.55 L6.2 2.2 9.9 2.2 9.9 3.65 0.65 3.65 Q0.45 2.35 -0.5 1.55 -1.5 0.65 -2.8 0.65 -4.1 0.65 -5.05 1.55 -6.05 2.35 -6.25 3.65 L-9.9 3.65 -9.9 -4.55 Q-9.9 -5.5 -9.25 -6.2 -8.55 -6.85 -7.6 -6.85 L3.95 -6.85 Q4.9 -6.85 5.55 -6.2 M4.25 -1.55 L4.45 -2.1 4.45 -3.85 4.25 -4.4 3.7 -4.6 0.95 -4.6 0.95 -1.35 3.7 -1.35 4.25 -1.55" fill="#ffffff" fill-rule="evenodd" stroke="none"/>
    </g>
  </defs>
</svg>
