<?xml version="1.0" encoding="UTF-8" standalone="no"?>
<svg xmlns:xlink="http://www.w3.org/1999/xlink" height="14.2px" width="22.2px" xmlns="http://www.w3.org/2000/svg">
  <g transform="matrix(1.0, 0.0, 0.0, 1.0, 11.1, 7.1)">
    <use data-characterId="249" height="11.8" transform="matrix(1.0, 0.0, 0.0, 1.0, -9.9, -5.9)" width="19.8" xlink:href="#shape0"/>
  </g>
  <defs>
    <g id="shape0" transform="matrix(1.0, 0.0, 0.0, 1.0, 9.9, 5.9)">
      <path d="M-6.2 2.0 Q-5.8 1.6 -5.8 1.05 -5.8 0.5 -6.2 0.1 -6.6 -0.3 -7.15 -0.3 -7.75 -0.3 -8.15 0.1 -8.55 0.5 -8.55 1.05 -8.55 1.6 -8.15 2.0 -7.75 2.45 -7.15 2.45 -6.6 2.45 -6.2 2.0 M8.65 1.05 Q8.65 0.5 8.25 0.1 7.85 -0.3 7.3 -0.3 6.7 -0.3 6.35 0.1 5.9 0.5 5.9 1.05 5.9 1.6 6.35 2.0 6.7 2.45 7.3 2.45 7.85 2.45 8.25 2.0 8.65 1.6 8.65 1.05 M6.4 -4.1 Q7.1 -3.45 7.55 -1.85 L7.6 -1.85 Q8.4 -1.85 8.95 -1.3 9.5 -0.75 9.5 0.05 L9.9 3.45 9.7 3.85 9.35 4.0 8.75 4.0 8.6 4.05 7.7 4.05 7.7 5.65 7.4 5.9 5.3 5.9 5.05 5.65 5.05 4.05 -5.05 4.05 -5.05 5.65 Q-5.05 5.9 -5.35 5.9 L-7.4 5.9 -7.7 5.65 -7.7 4.05 -8.6 4.05 -8.75 4.0 -9.35 4.0 -9.7 3.85 -9.9 3.45 -9.5 0.05 Q-9.5 -0.75 -8.95 -1.3 -8.4 -1.85 -7.6 -1.85 L-7.55 -1.85 Q-7.1 -3.35 -6.45 -4.0 -4.55 -5.9 0.0 -5.9 4.55 -5.9 6.4 -4.1 M0.25 -4.75 L1.05 -4.75 1.4 -4.45 Q1.4 -4.1 1.05 -4.1 L-1.05 -4.1 Q-1.4 -4.1 -1.4 -4.45 L-1.05 -4.75 -0.35 -4.75 -0.35 -5.1 Q-3.8 -5.05 -5.55 -3.45 -6.5 -2.65 -6.7 -1.6 L-6.45 -1.4 Q-3.65 -2.3 -1.0 -2.45 L1.0 -2.45 Q3.65 -2.3 6.4 -1.4 L6.7 -1.6 Q6.5 -2.6 5.45 -3.45 3.65 -5.0 0.25 -5.1 L0.25 -4.75 M3.65 -0.1 L0.0 -0.25 -3.65 -0.1 Q-5.15 0.15 -5.15 0.8 -5.15 1.45 -3.65 1.95 L0.0 2.45 3.65 1.95 Q5.15 1.45 5.15 0.8 5.15 0.15 3.65 -0.1" fill="#ffffff" fill-rule="evenodd" stroke="none"/>
    </g>
  </defs>
</svg>
