<?xml version="1.0" encoding="UTF-8" standalone="no"?>
<svg xmlns:xlink="http://www.w3.org/1999/xlink" height="22.2px" width="20.8px" xmlns="http://www.w3.org/2000/svg">
  <g transform="matrix(1.0, 0.0, 0.0, 1.0, 10.4, 11.1)">
    <use data-characterId="240" height="19.8" transform="matrix(1.0, 0.0, 0.0, 1.0, -9.2, -9.9)" width="18.4" xlink:href="#shape0"/>
  </g>
  <defs>
    <g id="shape0" transform="matrix(1.0, 0.0, 0.0, 1.0, 9.2, 9.9)">
      <path d="M-5.0 8.0 L-5.0 5.05 -6.65 5.05 -6.65 8.0 -5.0 8.0 M-1.25 5.05 L-2.9 5.05 -2.9 8.0 -1.25 8.0 -1.25 5.05 M6.3 8.0 L6.3 5.05 4.6 5.05 4.6 8.0 6.3 8.0 M2.55 5.05 L0.85 5.05 0.85 8.0 2.55 8.0 2.55 5.05 M2.95 -3.75 L2.95 -0.45 4.4 -0.45 4.4 -3.75 2.95 -3.75 M1.65 -4.3 L3.5 -9.85 4.05 -9.9 5.9 -4.35 5.9 0.9 6.7 0.9 9.2 3.7 8.35 3.7 8.35 9.9 -8.5 9.9 -8.5 3.7 -9.2 3.7 -6.65 0.95 1.65 0.95 1.65 -4.3" fill="#ffffff" fill-rule="evenodd" stroke="none"/>
    </g>
  </defs>
</svg>
