<?xml version="1.0" encoding="UTF-8" standalone="no"?>
<svg xmlns:xlink="http://www.w3.org/1999/xlink" height="20.8px" width="19.7px" xmlns="http://www.w3.org/2000/svg">
  <g transform="matrix(1.0, 0.0, 0.0, 1.0, 9.85, 10.15)">
    <use data-characterId="128" height="18.4" transform="matrix(1.0, 0.0, 0.0, 1.0, -8.65, -8.95)" width="17.3" xlink:href="#shape0"/>
  </g>
  <defs>
    <g id="shape0" transform="matrix(1.0, 0.0, 0.0, 1.0, 8.65, 8.95)">
      <path d="M4.35 -1.2 L4.35 0.15 7.75 0.15 7.75 -1.2 4.35 -1.2 M3.35 -4.45 L8.65 -4.45 8.65 9.45 -8.65 9.45 -8.65 -6.25 -7.85 -6.25 -7.85 -8.95 -6.1 -8.95 -6.1 -6.25 -1.45 -6.25 -1.45 -0.6 3.35 -0.6 3.35 -4.45 M7.75 3.45 L4.35 3.45 4.35 4.75 7.75 4.75 7.75 3.45 M7.75 1.1 L4.35 1.1 4.35 2.45 7.75 2.45 7.75 1.1 M1.35 2.35 L2.45 2.35 2.45 1.55 1.35 1.55 1.35 2.35 M0.95 1.55 L-0.1 1.55 -0.1 2.35 0.95 2.35 0.95 1.55 M2.45 5.1 L2.45 3.95 1.35 3.95 1.35 5.1 2.45 5.1 M0.95 3.95 L-0.1 3.95 -0.1 5.1 0.95 5.1 0.95 3.95 M2.45 6.45 L1.35 6.45 1.35 8.1 2.45 8.1 2.45 6.45 M0.95 6.45 L-0.1 6.45 -0.1 8.1 0.95 8.1 0.95 6.45 M7.75 7.05 L7.75 5.75 4.35 5.75 4.35 7.05 7.75 7.05 M-6.35 -4.75 L-7.45 -4.75 -7.45 -2.05 -6.35 -2.05 -6.35 -4.75 M-7.45 -1.4 L-7.45 1.35 -6.35 1.35 -6.35 -1.4 -7.45 -1.4 M-5.5 -2.05 L-4.4 -2.05 -4.4 -4.75 -5.5 -4.75 -5.5 -2.05 M-2.5 -4.75 L-3.55 -4.75 -3.55 -2.05 -2.5 -2.05 -2.5 -4.75 M-3.55 -1.4 L-3.55 1.35 -2.5 1.35 -2.5 -1.4 -3.55 -1.4 M-5.5 -1.4 L-5.5 1.35 -4.4 1.35 -4.4 -1.4 -5.5 -1.4 M-1.55 1.55 L-1.55 2.35 -0.45 2.35 -0.45 1.55 -1.55 1.55 M-1.55 3.95 L-1.55 5.1 -0.45 5.1 -0.45 3.95 -1.55 3.95 M-3.55 4.7 L-2.5 4.7 -2.5 2.0 -3.55 2.0 -3.55 4.7 M-3.55 5.4 L-3.55 8.1 -2.5 8.1 -2.5 5.4 -3.55 5.4 M-4.4 2.0 L-5.5 2.0 -5.5 4.7 -4.4 4.7 -4.4 2.0 M-7.45 5.4 L-7.45 8.1 -6.35 8.1 -6.35 5.4 -7.45 5.4 M-7.45 2.0 L-7.45 4.7 -6.35 4.7 -6.35 2.0 -7.45 2.0 M-0.45 6.45 L-1.55 6.45 -1.55 8.1 -0.45 8.1 -0.45 6.45 M-4.4 5.4 L-5.5 5.4 -5.5 8.1 -4.4 8.1 -4.4 5.4" fill="#ffffff" fill-rule="evenodd" stroke="none"/>
    </g>
  </defs>
</svg>
