<?xml version="1.0" encoding="UTF-8" standalone="no"?>
<svg xmlns:xlink="http://www.w3.org/1999/xlink" height="21.2px" width="20.4px" xmlns="http://www.w3.org/2000/svg">
  <g transform="matrix(1.0, 0.0, 0.0, 1.0, 10.2, 10.6)">
    <use data-characterId="119" height="18.85" transform="matrix(1.0, 0.0, 0.0, 1.0, -8.95, -9.4)" width="18.0" xlink:href="#shape0"/>
  </g>
  <defs>
    <g id="shape0" transform="matrix(1.0, 0.0, 0.0, 1.0, 8.95, 9.4)">
      <path d="M-6.25 0.05 L-6.25 0.8 -0.4 6.7 0.4 6.7 6.25 0.8 Q6.1 0.45 6.25 0.05 L0.4 -5.8 -0.4 -5.8 -6.25 0.05 M0.0 -0.95 Q0.6 -0.95 1.0 -0.55 1.4 -0.15 1.4 0.4 1.4 1.0 1.0 1.4 0.6 1.85 0.0 1.85 -0.55 1.85 -1.0 1.4 -1.4 1.0 -1.4 0.4 -1.4 -0.15 -1.0 -0.55 -0.55 -0.95 0.0 -0.95 M7.6 -0.95 Q8.2 -0.95 8.6 -0.55 9.05 -0.15 9.05 0.4 9.05 1.0 8.6 1.4 8.0 2.0 7.25 1.75 L1.35 7.65 Q1.6 8.45 1.0 9.05 0.6 9.45 0.0 9.45 -0.55 9.45 -1.0 9.05 -1.55 8.4 -1.3 7.65 L-7.2 1.75 Q-8.0 2.05 -8.6 1.4 -8.95 1.0 -8.95 0.4 -8.95 -0.15 -8.6 -0.55 L-8.0 -0.9 Q-7.9 -4.45 -5.65 -6.95 -3.35 -9.4 -0.2 -9.4 2.95 -9.4 5.2 -6.95 7.45 -4.5 7.6 -0.95" fill="#ffffff" fill-rule="evenodd" stroke="none"/>
    </g>
  </defs>
</svg>
