<?xml version="1.0" encoding="UTF-8" standalone="no"?>
<svg xmlns:xlink="http://www.w3.org/1999/xlink" height="21.2px" width="20.4px" xmlns="http://www.w3.org/2000/svg">
  <g transform="matrix(1.0, 0.0, 0.0, 1.0, 10.2, 10.6)">
    <use data-characterId="225" height="18.85" transform="matrix(1.0, 0.0, 0.0, 1.0, -9.0, -9.4)" width="18.0" xlink:href="#shape0"/>
  </g>
  <defs>
    <g id="shape0" transform="matrix(1.0, 0.0, 0.0, 1.0, 9.0, 9.4)">
      <path d="M1.35 0.4 Q1.35 1.0 0.95 1.4 0.55 1.85 -0.05 1.85 -0.6 1.85 -1.05 1.4 -1.45 1.0 -1.45 0.4 -1.45 -0.15 -1.05 -0.55 -0.6 -0.95 -0.05 -0.95 0.55 -0.95 0.95 -0.55 1.35 -0.15 1.35 0.4 M0.35 6.7 L6.2 0.8 Q6.05 0.45 6.2 0.05 L0.35 -5.8 -0.45 -5.8 -6.3 0.05 -6.3 0.8 -0.45 6.7 0.35 6.7 M7.55 -0.95 Q8.15 -0.95 8.55 -0.55 L9.0 0.4 8.55 1.4 Q7.95 2.0 7.2 1.75 L1.3 7.65 Q1.55 8.45 0.95 9.05 0.55 9.45 -0.05 9.45 -0.6 9.45 -1.05 9.05 -1.6 8.4 -1.35 7.65 L-7.25 1.75 Q-8.05 2.05 -8.65 1.4 -9.0 1.0 -9.0 0.4 L-8.65 -0.55 -8.05 -0.9 Q-7.95 -4.45 -5.7 -6.95 -3.4 -9.4 -0.25 -9.4 2.9 -9.4 5.15 -6.95 7.4 -4.5 7.55 -0.95" fill="#ffffff" fill-rule="evenodd" stroke="none"/>
    </g>
  </defs>
</svg>
