<?xml version="1.0" encoding="UTF-8" standalone="no"?>
<svg xmlns:xlink="http://www.w3.org/1999/xlink" height="20.0px" width="20.0px" xmlns="http://www.w3.org/2000/svg">
  <g transform="matrix(1.0, 0.0, 0.0, 1.0, 10.0, 10.0)">
    <use data-characterId="184" height="19.95" transform="matrix(1.0, 0.0, 0.0, 1.0, -10.0, -10.0)" width="20.0" xlink:href="#shape0"/>
  </g>
  <defs>
    <g id="shape0" transform="matrix(1.0, 0.0, 0.0, 1.0, 10.0, 10.0)">
      <path d="M1.6 -6.2 L1.75 -6.3 1.85 -6.45 2.05 -6.2 2.05 -5.8 2.05 -5.35 2.25 -2.35 1.85 -2.25 1.45 -2.15 1.2 -1.9 1.1 -1.85 1.1 -2.0 1.0 -2.55 0.75 -3.35 0.45 -4.25 0.05 -5.55 0.1 -5.9 0.25 -6.4 0.3 -6.4 0.6 -6.2 0.65 -6.2 0.75 -6.05 0.8 -6.0 0.85 -6.2 0.85 -6.35 0.9 -6.4 0.5 -8.7 0.55 -8.95 0.65 -9.15 0.8 -9.25 1.25 -8.65 1.45 -8.4 1.45 -8.35 1.4 -8.3 1.4 -7.7 1.5 -7.7 1.55 -6.2 1.6 -6.2 M3.6 -5.4 L3.85 -5.65 3.8 -5.9 3.85 -6.0 3.9 -6.1 3.5 -7.5 3.45 -7.8 3.4 -7.95 3.4 -8.1 3.6 -8.6 3.7 -8.7 3.8 -8.6 3.85 -8.6 4.0 -8.55 4.1 -8.45 4.1 -8.4 4.35 -6.6 4.35 -6.4 4.4 -6.2 4.55 -5.45 4.75 -5.45 4.8 -5.5 5.0 -5.9 5.1 -6.05 5.15 -6.0 5.4 -3.35 5.3 -3.35 4.7 -3.25 4.65 -3.2 3.95 -3.05 3.9 -3.05 3.3 -5.1 3.35 -5.35 3.5 -5.45 3.6 -5.4 M3.35 0.85 L3.4 0.9 3.4 0.95 3.0 1.35 2.1 1.75 1.85 1.9 1.35 2.05 1.25 2.1 0.2 2.3 -0.55 2.4 -4.75 3.2 -4.8 3.25 -6.7 3.35 -7.3 3.35 -8.0 3.3 -9.55 3.1 -9.9 3.0 -10.0 2.9 -9.95 2.9 -8.15 2.3 -7.25 2.0 -5.8 1.45 -5.35 1.25 -3.0 0.55 -2.9 0.45 -1.5 -0.05 -0.75 -0.3 -0.5 -0.35 -0.4 -0.35 -0.25 -0.5 0.45 -0.8 1.1 -1.25 1.4 -1.55 1.65 -1.75 4.0 -2.4 4.2 -2.5 5.2 -2.7 5.55 -2.7 5.6 -2.65 5.9 -2.55 6.0 -2.55 6.15 -2.55 6.3 -2.6 Q6.9 -2.7 7.05 -2.9 L7.3 -3.1 7.5 -3.35 7.6 -3.45 7.75 -3.5 8.0 -3.7 8.35 -3.8 8.7 -3.85 9.0 -3.85 9.05 -3.8 9.15 -3.75 9.55 -3.4 9.85 -2.9 10.0 -2.5 10.0 -2.05 9.9 -1.85 9.55 -1.4 9.35 -1.3 8.85 -1.2 8.5 -1.2 8.05 -1.25 7.7 -1.35 7.25 -1.35 5.6 -0.85 4.65 -0.5 4.4 -0.3 4.3 -0.2 4.15 -0.05 3.5 0.6 3.35 0.85 M9.2 -2.3 L9.45 -2.4 9.55 -2.5 9.5 -2.8 9.35 -2.9 9.05 -2.9 9.1 -3.15 9.0 -3.35 8.65 -3.45 8.55 -3.35 8.35 -3.05 8.05 -3.2 7.75 -2.8 8.05 -2.6 7.95 -2.55 7.8 -2.5 7.75 -2.3 7.75 -2.15 7.95 -2.0 8.15 -2.0 8.15 -1.8 8.25 -1.6 8.35 -1.6 Q8.65 -1.5 8.7 -1.7 L8.8 -1.9 8.95 -1.75 Q9.0 -1.65 9.15 -1.65 L9.2 -1.7 9.35 -1.85 9.35 -2.1 9.2 -2.3 M4.8 0.2 L5.85 -0.2 5.9 -0.1 6.2 3.65 6.15 3.8 Q6.1 3.9 6.2 4.0 L6.25 4.5 6.3 4.7 6.4 4.8 6.6 6.5 6.7 7.45 6.8 8.7 6.5 7.8 6.5 8.05 6.45 8.0 6.35 7.75 5.9 5.45 5.8 5.05 5.6 4.2 5.6 4.1 5.25 2.65 5.2 2.3 4.8 0.2 M2.35 5.05 L2.25 5.05 2.15 4.95 1.95 4.15 1.75 2.65 1.75 2.55 2.7 2.15 2.7 2.4 2.75 2.45 2.75 2.65 2.9 4.45 2.95 4.5 3.45 7.6 3.6 8.15 3.6 8.35 3.5 8.35 3.5 8.25 3.4 8.15 2.9 6.45 2.7 6.25 2.55 5.55 2.5 5.5 2.45 5.4 2.35 5.05 M-0.05 2.95 L0.0 3.05 0.45 5.15 0.65 5.8 0.75 6.05 0.7 6.25 1.35 8.7 1.5 9.4 1.55 9.6 1.55 9.65 1.55 9.9 1.55 9.95 1.25 9.3 1.15 9.15 1.0 8.85 0.8 8.25 0.25 6.95 0.2 6.7 -0.25 5.6 -0.35 5.45 -0.4 5.35 -1.15 3.2 -0.6 3.15 -0.05 2.95 M-1.25 -2.0 Q-1.1 -2.0 -1.05 -1.85 L-1.0 -0.85 -2.55 -0.35 -2.8 -1.25 -3.95 -4.0 -4.0 -4.35 -4.0 -4.6 -3.9 -4.7 -3.75 -4.75 -3.6 -4.7 -3.5 -4.6 -3.35 -4.6 -3.35 -4.7 -3.6 -5.15 -4.3 -7.1 -4.35 -7.35 -4.4 -7.35 -4.4 -7.5 -4.1 -7.85 -4.05 -8.0 -4.1 -8.15 -4.1 -8.25 -3.6 -8.15 -3.55 -8.1 -3.55 -8.05 -3.45 -7.95 -3.45 -7.75 -3.3 -7.45 -3.2 -7.35 -3.1 -6.55 -2.7 -5.1 -2.6 -4.9 -2.55 -4.9 -2.45 -4.6 -2.3 -4.45 -1.8 -4.2 -1.75 -4.05 -1.65 -3.6 -1.5 -3.2 -1.45 -3.15 -1.4 -2.55 -1.25 -2.0 M-6.5 -5.7 L-6.7 -6.8 -6.65 -6.95 -6.75 -7.15 -6.95 -7.6 -7.45 -9.25 -6.9 -10.0 -6.55 -9.4 -6.35 -8.9 -5.75 -5.65 -5.75 -5.5 -5.7 -5.3 -4.8 -4.25 -4.4 0.6 -5.7 1.0 -6.55 -2.15 -6.7 -2.6 -6.75 -2.95 -7.6 -6.05 -7.6 -6.15 -7.55 -6.35 -6.75 -5.55 -6.6 -5.5 -6.5 -5.7 M-3.2 9.05 L-3.2 9.15 -3.6 8.2 -4.0 7.05 -4.8 3.85 -4.05 3.85 -3.2 9.05" fill="#ffffff" fill-rule="evenodd" stroke="none"/>
    </g>
  </defs>
</svg>
