<?xml version="1.0" encoding="UTF-8" standalone="no"?>
<svg xmlns:xlink="http://www.w3.org/1999/xlink" height="22.2px" width="22.2px" xmlns="http://www.w3.org/2000/svg">
  <g transform="matrix(1.0, 0.0, 0.0, 1.0, 11.1, 11.0)">
    <use data-characterId="218" height="19.8" transform="matrix(1.0, 0.0, 0.0, 1.0, -9.9, -9.9)" width="19.8" xlink:href="#shape0"/>
  </g>
  <defs>
    <g id="shape0" transform="matrix(1.0, 0.0, 0.0, 1.0, 9.9, 9.9)">
      <path d="M-4.45 5.5 L-4.85 4.1 Q-5.1 3.25 -5.5 2.9 L-5.25 4.7 -4.9 5.75 -4.6 5.75 -4.45 5.5 M-1.75 -0.35 L-1.75 -0.7 -1.55 -1.0 -1.1 -1.0 Q-0.8 -1.0 -0.8 -0.7 L-0.8 -0.35 Q-0.8 -0.05 -1.1 -0.05 L-1.55 -0.05 Q-1.75 -0.05 -1.75 -0.35 M-3.4 -0.35 Q-3.4 -0.05 -3.7 -0.05 L-4.15 -0.05 -4.4 -0.35 -4.4 -0.7 -4.15 -1.0 -3.7 -1.0 Q-3.4 -1.0 -3.4 -0.7 L-3.4 -0.35 M-6.25 -0.05 L-6.75 -0.05 -7.0 -0.35 -7.0 -0.7 -6.75 -1.0 -6.25 -1.0 -6.05 -0.7 -6.05 -0.35 Q-6.05 -0.05 -6.25 -0.05 M-8.9 -0.05 L-9.35 -0.05 Q-9.6 -0.05 -9.6 -0.35 L-9.6 -0.7 -9.35 -1.0 -8.9 -1.0 Q-8.65 -1.0 -8.65 -0.7 L-8.65 -0.35 Q-8.65 -0.05 -8.9 -0.05 M-9.6 -9.6 L-9.35 -9.9 -8.9 -9.9 Q-8.65 -9.9 -8.65 -9.6 L-8.65 -9.2 Q-8.65 -8.9 -8.9 -8.9 L-9.35 -8.9 Q-9.6 -8.9 -9.6 -9.2 L-9.6 -9.6 M-6.25 -9.9 L-6.05 -9.6 -6.05 -9.2 Q-6.05 -8.9 -6.25 -8.9 L-6.75 -8.9 -7.0 -9.2 -7.0 -9.6 -6.75 -9.9 -6.25 -9.9 M-4.15 -9.9 L-3.7 -9.9 Q-3.4 -9.9 -3.4 -9.6 L-3.4 -9.2 Q-3.4 -8.9 -3.7 -8.9 L-4.15 -8.9 -4.4 -9.2 -4.4 -9.6 -4.15 -9.9 M-1.1 -9.9 Q-0.8 -9.9 -0.8 -9.6 L-0.8 -9.2 Q-0.8 -8.9 -1.1 -8.9 L-1.55 -8.9 Q-1.75 -8.9 -1.75 -9.2 L-1.75 -9.6 -1.55 -9.9 -1.1 -9.9 M1.25 6.6 L1.25 5.75 -0.7 5.75 -0.7 6.6 1.25 6.6 M3.55 8.8 L3.55 7.85 -3.0 7.8 -3.0 8.8 3.55 8.8 M0.1 1.95 L0.1 1.55 -2.5 1.9 Q-4.0 2.3 -4.15 3.55 L-3.35 3.4 -2.5 3.25 -2.65 2.85 -2.75 2.45 Q-2.2 1.9 -1.4 2.1 -0.55 2.25 -0.45 3.05 L0.25 3.05 1.3 3.25 2.8 3.5 4.45 3.55 Q4.3 2.3 2.85 1.9 L0.25 1.55 Q0.15 1.9 0.35 2.0 L0.75 2.05 0.85 2.35 0.1 2.35 -0.5 2.15 -0.2 2.0 0.1 1.95 M5.6 4.7 L5.85 2.9 Q5.3 3.45 4.85 5.5 4.75 5.7 5.0 5.75 L5.3 5.75 5.6 4.7 M5.95 2.55 L5.95 4.55 5.65 6.6 5.9 6.95 5.95 7.45 Q5.95 7.95 4.95 7.95 L4.95 8.8 9.25 8.9 Q9.9 9.2 9.9 9.9 L-9.85 9.9 Q-10.0 9.25 -9.7 9.0 L-7.0 8.8 -4.6 8.8 -4.6 7.95 Q-5.6 7.95 -5.6 7.45 L-5.55 6.95 -5.3 6.6 -5.6 4.55 -5.6 2.55 Q-4.9 2.6 -4.45 3.4 -3.8 2.15 -3.2 1.75 -2.15 0.95 0.1 0.95 L0.25 0.95 Q2.5 0.95 3.55 1.75 4.15 2.15 4.85 3.4 5.25 2.6 5.95 2.55 M8.85 -8.1 L8.85 -1.8 -8.8 -1.8 -8.8 -8.1 8.85 -8.1 M8.9 -1.0 L9.35 -1.0 9.6 -0.7 9.6 -0.35 Q9.6 -0.05 9.35 -0.05 L8.9 -0.05 Q8.65 -0.05 8.65 -0.35 L8.65 -0.7 Q8.65 -1.0 8.9 -1.0 M6.75 -0.05 L6.25 -0.05 Q6.05 -0.05 6.05 -0.35 L6.05 -0.7 6.25 -1.0 6.75 -1.0 7.0 -0.7 7.0 -0.35 6.75 -0.05 M3.7 -0.05 Q3.4 -0.05 3.4 -0.35 L3.4 -0.7 Q3.4 -1.0 3.7 -1.0 L4.15 -1.0 4.4 -0.7 4.4 -0.35 4.15 -0.05 3.7 -0.05 M1.1 -1.0 L1.55 -1.0 1.75 -0.7 1.75 -0.35 Q1.75 -0.05 1.55 -0.05 L1.1 -0.05 Q0.8 -0.05 0.8 -0.35 L0.8 -0.7 Q0.8 -1.0 1.1 -1.0 M1.1 -9.9 L1.55 -9.9 1.75 -9.6 1.75 -9.2 Q1.75 -8.9 1.55 -8.9 L1.1 -8.9 Q0.8 -8.9 0.8 -9.2 L0.8 -9.6 Q0.8 -9.9 1.1 -9.9 M3.4 -9.6 Q3.4 -9.9 3.7 -9.9 L4.15 -9.9 4.4 -9.6 4.4 -9.2 4.15 -8.9 3.7 -8.9 Q3.4 -8.9 3.4 -9.2 L3.4 -9.6 M6.25 -9.9 L6.75 -9.9 7.0 -9.6 7.0 -9.2 6.75 -8.9 6.25 -8.9 Q6.05 -8.9 6.05 -9.2 L6.05 -9.6 6.25 -9.9 M9.35 -9.9 L9.6 -9.6 9.6 -9.2 Q9.6 -8.9 9.35 -8.9 L8.9 -8.9 Q8.65 -8.9 8.65 -9.2 L8.65 -9.6 Q8.65 -9.9 8.9 -9.9 L9.35 -9.9" fill="#ffffff" fill-rule="evenodd" stroke="none"/>
    </g>
  </defs>
</svg>
