<?xml version="1.0" encoding="UTF-8" standalone="no"?>
<svg xmlns:xlink="http://www.w3.org/1999/xlink" height="17.85px" width="22.2px" xmlns="http://www.w3.org/2000/svg">
  <g transform="matrix(1.0, 0.0, 0.0, 1.0, 11.15, 8.9)">
    <use data-characterId="113" height="15.5" transform="matrix(1.0, 0.0, 0.0, 1.0, -9.9, -7.75)" width="19.8" xlink:href="#shape0"/>
  </g>
  <defs>
    <g id="shape0" transform="matrix(1.0, 0.0, 0.0, 1.0, 9.9, 7.75)">
      <path d="M-3.25 0.8 L-0.55 0.8 -0.55 -2.3 -3.25 0.8 M-4.4 -2.8 L-7.05 -2.8 -4.4 0.35 -4.4 -2.8 M-0.85 -2.8 L-3.8 -2.8 -3.8 0.55 -0.85 -2.8 M0.05 0.8 L2.85 0.8 0.05 -2.3 0.05 0.8 M7.0 -2.8 L4.0 -2.8 4.0 0.45 7.0 -2.8 M3.4 -2.8 L0.35 -2.8 3.4 0.5 3.4 -2.8 M3.6 -7.45 L3.7 -7.45 3.7 -4.3 9.9 -4.3 9.9 -2.8 7.85 -2.8 4.5 0.8 9.9 0.8 9.9 1.65 7.5 1.65 7.8 6.8 8.55 6.8 8.55 7.75 5.3 7.75 5.3 6.8 5.95 6.8 6.25 1.65 0.55 1.65 0.85 6.8 1.55 6.8 1.55 7.75 -1.7 7.75 -1.7 6.8 -1.0 6.8 -0.7 1.65 -6.65 1.65 -6.35 6.8 -5.55 6.8 -5.55 7.75 -8.85 7.75 -8.85 6.8 -8.2 6.8 -7.9 1.65 -9.9 1.65 -9.9 0.8 -4.75 0.8 -7.85 -2.8 -9.9 -2.8 -9.9 -4.3 -4.3 -4.3 -4.3 -6.75 -4.8 -6.7 -5.5 -6.8 -5.8 -7.1 -5.5 -7.4 -4.8 -7.5 Q-4.05 -7.5 -3.85 -7.2 L-3.75 -7.2 -3.75 -4.3 3.1 -4.3 3.1 -6.95 2.65 -6.9 1.9 -7.0 1.6 -7.3 1.9 -7.6 2.65 -7.75 3.6 -7.45" fill="#ffffff" fill-rule="evenodd" stroke="none"/>
    </g>
  </defs>
</svg>
