<?xml version="1.0" encoding="UTF-8" standalone="no"?>
<svg xmlns:xlink="http://www.w3.org/1999/xlink" height="22.2px" width="22.25px" xmlns="http://www.w3.org/2000/svg">
  <g transform="matrix(1.0, 0.0, 0.0, 1.0, 11.1, 11.05)">
    <use data-characterId="100" height="19.8" transform="matrix(1.0, 0.0, 0.0, 1.0, -9.9, -9.9)" width="19.8" xlink:href="#shape0"/>
  </g>
  <defs>
    <g id="shape0" transform="matrix(1.0, 0.0, 0.0, 1.0, 9.9, 9.9)">
      <path d="M6.25 -7.85 Q9.55 -10.15 9.9 -9.85 10.15 -9.5 7.9 -6.25 5.5 -2.8 3.45 -0.95 L1.35 0.85 Q-1.85 3.9 -0.5 7.1 L0.25 6.4 2.0 5.35 Q1.55 6.65 0.15 8.05 -1.3 9.55 -2.55 9.85 L-2.65 9.9 -2.65 9.85 Q-2.45 9.15 -1.1 7.6 L-2.85 3.65 -3.5 3.7 -3.7 3.55 -3.75 3.1 -3.65 2.9 -7.6 1.1 Q-9.15 2.5 -9.9 2.7 -9.55 1.4 -8.05 -0.1 -6.6 -1.45 -5.35 -1.95 -5.7 -1.1 -6.35 -0.2 L-7.05 0.55 Q-3.95 1.9 -0.8 -1.3 L0.95 -3.4 Q2.8 -5.45 6.25 -7.85" fill="#ffffff" fill-rule="evenodd" stroke="none"/>
    </g>
  </defs>
</svg>
