<?xml version="1.0" encoding="UTF-8" standalone="no"?>
<svg xmlns:xlink="http://www.w3.org/1999/xlink" height="20.5px" width="20.5px" xmlns="http://www.w3.org/2000/svg">
  <g transform="matrix(1.0, 0.0, 0.0, 1.0, 10.25, 10.25)">
    <use data-characterId="181" height="20.0" transform="matrix(1.0, 0.0, 0.0, 1.0, -10.0, -10.0)" width="20.0" xlink:href="#shape0"/>
  </g>
  <defs>
    <g id="shape0" transform="matrix(1.0, 0.0, 0.0, 1.0, 10.0, 10.0)">
      <path d="M8.95 -8.75 L9.7 -10.0 9.7 -8.55 Q9.55 -7.1 9.2 -6.15 L8.85 -5.25 Q8.35 -3.75 9.25 -3.0 L9.75 -3.95 9.6 -2.8 9.05 -1.75 9.2 -2.75 8.05 -3.65 7.85 -3.5 Q7.3 -0.2 5.35 3.1 3.0 7.15 0.35 9.5 L4.7 9.5 Q4.75 8.95 5.15 8.5 5.7 7.95 6.4 7.95 7.15 7.95 7.65 8.5 L7.8 8.75 8.5 8.5 Q9.0 8.5 9.35 8.85 L9.75 9.5 10.0 9.5 10.0 10.0 -10.0 10.0 -10.0 9.5 -9.75 9.5 Q-9.7 8.75 -9.1 8.15 -8.45 7.5 -7.55 7.5 -6.65 7.5 -6.05 8.15 L-5.85 8.4 -5.35 7.7 -4.7 7.2 -3.95 1.6 -3.65 -1.0 Q-3.55 -2.65 -4.15 -6.3 L-5.15 -6.55 -5.5 -6.55 -5.7 -7.0 -6.0 -7.0 -6.0 -7.2 -5.7 -7.2 -5.55 -7.35 -4.5 -7.7 -3.5 -8.0 -3.65 -8.15 -3.8 -8.35 -3.7 -8.4 -3.65 -8.4 -3.1 -8.85 -2.8 -8.95 -2.75 -9.95 -2.55 -9.95 -2.55 -8.95 -2.2 -8.85 -1.7 -8.4 -1.6 -8.4 -1.5 -8.35 -1.65 -8.15 -1.8 -8.0 -0.85 -7.7 Q0.4 -7.45 0.4 -7.2 L0.65 -7.2 0.65 -7.0 0.4 -7.0 0.2 -6.55 -0.15 -6.55 Q-0.4 -6.3 -1.15 -6.3 L-1.25 -6.3 -1.75 -4.1 -2.0 -1.5 -1.55 3.9 -1.1 7.85 Q3.3 4.85 6.0 0.2 L7.75 -3.5 7.7 -3.65 7.7 -3.75 6.25 -3.6 5.8 -2.7 Q5.7 -3.15 5.95 -3.9 L6.45 -4.9 6.3 -3.85 Q7.5 -3.95 7.85 -5.5 L8.1 -6.5 8.95 -8.75" fill="#ffffff" fill-rule="evenodd" stroke="none"/>
    </g>
  </defs>
</svg>
