<?xml version="1.0" encoding="UTF-8" standalone="no"?>
<svg xmlns:xlink="http://www.w3.org/1999/xlink" height="20.4px" width="16.5px" xmlns="http://www.w3.org/2000/svg">
  <g transform="matrix(1.0, 0.0, 0.0, 1.0, 8.25, 10.2)">
    <use data-characterId="91" height="18.0" transform="matrix(1.0, 0.0, 0.0, 1.0, -7.05, -9.0)" width="14.1" xlink:href="#shape0"/>
  </g>
  <defs>
    <g id="shape0" transform="matrix(1.0, 0.0, 0.0, 1.0, 7.05, 9.0)">
      <path d="M1.05 -0.1 L1.05 -1.7 -1.25 -1.7 -1.25 -0.1 1.05 -0.1 M3.4 -7.6 Q4.75 -6.2 4.75 -4.25 L4.75 4.8 7.05 4.8 7.05 9.0 -7.05 9.0 -7.05 4.8 -4.75 4.8 -4.75 -4.25 Q-4.75 -6.2 -3.35 -7.6 -1.95 -9.0 0.0 -9.0 2.0 -9.0 3.4 -7.6 M2.8 -2.45 L2.8 -4.1 -3.05 -4.1 -3.05 -2.45 2.8 -2.45" fill="#ffffff" fill-rule="evenodd" stroke="none"/>
    </g>
  </defs>
</svg>
