<?xml version="1.0" encoding="UTF-8" standalone="no"?>
<svg xmlns:xlink="http://www.w3.org/1999/xlink" height="22.2px" width="22.2px" xmlns="http://www.w3.org/2000/svg">
  <g transform="matrix(1.0, 0.0, 0.0, 1.0, 11.1, 11.05)">
    <use data-characterId="88" height="19.8" transform="matrix(1.0, 0.0, 0.0, 1.0, -9.9, -9.9)" width="19.8" xlink:href="#shape0"/>
  </g>
  <defs>
    <g id="shape0" transform="matrix(1.0, 0.0, 0.0, 1.0, 9.9, 9.9)">
      <path d="M5.85 -5.85 Q3.4 -8.3 0.0 -8.3 -3.4 -8.3 -5.8 -5.85 -8.25 -3.4 -8.25 0.0 -8.25 3.4 -5.8 5.85 -3.4 8.25 0.0 8.25 3.4 8.25 5.85 5.85 8.25 3.4 8.25 0.0 8.25 -3.4 5.85 -5.85 M0.0 -9.9 Q4.1 -9.9 7.0 -7.0 9.9 -4.1 9.9 0.0 9.9 4.1 7.0 7.0 4.1 9.9 0.0 9.9 -4.1 9.9 -7.0 7.0 -9.9 4.1 -9.9 0.0 -9.9 -4.1 -7.0 -7.0 -4.1 -9.9 0.0 -9.9 M2.2 -6.85 L2.2 -2.2 6.85 -2.2 6.85 2.2 2.2 2.2 2.2 6.85 -2.2 6.85 -2.2 2.2 -6.85 2.2 -6.85 -2.2 -2.2 -2.2 -2.2 -6.85 2.2 -6.85" fill="#ffffff" fill-rule="evenodd" stroke="none"/>
    </g>
  </defs>
</svg>
