<?xml version="1.0" encoding="UTF-8" standalone="no"?>
<svg xmlns:xlink="http://www.w3.org/1999/xlink" height="22.2px" width="22.2px" xmlns="http://www.w3.org/2000/svg">
  <g transform="matrix(1.0, 0.0, 0.0, 1.0, 11.1, 11.1)">
    <use data-characterId="79" height="19.8" transform="matrix(1.0, 0.0, 0.0, 1.0, -9.9, -9.9)" width="19.8" xlink:href="#shape0"/>
  </g>
  <defs>
    <g id="shape0" transform="matrix(1.0, 0.0, 0.0, 1.0, 9.9, 9.9)">
      <path d="M-8.6 0.0 Q-8.6 1.95 -7.7 3.85 L-7.7 -3.85 Q-8.6 -1.95 -8.6 0.0 M-5.95 -2.75 L-6.35 -2.85 -6.6 -2.85 -6.9 -2.95 -6.7 -3.0 -7.0 -3.0 -7.0 4.95 Q-5.15 7.7 -1.85 8.4 L-0.95 8.4 -0.95 8.3 -1.0 8.0 -0.9 7.9 -0.9 7.55 -1.3 6.8 -1.35 6.5 -1.4 6.35 -1.45 5.2 -1.3 4.85 -1.3 4.2 -1.25 3.85 -1.25 3.65 -1.4 3.05 -1.55 3.35 -1.75 3.6 -1.75 3.65 -1.85 3.7 -1.9 3.8 -2.35 4.3 -2.6 4.75 -2.7 5.0 -3.25 5.9 -3.5 6.25 -3.65 6.65 -3.75 7.0 -3.8 7.4 -3.85 7.45 -3.85 7.5 -4.3 7.35 -4.8 7.0 -4.8 6.95 -4.75 6.95 -4.5 6.9 -4.3 6.8 -4.15 6.5 -3.7 4.8 -3.05 3.85 -2.75 3.6 -2.75 3.5 -2.45 3.2 -2.35 2.9 -2.35 2.8 -2.15 2.2 -2.05 1.9 -2.0 1.6 -1.8 1.3 -1.45 0.7 -1.25 -0.1 -1.25 -0.5 -1.1 -0.85 -1.3 -1.45 -1.4 -1.7 -1.4 -1.95 -1.6 -2.2 -1.6 -2.4 Q-1.7 -2.6 -1.85 -2.6 L-2.0 -2.55 -2.5 -2.55 -2.8 -2.65 -3.05 -2.6 -3.55 -2.65 -3.75 -2.6 -3.95 -2.6 -4.3 -2.55 -4.75 -2.65 -5.0 -2.7 -5.15 -2.75 -5.45 -2.75 -5.65 -2.85 Q-5.7 -2.75 -5.95 -2.75 M-6.2 -4.9 L-6.3 -4.9 -6.4 -4.95 -6.65 -5.15 -6.45 -5.15 -6.55 -5.15 Q-6.7 -5.15 -6.8 -5.25 L-7.0 -4.9 -7.0 -3.35 -6.65 -3.4 -6.4 -3.45 -6.55 -3.45 -6.75 -3.5 -6.85 -3.6 -6.4 -3.65 -6.25 -3.55 -6.05 -3.55 -5.6 -3.35 -5.35 -3.35 -5.2 -3.3 -4.85 -3.35 -4.2 -3.35 -3.9 -3.4 -3.65 -3.3 -3.05 -3.35 -2.7 -3.35 -3.0 -3.4 -3.8 -3.7 -3.95 -3.8 -4.15 -3.85 -5.05 -4.35 -5.55 -4.65 -5.85 -4.7 -6.0 -4.85 -6.1 -4.85 -6.2 -4.9 M-6.0 -5.7 L-5.8 -5.55 -5.7 -5.5 -5.35 -5.15 -5.2 -5.05 -4.8 -4.9 -4.0 -4.75 -3.95 -4.7 -3.5 -4.45 -3.15 -4.25 -3.0 -4.25 -2.8 -4.15 -2.15 -3.95 -1.4 -3.85 -1.0 -3.7 -0.7 -3.75 -0.5 -4.05 -0.5 -4.15 -0.6 -4.45 -0.65 -4.45 -0.8 -4.7 -0.8 -4.95 -0.7 -4.95 Q-0.75 -5.5 -0.35 -5.7 L-6.0 -5.7 M7.7 3.8 Q8.6 2.0 8.6 0.0 8.6 -2.0 7.7 -3.8 L7.7 3.8 M5.8 -6.35 Q3.35 -8.6 0.0 -8.6 -3.35 -8.6 -5.8 -6.35 L5.8 -6.35 M1.7 -2.6 L1.45 -2.5 1.25 -1.4 1.15 -1.2 1.0 -0.2 0.85 -0.25 0.9 0.2 1.0 0.4 1.0 0.8 1.05 0.8 1.05 0.75 1.1 0.8 1.3 1.1 1.65 2.0 2.05 3.2 1.95 3.4 2.05 3.65 2.3 3.9 2.45 3.85 2.7 4.6 3.2 5.75 3.6 6.55 3.5 6.55 3.5 6.65 3.6 6.55 3.95 6.85 4.5 6.85 5.05 6.55 5.15 6.7 5.0 6.9 4.4 7.25 4.0 7.25 3.7 7.4 3.5 7.7 3.35 7.6 3.45 7.15 3.25 6.8 3.3 6.75 3.2 6.65 3.15 6.65 2.55 5.85 2.3 5.6 Q1.85 5.1 1.9 4.85 L2.0 4.7 1.85 4.4 1.55 4.15 1.5 4.15 1.5 4.25 1.45 4.25 1.0 3.25 0.95 3.95 0.9 4.0 0.8 3.95 0.8 4.15 0.95 4.45 0.85 4.8 0.95 4.75 0.9 4.85 0.65 6.65 0.65 7.3 0.6 7.3 0.65 7.4 0.85 7.7 1.3 7.85 1.85 7.95 1.85 8.15 1.45 8.3 1.0 8.35 0.65 8.2 0.35 8.35 0.2 8.35 0.2 8.3 0.25 8.0 0.25 7.5 0.3 7.45 0.1 6.8 0.1 6.75 Q-0.2 5.5 0.1 5.2 L0.25 5.15 0.25 4.75 0.15 4.45 0.1 4.25 0.05 4.25 0.05 4.2 0.0 3.15 -0.1 2.5 -0.2 2.85 -0.35 3.4 -0.3 3.8 -0.35 4.1 -0.35 4.25 -0.45 4.4 -0.45 4.55 -0.5 4.7 -0.55 4.8 -0.65 5.2 -0.55 5.5 -0.5 6.1 -0.55 6.35 -0.5 6.5 -0.5 6.55 -0.4 7.4 -0.25 7.65 -0.25 7.85 -0.15 8.0 0.1 8.2 0.15 8.35 0.15 8.4 1.85 8.4 Q5.15 7.7 7.1 4.9 L7.05 -2.9 6.35 -2.95 6.35 -2.9 6.85 -2.85 6.8 -2.75 5.8 -2.75 5.8 -2.65 5.6 -2.65 5.6 -2.8 4.7 -2.75 4.6 -2.65 4.25 -2.6 3.85 -2.7 3.85 -2.8 3.8 -2.8 3.55 -2.65 3.45 -2.7 3.4 -2.7 1.7 -2.6 M3.5 -3.75 L3.45 -3.75 2.1 -3.25 3.45 -3.15 3.55 -3.2 3.7 -3.15 3.8 -3.05 3.85 -3.1 3.85 -3.2 4.45 -3.3 5.5 -3.25 5.55 -3.25 5.55 -3.2 5.6 -3.2 5.6 -3.45 5.75 -3.5 5.75 -3.4 6.0 -3.5 6.4 -3.6 6.85 -3.4 6.85 -3.3 7.05 -3.25 7.05 -4.9 6.8 -5.25 6.25 -5.05 6.7 -5.15 6.7 -5.0 5.85 -4.75 5.9 -4.7 5.75 -4.6 5.65 -4.75 4.7 -4.25 4.6 -4.15 4.3 -3.95 4.0 -3.85 3.85 -3.85 3.85 -4.0 3.8 -3.95 3.5 -3.75 M3.4 -4.25 L3.55 -4.25 3.7 -4.25 3.65 -4.35 3.65 -4.4 3.7 -4.5 4.4 -4.75 Q5.15 -4.95 5.3 -5.15 L5.35 -5.15 5.4 -5.05 5.45 -5.05 5.3 -5.25 5.35 -5.35 5.5 -5.3 5.7 -5.5 6.05 -5.7 0.35 -5.7 0.55 -5.6 0.7 -4.9 0.8 -4.9 0.8 -4.7 0.7 -4.55 0.65 -4.45 0.55 -4.15 0.45 -4.0 0.7 -3.6 Q1.0 -4.0 1.5 -4.0 L1.9 -3.9 3.3 -4.15 3.35 -4.2 3.35 -4.25 3.4 -4.25 M7.6 -6.35 L7.7 -6.2 Q9.9 -3.5 9.9 0.0 9.9 4.1 7.0 7.0 4.1 9.9 0.0 9.9 -4.1 9.9 -7.0 7.0 -9.9 4.1 -9.9 0.0 -9.9 -3.5 -7.7 -6.25 L-7.6 -6.35 Q-6.2 -8.0 -4.25 -8.95 -2.25 -9.9 0.0 -9.9 2.25 -9.9 4.25 -8.95 6.2 -8.0 7.6 -6.35" fill="#ffffff" fill-rule="evenodd" stroke="none"/>
    </g>
  </defs>
</svg>
