<?xml version="1.0" encoding="UTF-8" standalone="no"?>
<svg xmlns:xlink="http://www.w3.org/1999/xlink" height="21.4px" width="22.2px" xmlns="http://www.w3.org/2000/svg">
  <g transform="matrix(1.0, 0.0, 0.0, 1.0, 11.1, 10.7)">
    <use data-characterId="76" height="19.0" transform="matrix(1.0, 0.0, 0.0, 1.0, -9.9, -9.5)" width="19.8" xlink:href="#shape0"/>
  </g>
  <defs>
    <g id="shape0" transform="matrix(1.0, 0.0, 0.0, 1.0, 9.9, 9.5)">
      <path d="M2.75 -7.6 Q3.05 -6.4 2.65 -5.15 L1.75 -2.75 Q1.25 -1.55 1.3 -1.4 L2.55 -2.7 Q3.95 -4.4 5.05 -5.0 6.65 -5.9 7.6 -5.75 8.65 -5.55 8.65 -4.05 L8.8 -1.9 9.55 -0.5 Q10.2 0.4 9.7 1.25 9.15 2.15 7.75 2.25 5.9 2.45 3.5 1.6 L1.4 0.95 Q1.1 1.15 4.35 3.7 5.45 4.55 5.9 5.45 6.45 6.7 5.35 7.4 4.4 8.0 3.55 7.85 2.5 7.7 2.0 7.85 0.65 8.55 0.05 8.9 L-1.8 9.05 Q-3.2 8.3 -2.95 6.2 -2.8 4.6 -2.0 3.1 -1.55 2.2 -1.55 1.7 L-1.65 1.3 -3.85 3.65 Q-6.05 6.6 -6.0 9.5 L-7.85 8.7 -7.25 6.9 Q-6.5 4.9 -5.65 3.95 L-3.25 1.8 -1.85 0.8 -3.0 0.75 Q-4.3 0.9 -5.95 2.35 -7.6 3.9 -8.75 3.3 -9.55 2.9 -9.85 1.85 -10.0 1.3 -9.75 0.35 L-9.4 -1.25 -9.3 -3.2 Q-9.15 -4.45 -8.45 -4.85 L-6.5 -5.05 Q-5.45 -4.75 -4.75 -3.85 -3.2 -2.05 -1.8 -1.65 -3.05 -3.8 -4.25 -4.95 -5.4 -6.05 -5.5 -7.0 -5.6 -7.9 -4.85 -8.5 L-3.3 -8.75 -1.7 -8.6 -0.2 -9.25 1.5 -9.35 Q2.45 -8.85 2.75 -7.6" fill="#ffffff" fill-rule="evenodd" stroke="none"/>
    </g>
  </defs>
</svg>
