<?xml version="1.0" encoding="UTF-8" standalone="no"?>
<svg xmlns:xlink="http://www.w3.org/1999/xlink" height="21.7px" width="22.2px" xmlns="http://www.w3.org/2000/svg">
  <g transform="matrix(1.0, 0.0, 0.0, 1.0, 11.1, 10.85)">
    <use data-characterId="73" height="19.3" transform="matrix(1.0, 0.0, 0.0, 1.0, -9.9, -9.65)" width="19.8" xlink:href="#shape0"/>
  </g>
  <defs>
    <g id="shape0" transform="matrix(1.0, 0.0, 0.0, 1.0, 9.9, 9.65)">
      <path d="M-6.15 8.3 Q-5.95 8.45 -5.75 8.2 L-5.55 7.7 -6.3 7.65 Q-6.4 8.15 -6.15 8.3 M-4.45 1.95 Q-4.7 1.4 -5.0 1.6 L-5.1 2.0 -5.0 2.45 Q-4.7 2.95 -4.4 2.75 -4.15 2.5 -4.45 1.95 M-5.15 -5.2 Q-5.55 -4.75 -5.25 -4.0 -4.95 -3.25 -4.45 -3.6 L-4.45 -3.65 Q-4.0 -4.05 -4.3 -4.85 -4.65 -5.6 -5.15 -5.2 M5.95 8.45 Q6.25 7.7 5.8 7.3 5.35 6.85 5.0 7.65 4.7 8.45 5.15 8.85 L5.15 8.9 Q5.65 9.25 5.95 8.45 M4.4 1.85 Q4.1 1.7 3.85 2.2 3.6 2.85 3.8 3.05 4.1 3.25 4.4 2.7 4.6 2.0 4.4 1.85 M8.95 4.45 L9.05 4.5 9.25 5.0 8.95 5.45 8.95 5.5 8.75 5.55 8.75 5.6 8.7 5.65 8.65 5.6 8.3 5.85 8.2 5.9 8.3 5.9 9.25 6.0 9.25 6.1 8.85 6.3 8.15 6.3 8.0 6.3 7.9 6.5 Q8.3 6.5 8.4 6.7 L8.4 6.8 7.75 6.95 7.75 7.1 7.6 7.55 7.4 7.95 Q7.3 8.1 7.05 8.1 L6.95 8.05 6.85 7.55 6.8 7.4 Q6.85 8.5 6.1 9.25 L5.4 9.65 Q5.0 9.7 4.65 9.35 4.3 8.9 4.35 8.2 L4.5 7.6 4.6 7.35 4.1 8.3 4.05 8.35 -4.85 8.05 -5.05 8.55 -5.05 8.6 -5.65 9.35 -6.4 9.5 -6.95 8.8 -7.0 7.9 -7.3 7.9 -8.05 7.7 -8.15 7.45 -8.7 7.15 -8.65 7.1 -8.1 6.9 Q-8.0 6.7 -7.75 6.65 L-7.9 6.65 -8.35 6.5 -8.3 6.4 -7.75 6.2 -7.55 6.2 -8.1 5.5 -8.6 5.1 -8.8 4.9 -8.9 4.65 -8.6 4.6 -8.15 4.65 -6.3 4.85 -4.05 4.45 -2.45 3.85 -0.75 3.55 -0.7 3.6 -1.0 4.0 -1.45 4.6 -1.7 5.2 -1.45 5.3 0.75 5.15 0.95 4.4 Q1.0 4.0 1.15 4.1 L1.1 4.55 1.0 5.1 1.15 5.05 1.4 4.3 1.55 3.6 1.55 3.55 2.1 3.85 2.8 4.7 6.1 3.7 7.7 3.35 8.2 3.35 8.05 3.85 8.0 4.0 8.1 4.0 8.4 4.1 8.65 4.25 8.75 4.1 8.75 4.15 8.7 4.25 8.95 4.45 M6.85 -4.15 L7.0 -4.8 6.25 -4.8 6.45 -4.3 Q6.65 -4.05 6.85 -4.15 M1.75 -3.8 L3.55 -3.75 5.6 -3.15 6.15 -2.95 5.7 -3.35 5.8 -3.5 6.5 -2.75 7.4 -2.3 7.2 -2.2 6.8 -2.4 7.5 -1.3 9.1 -0.1 9.4 -0.1 9.35 -0.05 9.2 -0.05 9.6 0.4 9.65 0.35 9.65 0.3 Q9.7 0.2 9.8 0.2 L9.85 0.2 9.7 0.5 9.9 0.75 9.7 0.85 9.55 0.65 9.05 1.1 9.1 1.15 9.05 1.25 8.95 1.15 8.15 1.6 5.3 2.35 4.7 3.4 Q3.85 4.3 3.25 3.55 L3.2 3.55 Q2.85 3.1 2.9 2.35 L2.9 2.2 2.75 2.2 2.8 2.35 2.6 2.45 2.5 2.25 -3.6 2.05 Q-3.5 2.75 -3.85 3.25 L-3.9 3.25 Q-4.2 3.65 -4.6 3.6 L-5.35 3.2 Q-5.9 2.7 -6.05 1.85 L-6.15 1.9 -6.25 1.9 -6.2 2.1 -6.4 2.2 -6.45 1.85 Q-8.05 1.6 -9.1 0.95 L-9.9 0.2 -9.85 0.15 -9.55 0.0 -9.55 -0.05 -6.8 -1.0 -6.25 -1.6 -6.1 -1.7 -4.85 -1.85 -2.25 -1.6 -1.6 -1.65 -1.35 -1.75 -0.1 -2.75 1.75 -3.8 M1.8 -3.15 L1.75 -3.1 1.65 -3.1 1.45 -2.95 0.1 -2.0 -0.85 -0.95 0.55 -0.8 0.2 -1.3 0.3 -1.4 0.5 -1.45 0.95 -0.75 2.75 -0.75 4.0 -0.95 4.05 -1.0 4.15 -1.1 4.1 -1.0 4.1 -0.95 5.15 -1.25 Q4.95 -1.85 4.15 -2.45 L3.05 -2.95 2.5 -3.1 1.9 -3.15 1.8 -3.15 M2.35 -7.3 L2.15 -7.85 1.7 -8.45 -0.8 -8.95 -0.85 -8.9 -0.85 -8.85 -0.5 -7.4 -0.3 -7.4 -0.4 -7.9 -0.5 -8.4 -0.45 -8.4 -0.25 -8.05 -0.1 -7.35 2.15 -7.2 Q2.3 -7.2 2.35 -7.3 M9.6 -7.85 L9.5 -7.55 9.25 -7.4 8.25 -6.3 8.45 -6.25 9.0 -6.1 9.0 -6.0 Q8.9 -5.85 8.6 -5.85 L8.45 -5.8 8.8 -5.6 9.35 -5.4 9.4 -5.3 8.85 -5.0 8.75 -4.8 Q8.5 -4.6 8.0 -4.55 L7.7 -4.55 7.65 -3.65 Q7.5 -3.1 7.1 -3.0 L6.35 -3.15 5.75 -3.85 5.75 -3.95 5.55 -4.45 -3.4 -4.15 -3.9 -5.15 -3.8 -4.9 -3.7 -4.3 Q-3.6 -3.6 -3.95 -3.15 L-4.0 -3.1 Q-4.3 -2.75 -4.7 -2.8 L-5.45 -3.25 Q-6.15 -3.95 -6.1 -5.05 L-6.15 -4.9 -6.25 -4.45 -6.4 -4.4 Q-6.55 -4.3 -6.7 -4.55 L-7.05 -5.4 -7.1 -5.5 Q-7.55 -5.45 -7.7 -5.7 L-7.7 -5.8 -7.25 -5.95 -7.3 -6.2 -7.45 -6.2 -8.15 -6.2 Q-8.45 -6.25 -8.6 -6.4 L-8.6 -6.45 -7.6 -6.55 -7.55 -6.55 -7.6 -6.65 -8.0 -6.85 -8.05 -6.85 -8.05 -6.95 -8.25 -7.0 -8.55 -7.45 -8.35 -8.0 -8.3 -8.0 -8.0 -8.2 -8.1 -8.35 -8.05 -8.4 -8.0 -8.25 -7.4 -8.45 -7.3 -8.45 -7.4 -8.6 -7.55 -9.1 -7.35 -9.15 -7.0 -9.1 -5.4 -8.75 -2.25 -7.85 -1.15 -9.65 -0.95 -9.65 0.4 -9.45 Q1.95 -9.15 3.1 -8.65 L4.75 -8.0 7.0 -7.6 8.8 -7.85 9.3 -7.9 9.6 -7.85" fill="#ffffff" fill-rule="evenodd" stroke="none"/>
    </g>
  </defs>
</svg>
