<?xml version="1.0" encoding="UTF-8" standalone="no"?>
<svg xmlns:xlink="http://www.w3.org/1999/xlink" height="21.35px" width="21.3px" xmlns="http://www.w3.org/2000/svg">
  <g transform="matrix(1.0, 0.0, 0.0, 1.0, 10.4, 10.45)">
    <use data-characterId="70" height="18.9" transform="matrix(1.0, 0.0, 0.0, 1.0, -9.2, -9.25)" width="18.9" xlink:href="#shape0"/>
  </g>
  <defs>
    <g id="shape0" transform="matrix(1.0, 0.0, 0.0, 1.0, 9.2, 9.25)">
      <path d="M6.45 -5.25 Q7.6 -5.25 9.7 3.25 L9.3 3.0 8.65 3.0 7.85 2.25 6.9 1.4 Q6.35 1.0 5.75 1.0 4.35 1.0 3.55 2.25 L3.45 2.5 2.9 2.95 2.15 2.25 1.2 1.4 Q0.65 1.0 0.05 1.0 -1.35 1.0 -2.15 2.25 L-2.25 2.45 -2.8 2.95 -3.55 2.25 -4.75 1.25 Q-3.3 -2.95 -2.1 -2.95 -1.65 -2.95 -1.05 -1.8 0.9 -9.25 2.3 -9.25 3.25 -9.25 4.95 -3.3 5.75 -5.25 6.45 -5.25 M6.9 2.9 L7.85 3.75 8.65 4.45 9.3 4.45 9.3 6.05 8.6 6.05 Q8.0 6.05 7.45 5.6 L6.5 4.8 5.7 4.05 Q5.5 4.05 5.25 4.35 L5.05 4.55 5.0 4.7 Q4.2 6.05 2.9 6.05 2.3 6.05 1.75 5.6 L0.8 4.8 0.0 4.05 -0.65 4.55 -0.7 4.7 Q-1.5 6.05 -2.8 6.05 L-3.95 5.6 -4.9 4.8 -5.7 4.05 -6.35 4.55 -6.4 4.7 Q-7.2 6.05 -8.5 6.05 L-9.2 6.05 -9.2 4.45 -8.5 4.45 Q-8.2 4.45 -8.0 3.95 L-7.85 3.75 Q-7.05 2.45 -5.65 2.45 -5.05 2.45 -4.5 2.9 L-3.55 3.75 -2.8 4.45 -2.25 3.95 -2.15 3.75 Q-1.35 2.45 0.05 2.45 0.65 2.45 1.2 2.9 L2.15 3.75 2.9 4.45 3.45 3.95 3.55 3.75 Q4.35 2.45 5.75 2.45 6.35 2.45 6.9 2.9 M5.0 8.4 Q4.2 9.65 2.9 9.65 2.3 9.65 1.75 9.3 L0.8 8.4 0.0 7.7 Q-0.4 7.7 -0.65 8.25 L-0.7 8.4 Q-1.5 9.65 -2.8 9.65 L-3.95 9.3 -4.9 8.4 Q-5.5 7.8 -5.7 7.7 -6.1 7.7 -6.35 8.25 L-6.4 8.4 Q-7.2 9.65 -8.5 9.65 L-9.2 9.65 -9.2 8.1 -8.5 8.1 -8.0 7.65 -7.85 7.4 Q-7.05 6.15 -5.65 6.15 -5.05 6.15 -4.5 6.5 L-3.55 7.4 -2.8 8.1 -2.25 7.6 -2.15 7.4 Q-1.35 6.15 0.05 6.15 0.65 6.15 1.2 6.5 L2.15 7.4 2.9 8.1 3.45 7.65 3.55 7.4 Q4.35 6.15 5.75 6.15 6.35 6.15 6.9 6.5 L7.85 7.4 8.65 8.1 9.3 8.1 9.3 9.65 8.6 9.65 7.45 9.3 6.5 8.4 5.7 7.7 Q5.5 7.7 5.25 7.95 L5.05 8.25 5.0 8.4" fill="#ffffff" fill-rule="evenodd" stroke="none"/>
    </g>
  </defs>
</svg>
