<?xml version="1.0" encoding="UTF-8" standalone="no"?>
<svg xmlns:xlink="http://www.w3.org/1999/xlink" height="16.35px" width="21.3px" xmlns="http://www.w3.org/2000/svg">
  <g transform="matrix(1.0, 0.0, 0.0, 1.0, 10.7, 10.95)">
    <use data-characterId="129" height="15.2" transform="matrix(1.0, 0.0, 0.0, 1.0, -9.4, -10.95)" width="18.85" xlink:href="#shape0"/>
  </g>
  <defs>
    <g id="shape0" transform="matrix(1.0, 0.0, 0.0, 1.0, 9.4, 10.95)">
      <path d="M0.95 0.7 L0.95 -2.1 -7.55 -2.1 -7.55 0.7 0.95 0.7 M7.5 -2.1 L3.25 -2.1 3.25 0.7 7.5 0.7 7.5 -2.1 M9.45 -4.25 L9.45 -2.9 8.6 -2.9 8.6 4.25 2.05 4.25 2.05 2.55 -2.25 2.55 -2.25 4.25 -8.6 4.25 -8.6 -2.9 -9.4 -2.9 -9.4 -4.25 9.45 -4.25" fill="#ffffff" fill-rule="evenodd" stroke="none"/>
      <path d="M6.9 -10.2 L6.1 -10.2 6.1 -10.95 7.2 -10.95 7.2 -4.25 6.1 -4.25 6.1 -7.35 6.9 -7.35 6.9 -8.5 6.1 -8.5 6.1 -9.05 6.9 -9.05 6.9 -10.2" fill="#ffffff" fill-rule="evenodd" stroke="none"/>
    </g>
  </defs>
</svg>
