<?xml version="1.0" encoding="UTF-8" standalone="no"?>
<svg xmlns:xlink="http://www.w3.org/1999/xlink" height="21.4px" width="21.4px" xmlns="http://www.w3.org/2000/svg">
  <g transform="matrix(1.0, 0.0, 0.0, 1.0, 10.2, 10.9)">
    <use data-characterId="67" height="19.0" transform="matrix(1.0, 0.0, 0.0, 1.0, -9.05, -9.7)" width="19.05" xlink:href="#shape0"/>
  </g>
  <defs>
    <g id="shape0" transform="matrix(1.0, 0.0, 0.0, 1.0, 9.05, 9.7)">
      <path d="M0.45 -7.9 Q-0.95 -7.9 -2.45 -7.35 L0.45 0.85 3.4 -7.35 0.45 -7.9 M7.25 -3.9 Q6.3 -5.6 4.65 -6.65 L7.05 3.85 Q8.2 1.9 8.2 -0.2 8.2 -2.15 7.25 -3.9 M10.0 -0.2 Q10.0 3.7 7.2 6.5 4.4 9.3 0.45 9.3 -3.45 9.3 -6.25 6.5 -9.05 3.7 -9.05 -0.2 -9.05 -4.15 -6.25 -6.9 -3.45 -9.7 0.45 -9.7 4.35 -9.7 7.2 -6.95 10.0 -4.15 10.0 -0.2 M5.25 5.8 L3.65 -1.8 0.45 7.1 -2.7 -1.7 -4.35 5.8 Q-2.25 7.5 0.45 7.5 3.2 7.5 5.25 5.8 M-7.2 -0.2 Q-7.2 1.95 -6.05 3.85 L-3.75 -6.65 Q-5.4 -5.6 -6.3 -3.9 -7.2 -2.15 -7.2 -0.2" fill="#ffffff" fill-rule="evenodd" stroke="none"/>
    </g>
  </defs>
</svg>
