<?xml version="1.0" encoding="UTF-8" standalone="no"?>
<svg xmlns:xlink="http://www.w3.org/1999/xlink" height="16.15px" width="22.35px" xmlns="http://www.w3.org/2000/svg">
  <g transform="matrix(1.0, 0.0, 0.0, 1.0, 11.15, 8.05)">
    <use data-characterId="123" height="13.75" transform="matrix(1.0, 0.0, 0.0, 1.0, -9.95, -6.85)" width="20.0" xlink:href="#shape0"/>
  </g>
  <defs>
    <g id="shape0" transform="matrix(1.0, 0.0, 0.0, 1.0, 9.95, 6.85)">
      <path d="M-4.75 1.45 L-5.65 3.1 -6.35 1.5 -6.35 4.3 -4.75 5.15 -4.75 1.45 M-8.95 0.05 Q-8.95 1.5 -8.0 2.7 L-8.0 -2.65 Q-8.95 -1.45 -8.95 0.05 M-2.45 -5.8 L-2.9 -5.75 -2.9 5.8 -0.75 6.05 -0.75 -4.15 -2.45 -4.15 -2.45 -5.8 M-4.65 -5.15 L-6.65 -4.0 -5.65 -1.6 -4.65 -5.15 M6.5 1.2 L4.8 1.2 4.8 5.15 6.5 4.25 6.5 1.2 M8.1 2.7 Q9.0 1.45 9.0 0.05 9.0 -1.4 8.1 -2.65 L8.1 2.7 M2.75 -5.75 L2.75 -4.15 1.05 -4.15 1.05 6.05 3.25 5.7 3.25 -5.65 2.75 -5.75 M4.8 -0.3 L6.5 -0.3 6.5 -2.65 4.8 -3.8 4.8 -0.3 M0.05 -6.85 Q4.15 -6.85 7.1 -4.85 10.05 -2.8 10.05 0.05 10.05 2.85 7.1 4.9 4.15 6.9 0.05 6.9 -4.1 6.9 -7.05 4.9 -9.95 2.85 -9.95 0.05 -9.95 -2.8 -7.05 -4.85 -4.1 -6.85 0.05 -6.85" fill="#ffffff" fill-rule="evenodd" stroke="none"/>
    </g>
  </defs>
</svg>
