<?xml version="1.0" encoding="UTF-8" standalone="no"?>
<svg xmlns:xlink="http://www.w3.org/1999/xlink" height="22.2px" width="22.2px" xmlns="http://www.w3.org/2000/svg">
  <g transform="matrix(1.0, 0.0, 0.0, 1.0, 11.1, 11.05)">
    <use data-characterId="64" height="19.1" transform="matrix(1.0, 0.0, 0.0, 1.0, -9.55, -9.55)" width="19.1" xlink:href="#shape0"/>
  </g>
  <defs>
    <g id="shape0" transform="matrix(1.0, 0.0, 0.0, 1.0, 9.55, 9.55)">
      <path d="M0.35 -9.5 L0.35 -9.55 Q3.3 -9.4 5.65 -7.7 8.0 -5.95 8.95 -3.25 L7.15 -3.25 Q6.3 -5.1 4.65 -6.35 2.95 -7.55 0.9 -7.8 L0.35 -9.5 M9.2 -2.6 Q9.55 -1.35 9.55 0.0 9.55 2.25 8.55 4.25 7.6 6.2 5.9 7.55 L5.3 5.75 Q6.5 4.7 7.15 3.2 7.85 1.7 7.85 0.0 L7.7 -1.5 9.2 -2.6 M8.95 -2.85 L3.4 1.15 5.55 7.7 0.0 3.65 -5.55 7.7 -3.4 1.15 -8.95 -2.85 -2.15 -2.85 0.0 -9.4 2.15 -2.85 8.95 -2.85 M3.8 6.85 L5.3 7.95 Q2.9 9.55 0.0 9.55 -2.9 9.55 -5.3 7.95 L-3.8 6.85 Q-2.0 7.85 0.0 7.85 2.0 7.85 3.8 6.85 M-0.35 -9.5 L-0.9 -7.8 Q-2.95 -7.55 -4.65 -6.35 -6.3 -5.1 -7.15 -3.25 L-8.95 -3.25 Q-8.0 -5.95 -5.65 -7.7 -3.3 -9.4 -0.35 -9.55 L-0.35 -9.5 M-7.7 -1.5 L-7.85 0.0 Q-7.85 1.7 -7.15 3.2 -6.5 4.7 -5.3 5.75 L-5.9 7.55 Q-7.6 6.2 -8.55 4.25 -9.55 2.25 -9.55 0.0 -9.55 -1.35 -9.2 -2.6 L-7.7 -1.5" fill="#ffffff" fill-rule="evenodd" stroke="none"/>
    </g>
  </defs>
</svg>
