<?xml version="1.0" encoding="UTF-8" standalone="no"?>
<svg xmlns:xlink="http://www.w3.org/1999/xlink" height="20.3px" width="20.3px" xmlns="http://www.w3.org/2000/svg">
  <g transform="matrix(1.0, 0.0, 0.0, 1.0, 10.15, 10.15)">
    <use data-characterId="61" height="17.9" transform="matrix(1.0, 0.0, 0.0, 1.0, -8.95, -8.95)" width="17.9" xlink:href="#shape0"/>
  </g>
  <defs>
    <g id="shape0" transform="matrix(1.0, 0.0, 0.0, 1.0, 8.95, 8.95)">
      <path d="M8.95 -4.7 L8.35 -4.7 8.35 -4.2 6.7 -4.2 6.7 6.55 8.0 6.55 8.0 7.4 8.35 7.4 8.35 8.2 8.95 8.2 8.95 8.95 -8.95 8.95 -8.95 8.2 -8.45 8.2 -8.45 7.4 -8.05 7.4 -8.05 6.55 -6.7 6.55 -6.7 -4.2 -8.45 -4.2 -8.45 -4.7 -8.95 -4.7 -8.95 -5.35 -0.05 -8.95 8.95 -5.35 8.95 -4.7 M2.95 -4.2 L2.95 6.55 5.0 6.55 5.0 -4.2 2.95 -4.2 M1.15 -4.2 L-1.1 -4.2 -1.1 6.55 1.15 6.55 1.15 -4.2 M-5.05 -4.2 L-5.05 6.55 -2.95 6.55 -2.95 -4.2 -5.05 -4.2" fill="#ffffff" fill-rule="evenodd" stroke="none"/>
    </g>
  </defs>
</svg>
