<?xml version="1.0" encoding="UTF-8" standalone="no"?>
<svg xmlns:xlink="http://www.w3.org/1999/xlink" height="22.2px" width="18.45px" xmlns="http://www.w3.org/2000/svg">
  <g transform="matrix(1.0, 0.0, 0.0, 1.0, 9.2, 11.0)">
    <use data-characterId="58" height="19.8" transform="matrix(1.0, 0.0, 0.0, 1.0, -8.0, -9.9)" width="16.05" xlink:href="#shape0"/>
  </g>
  <defs>
    <g id="shape0" transform="matrix(1.0, 0.0, 0.0, 1.0, 8.0, 9.9)">
      <path d="M-8.0 4.15 L-6.75 4.15 -6.75 9.9 -8.0 9.9 -8.0 4.15 M5.95 9.9 L4.25 9.9 4.25 4.15 5.95 4.15 5.95 9.9 M3.4 4.15 L3.4 9.9 -1.8 9.9 -1.8 5.75 -3.95 5.75 -3.95 9.9 -5.95 9.9 -5.95 4.15 3.4 4.15 M6.8 4.15 L8.05 4.15 8.05 9.9 6.8 9.9 6.8 4.15 M2.1 -3.5 Q1.5 -2.15 0.05 -2.15 L-1.25 -2.5 -2.05 -3.5 -2.05 0.5 2.1 0.5 2.1 -3.5 M0.05 -6.7 Q0.7 -6.7 1.3 -6.35 L2.1 -5.35 2.1 -9.9 Q4.7 -9.2 6.35 -7.1 8.05 -4.9 8.05 -2.15 L8.05 2.25 -8.0 2.25 -8.0 -2.15 Q-8.0 -4.9 -6.35 -7.1 -4.65 -9.2 -2.05 -9.9 L-2.05 -5.35 -1.25 -6.35 0.05 -6.7" fill="#ffffff" fill-rule="evenodd" stroke="none"/>
    </g>
  </defs>
</svg>
