<?xml version="1.0" encoding="UTF-8" standalone="no"?>
<svg xmlns:xlink="http://www.w3.org/1999/xlink" height="17.8px" width="17.8px" xmlns="http://www.w3.org/2000/svg">
  <g transform="matrix(1.0, 0.0, 0.0, 1.0, 8.9, 7.15)">
    <use data-characterId="55" height="15.4" transform="matrix(1.0, 0.0, 0.0, 1.0, -7.7, -5.95)" width="15.4" xlink:href="#shape0"/>
  </g>
  <defs>
    <g id="shape0" transform="matrix(1.0, 0.0, 0.0, 1.0, 7.7, 5.95)">
      <path d="M2.7 -1.1 L2.7 3.15 4.85 3.15 4.85 -1.1 2.7 -1.1 M2.1 4.3 L-2.15 4.3 -2.15 8.55 2.1 8.55 2.1 4.3 M7.7 9.45 L-7.7 9.45 -7.7 -3.05 -0.2 -5.95 7.7 -3.05 7.7 9.45 M1.1 -1.1 L-1.1 -1.1 -1.1 3.15 1.1 3.15 1.1 -1.1 M-4.9 -1.1 L-4.9 3.15 -2.75 3.15 -2.75 -1.1 -4.9 -1.1" fill="#ffffff" fill-rule="evenodd" stroke="none"/>
    </g>
  </defs>
</svg>
