<?xml version="1.0" encoding="UTF-8" standalone="no"?>
<svg xmlns:xlink="http://www.w3.org/1999/xlink" height="20.0px" width="20.0px" xmlns="http://www.w3.org/2000/svg">
  <g transform="matrix(1.0, 0.0, 0.0, 1.0, 10.0, 10.0)">
    <use data-characterId="169" height="20.0" transform="matrix(1.0, 0.0, 0.0, 1.0, -10.0, -10.0)" width="20.0" xlink:href="#shape0"/>
  </g>
  <defs>
    <g id="shape0" transform="matrix(1.0, 0.0, 0.0, 1.0, 10.0, 10.0)">
      <path d="M-0.75 5.95 L-0.7 5.95 -0.75 5.3 -1.0 4.6 -1.1 5.3 -1.05 5.95 -0.95 5.95 -0.95 5.5 -0.85 5.4 -0.75 5.6 -0.75 5.95 M-1.6 5.95 L-1.6 4.75 -1.8 4.55 -1.8 4.15 -1.85 4.15 -1.95 4.3 -1.95 4.8 -2.05 5.7 -2.0 5.8 -1.6 5.95 M0.55 6.85 L0.6 6.75 0.35 6.75 0.4 6.85 0.55 6.85 M0.95 5.9 L1.25 5.85 1.25 5.1 1.15 4.35 1.05 4.35 0.95 5.9 M2.15 -4.7 L2.35 -4.7 2.5 -4.65 2.55 -4.65 2.95 -4.7 3.55 -4.5 3.95 -4.2 4.3 -4.0 4.5 -3.7 4.8 -3.3 5.05 -2.85 5.25 -2.35 5.35 -1.95 5.3 -1.2 4.8 -0.1 4.4 0.45 2.45 2.6 2.4 2.85 2.4 5.55 Q4.8 4.4 6.0 2.4 L6.8 0.45 6.55 0.45 6.4 0.35 6.5 0.3 6.4 0.15 6.4 0.1 5.85 0.15 5.65 0.15 5.55 0.05 5.65 0.0 5.8 -0.05 5.85 -0.15 5.85 -0.2 5.7 -0.3 5.8 -0.45 6.0 -0.45 5.9 -0.6 6.0 -0.65 6.55 -0.8 6.65 -0.8 6.8 -0.85 7.0 -0.85 6.85 -1.7 6.7 -1.9 6.65 -2.0 6.55 -2.3 6.3 -2.6 5.7 -3.45 4.95 -4.3 4.15 -4.95 3.2 -5.55 1.4 -6.2 0.7 -6.3 0.55 -6.2 0.55 -6.15 0.5 -5.6 0.4 -5.5 0.3 -5.6 0.3 -5.65 0.35 -6.05 0.3 -6.15 0.25 -5.9 0.2 -5.8 0.05 -5.9 0.15 -5.0 0.05 -4.85 -0.05 -4.95 -0.1 -5.2 -0.15 -5.85 -0.25 -5.95 -0.25 -6.05 -0.35 -5.95 -0.45 -6.05 -0.5 -5.95 -0.6 -5.9 -0.75 -5.95 -0.85 -6.1 -0.85 -6.35 -2.25 -6.2 -2.8 -6.05 -3.3 -5.8 -4.7 -4.95 -5.8 -3.7 -6.0 -3.3 -6.2 -3.15 -6.4 -2.7 -6.7 -1.65 -6.85 -1.1 -6.3 -1.0 -6.15 -0.9 -6.3 -0.8 -6.75 -0.8 -6.85 -0.75 -6.85 -0.7 -6.2 -0.7 -6.05 -0.5 -5.85 -0.55 -5.65 -0.45 -6.05 -0.35 -6.45 -0.35 -6.4 -0.3 -6.35 -0.15 -6.45 -0.1 -6.65 -0.1 -6.55 0.0 -6.85 0.1 -6.85 0.25 -6.7 1.35 -6.2 2.7 -5.75 3.3 -5.4 3.65 -4.3 4.55 -2.9 5.35 -3.0 2.95 -3.1 2.4 -3.2 2.25 -3.3 2.2 -4.9 0.2 -5.1 -0.25 -5.25 -0.8 -5.35 -1.65 -5.3 -2.25 -4.9 -3.1 -4.1 -3.85 -3.9 -4.0 -2.55 -4.5 -2.0 -4.6 -1.35 -4.55 -0.65 -4.25 -0.05 -3.5 0.6 -4.2 0.75 -4.25 1.05 -4.45 1.45 -4.6 1.8 -4.65 2.0 -4.65 2.05 -4.7 2.1 -4.6 2.15 -4.7 M10.0 -0.4 L9.85 -0.25 9.75 -0.05 9.6 0.0 9.5 0.15 9.3 0.15 9.1 0.25 8.9 0.25 9.0 0.35 9.35 0.45 9.4 0.55 8.3 0.5 8.2 0.6 8.05 1.5 7.6 2.8 6.85 4.0 5.55 5.5 4.75 6.1 3.3 6.65 3.2 6.7 2.75 6.7 2.6 6.8 2.45 6.85 2.35 7.0 2.25 7.35 2.15 7.65 2.05 7.75 1.75 7.8 1.65 7.8 Q1.3 7.55 1.3 7.2 L1.3 7.05 0.95 7.1 1.05 9.1 1.0 9.75 0.9 9.95 0.75 9.95 0.6 9.6 Q0.5 9.2 0.55 8.3 L0.6 7.2 0.45 7.1 0.45 7.35 0.4 7.5 0.3 7.7 0.2 7.9 0.25 9.45 0.2 9.55 0.05 9.7 -0.1 9.8 -0.25 9.6 -0.25 9.1 -0.45 8.75 -0.45 8.3 -0.65 8.15 -0.7 8.05 -0.7 7.75 -0.7 7.6 -0.75 7.75 -0.85 7.8 -0.9 7.7 -0.85 7.2 -1.05 7.2 -1.05 7.45 -1.2 7.8 -1.5 7.75 -1.55 7.65 -1.7 7.1 -2.05 7.05 -2.0 9.25 Q-2.0 9.65 -2.35 9.85 L-2.85 9.75 -2.85 6.95 -3.4 6.75 -4.8 6.1 -5.9 5.3 -6.9 3.85 -7.65 2.2 -7.95 0.95 -8.0 0.25 -8.6 0.25 -8.7 0.1 -8.0 0.1 -8.05 0.05 -8.55 -0.05 -8.75 0.0 -8.95 0.1 -9.15 0.1 -9.3 0.0 -9.2 -0.1 -8.65 -0.15 -8.5 -0.2 -8.45 -0.25 -8.65 -0.3 -9.85 -0.35 -10.0 -0.45 -9.95 -0.6 -9.8 -0.7 -9.1 -0.6 -8.75 -0.75 -8.2 -0.7 -9.2 -0.85 -9.3 -0.9 Q-9.15 -0.95 -9.05 -1.05 L-8.4 -1.15 -8.25 -1.15 Q-8.1 -1.2 -8.1 -1.35 L-7.8 -2.85 -7.4 -3.85 -6.65 -5.0 -4.9 -6.45 -3.8 -7.05 -2.35 -7.5 -0.85 -7.7 -0.9 -8.75 -0.85 -8.9 -0.85 -9.6 -0.85 -9.7 -0.75 -9.75 -0.7 -9.7 -0.55 -9.2 -0.45 -9.2 -0.4 -9.1 -0.4 -8.95 -0.25 -9.05 -0.25 -9.85 -0.1 -10.0 0.1 -9.6 0.15 -9.2 0.25 -9.25 0.3 -9.1 0.3 -8.75 0.4 -8.75 0.6 -8.55 0.6 -8.5 0.7 -8.5 0.75 -8.4 0.75 -7.75 1.6 -7.6 1.75 -7.65 2.35 -7.5 3.55 -7.0 5.4 -5.9 6.1 -5.35 6.55 -4.85 7.1 -4.0 7.05 -3.8 7.5 -2.85 8.1 -0.85 9.5 -0.95 9.65 -0.85 9.5 -0.75 9.65 -0.7 9.5 -0.6 9.35 -0.6 9.75 -0.5 10.0 -0.4" fill="#ffffff" fill-rule="evenodd" stroke="none"/>
    </g>
  </defs>
</svg>
