<?xml version="1.0" encoding="UTF-8" standalone="no"?>
<svg xmlns:xlink="http://www.w3.org/1999/xlink" height="20.05px" width="14.3px" xmlns="http://www.w3.org/2000/svg">
  <g transform="matrix(1.0, 0.0, 0.0, 1.0, 10.0, 10.0)">
    <use data-characterId="165" height="20.05" transform="matrix(1.0, 0.0, 0.0, 1.0, -10.0, -10.0)" width="14.3" xlink:href="#shape0"/>
  </g>
  <defs>
    <g id="shape0" transform="matrix(1.0, 0.0, 0.0, 1.0, 10.0, 10.0)">
      <path d="M-1.6 1.2 L-1.55 1.1 -1.9 1.1 -2.2 1.2 -3.1 1.15 -3.5 1.15 -3.65 1.1 -3.8 1.15 -3.8 1.3 -3.1 1.95 -2.95 2.1 -2.95 2.3 -2.85 2.65 -2.8 2.75 -2.55 2.65 -2.55 2.4 -2.55 2.3 -2.4 2.05 -2.0 1.6 -1.6 1.2 M-3.9 -0.85 L-3.85 -0.95 -3.85 -1.1 -5.45 -2.65 -5.65 -2.35 -5.75 -2.0 -6.0 -1.55 -6.5 -0.3 -6.4 0.05 -5.9 -1.15 -5.7 -1.15 -4.1 -0.85 -4.05 -0.8 Q-3.95 -0.75 -3.9 -0.85 M0.85 -1.4 L0.85 -1.5 0.75 -1.55 0.35 -2.3 0.2 -2.4 0.1 -2.35 -0.15 -2.05 -1.2 -1.05 -1.2 -0.95 -1.15 -0.85 -1.1 -0.8 -0.75 -0.95 0.5 -1.3 0.55 -1.35 0.75 -1.35 0.85 -1.4 M4.3 -9.35 L4.25 -9.0 3.9 -8.5 3.7 -8.15 3.5 -7.95 3.2 -7.5 2.95 -7.2 2.85 -7.1 2.7 -6.95 2.55 -6.75 2.4 -6.6 2.35 -6.6 1.95 -6.05 1.8 -5.95 Q1.7 -5.9 1.65 -6.0 L1.7 -5.8 1.55 -5.7 1.5 -5.45 1.5 -5.0 1.6 -4.7 1.75 -3.5 1.8 -3.45 1.8 -3.15 1.85 -2.85 1.85 -2.6 1.95 -2.5 2.05 -2.25 2.2 -1.3 2.3 -1.0 2.35 -0.6 2.3 -0.3 2.15 0.15 1.9 0.45 1.7 0.85 1.65 0.9 1.5 1.1 1.35 1.3 0.7 2.3 0.3 2.7 0.2 3.2 0.3 4.6 0.1 4.9 -0.05 5.1 -0.15 5.7 -0.2 5.65 -0.25 6.0 -0.25 6.15 -0.55 7.05 -0.65 7.25 -0.7 7.5 -0.8 7.65 -1.0 8.15 -1.15 8.4 -1.25 8.6 -1.35 8.75 -1.45 8.95 -1.65 9.2 -1.85 9.45 -2.05 9.6 -2.25 9.55 -2.2 9.45 -1.95 9.05 -1.85 8.85 -1.45 7.4 -1.3 7.0 -1.2 6.45 -1.15 6.3 -0.95 5.25 -0.95 4.7 -1.0 4.5 -1.1 4.5 -1.15 4.55 -1.25 4.75 -1.2 5.4 Q-1.15 5.7 -1.45 6.2 L-1.65 6.45 -1.7 6.4 -1.5 5.65 Q-1.45 5.15 -1.55 5.05 L-1.65 5.3 -1.75 6.0 -1.8 6.15 -1.85 6.0 -2.0 6.25 -2.1 5.85 -2.0 5.2 -2.0 5.15 -2.1 5.2 -2.25 5.65 -2.5 6.65 -2.7 6.25 -2.7 5.0 -2.8 5.0 -2.85 5.1 -2.9 5.9 -2.95 6.15 -3.1 6.2 -3.3 5.95 -3.35 5.6 -3.4 4.7 -3.45 4.65 -3.5 4.65 -3.65 4.9 -3.65 6.05 -3.5 6.45 -3.5 6.65 -3.65 6.65 -4.0 6.15 -4.1 5.95 -4.2 4.7 -4.3 4.6 -4.35 4.7 -4.25 6.75 -4.2 7.4 -4.0 8.75 -4.0 8.8 -3.9 9.1 -3.75 9.45 -3.6 9.65 -3.5 9.85 -3.75 10.0 -4.0 9.75 -4.25 9.2 -4.4 8.95 -4.8 8.0 -4.8 7.95 -4.95 7.45 -5.05 7.15 -5.35 5.25 -5.5 4.95 -5.55 4.85 -5.65 4.95 -5.7 4.85 -5.8 4.55 -5.8 4.15 -5.75 3.95 -5.75 2.85 Q-5.75 2.45 -6.1 2.35 L-6.15 2.3 -6.25 2.05 -6.45 1.85 -6.5 1.75 -6.55 1.7 -6.9 1.3 -7.05 1.1 -8.0 -0.5 -8.1 -0.7 -8.1 -0.8 -8.05 -1.0 -8.1 -1.15 -8.0 -1.55 -7.85 -2.2 -7.85 -2.3 -7.75 -2.7 -7.5 -3.2 -7.35 -3.3 Q-7.25 -3.3 -7.25 -3.35 L-7.3 -3.65 -7.3 -3.9 -7.15 -4.55 -7.05 -5.1 -7.15 -5.65 -7.55 -6.15 -7.6 -6.25 -7.9 -6.65 -8.35 -7.2 -8.55 -7.45 -8.6 -7.45 -8.7 -7.6 -8.85 -7.8 -9.0 -8.05 -9.2 -8.3 -9.25 -8.3 -9.55 -8.75 -9.75 -9.1 -9.7 -9.2 -9.8 -9.45 -9.7 -9.65 -9.9 -9.8 -10.0 -9.9 -9.85 -9.95 -8.6 -9.65 -8.45 -9.65 -7.95 -9.55 -7.55 -9.5 -7.1 -9.4 -6.35 -9.3 -6.2 -8.35 -6.1 -8.1 -5.95 -8.05 -5.75 -8.1 -5.5 -8.2 -5.45 -8.3 -5.35 -8.3 -5.15 -8.45 -5.15 -8.4 -4.85 -8.3 -4.8 -8.3 -4.3 -8.35 -3.5 -8.4 -3.0 -8.35 -1.85 -8.2 -0.75 -8.2 -0.3 -8.2 -0.15 -8.25 -0.05 -8.25 0.2 -8.1 0.7 -8.05 0.75 -8.05 0.85 -8.2 0.9 -8.35 0.9 -8.75 0.9 -8.95 0.95 -9.0 1.35 -9.1 1.75 -9.15 3.4 -9.6 3.5 -9.5 3.5 -9.45 3.55 -9.4 3.85 -9.55 4.05 -9.55 4.1 -9.5 Q4.2 -9.35 3.95 -9.3 L3.85 -9.2 4.3 -9.35" fill="#ffffff" fill-rule="evenodd" stroke="none"/>
    </g>
  </defs>
</svg>
