<?xml version="1.0" encoding="UTF-8" standalone="no"?>
<svg xmlns:xlink="http://www.w3.org/1999/xlink" height="16.45px" width="22.2px" xmlns="http://www.w3.org/2000/svg">
  <g transform="matrix(1.0, 0.0, 0.0, 1.0, 11.1, 8.25)">
    <use data-characterId="52" height="14.1" transform="matrix(1.0, 0.0, 0.0, 1.0, -9.9, -7.05)" width="19.8" xlink:href="#shape0"/>
  </g>
  <defs>
    <g id="shape0" transform="matrix(1.0, 0.0, 0.0, 1.0, 9.9, 7.05)">
      <path d="M5.75 5.0 L5.25 5.25 5.05 5.5 5.0 5.65 Q4.2 7.05 2.75 7.05 2.2 7.05 1.6 6.65 L0.6 5.75 -0.25 5.0 Q-0.65 5.0 -0.95 5.5 L-1.0 5.65 Q-1.75 7.05 -3.2 7.05 -3.8 7.05 -4.4 6.65 L-5.35 5.75 -6.2 5.0 Q-6.65 5.0 -6.9 5.5 L-7.0 5.65 -7.7 6.5 Q-8.35 7.05 -9.2 7.05 L-9.9 7.05 -9.9 5.4 -9.2 5.4 -8.6 4.9 -8.45 4.6 Q-7.65 3.35 -6.2 3.35 -5.55 3.35 -4.95 3.75 L-3.95 4.65 -3.15 5.35 -2.65 4.85 -2.5 4.65 Q-1.7 3.35 -0.2 3.35 L1.0 3.75 2.0 4.65 2.8 5.35 3.35 4.9 3.5 4.65 Q4.25 3.35 5.75 3.35 L7.0 3.75 8.0 4.65 8.8 5.4 9.45 5.4 9.45 7.05 8.75 7.05 Q8.15 7.05 7.55 6.65 L6.55 5.75 5.75 5.0 M5.75 -0.5 L7.0 -0.1 8.0 0.85 8.8 1.55 9.45 1.55 9.45 3.2 8.75 3.2 Q7.85 3.2 6.55 1.9 L5.75 1.15 Q5.5 1.15 5.25 1.45 L5.05 1.7 5.0 1.85 Q4.15 3.2 2.75 3.2 1.85 3.2 0.6 1.9 L-0.25 1.15 Q-0.65 1.15 -0.95 1.7 L-1.0 1.85 Q-1.85 3.2 -3.2 3.2 -3.8 3.2 -4.4 2.8 L-5.35 1.9 -6.2 1.15 Q-6.65 1.15 -6.9 1.7 L-7.0 1.85 Q-7.7 3.2 -9.2 3.2 L-9.9 3.2 -9.9 1.55 -9.2 1.55 Q-8.85 1.55 -8.6 1.05 L-8.45 0.8 Q-7.6 -0.5 -6.2 -0.5 -5.55 -0.5 -4.95 -0.1 L-3.95 0.85 -3.15 1.55 -2.65 1.05 -2.5 0.8 Q-1.7 -0.5 -0.2 -0.5 L1.0 -0.1 2.0 0.85 2.8 1.55 3.35 1.05 3.5 0.8 Q4.3 -0.5 5.75 -0.5 M3.15 -5.5 L3.15 -0.35 2.65 0.2 1.85 -0.55 1.6 -0.8 1.6 -5.5 -1.45 -5.5 -1.45 -1.65 -2.7 -0.55 -2.8 -0.35 -3.05 -0.05 -3.05 -5.5 -6.1 -5.5 -6.1 -1.85 -6.4 -1.9 -7.65 -1.55 -7.65 -5.5 -9.5 -5.5 -9.5 -7.05 9.9 -7.05 9.9 -5.5 7.75 -5.5 7.75 -0.6 6.2 -1.75 6.2 -5.5 3.15 -5.5" fill="#ffffff" fill-rule="evenodd" stroke="none"/>
    </g>
  </defs>
</svg>
