<?xml version="1.0" encoding="UTF-8" standalone="no"?>
<svg xmlns:xlink="http://www.w3.org/1999/xlink" height="21.3px" width="21.0px" xmlns="http://www.w3.org/2000/svg">
  <g transform="matrix(1.0, 0.0, 0.0, 1.0, 10.5, 11.0)">
    <use data-characterId="97" height="19.0" transform="matrix(1.0, 0.0, 0.0, 1.0, -9.25, -9.5)" width="18.55" xlink:href="#shape0"/>
  </g>
  <defs>
    <g id="shape0" transform="matrix(1.0, 0.0, 0.0, 1.0, 9.25, 9.5)">
      <path d="M5.6 -2.4 L1.35 -2.5 -0.05 -6.55 -1.4 -2.5 -5.65 -2.4 -2.25 0.1 -3.55 4.25 -0.05 1.75 3.45 4.25 2.2 0.1 5.6 -2.4 M8.15 -5.9 Q6.95 -4.0 6.95 -1.95 6.95 0.1 7.85 1.55 8.3 2.35 8.85 2.65 L8.1 4.15 Q7.0 5.9 4.95 7.15 2.45 8.65 -0.05 9.5 L-1.6 8.9 -4.95 7.15 Q-7.05 5.9 -8.0 4.15 L-8.7 2.65 Q-8.2 2.35 -7.8 1.55 -7.0 0.1 -7.0 -1.95 -7.0 -4.0 -8.05 -5.9 L-9.25 -7.45 -7.6 -9.5 -6.85 -8.45 Q-5.6 -7.45 -3.85 -7.45 -2.6 -7.45 -1.2 -8.1 -0.5 -8.4 -0.05 -8.75 L1.15 -8.1 Q2.6 -7.45 3.85 -7.45 5.55 -7.45 6.8 -8.45 L7.7 -9.5 9.3 -7.45 8.15 -5.9" fill="#ffffff" fill-rule="evenodd" stroke="none"/>
    </g>
  </defs>
</svg>
