<?xml version="1.0" encoding="UTF-8" standalone="no"?>
<svg xmlns:xlink="http://www.w3.org/1999/xlink" height="22.2px" width="20.9px" xmlns="http://www.w3.org/2000/svg">
  <g transform="matrix(1.0, 0.0, 0.0, 1.0, 10.45, 11.05)">
    <use data-characterId="49" height="19.8" transform="matrix(1.0, 0.0, 0.0, 1.0, -9.25, -9.9)" width="18.5" xlink:href="#shape0"/>
  </g>
  <defs>
    <g id="shape0" transform="matrix(1.0, 0.0, 0.0, 1.0, 9.25, 9.9)">
      <path d="M3.4 8.75 L3.75 8.35 3.85 8.2 Q4.4 7.25 5.5 7.25 6.2 7.25 7.1 8.2 L7.65 8.75 9.25 8.75 9.25 9.9 7.6 9.9 Q6.95 9.9 6.05 8.95 L5.45 8.45 Q5.3 8.45 5.15 8.65 L5.0 8.85 4.9 8.95 Q4.45 9.9 3.35 9.9 2.7 9.9 1.85 8.95 L1.25 8.45 Q1.1 8.45 0.9 8.6 L0.75 8.85 0.7 8.95 Q0.1 9.9 -0.85 9.9 -1.55 9.9 -2.4 8.95 L-3.05 8.45 -3.5 8.85 -3.55 8.95 Q-4.1 9.9 -5.15 9.9 L-9.25 9.9 -9.25 8.75 -5.15 8.75 -4.7 8.35 -4.6 8.2 Q-4.0 7.25 -3.0 7.25 -2.55 7.25 -2.1 7.55 L-1.4 8.2 -0.85 8.75 -0.5 8.35 -0.4 8.2 Q0.2 7.25 1.25 7.25 1.7 7.25 2.15 7.55 L2.8 8.2 3.4 8.75 M5.55 -9.8 L5.3 -9.05 4.85 -8.35 4.9 -7.55 Q4.85 -6.7 4.2 -5.15 L2.9 -2.6 2.25 -2.0 1.85 -1.85 -0.35 5.3 Q0.45 4.25 1.25 4.25 2.0 4.3 2.8 5.5 L4.4 1.25 Q5.75 -2.2 6.5 -2.8 L8.2 -2.65 9.1 2.1 9.1 2.2 8.0 0.7 6.95 -0.85 Q6.5 0.2 5.2 4.6 L5.5 4.55 Q6.15 4.55 7.1 5.5 L7.65 6.05 9.25 6.05 9.25 7.2 7.6 7.2 Q7.0 7.2 6.05 6.25 L5.45 5.75 Q5.3 5.75 5.15 5.95 L5.0 6.1 4.9 6.25 Q4.4 7.2 3.35 7.2 2.75 7.2 1.85 6.25 L1.25 5.75 Q0.95 5.75 0.75 6.1 L0.7 6.25 Q0.05 7.2 -0.85 7.2 -1.45 7.2 -2.4 6.25 L-3.05 5.75 Q-3.25 5.75 -3.5 6.1 L-3.55 6.25 Q-4.15 7.2 -5.15 7.2 L-5.3 7.2 -5.3 7.25 -9.25 7.25 -9.25 6.05 -7.7 6.05 -7.9 2.15 Q-8.0 -2.0 -7.1 -3.2 -7.3 -1.0 -6.85 2.75 L-6.35 6.05 -5.65 6.05 -5.45 -1.05 -4.55 -5.45 -4.15 -6.5 -4.4 -4.7 Q-4.75 0.85 -4.05 4.9 L-3.8 4.75 -3.75 4.15 Q-3.3 1.55 -2.45 -0.8 -3.25 -1.85 -1.8 -4.25 L-1.0 -5.35 Q-0.55 -5.8 -0.1 -5.8 L0.2 -6.5 0.4 -6.85 0.65 -7.0 0.75 -6.75 0.55 -6.4 0.15 -5.75 Q0.45 -4.3 -0.5 -2.3 L-1.1 -1.2 Q-1.5 -0.75 -2.15 -0.65 L-2.75 1.9 -3.25 4.6 -3.0 4.55 Q-2.55 4.55 -2.1 4.85 L-1.4 5.5 -1.35 5.6 -0.95 5.75 1.6 -2.15 1.4 -2.45 1.4 -3.2 Q2.9 -8.2 4.6 -8.45 L4.95 -9.2 5.35 -9.9 5.35 -9.85 5.55 -9.8" fill="#ffffff" fill-rule="evenodd" stroke="none"/>
    </g>
  </defs>
</svg>
