<?xml version="1.0" encoding="UTF-8" standalone="no"?>
<svg xmlns:xlink="http://www.w3.org/1999/xlink" height="12.35px" width="21.35px" xmlns="http://www.w3.org/2000/svg">
  <g transform="matrix(1.0, 0.0, 0.0, 1.0, 10.65, 6.15)">
    <use data-characterId="85" height="10.1" transform="matrix(1.0, 0.0, 0.0, 1.0, -9.45, -5.05)" width="18.95" xlink:href="#shape0"/>
  </g>
  <defs>
    <g id="shape0" transform="matrix(1.0, 0.0, 0.0, 1.0, 9.45, 5.05)">
      <path d="M-0.2 3.7 L-4.0 3.7 -4.3 3.95 -4.0 4.25 -0.2 4.25 0.1 3.95 -0.2 3.7 M9.5 -0.7 Q9.5 -0.2 7.75 -0.15 L7.5 0.4 Q8.3 1.15 9.2 1.2 8.05 2.35 6.95 2.4 6.4 2.5 5.85 1.75 4.0 2.75 1.3 3.3 L1.3 4.05 1.05 4.7 Q0.75 5.05 0.4 5.05 L-4.0 5.05 -4.5 4.85 -4.85 4.05 -5.3 3.0 Q-7.9 2.05 -8.55 0.2 -9.45 -0.1 -9.45 -0.7 -9.45 -1.35 -8.55 -1.6 -8.05 -3.1 -6.25 -4.1 -4.35 -5.05 -2.0 -5.05 L2.0 -4.5 Q4.15 -4.0 5.7 -3.1 6.3 -4.1 6.95 -4.0 8.05 -3.9 9.2 -2.75 L8.6 -2.65 7.35 -1.85 7.7 -1.3 Q9.5 -1.2 9.5 -0.7" fill="#ffffff" fill-rule="evenodd" stroke="none"/>
    </g>
  </defs>
</svg>
