<?xml version="1.0" encoding="UTF-8" standalone="no"?>
<svg xmlns:xlink="http://www.w3.org/1999/xlink" height="20.6px" width="22.2px" xmlns="http://www.w3.org/2000/svg">
  <g transform="matrix(1.0, 0.0, 0.0, 1.0, 11.1, 10.3)">
    <use data-characterId="46" height="18.25" transform="matrix(1.0, 0.0, 0.0, 1.0, -9.9, -9.1)" width="19.8" xlink:href="#shape0"/>
  </g>
  <defs>
    <g id="shape0" transform="matrix(1.0, 0.0, 0.0, 1.0, 9.9, 9.1)">
      <path d="M9.9 -5.8 L7.45 -3.4 6.4 -4.45 1.75 0.2 6.6 5.0 7.0 4.6 9.25 6.85 7.15 9.0 4.9 6.75 5.3 6.3 0.45 1.45 -2.05 3.95 0.25 6.25 0.3 6.25 -1.0 7.55 Q-2.5 8.8 -3.7 8.95 L-7.8 9.1 -8.3 9.1 -8.3 8.85 -8.3 8.6 -8.15 4.5 Q-8.0 3.35 -6.7 1.8 L-5.45 0.5 -5.45 0.55 -3.15 2.8 -0.65 0.35 -4.95 -3.95 -9.6 1.6 -9.9 1.35 -9.1 -0.8 Q-7.95 -3.35 -6.35 -5.35 L-7.15 -6.1 -5.85 -7.4 -5.15 -6.7 Q-3.6 -8.2 -2.1 -8.95 L-0.7 -7.6 -3.65 -5.25 0.65 -0.95 5.3 -5.6 4.2 -6.7 6.6 -9.1 9.9 -5.8 M6.6 -7.7 L5.6 -6.7 7.45 -4.75 8.5 -5.8 6.6 -7.7" fill="#ffffff" fill-rule="evenodd" stroke="none"/>
    </g>
  </defs>
</svg>
