<?xml version="1.0" encoding="UTF-8" standalone="no"?>
<svg xmlns:xlink="http://www.w3.org/1999/xlink" height="19.8px" width="19.8px" xmlns="http://www.w3.org/2000/svg">
  <g transform="matrix(1.0, 0.0, 0.0, 1.0, 9.9, 9.85)">
    <use data-characterId="43" height="19.75" transform="matrix(1.0, 0.0, 0.0, 1.0, -9.9, -9.85)" width="19.8" xlink:href="#shape0"/>
  </g>
  <defs>
    <g id="shape0" transform="matrix(1.0, 0.0, 0.0, 1.0, 9.9, 9.85)">
      <path d="M-3.4 6.15 L-1.1 2.1 0.0 2.4 1.1 2.15 3.4 6.15 Q1.8 7.05 0.0 7.05 -1.8 7.05 -3.4 6.15 M-6.1 -3.55 Q-5.2 -5.15 -3.65 -6.1 L-1.15 -1.75 Q-2.2 -1.1 -2.2 0.15 L-2.2 0.2 -7.1 0.2 -7.1 -0.05 Q-7.1 -1.95 -6.1 -3.55 M0.0 -1.2 Q0.55 -1.2 0.95 -0.8 1.4 -0.4 1.4 0.2 L0.95 1.15 Q0.55 1.55 0.0 1.55 -0.55 1.55 -0.95 1.15 L-1.4 0.2 Q-1.4 -0.4 -0.95 -0.8 -0.55 -1.2 0.0 -1.2 M3.65 -6.1 Q5.2 -5.15 6.15 -3.55 7.1 -1.95 7.1 -0.05 L7.1 0.2 2.25 0.2 2.25 0.15 Q2.25 -1.1 1.15 -1.75 L3.65 -6.1 M6.1 -6.05 Q3.55 -8.6 0.0 -8.6 -3.55 -8.6 -6.1 -6.05 -8.6 -3.55 -8.6 0.0 -8.6 3.55 -6.1 6.1 -3.55 8.6 0.0 8.6 3.55 8.6 6.1 6.1 8.6 3.55 8.6 0.0 8.6 -3.55 6.1 -6.05 M0.0 -9.85 Q4.1 -9.85 7.0 -6.95 9.9 -4.1 9.9 0.0 9.9 4.1 7.0 7.0 4.1 9.9 0.0 9.9 -4.1 9.9 -7.0 7.0 -9.9 4.1 -9.9 0.0 -9.9 -4.1 -7.0 -6.95 -4.1 -9.85 0.0 -9.85" fill="#ffffff" fill-rule="evenodd" stroke="none"/>
    </g>
  </defs>
</svg>
