<?xml version="1.0" encoding="UTF-8" standalone="no"?>
<svg xmlns:xlink="http://www.w3.org/1999/xlink" height="22.2px" width="15.25px" xmlns="http://www.w3.org/2000/svg">
  <g transform="matrix(1.0, 0.0, 0.0, 1.0, 7.65, 11.15)">
    <use data-characterId="68" height="19.8" transform="matrix(1.0, 0.0, 0.0, 1.0, -6.45, -9.9)" width="12.9" xlink:href="#shape0"/>
  </g>
  <defs>
    <g id="shape0" transform="matrix(1.0, 0.0, 0.0, 1.0, 6.45, 9.9)">
      <path d="M-4.25 8.45 L-4.15 8.5 -0.85 8.5 -3.3 6.0 -4.25 8.45 M-4.45 9.05 L-4.6 9.5 -2.15 8.95 -4.25 8.95 -4.45 9.05 M-2.1 2.75 L-3.0 5.15 -0.8 5.15 -2.1 2.75 M-1.75 1.85 L-0.65 1.85 -1.0 -0.15 -1.75 1.85 M-1.45 2.35 L-0.05 5.1 1.55 2.35 -1.45 2.35 M-5.3 -1.7 L-5.35 -1.75 -5.35 -1.9 -3.55 -3.65 -4.1 -3.75 -4.2 -3.8 -4.15 -3.95 -1.55 -5.95 -1.4 -5.9 -1.4 -5.75 -2.95 -4.1 -2.35 -4.0 -2.3 -3.95 -2.3 -3.85 -4.1 -2.05 -3.35 -1.95 -3.25 -1.85 -3.25 -1.75 -6.25 1.25 -6.4 1.25 -6.4 1.1 -4.45 -1.55 -5.3 -1.7 M-4.45 -6.2 L-4.5 -6.35 -4.4 -6.4 -3.05 -6.4 -3.25 -6.7 -3.25 -6.8 -3.15 -6.85 -1.25 -6.6 -1.15 -6.5 -1.25 -6.4 -2.45 -6.35 -2.2 -6.0 -2.2 -5.9 -2.3 -5.8 -3.65 -5.8 -3.35 -5.4 -3.35 -5.3 -3.4 -5.2 -5.85 -5.15 -5.95 -5.25 -5.9 -5.35 -4.15 -5.75 -4.45 -6.2 M-3.45 -9.45 L-3.35 -9.55 -3.25 -9.55 -2.3 -8.6 -2.25 -8.95 -2.15 -9.05 -2.05 -9.0 -0.85 -7.45 -0.85 -7.3 -1.0 -7.3 -1.9 -8.1 -2.05 -7.6 -2.15 -7.65 -3.1 -8.6 -3.2 -8.1 -3.25 -8.0 -3.4 -8.05 -5.15 -9.7 -5.15 -9.85 -5.0 -9.85 -3.5 -8.9 -3.45 -9.45 M0.0 8.35 L2.75 5.65 -2.65 5.65 0.0 8.35 M2.05 8.95 L4.6 9.5 4.45 9.05 4.25 8.95 2.05 8.95 M4.15 8.5 L4.25 8.45 3.35 6.05 0.9 8.5 4.15 8.5 M0.7 1.85 L1.75 1.85 1.1 -0.05 0.7 1.85 M0.8 5.15 L3.0 5.15 2.15 2.8 0.8 5.15 M0.45 -0.9 L0.35 -0.95 -0.25 -0.95 -0.4 -0.9 0.05 1.3 0.45 -0.9 M0.55 -1.45 L0.0 -2.9 -0.55 -1.45 0.55 -1.45 M4.2 -3.8 L4.1 -3.75 3.55 -3.65 5.35 -1.9 5.35 -1.75 5.3 -1.7 4.45 -1.55 6.4 1.1 6.4 1.25 6.25 1.25 3.25 -1.75 3.25 -1.85 3.35 -1.95 4.1 -2.05 2.3 -3.85 2.3 -3.95 2.35 -4.0 2.95 -4.1 1.4 -5.75 1.4 -5.9 1.55 -5.95 4.15 -3.95 4.2 -3.8 M0.0 -6.55 L0.25 -6.25 0.25 -3.95 0.5 -3.8 5.55 9.9 3.55 9.9 -0.05 8.95 -0.55 9.05 -3.45 9.9 -5.55 9.9 -0.5 -3.8 -0.25 -3.95 -0.25 -6.25 0.0 -6.55 M1.15 -6.5 L1.25 -6.6 3.15 -6.85 3.25 -6.8 3.25 -6.7 3.05 -6.4 4.4 -6.4 4.5 -6.35 4.45 -6.2 4.15 -5.75 5.9 -5.35 5.95 -5.25 5.85 -5.15 3.4 -5.2 3.35 -5.3 3.35 -5.4 3.65 -5.8 2.3 -5.8 2.2 -5.9 2.2 -6.0 2.45 -6.35 1.25 -6.4 1.15 -6.5 M5.15 -9.85 L5.15 -9.7 3.35 -8.05 3.25 -8.0 3.15 -8.1 3.1 -8.65 2.15 -7.7 2.0 -7.65 1.95 -7.75 1.9 -8.15 1.0 -7.3 0.85 -7.3 Q0.7 -7.4 0.8 -7.45 L2.0 -9.0 2.15 -9.05 2.2 -8.95 2.25 -8.6 3.2 -9.55 3.35 -9.55 3.4 -9.5 3.5 -8.9 5.0 -9.9 5.15 -9.85" fill="#ffffff" fill-rule="evenodd" stroke="none"/>
    </g>
  </defs>
</svg>
