<?xml version="1.0" encoding="UTF-8" standalone="no"?>
<svg xmlns:xlink="http://www.w3.org/1999/xlink" height="21.35px" width="16.35px" xmlns="http://www.w3.org/2000/svg">
  <g transform="matrix(1.0, 0.0, 0.0, 1.0, 8.05, 10.65)">
    <use data-characterId="62" height="19.05" transform="matrix(1.0, 0.0, 0.0, 1.0, -7.1, -9.5)" width="14.25" xlink:href="#shape0"/>
  </g>
  <defs>
    <g id="shape0" transform="matrix(1.0, 0.0, 0.0, 1.0, 7.1, 9.5)">
      <path d="M4.05 -2.6 L2.9 -2.6 2.9 -1.75 -2.75 -1.75 -2.75 -2.6 -3.95 -2.6 -4.25 -1.9 -5.5 5.4 Q-5.55 5.95 -5.2 6.3 -4.95 6.65 -4.4 6.65 L-3.1 6.65 -3.1 5.1 -1.0 5.1 -1.0 5.0 -0.7 4.25 Q-0.4 3.95 0.0 3.95 0.5 3.95 0.8 4.25 L1.15 5.0 1.15 5.1 3.2 5.1 3.2 6.65 4.45 6.65 5.3 6.3 Q5.6 5.95 5.5 5.4 L4.3 -1.9 4.05 -2.6 M1.85 -6.95 L4.25 -6.95 4.25 -6.2 3.75 -6.2 3.75 -4.8 Q4.35 -4.55 4.8 -4.15 5.75 -3.35 5.9 -2.15 L7.15 5.2 Q7.3 6.5 6.55 7.35 6.1 7.8 5.4 8.1 L5.4 9.55 -5.4 9.55 -5.4 8.1 -6.45 7.35 Q-7.2 6.45 -7.05 5.2 L-5.9 -2.15 Q-5.7 -3.4 -4.75 -4.15 L-3.65 -4.8 -3.65 -6.2 -4.2 -6.2 -4.2 -6.95 -1.75 -6.95 Q-1.6 -7.95 -1.1 -8.75 -0.55 -9.5 0.05 -9.5 0.7 -9.5 1.2 -8.75 1.7 -8.0 1.85 -6.95" fill="#ffffff" fill-rule="evenodd" stroke="none"/>
    </g>
  </defs>
</svg>
