<?xml version="1.0" encoding="UTF-8" standalone="no"?>
<svg xmlns:xlink="http://www.w3.org/1999/xlink" height="20.0px" width="20.0px" xmlns="http://www.w3.org/2000/svg">
  <g transform="matrix(1.0, 0.0, 0.0, 1.0, 10.0, 10.0)">
    <use data-characterId="159" height="20.0" transform="matrix(1.0, 0.0, 0.0, 1.0, -10.0, -10.0)" width="20.0" xlink:href="#shape0"/>
  </g>
  <defs>
    <g id="shape0" transform="matrix(1.0, 0.0, 0.0, 1.0, 10.0, 10.0)">
      <path d="M0.0 -10.0 L0.8 -9.7 1.1 -8.9 0.8 -8.15 0.7 -8.05 Q3.0 -7.85 4.9 -6.4 L5.25 -6.1 5.15 -6.35 5.15 -6.4 5.1 -6.5 5.1 -6.6 Q5.1 -7.05 5.45 -7.4 5.75 -7.7 6.2 -7.7 L7.05 -7.4 7.35 -6.6 7.05 -5.8 Q6.7 -5.5 6.2 -5.5 L5.8 -5.6 5.8 -5.55 Q7.75 -3.5 7.8 -0.6 L8.05 -1.0 Q8.4 -1.35 8.85 -1.35 9.35 -1.35 9.65 -1.0 L10.0 -0.2 9.65 0.55 Q9.35 0.85 8.85 0.85 8.1 0.85 7.85 0.2 L7.75 0.2 Q7.55 2.35 6.15 4.1 L5.8 4.5 6.2 4.4 Q6.7 4.4 7.05 4.75 L7.35 5.5 7.05 6.3 6.2 6.6 Q5.35 6.6 5.15 5.8 L5.15 5.75 5.1 5.65 5.1 5.5 5.15 5.15 Q3.8 6.3 1.9 6.75 L1.7 5.95 1.8 6.2 1.75 6.05 Q3.2 5.7 4.3 4.85 L1.3 1.7 0.6 2.05 2.6 10.0 -2.65 10.0 -0.55 2.05 -1.3 1.7 -4.3 4.85 Q-3.2 5.65 -1.7 6.05 L-1.9 6.8 Q-3.8 6.35 -5.15 5.15 L-5.1 5.5 Q-5.1 6.0 -5.45 6.3 -5.8 6.65 -6.25 6.65 L-6.3 6.65 -6.95 6.4 -7.35 5.8 -7.35 5.5 -7.05 4.75 Q-6.7 4.45 -6.25 4.45 L-5.8 4.55 -6.7 3.3 Q-7.65 1.8 -7.75 0.2 L-7.8 0.2 -8.05 0.55 Q-8.4 0.9 -8.9 0.9 L-9.55 0.65 -9.95 0.05 -10.0 0.05 -10.0 -0.2 -9.65 -1.0 -8.9 -1.3 Q-8.4 -1.3 -8.05 -1.0 L-7.8 -0.65 -7.5 -2.65 Q-7.05 -4.25 -5.85 -5.5 L-6.25 -5.45 -6.3 -5.5 -6.95 -5.7 -7.35 -6.3 -7.35 -6.55 -7.05 -7.35 -6.25 -7.7 Q-5.8 -7.7 -5.45 -7.35 -5.1 -7.0 -5.1 -6.55 L-5.15 -6.2 Q-3.7 -7.45 -1.8 -7.85 L-0.75 -8.05 -1.1 -8.65 -1.1 -8.75 -1.15 -8.9 -0.8 -9.7 0.0 -10.0 M1.15 -1.8 L4.75 -5.5 Q2.85 -7.15 0.35 -7.3 L0.35 -2.05 1.15 -1.8 M2.15 0.2 L1.8 1.2 4.85 4.35 5.55 3.6 Q6.8 2.1 6.95 0.2 L2.15 0.2 M-1.8 1.25 L-2.15 0.2 -6.95 0.2 Q-6.8 1.85 -5.8 3.3 L-4.85 4.4 -1.8 1.25 M-4.65 -5.55 L-4.75 -5.5 -1.1 -1.8 -0.35 -2.05 -0.35 -7.3 Q-2.8 -7.15 -4.65 -5.55 M-6.95 -1.45 L-7.05 -0.5 -2.1 -0.5 -1.7 -1.35 -5.25 -5.0 Q-6.7 -3.45 -6.95 -1.45 M1.7 -1.35 L2.15 -0.5 7.0 -0.5 7.0 -0.55 Q7.0 -3.1 5.25 -5.0 L1.7 -1.35" fill="#ffffff" fill-rule="evenodd" stroke="none"/>
    </g>
  </defs>
</svg>
