<?xml version="1.0" encoding="UTF-8" standalone="no"?>
<svg xmlns:xlink="http://www.w3.org/1999/xlink" height="20.0px" width="20.05px" xmlns="http://www.w3.org/2000/svg">
  <g transform="matrix(1.0, 0.0, 0.0, 1.0, 10.0, 10.0)">
    <use data-characterId="156" height="20.0" transform="matrix(1.0, 0.0, 0.0, 1.0, -10.0, -10.0)" width="20.05" xlink:href="#shape0"/>
  </g>
  <defs>
    <g id="shape0" transform="matrix(1.0, 0.0, 0.0, 1.0, 10.0, 10.0)">
      <path d="M1.95 -9.5 Q2.9 -9.05 3.2 -8.5 3.9 -8.65 4.35 -7.95 4.75 -7.2 4.1 -6.65 L6.0 -6.15 Q7.1 -5.6 7.15 -4.8 L7.1 -4.1 6.75 -3.45 8.5 -3.1 Q9.95 -2.65 10.05 -1.7 10.1 -0.45 8.55 0.4 7.1 1.25 5.95 1.0 5.25 1.55 4.25 1.6 L2.95 1.45 1.9 2.05 Q1.2 2.35 1.05 2.9 1.35 3.65 0.85 4.7 0.3 5.9 0.5 6.85 L2.1 7.7 Q3.1 8.25 3.35 8.85 L-0.05 7.8 0.75 8.85 1.2 9.4 1.45 10.0 0.65 9.65 -0.3 9.25 Q-0.85 8.85 -1.15 8.7 -1.65 8.4 -1.95 8.4 L-3.65 9.05 -5.9 9.7 -4.5 9.0 -3.85 8.6 -3.3 8.1 -4.5 8.35 -5.0 8.35 -5.6 8.25 Q-6.9 8.85 -7.7 8.65 L-6.75 8.15 -5.7 7.45 -4.75 7.2 -3.85 7.0 -3.35 6.4 -3.0 6.15 -2.75 5.85 -2.7 5.3 -2.6 4.65 Q-2.1 4.45 -2.05 3.65 -1.95 2.9 -2.75 3.0 L-3.6 1.7 Q-4.05 0.85 -4.6 0.7 -5.3 1.45 -7.15 1.6 -9.25 1.75 -9.95 0.45 -10.35 -0.8 -7.85 -2.1 -8.3 -2.65 -7.9 -3.6 -7.5 -4.45 -6.75 -4.65 -7.0 -5.25 -6.75 -6.0 L-5.95 -7.1 Q-5.4 -7.7 -4.25 -8.15 L-2.15 -8.45 -2.0 -9.3 Q-1.7 -9.95 -1.05 -9.95 0.65 -10.15 1.95 -9.5" fill="#ffffff" fill-rule="evenodd" stroke="none"/>
    </g>
  </defs>
</svg>
