<?xml version="1.0" encoding="UTF-8" standalone="no"?>
<svg xmlns:xlink="http://www.w3.org/1999/xlink" height="20.3px" width="22.25px" xmlns="http://www.w3.org/2000/svg">
  <g transform="matrix(1.0, 0.0, 0.0, 1.0, 11.1, 10.15)">
    <use data-characterId="37" height="17.95" transform="matrix(1.0, 0.0, 0.0, 1.0, -9.85, -8.95)" width="19.75" xlink:href="#shape0"/>
  </g>
  <defs>
    <g id="shape0" transform="matrix(1.0, 0.0, 0.0, 1.0, 9.85, 8.95)">
      <path d="M-3.85 1.0 L-4.3 2.05 -4.55 3.1 Q-4.45 3.7 -2.85 4.2 L-2.9 4.55 -2.75 5.0 -1.75 5.3 -0.25 5.5 Q0.05 5.45 0.05 4.6 0.95 4.65 2.6 3.95 4.4 3.25 5.3 2.35 L4.75 1.25 Q8.9 0.95 9.8 2.35 10.25 3.25 8.95 4.85 L6.5 7.15 Q4.55 8.8 1.0 8.95 -3.5 9.2 -6.35 7.35 -9.2 5.5 -9.85 1.85 -9.95 0.4 -9.5 0.2 -8.15 -0.35 -3.85 1.0 M-1.75 2.75 L-0.75 2.9 Q-0.55 2.9 -0.65 3.1 L-0.85 4.45 -1.0 4.6 -2.0 4.45 -2.15 4.25 -1.95 2.9 -1.75 2.75 M0.95 -8.45 Q1.2 -8.7 1.75 -8.95 L2.2 -8.95 3.85 -6.5 Q4.85 -4.9 6.05 -4.55 6.35 -4.75 6.5 -5.45 L6.9 -6.5 Q7.9 -3.25 8.0 -1.6 L7.4 -2.85 6.55 -3.95 6.45 -3.2 6.2 -2.6 Q5.75 -2.75 4.65 -3.4 3.7 -4.0 2.95 -4.2 L3.65 -1.8 4.4 0.65 Q2.4 2.2 0.05 2.7 0.05 2.05 -1.15 1.95 -2.35 1.85 -2.5 2.35 -3.7 1.45 -3.8 0.8 L-2.95 -1.8 Q-0.8 -7.1 0.95 -8.45" fill="#ffffff" fill-rule="evenodd" stroke="none"/>
    </g>
  </defs>
</svg>
