<?xml version="1.0" encoding="UTF-8" standalone="no"?>
<svg xmlns:xlink="http://www.w3.org/1999/xlink" height="13.35px" width="10.3px" xmlns="http://www.w3.org/2000/svg">
  <g transform="matrix(1.0, 0.0, 0.0, 1.0, 5.15, 6.65)">
    <use data-characterId="34" height="11.85" transform="matrix(1.0, 0.0, 0.0, 1.0, -4.4, -5.9)" width="8.8" xlink:href="#shape0"/>
  </g>
  <defs>
    <g id="shape0" transform="matrix(1.0, 0.0, 0.0, 1.0, 4.4, 5.9)">
      <path d="M-1.65 -2.5 L-1.7 -2.25 -1.6 -2.3 -1.55 -2.15 -1.75 -1.85 -1.65 -1.7 -1.45 -1.4 -1.3 -0.95 -1.0 -1.7 -1.45 -2.65 -1.65 -2.5 M0.55 2.35 L0.3 0.65 -0.4 2.2 -0.5 3.05 -0.8 3.9 -0.85 4.55 -0.95 4.8 0.5 4.75 0.4 3.8 0.4 2.65 0.55 2.35 M2.3 -5.05 L2.4 -5.1 2.6 -5.0 1.55 -3.6 1.6 -2.8 1.55 -2.5 1.55 -2.3 1.6 -2.0 1.6 -1.45 1.6 -1.0 1.65 -0.85 Q1.7 -0.75 1.85 -0.7 L2.2 -0.05 2.0 -0.05 1.75 0.05 1.6 0.6 1.4 2.2 1.25 3.8 1.2 4.6 2.1 4.9 Q3.9 5.3 4.4 5.95 L-4.4 5.95 Q-3.8 5.2 -1.75 4.9 L-1.75 4.6 -1.45 4.1 -1.5 2.3 -1.3 2.05 -1.3 0.35 -1.6 0.4 -2.4 2.2 Q-3.0 2.2 -2.8 1.75 L-2.0 0.4 -1.75 -0.25 -1.4 -0.4 -1.4 -0.6 -2.15 -1.3 -2.35 -1.7 -2.35 -1.85 -2.7 -2.05 -2.8 -2.55 -2.35 -2.75 -2.15 -3.4 -1.9 -3.7 -1.65 -3.95 -0.95 -4.15 -0.55 -4.3 -0.5 -4.4 Q-0.7 -4.4 -0.75 -4.55 L-1.0 -4.7 -1.0 -4.9 -0.8 -5.2 -0.7 -5.5 -0.5 -5.8 -0.1 -5.9 0.5 -5.65 0.65 -5.25 0.7 -4.9 0.6 -4.6 0.4 -4.6 0.3 -4.55 Q0.2 -4.4 0.4 -4.3 L1.0 -4.1 1.3 -3.85 2.3 -5.05" fill="#ffffff" fill-rule="evenodd" stroke="none"/>
    </g>
  </defs>
</svg>
