<?xml version="1.0" encoding="UTF-8" standalone="no"?>
<svg xmlns:xlink="http://www.w3.org/1999/xlink" height="19.05px" width="14.6px" xmlns="http://www.w3.org/2000/svg">
  <g transform="matrix(1.0, 0.0, 0.0, 1.0, 7.3, 9.5)">
    <use data-characterId="53" height="19.05" transform="matrix(1.0, 0.0, 0.0, 1.0, -7.05, -9.5)" width="14.1" xlink:href="#shape0"/>
  </g>
  <defs>
    <g id="shape0" transform="matrix(1.0, 0.0, 0.0, 1.0, 7.05, 9.5)">
      <path d="M0.9 3.75 L0.5 1.05 -0.65 3.55 -0.8 4.9 -1.3 6.25 -1.35 7.3 -1.5 7.7 0.8 7.6 0.65 6.1 0.65 4.25 0.9 3.75 M-2.65 -4.0 L-2.7 -3.6 -2.55 -3.7 -2.5 -3.45 -2.8 -2.95 -2.65 -2.75 -2.3 -2.25 -2.1 -1.5 -1.6 -2.75 -2.3 -4.25 -2.65 -4.0 M0.8 -9.05 L1.05 -8.4 1.1 -7.85 0.95 -7.4 0.65 -7.4 0.5 -7.3 Q0.3 -7.05 0.65 -6.9 L1.6 -6.55 2.1 -6.15 3.7 -8.1 3.85 -8.2 Q4.0 -8.2 4.15 -8.0 L2.5 -5.75 2.55 -4.5 2.5 -4.0 2.5 -3.7 2.55 -3.2 2.55 -2.3 2.55 -1.6 2.65 -1.35 2.95 -1.1 3.55 -0.1 3.2 -0.1 2.8 0.1 2.55 0.95 2.25 3.55 2.0 6.1 1.9 7.4 3.35 7.85 Q6.25 8.5 7.05 9.55 L-7.05 9.55 Q-6.1 8.35 -2.8 7.85 L-2.8 7.4 -2.3 6.55 -2.4 3.7 -2.1 3.3 -2.1 0.55 -2.55 0.65 -3.85 3.55 Q-4.8 3.55 -4.5 2.8 L-3.2 0.65 -2.8 -0.4 -2.25 -0.65 -2.25 -0.95 -3.45 -2.1 -3.75 -2.75 -3.75 -2.95 -4.35 -3.3 -4.5 -4.1 -3.75 -4.4 -3.45 -5.45 -3.05 -5.95 -2.65 -6.35 -1.5 -6.65 Q-0.9 -6.75 -0.9 -6.9 L-0.8 -7.05 Q-1.1 -7.05 -1.2 -7.3 L-1.6 -7.55 Q-1.85 -7.7 -1.6 -7.85 L-1.3 -8.35 -1.1 -8.8 -0.8 -9.3 -0.15 -9.45 Q0.55 -9.45 0.8 -9.05" fill="#ffffff" fill-rule="evenodd" stroke="none"/>
    </g>
  </defs>
</svg>
