<?xml version="1.0" encoding="UTF-8" standalone="no"?>
<svg xmlns:xlink="http://www.w3.org/1999/xlink" height="22.2px" width="18.3px" xmlns="http://www.w3.org/2000/svg">
  <g transform="matrix(1.0, 0.0, 0.0, 1.0, 9.15, 11.1)">
    <use data-characterId="47" height="19.8" transform="matrix(1.0, 0.0, 0.0, 1.0, -7.9, -9.9)" width="15.85" xlink:href="#shape0"/>
  </g>
  <defs>
    <g id="shape0" transform="matrix(1.0, 0.0, 0.0, 1.0, 7.9, 9.9)">
      <path d="M-0.05 -3.4 L-0.1 -3.5 -0.1 -3.95 -1.0 -3.95 -1.0 -4.15 -0.8 -4.4 -0.8 -4.45 -0.6 -4.95 -0.4 -5.2 -0.35 -5.25 -0.35 -5.6 -0.2 -5.6 -0.2 -5.75 -0.1 -5.75 -0.1 -5.8 -0.2 -5.9 -0.2 -5.95 -0.15 -5.95 -0.15 -6.0 -1.45 -6.0 -1.45 -0.8 1.45 -0.8 1.45 -6.0 0.1 -6.0 0.2 -5.95 0.1 -5.8 0.05 -5.75 0.2 -5.75 0.2 -5.6 0.35 -5.6 0.35 -5.3 0.4 -5.2 0.45 -5.2 0.6 -4.95 0.8 -4.4 0.85 -4.35 0.85 -4.3 1.0 -4.15 1.05 -3.95 0.05 -3.95 0.05 -3.5 -0.05 -3.4 -0.05 -3.25 -0.1 -3.25 -0.05 -3.4 M0.05 -9.9 Q1.05 -9.9 2.05 -7.1 2.35 -6.25 3.5 -5.95 L2.95 -5.55 2.95 -1.0 3.55 -0.35 3.55 0.75 7.95 4.15 7.75 4.55 6.95 4.55 6.95 9.9 -6.9 9.9 -6.9 4.55 -7.7 4.55 -7.9 4.15 -3.55 0.75 -3.55 -0.35 -2.95 -1.0 -2.95 -5.55 -3.5 -5.95 Q-2.35 -6.25 -2.05 -7.1 L-1.3 -8.8 Q-0.7 -9.9 -0.05 -9.9 L0.05 -9.9 M-1.9 3.5 Q-2.85 3.85 -2.95 4.6 L-2.95 9.05 2.95 9.05 2.95 4.6 Q2.9 3.85 1.9 3.5 L0.0 3.25 -1.9 3.5" fill="#ffffff" fill-rule="evenodd" stroke="none"/>
    </g>
  </defs>
</svg>
