<?xml version="1.0" encoding="UTF-8" standalone="no"?>
<svg xmlns:xlink="http://www.w3.org/1999/xlink" height="15.1px" width="21.25px" xmlns="http://www.w3.org/2000/svg">
  <g transform="matrix(1.0, 0.0, 0.0, 1.0, 10.55, 7.9)">
    <use data-characterId="44" height="13.7" transform="matrix(1.0, 0.0, 0.0, 1.0, -9.5, -6.85)" width="19.0" xlink:href="#shape0"/>
  </g>
  <defs>
    <g id="shape0" transform="matrix(1.0, 0.0, 0.0, 1.0, 9.5, 6.85)">
      <path d="M-2.15 3.95 L-2.35 4.15 -2.35 6.85 -9.5 6.85 -3.1 -6.85 3.2 -6.85 9.5 6.85 2.45 6.85 2.45 4.15 2.25 3.95 -2.15 3.95 M0.05 -3.4 Q0.45 -3.4 0.7 -3.8 L1.0 -4.75 0.7 -5.7 Q0.45 -6.1 0.05 -6.1 -0.35 -6.1 -0.6 -5.7 L-0.9 -4.75 -0.6 -3.8 Q-0.35 -3.4 0.05 -3.4" fill="#ffffff" fill-rule="evenodd" stroke="none"/>
    </g>
  </defs>
</svg>
