<?xml version="1.0" encoding="UTF-8" standalone="no"?>
<svg xmlns:xlink="http://www.w3.org/1999/xlink" height="21.7px" width="21.7px" xmlns="http://www.w3.org/2000/svg">
  <g transform="matrix(1.0, 0.0, 0.0, 1.0, 10.85, 10.85)">
    <use data-characterId="25" height="19.3" transform="matrix(1.0, 0.0, 0.0, 1.0, -9.65, -9.65)" width="19.3" xlink:href="#shape0"/>
  </g>
  <defs>
    <g id="shape0" transform="matrix(1.0, 0.0, 0.0, 1.0, 9.65, 9.65)">
      <path d="M6.8 -6.8 Q9.65 -4.0 9.65 0.0 9.65 4.0 6.8 6.85 4.0 9.65 0.0 9.65 -4.0 9.65 -6.85 6.85 -9.65 4.0 -9.65 0.0 -9.65 -4.0 -6.85 -6.8 -4.0 -9.65 0.0 -9.65 4.0 -9.65 6.8 -6.8 M1.6 -2.45 L2.8 0.15 Q3.5 1.55 3.5 2.75 3.5 4.15 2.5 5.2 1.5 6.2 0.05 6.2 -1.4 6.2 -2.35 5.2 -3.4 4.15 -3.4 2.75 -3.4 1.6 -2.75 0.25 L-1.6 -2.3 -0.6 -5.55 0.05 -7.0 Q0.25 -7.0 0.65 -5.6 1.25 -3.35 1.6 -2.45 M0.0 -7.55 Q-2.2 -7.55 -4.1 -6.35 -5.9 -5.2 -6.85 -3.25 -6.3 -3.05 -6.3 -2.45 L-6.3 2.5 Q-6.3 3.05 -6.85 3.3 -5.9 5.2 -4.1 6.4 -2.2 7.6 0.0 7.6 3.1 7.6 5.35 5.35 7.55 3.1 7.55 0.0 7.55 -3.1 5.35 -5.35 3.1 -7.55 0.0 -7.55" fill="#ffffff" fill-rule="evenodd" stroke="none"/>
    </g>
  </defs>
</svg>
