<?xml version="1.0" encoding="UTF-8" standalone="no"?>
<svg xmlns:xlink="http://www.w3.org/1999/xlink" height="20.0px" width="22.25px" xmlns="http://www.w3.org/2000/svg">
  <g transform="matrix(1.0, 0.0, 0.0, 1.0, 11.1, 10.0)">
    <use data-characterId="22" height="17.6" transform="matrix(1.0, 0.0, 0.0, 1.0, -9.9, -8.8)" width="19.8" xlink:href="#shape0"/>
  </g>
  <defs>
    <g id="shape0" transform="matrix(1.0, 0.0, 0.0, 1.0, 9.9, 8.8)">
      <path d="M-6.85 7.3 L-6.95 7.45 Q-7.7 8.8 -9.2 8.8 L-9.9 8.8 -9.9 7.15 -9.2 7.15 Q-8.8 7.15 -8.6 6.65 L-8.45 6.4 Q-7.6 5.05 -6.1 5.05 -5.5 5.05 -4.85 5.45 L-3.85 6.4 -3.05 7.15 Q-2.65 7.05 -2.5 6.65 L-2.35 6.4 Q-1.45 5.05 -0.05 5.05 L1.25 5.45 2.25 6.4 3.05 7.15 3.55 6.65 3.7 6.4 Q4.55 5.05 6.05 5.05 L7.3 5.45 8.3 6.4 9.15 7.15 9.8 7.15 9.8 8.8 9.1 8.8 Q8.15 8.8 6.85 7.5 L6.0 6.7 5.5 7.0 5.3 7.3 5.25 7.45 Q4.35 8.8 3.0 8.8 2.4 8.8 1.8 8.4 L0.8 7.5 -0.05 6.7 Q-0.5 6.75 -0.75 7.3 L-0.85 7.45 Q-1.6 8.8 -3.1 8.8 -4.0 8.8 -5.3 7.5 L-6.15 6.7 Q-6.55 6.75 -6.85 7.3 M-2.35 2.5 Q-1.45 1.15 -0.05 1.15 L1.25 1.55 2.25 2.5 3.05 3.25 3.55 2.75 3.7 2.5 Q4.55 1.15 6.05 1.15 L7.3 1.55 8.3 2.5 9.15 3.25 9.8 3.25 9.8 4.95 9.1 4.95 Q8.45 4.95 7.85 4.5 L6.85 3.6 6.0 2.85 Q5.75 2.85 5.5 3.1 L5.3 3.4 5.25 3.55 Q4.35 4.95 3.0 4.95 2.4 4.95 1.8 4.5 L0.8 3.6 -0.05 2.85 Q-0.4 2.85 -0.75 3.4 L-0.85 3.55 Q-1.65 4.95 -3.1 4.95 -3.7 4.95 -4.3 4.5 L-5.3 3.6 Q-5.95 2.9 -6.15 2.85 -6.5 2.85 -6.85 3.4 L-6.95 3.55 Q-7.75 4.95 -9.2 4.95 L-9.9 4.95 -9.9 3.25 -9.2 3.25 -8.6 2.75 -8.45 2.5 Q-7.6 1.15 -6.1 1.15 -5.5 1.15 -4.85 1.55 L-3.85 2.5 -3.05 3.25 Q-2.7 3.2 -2.5 2.75 L-2.35 2.5 M-0.4 -2.0 L-0.65 -2.65 Q-0.95 -2.95 -1.35 -2.95 L-2.05 -2.65 -2.35 -2.0 -2.05 -1.3 Q-1.75 -1.0 -1.35 -1.0 -0.95 -1.0 -0.65 -1.3 L-0.4 -2.0 M-3.55 -1.3 Q-3.25 -1.6 -3.25 -2.0 L-3.55 -2.65 -4.25 -2.95 Q-4.65 -2.95 -4.9 -2.65 L-5.2 -2.0 -4.9 -1.3 Q-4.65 -1.0 -4.25 -1.0 -3.85 -1.0 -3.55 -1.3 M4.45 -3.4 L9.9 -3.4 7.0 0.05 5.75 -0.4 Q4.3 -0.4 3.4 0.95 L3.3 1.2 2.75 1.7 1.95 0.95 0.95 0.05 -0.35 -0.4 Q-1.85 -0.4 -2.65 0.95 L-2.8 1.2 -3.3 1.7 -4.15 0.95 -5.15 0.05 -6.4 -0.4 Q-7.3 -0.4 -8.05 0.2 L-8.95 -3.35 -6.5 -3.35 -6.55 -5.35 -6.95 -5.5 -7.0 -5.45 -7.05 -5.8 -6.55 -6.35 -4.7 -6.4 -5.3 -8.8 -2.75 -8.8 -1.35 -6.4 1.6 -6.4 4.45 -3.4 M4.4 -2.95 Q4.0 -2.95 3.7 -2.65 L3.45 -2.0 Q3.45 -1.55 3.7 -1.3 4.0 -1.0 4.4 -1.0 4.85 -1.0 5.1 -1.3 L5.35 -2.0 5.1 -2.65 4.4 -2.95 M0.55 -2.0 Q0.55 -1.55 0.85 -1.3 1.15 -1.0 1.55 -1.0 1.95 -1.0 2.2 -1.3 L2.5 -2.0 2.2 -2.65 Q1.95 -2.95 1.55 -2.95 1.15 -2.95 0.85 -2.65 0.55 -2.35 0.55 -2.0 M2.1 -4.1 L1.1 -5.55 -3.85 -5.5 -4.0 -5.35 -3.85 -4.85 -3.55 -4.4 -3.25 -4.1 2.1 -4.1" fill="#ffffff" fill-rule="evenodd" stroke="none"/>
    </g>
  </defs>
</svg>
