<?xml version="1.0" encoding="UTF-8" standalone="no"?>
<svg xmlns:xlink="http://www.w3.org/1999/xlink" height="14.75px" width="22.2px" xmlns="http://www.w3.org/2000/svg">
  <g transform="matrix(1.0, 0.0, 0.0, 1.0, 11.1, 7.35)">
    <use data-characterId="32" height="12.35" transform="matrix(1.0, 0.0, 0.0, 1.0, -9.9, -6.2)" width="19.8" xlink:href="#shape0"/>
  </g>
  <defs>
    <g id="shape0" transform="matrix(1.0, 0.0, 0.0, 1.0, 9.9, 6.2)">
      <path d="M-3.65 2.15 L-4.25 2.35 -4.5 2.95 -4.25 3.6 -3.65 3.85 -3.05 3.6 Q-2.8 3.35 -2.8 2.95 L-3.05 2.35 -3.65 2.15 M0.3 2.95 L0.05 2.35 Q-0.2 2.15 -0.55 2.15 L-1.15 2.35 -1.4 2.95 -1.15 3.6 -0.55 3.85 Q-0.2 3.85 0.05 3.6 L0.3 2.95 M3.4 2.95 L3.2 2.35 2.6 2.15 2.0 2.35 1.7 2.95 Q1.7 3.35 2.0 3.6 L2.6 3.85 3.2 3.6 3.4 2.95 M6.3 3.6 L6.55 2.95 6.3 2.35 5.65 2.15 5.05 2.35 4.85 2.95 5.05 3.6 5.65 3.85 6.3 3.6 M2.95 -6.2 L3.65 -6.2 3.65 -2.85 4.25 -2.9 4.6 -2.8 4.7 -2.3 4.7 -0.05 7.4 0.1 Q9.05 0.25 9.4 0.75 10.25 1.75 9.7 3.1 9.25 4.3 8.15 5.1 6.9 6.0 4.15 6.15 L-2.55 5.95 -7.85 4.95 -8.05 5.5 Q-8.35 5.9 -8.65 5.8 -9.05 5.9 -9.05 5.15 L-9.05 4.4 -9.9 3.65 Q-9.9 3.3 -9.4 2.95 L-8.9 2.75 -8.95 0.4 -8.8 -0.2 -8.6 -0.25 -8.4 -0.25 Q-8.15 -0.2 -8.0 0.05 L-7.8 0.65 -7.7 2.3 -4.45 1.15 Q-2.6 0.5 0.5 0.1 L0.5 -1.3 Q0.5 -2.05 0.8 -2.15 L2.95 -2.7 2.95 -6.2" fill="#ffffff" fill-rule="evenodd" stroke="none"/>
    </g>
  </defs>
</svg>
