<?xml version="1.0" encoding="UTF-8" standalone="no"?>
<svg xmlns:xlink="http://www.w3.org/1999/xlink" height="21.65px" width="22.2px" xmlns="http://www.w3.org/2000/svg">
  <g transform="matrix(1.0, 0.0, 0.0, 1.0, 11.1, 10.8)">
    <use data-characterId="29" height="19.3" transform="matrix(1.0, 0.0, 0.0, 1.0, -9.9, -9.65)" width="19.8" xlink:href="#shape0"/>
  </g>
  <defs>
    <g id="shape0" transform="matrix(1.0, 0.0, 0.0, 1.0, 9.9, 9.65)">
      <path d="M9.05 2.7 Q8.0 4.75 7.05 5.65 5.9 4.55 4.85 4.55 3.2 4.55 2.3 5.95 L2.15 6.2 1.25 5.35 2.2 4.45 Q2.85 3.7 4.0 3.2 5.05 2.65 5.8 2.65 L5.2 1.95 4.7 1.6 9.9 0.8 9.05 2.7 M-6.65 8.3 L-6.7 8.4 Q-7.5 9.65 -8.75 9.65 L-9.4 9.65 -9.4 8.15 -8.75 8.15 -8.2 7.7 -8.1 7.45 Q-7.3 6.25 -6.05 6.25 -5.45 6.25 -4.9 6.65 L-4.0 7.45 -3.25 8.15 -2.8 7.7 -2.65 7.45 Q-1.9 6.25 -0.55 6.25 0.0 6.25 0.55 6.65 L1.45 7.45 2.2 8.15 2.65 7.7 2.75 7.45 Q3.55 6.25 4.85 6.25 5.75 6.25 6.9 7.45 L7.65 8.15 8.2 8.15 8.2 9.65 7.55 9.65 Q7.0 9.65 6.5 9.25 L5.6 8.45 4.85 7.75 4.4 8.0 4.2 8.3 4.15 8.4 Q3.45 9.65 2.15 9.65 1.6 9.65 1.05 9.25 L0.2 8.45 -0.6 7.75 Q-0.95 7.75 -1.25 8.3 L-1.3 8.4 Q-2.05 9.65 -3.3 9.65 -3.85 9.65 -4.4 9.25 L-5.3 8.45 -6.05 7.75 Q-6.4 7.75 -6.65 8.3 M0.05 -2.6 L0.75 -2.5 Q1.1 -2.2 0.8 -1.8 L1.15 -1.85 1.45 -1.65 Q1.8 -1.25 1.45 -0.95 L1.45 -0.9 Q1.9 -1.1 2.15 -0.7 2.45 -0.35 2.1 -0.05 L2.15 0.0 2.5 -0.05 2.8 0.2 Q3.1 0.55 2.75 0.9 L2.75 0.95 3.5 1.05 Q3.8 1.4 3.55 1.75 L3.55 1.8 4.15 2.0 4.7 2.4 Q3.45 2.55 2.35 3.35 L0.5 4.8 -0.6 4.55 Q-2.15 4.55 -3.15 5.95 L-3.3 6.2 -3.6 5.9 -4.65 5.0 Q-5.35 4.55 -6.05 4.55 -7.1 4.55 -7.95 5.25 -9.55 3.95 -9.85 2.2 -10.25 -0.35 -7.55 -2.3 -5.4 -3.75 -4.4 -4.7 -2.95 -5.95 -2.9 -6.8 -2.8 -7.3 -3.4 -7.85 L-5.45 -7.95 -6.55 -7.15 Q-7.75 -5.5 -8.15 -5.6 L-7.85 -6.4 Q-7.4 -7.1 -7.7 -7.3 -8.0 -7.5 -7.85 -8.05 L-7.65 -8.6 Q-6.8 -9.45 -5.35 -9.6 -3.7 -9.8 -2.6 -8.7 -1.65 -7.8 -1.75 -6.7 -1.85 -5.5 -3.3 -4.1 L-6.85 -1.3 Q-8.15 -0.45 -8.55 0.65 -8.9 2.0 -7.6 2.45 -6.25 2.85 -6.0 1.75 -5.5 -0.35 -2.8 -2.1 -0.4 -3.7 -0.05 -3.35 0.35 -3.05 0.05 -2.6" fill="#ffffff" fill-rule="evenodd" stroke="none"/>
    </g>
  </defs>
</svg>
