<?xml version="1.0" encoding="UTF-8" standalone="no"?>
<svg xmlns:xlink="http://www.w3.org/1999/xlink" height="20.55px" width="21.6px" xmlns="http://www.w3.org/2000/svg">
  <g transform="matrix(1.0, 0.0, 0.0, 1.0, 10.75, 9.65)">
    <use data-characterId="7" height="18.15" transform="matrix(1.0, 0.0, 0.0, 1.0, -9.55, -8.35)" width="19.2" xlink:href="#shape0"/>
  </g>
  <defs>
    <g id="shape0" transform="matrix(1.0, 0.0, 0.0, 1.0, 9.55, 8.35)">
      <path d="M7.75 -6.95 L6.1 -4.75 8.35 -3.25 7.7 -2.2 5.3 -3.75 4.65 -2.9 5.35 -0.35 6.2 -1.15 8.45 0.9 7.9 3.25 6.65 3.25 6.65 5.8 7.9 5.8 7.9 4.75 9.65 4.75 9.65 9.8 8.05 9.8 8.05 7.35 6.75 7.35 6.75 9.8 0.35 9.8 0.35 6.25 -0.95 6.25 -0.95 9.8 -4.65 9.8 -4.65 6.55 -6.75 6.55 -6.75 9.8 -8.5 9.8 -8.5 4.95 -9.55 4.95 -7.8 3.35 -6.55 4.45 -5.15 3.7 -5.55 1.4 -3.75 -0.2 -3.75 -1.7 -4.8 -1.7 -2.9 -4.25 -3.1 -6.85 -6.15 -6.0 -6.25 -6.95 -2.3 -8.35 -2.1 -5.35 -0.3 -7.75 1.0 -6.0 -0.05 -5.0 0.25 -3.35 2.3 -1.1 3.1 -0.85 3.1 1.7 4.3 0.6 3.3 -3.15 4.25 -4.45 3.5 -4.95 4.15 -6.0 5.05 -5.45 6.8 -7.7 7.75 -6.95 M0.1 -0.35 L0.1 4.05 1.4 4.05 1.4 -0.35 0.1 -0.35 M5.45 3.25 L4.15 3.25 4.15 5.8 5.45 5.8 5.45 3.25 M-2.35 -0.35 L-2.35 4.05 -1.05 4.05 -1.05 -0.35 -2.35 -0.35" fill="#ffffff" fill-rule="evenodd" stroke="none"/>
    </g>
  </defs>
</svg>
