<?xml version="1.0" encoding="UTF-8" standalone="no"?>
<svg xmlns:xlink="http://www.w3.org/1999/xlink" height="20.65px" width="22.0px" xmlns="http://www.w3.org/2000/svg">
  <g transform="matrix(1.0, 0.0, 0.0, 1.0, 10.1, 10.05)">
    <use data-characterId="10" height="18.25" transform="matrix(1.0, 0.0, 0.0, 1.0, -8.9, -8.85)" width="19.55" xlink:href="#shape0"/>
  </g>
  <defs>
    <g id="shape0" transform="matrix(1.0, 0.0, 0.0, 1.0, 8.9, 8.85)">
      <path d="M-0.65 -0.4 L-1.95 -0.4 -1.95 3.9 -0.65 3.9 -0.65 -0.4 M5.6 5.6 L5.6 3.1 4.35 3.1 4.35 5.6 5.6 5.6 M7.95 3.1 L6.7 3.1 6.7 5.6 7.95 5.6 7.95 3.1 M1.65 -0.4 L0.45 -0.4 0.45 3.9 1.65 3.9 1.65 -0.4 M0.05 -7.5 L4.35 -1.65 3.35 -1.65 3.35 1.6 6.3 -1.2 10.65 2.85 9.6 2.85 9.6 9.4 8.1 9.4 8.1 7.05 6.85 7.05 6.85 9.4 0.7 9.4 0.7 6.0 -0.55 6.0 -0.55 9.4 -4.15 9.4 -4.15 6.3 -6.15 6.3 -6.15 9.4 -7.85 9.4 -7.85 4.75 -8.9 4.75 -3.3 -0.25 -3.3 -1.65 -4.3 -1.65 -2.45 -4.15 -2.45 -8.85 -1.7 -8.85 -1.7 -5.2 0.05 -7.5" fill="#ffffff" fill-rule="evenodd" stroke="none"/>
    </g>
  </defs>
</svg>
