<?xml version="1.0" encoding="UTF-8" standalone="no"?>
<svg xmlns:xlink="http://www.w3.org/1999/xlink" height="21.45px" width="21.75px" xmlns="http://www.w3.org/2000/svg">
  <g transform="matrix(1.0, 0.0, 0.0, 1.0, 10.9, 10.55)">
    <use data-characterId="4" height="19.05" transform="matrix(1.0, 0.0, 0.0, 1.0, -9.7, -9.35)" width="19.35" xlink:href="#shape0"/>
  </g>
  <defs>
    <g id="shape0" transform="matrix(1.0, 0.0, 0.0, 1.0, 9.7, 9.35)">
      <path d="M3.55 -6.35 L4.65 -6.95 5.35 -8.1 6.15 -8.6 6.15 1.9 7.5 1.9 7.1 3.25 6.15 3.25 6.15 4.65 8.65 4.65 9.65 4.4 9.65 9.7 -9.7 9.7 -9.7 4.05 -9.1 3.65 -9.1 -2.45 -9.7 -2.85 -9.7 -7.1 -8.8 -7.1 -8.8 -9.35 -6.85 -8.25 -6.85 -7.1 -5.65 -7.1 -5.95 -6.2 -5.75 -5.55 -6.2 -5.55 -6.2 -2.6 -4.0 -2.6 -4.95 -1.95 -6.2 -1.95 -6.2 1.0 -4.95 1.0 -4.35 0.7 -4.0 1.0 -4.0 4.65 -2.8 4.65 -2.8 3.75 -1.75 3.75 -1.75 5.5 -0.85 5.5 -0.85 3.3 -1.25 3.3 -1.15 2.8 -0.85 2.8 -0.85 0.55 -0.95 0.55 -0.85 -0.2 -0.85 -3.85 -0.05 -3.85 -0.05 -1.05 0.8 -1.05 0.8 0.55 -0.05 0.55 -0.05 2.8 0.8 2.8 0.8 3.3 -0.05 3.3 -0.05 5.5 0.85 5.5 0.85 2.55 1.7 2.55 1.7 5.5 2.7 5.5 2.7 3.3 2.15 3.3 2.3 2.8 2.7 2.8 2.7 1.95 3.15 1.3 2.45 -1.05 3.55 -1.05 3.55 -6.35 M6.15 5.7 L6.15 7.15 8.65 7.15 8.65 5.7 6.15 5.7 M1.7 6.05 L1.7 8.25 2.7 8.25 2.7 6.05 1.7 6.05 M0.85 6.05 L-0.05 6.05 -0.05 8.25 0.85 8.25 0.85 6.05 M-7.1 -2.6 L-7.1 -5.55 -8.3 -5.55 -8.3 -2.6 -7.1 -2.6 M-8.3 5.35 L-8.3 8.25 -7.1 8.25 -7.1 5.35 -8.3 5.35 M-6.2 5.35 L-6.2 8.25 -4.95 8.25 -4.95 5.35 -6.2 5.35" fill="#ffffff" fill-rule="evenodd" stroke="none"/>
    </g>
  </defs>
</svg>
