<?xml version="1.0" encoding="UTF-8" standalone="no"?>
<svg xmlns:xlink="http://www.w3.org/1999/xlink" height="20.35px" width="21.3px" xmlns="http://www.w3.org/2000/svg">
  <g transform="matrix(1.0, 0.0, 0.0, 1.0, 10.5, 10.15)">
    <use data-characterId="14" height="18.0" transform="matrix(1.0, 0.0, 0.0, 1.0, -9.4, -9.0)" width="18.85" xlink:href="#shape0"/>
  </g>
  <defs>
    <g id="shape0" transform="matrix(1.0, 0.0, 0.0, 1.0, 9.4, 9.0)">
      <path d="M9.45 5.05 L2.85 5.05 1.1 -3.65 9.45 5.05 M-2.8 -9.0 L-0.8 -8.0 1.7 5.05 -0.7 5.05 -0.7 6.9 5.35 6.9 3.35 9.0 -7.3 9.0 -8.5 6.9 -5.15 6.9 -5.15 5.05 -9.4 5.05 -3.85 -6.4 -3.85 6.9 -1.9 6.9 -1.9 5.05 -2.8 5.05 -2.8 -9.0" fill="#ffffff" fill-rule="evenodd" stroke="none"/>
    </g>
  </defs>
</svg>
